M48
;GenerationSoftware,Autodesk,EAGLE,9.6.1*%
;CreationDate,2025-01-26T17:45:17Z*%
FMAT,2
ICI,OFF
METRIC,TZ,000.000
T6C0.250
T5C0.350
T4C0.889
T3C0.900
T2C1.016
T1C1.397
%
G90
M71
T1
X-7620Y20638
X-7620Y7302
X7620Y7302
X7620Y20638
T2
X14446Y14922
X-14446Y12382
X-14446Y14922
X-14446Y17463
T3
X-3175Y21590
X3175Y26670
X-3175Y26670
X3175Y21590
T4
X-10160Y11430
X2540Y3810
X0Y3810
X-2540Y3810
X-10160Y16510
X-10160Y13970
T5
X-6826Y17939
X4445Y17360
X-3810Y5556
X7302Y4286
X-11709Y13652
X6191Y23542
X-2699Y11271
X-2699Y13335
X-159Y6667
T6
X10363Y5630
X-10070Y8708
X1167Y2880
X-10062Y20877
X-9323Y26511
X3753Y7246
X-6985Y26567
X10319Y20638
X3321Y6039
X3810Y6544
X1059Y26829
X7937Y10534
M30