G04 EAGLE Gerber RS-274X export*
G75*
%MOMM*%
%FSLAX34Y34*%
%LPD*%
%INSilkscreen Bottom*%
%IPPOS*%
%AMOC8*
5,1,8,0,0,1.08239X$1,22.5*%
G01*
%ADD10C,0.152400*%
%ADD11C,0.101600*%
%ADD12C,0.254000*%
%ADD13C,0.076200*%
%ADD14C,0.150000*%
%ADD15C,0.304800*%
%ADD16C,0.050800*%

G36*
X-13771Y130494D02*
X-13771Y130494D01*
X-13769Y130493D01*
X-13726Y130513D01*
X-13682Y130532D01*
X-13682Y130534D01*
X-13680Y130535D01*
X-13647Y130620D01*
X-13647Y133160D01*
X-13648Y133162D01*
X-13647Y133164D01*
X-13667Y133207D01*
X-13685Y133250D01*
X-13687Y133251D01*
X-13688Y133253D01*
X-13773Y133286D01*
X-17583Y133286D01*
X-17585Y133285D01*
X-17587Y133286D01*
X-17630Y133266D01*
X-17674Y133247D01*
X-17674Y133245D01*
X-17676Y133244D01*
X-17709Y133160D01*
X-17709Y130620D01*
X-17708Y130618D01*
X-17709Y130615D01*
X-17689Y130572D01*
X-17671Y130529D01*
X-17669Y130528D01*
X-17668Y130526D01*
X-17583Y130493D01*
X-13773Y130493D01*
X-13771Y130494D01*
G37*
G36*
X-43305Y85956D02*
X-43305Y85956D01*
X-43303Y85955D01*
X-43260Y85975D01*
X-43216Y85994D01*
X-43216Y85996D01*
X-43214Y85997D01*
X-43181Y86082D01*
X-43181Y89892D01*
X-43182Y89894D01*
X-43181Y89896D01*
X-43201Y89939D01*
X-43219Y89982D01*
X-43221Y89983D01*
X-43222Y89985D01*
X-43307Y90018D01*
X-45847Y90018D01*
X-45849Y90017D01*
X-45851Y90018D01*
X-45894Y89998D01*
X-45938Y89979D01*
X-45938Y89977D01*
X-45940Y89976D01*
X-45973Y89892D01*
X-45973Y86082D01*
X-45972Y86080D01*
X-45973Y86077D01*
X-45953Y86034D01*
X-45935Y85991D01*
X-45933Y85990D01*
X-45932Y85988D01*
X-45847Y85955D01*
X-43307Y85955D01*
X-43305Y85956D01*
G37*
G36*
X39499Y70953D02*
X39499Y70953D01*
X39501Y70952D01*
X39544Y70972D01*
X39588Y70991D01*
X39588Y70993D01*
X39590Y70994D01*
X39623Y71079D01*
X39623Y74889D01*
X39622Y74891D01*
X39623Y74893D01*
X39603Y74936D01*
X39585Y74979D01*
X39583Y74980D01*
X39582Y74982D01*
X39497Y75015D01*
X36957Y75015D01*
X36955Y75014D01*
X36953Y75015D01*
X36910Y74995D01*
X36866Y74976D01*
X36866Y74974D01*
X36864Y74973D01*
X36831Y74889D01*
X36831Y71079D01*
X36832Y71077D01*
X36831Y71074D01*
X36851Y71031D01*
X36869Y70988D01*
X36871Y70987D01*
X36872Y70985D01*
X36957Y70952D01*
X39497Y70952D01*
X39499Y70953D01*
G37*
G36*
X-8770Y47690D02*
X-8770Y47690D01*
X-8768Y47689D01*
X-8725Y47709D01*
X-8681Y47728D01*
X-8681Y47730D01*
X-8679Y47731D01*
X-8646Y47816D01*
X-8646Y50356D01*
X-8647Y50358D01*
X-8646Y50360D01*
X-8666Y50403D01*
X-8684Y50446D01*
X-8686Y50447D01*
X-8687Y50449D01*
X-8772Y50482D01*
X-12582Y50482D01*
X-12584Y50481D01*
X-12586Y50482D01*
X-12629Y50462D01*
X-12673Y50443D01*
X-12673Y50441D01*
X-12675Y50440D01*
X-12708Y50356D01*
X-12708Y47816D01*
X-12707Y47814D01*
X-12708Y47811D01*
X-12688Y47768D01*
X-12670Y47725D01*
X-12668Y47724D01*
X-12667Y47722D01*
X-12582Y47689D01*
X-8772Y47689D01*
X-8770Y47690D01*
G37*
D10*
X101691Y235395D02*
X101691Y251651D01*
X101691Y244426D02*
X92660Y244426D01*
X92660Y251651D02*
X92660Y235395D01*
X85539Y248038D02*
X81024Y251651D01*
X81024Y235395D01*
X85539Y235395D02*
X76508Y235395D01*
X69908Y243523D02*
X69904Y243843D01*
X69893Y244162D01*
X69874Y244482D01*
X69847Y244800D01*
X69813Y245118D01*
X69771Y245435D01*
X69721Y245751D01*
X69664Y246066D01*
X69600Y246379D01*
X69528Y246691D01*
X69449Y247001D01*
X69362Y247308D01*
X69268Y247614D01*
X69167Y247917D01*
X69058Y248218D01*
X68943Y248516D01*
X68820Y248812D01*
X68690Y249104D01*
X68553Y249393D01*
X68514Y249501D01*
X68471Y249608D01*
X68425Y249713D01*
X68374Y249817D01*
X68321Y249919D01*
X68264Y250019D01*
X68203Y250117D01*
X68139Y250212D01*
X68072Y250306D01*
X68001Y250397D01*
X67928Y250486D01*
X67851Y250572D01*
X67772Y250655D01*
X67690Y250736D01*
X67605Y250814D01*
X67517Y250888D01*
X67427Y250960D01*
X67335Y251028D01*
X67240Y251094D01*
X67143Y251156D01*
X67044Y251214D01*
X66942Y251270D01*
X66840Y251321D01*
X66735Y251369D01*
X66629Y251414D01*
X66521Y251455D01*
X66412Y251492D01*
X66302Y251525D01*
X66190Y251554D01*
X66078Y251580D01*
X65965Y251602D01*
X65851Y251619D01*
X65737Y251633D01*
X65622Y251643D01*
X65507Y251649D01*
X65392Y251651D01*
X65277Y251649D01*
X65162Y251643D01*
X65047Y251633D01*
X64933Y251619D01*
X64819Y251602D01*
X64706Y251580D01*
X64594Y251554D01*
X64482Y251525D01*
X64372Y251492D01*
X64263Y251455D01*
X64155Y251414D01*
X64049Y251369D01*
X63945Y251321D01*
X63842Y251270D01*
X63741Y251214D01*
X63641Y251156D01*
X63544Y251094D01*
X63450Y251029D01*
X63357Y250960D01*
X63267Y250888D01*
X63179Y250814D01*
X63094Y250736D01*
X63012Y250655D01*
X62933Y250572D01*
X62856Y250486D01*
X62783Y250397D01*
X62712Y250306D01*
X62645Y250212D01*
X62581Y250117D01*
X62520Y250019D01*
X62463Y249919D01*
X62410Y249817D01*
X62359Y249713D01*
X62313Y249608D01*
X62270Y249501D01*
X62231Y249393D01*
X62232Y249393D02*
X62095Y249104D01*
X61965Y248812D01*
X61842Y248516D01*
X61727Y248218D01*
X61618Y247917D01*
X61517Y247614D01*
X61423Y247308D01*
X61336Y247001D01*
X61257Y246691D01*
X61185Y246379D01*
X61121Y246066D01*
X61064Y245751D01*
X61014Y245435D01*
X60972Y245118D01*
X60938Y244800D01*
X60911Y244482D01*
X60892Y244162D01*
X60881Y243843D01*
X60877Y243523D01*
X69907Y243523D02*
X69903Y243203D01*
X69892Y242884D01*
X69873Y242564D01*
X69846Y242246D01*
X69812Y241928D01*
X69770Y241611D01*
X69720Y241295D01*
X69663Y240980D01*
X69599Y240667D01*
X69527Y240355D01*
X69448Y240045D01*
X69361Y239738D01*
X69267Y239432D01*
X69166Y239129D01*
X69057Y238828D01*
X68942Y238530D01*
X68819Y238234D01*
X68689Y237942D01*
X68552Y237653D01*
X68553Y237652D02*
X68514Y237544D01*
X68471Y237437D01*
X68425Y237332D01*
X68374Y237228D01*
X68321Y237126D01*
X68264Y237026D01*
X68203Y236928D01*
X68139Y236833D01*
X68072Y236739D01*
X68001Y236648D01*
X67928Y236559D01*
X67851Y236473D01*
X67772Y236390D01*
X67690Y236309D01*
X67605Y236231D01*
X67517Y236157D01*
X67427Y236085D01*
X67334Y236016D01*
X67240Y235951D01*
X67143Y235889D01*
X67043Y235831D01*
X66942Y235775D01*
X66840Y235724D01*
X66735Y235676D01*
X66629Y235631D01*
X66521Y235590D01*
X66412Y235553D01*
X66302Y235520D01*
X66190Y235491D01*
X66078Y235465D01*
X65965Y235443D01*
X65851Y235426D01*
X65737Y235412D01*
X65622Y235402D01*
X65507Y235396D01*
X65392Y235394D01*
X62232Y237653D02*
X62095Y237942D01*
X61965Y238234D01*
X61842Y238530D01*
X61727Y238828D01*
X61618Y239129D01*
X61517Y239432D01*
X61423Y239738D01*
X61336Y240045D01*
X61257Y240355D01*
X61185Y240667D01*
X61121Y240980D01*
X61064Y241295D01*
X61014Y241611D01*
X60972Y241928D01*
X60938Y242246D01*
X60911Y242564D01*
X60892Y242884D01*
X60881Y243203D01*
X60877Y243523D01*
X62231Y237652D02*
X62270Y237544D01*
X62313Y237437D01*
X62359Y237332D01*
X62410Y237228D01*
X62463Y237126D01*
X62521Y237026D01*
X62581Y236928D01*
X62645Y236833D01*
X62712Y236739D01*
X62783Y236648D01*
X62856Y236559D01*
X62933Y236473D01*
X63012Y236390D01*
X63094Y236309D01*
X63179Y236231D01*
X63267Y236157D01*
X63357Y236085D01*
X63450Y236016D01*
X63544Y235951D01*
X63641Y235889D01*
X63741Y235831D01*
X63842Y235775D01*
X63945Y235724D01*
X64049Y235676D01*
X64155Y235631D01*
X64263Y235590D01*
X64372Y235553D01*
X64482Y235520D01*
X64594Y235491D01*
X64706Y235465D01*
X64819Y235443D01*
X64933Y235426D01*
X65047Y235412D01*
X65162Y235402D01*
X65277Y235396D01*
X65392Y235394D01*
X69005Y239007D02*
X61780Y248038D01*
X53664Y251651D02*
X53664Y235395D01*
X53664Y251651D02*
X49148Y251651D01*
X49015Y251649D01*
X48883Y251643D01*
X48751Y251633D01*
X48619Y251620D01*
X48487Y251602D01*
X48357Y251581D01*
X48226Y251556D01*
X48097Y251527D01*
X47969Y251494D01*
X47841Y251458D01*
X47715Y251418D01*
X47590Y251374D01*
X47466Y251326D01*
X47344Y251275D01*
X47223Y251220D01*
X47104Y251162D01*
X46986Y251100D01*
X46871Y251035D01*
X46757Y250966D01*
X46646Y250895D01*
X46537Y250819D01*
X46430Y250741D01*
X46325Y250660D01*
X46223Y250575D01*
X46123Y250488D01*
X46026Y250398D01*
X45931Y250305D01*
X45840Y250209D01*
X45751Y250111D01*
X45665Y250010D01*
X45582Y249906D01*
X45502Y249800D01*
X45426Y249692D01*
X45352Y249582D01*
X45282Y249469D01*
X45215Y249355D01*
X45152Y249238D01*
X45092Y249120D01*
X45035Y249000D01*
X44982Y248878D01*
X44933Y248755D01*
X44887Y248631D01*
X44845Y248505D01*
X44807Y248378D01*
X44772Y248250D01*
X44741Y248121D01*
X44714Y247992D01*
X44691Y247861D01*
X44671Y247730D01*
X44656Y247598D01*
X44644Y247466D01*
X44636Y247334D01*
X44632Y247201D01*
X44632Y247069D01*
X44636Y246936D01*
X44644Y246804D01*
X44656Y246672D01*
X44671Y246540D01*
X44691Y246409D01*
X44714Y246278D01*
X44741Y246149D01*
X44772Y246020D01*
X44807Y245892D01*
X44845Y245765D01*
X44887Y245639D01*
X44933Y245515D01*
X44982Y245392D01*
X45035Y245270D01*
X45092Y245150D01*
X45152Y245032D01*
X45215Y244915D01*
X45282Y244801D01*
X45352Y244688D01*
X45426Y244578D01*
X45502Y244470D01*
X45582Y244364D01*
X45665Y244260D01*
X45751Y244159D01*
X45840Y244061D01*
X45931Y243965D01*
X46026Y243872D01*
X46123Y243782D01*
X46223Y243695D01*
X46325Y243610D01*
X46430Y243529D01*
X46537Y243451D01*
X46646Y243375D01*
X46757Y243304D01*
X46871Y243235D01*
X46986Y243170D01*
X47104Y243108D01*
X47223Y243050D01*
X47344Y242995D01*
X47466Y242944D01*
X47590Y242896D01*
X47715Y242852D01*
X47841Y242812D01*
X47969Y242776D01*
X48097Y242743D01*
X48226Y242714D01*
X48357Y242689D01*
X48487Y242668D01*
X48619Y242650D01*
X48751Y242637D01*
X48883Y242627D01*
X49015Y242621D01*
X49148Y242619D01*
X53664Y242619D01*
X48245Y242619D02*
X44633Y235395D01*
X38124Y239007D02*
X34512Y251651D01*
X38124Y239007D02*
X29093Y239007D01*
X31803Y242619D02*
X31803Y235395D01*
X22493Y248038D02*
X17978Y251651D01*
X17978Y235395D01*
X22493Y235395D02*
X13462Y235395D01*
X142282Y138876D02*
X157680Y129986D01*
X142282Y138876D02*
X139812Y134599D01*
X139813Y134599D02*
X139745Y134476D01*
X139680Y134353D01*
X139619Y134227D01*
X139561Y134099D01*
X139507Y133971D01*
X139457Y133840D01*
X139410Y133708D01*
X139367Y133575D01*
X139328Y133441D01*
X139293Y133306D01*
X139262Y133170D01*
X139234Y133032D01*
X139211Y132895D01*
X139191Y132756D01*
X139175Y132617D01*
X139163Y132478D01*
X139155Y132339D01*
X139151Y132199D01*
X139151Y132059D01*
X139155Y131919D01*
X139163Y131780D01*
X139175Y131641D01*
X139191Y131502D01*
X139211Y131363D01*
X139234Y131226D01*
X139262Y131088D01*
X139293Y130952D01*
X139328Y130817D01*
X139367Y130683D01*
X139410Y130550D01*
X139457Y130418D01*
X139507Y130287D01*
X139561Y130159D01*
X139619Y130031D01*
X139680Y129905D01*
X139745Y129782D01*
X139813Y129659D01*
X139884Y129539D01*
X139959Y129421D01*
X140038Y129306D01*
X140119Y129192D01*
X140204Y129081D01*
X140292Y128972D01*
X140382Y128866D01*
X140476Y128762D01*
X140573Y128661D01*
X140673Y128563D01*
X140775Y128468D01*
X140880Y128376D01*
X140987Y128286D01*
X141097Y128200D01*
X141210Y128117D01*
X141324Y128037D01*
X141441Y127960D01*
X141560Y127887D01*
X141681Y127817D01*
X141804Y127751D01*
X141929Y127688D01*
X142056Y127628D01*
X142184Y127573D01*
X142314Y127521D01*
X142445Y127472D01*
X142577Y127427D01*
X142711Y127386D01*
X142845Y127349D01*
X142981Y127316D01*
X143118Y127287D01*
X143255Y127261D01*
X143393Y127239D01*
X143532Y127222D01*
X143671Y127208D01*
X143811Y127198D01*
X143950Y127192D01*
X144090Y127190D01*
X144230Y127192D01*
X144369Y127198D01*
X144509Y127208D01*
X144648Y127222D01*
X144787Y127239D01*
X144925Y127261D01*
X145062Y127287D01*
X145199Y127316D01*
X145335Y127349D01*
X145469Y127387D01*
X145603Y127427D01*
X145735Y127472D01*
X145867Y127521D01*
X145996Y127573D01*
X146124Y127628D01*
X146251Y127688D01*
X146376Y127751D01*
X146499Y127817D01*
X146620Y127887D01*
X146739Y127960D01*
X146856Y128037D01*
X146970Y128117D01*
X147083Y128200D01*
X147193Y128286D01*
X147300Y128376D01*
X147405Y128468D01*
X147507Y128563D01*
X147607Y128661D01*
X147704Y128762D01*
X147798Y128866D01*
X147888Y128972D01*
X147976Y129081D01*
X148061Y129192D01*
X148142Y129306D01*
X148221Y129421D01*
X148296Y129539D01*
X148367Y129660D01*
X150836Y133937D01*
X131568Y120320D02*
X131503Y120204D01*
X131443Y120088D01*
X131385Y119969D01*
X131332Y119849D01*
X131282Y119727D01*
X131235Y119604D01*
X131192Y119479D01*
X131153Y119353D01*
X131118Y119226D01*
X131086Y119098D01*
X131058Y118970D01*
X131035Y118840D01*
X131014Y118710D01*
X130998Y118579D01*
X130986Y118448D01*
X130977Y118317D01*
X130973Y118185D01*
X130972Y118053D01*
X130975Y117921D01*
X130983Y117790D01*
X130994Y117659D01*
X131009Y117528D01*
X131027Y117397D01*
X131050Y117268D01*
X131077Y117139D01*
X131107Y117010D01*
X131141Y116883D01*
X131179Y116757D01*
X131220Y116632D01*
X131266Y116508D01*
X131315Y116386D01*
X131367Y116265D01*
X131423Y116146D01*
X131483Y116028D01*
X131546Y115913D01*
X131612Y115799D01*
X131682Y115687D01*
X131755Y115578D01*
X131831Y115470D01*
X131911Y115365D01*
X131993Y115262D01*
X132079Y115162D01*
X132167Y115064D01*
X132258Y114969D01*
X132352Y114877D01*
X132449Y114788D01*
X132549Y114701D01*
X132651Y114618D01*
X132755Y114537D01*
X132861Y114460D01*
X132970Y114386D01*
X133081Y114315D01*
X133195Y114248D01*
X131568Y120320D02*
X131645Y120448D01*
X131725Y120575D01*
X131808Y120699D01*
X131894Y120821D01*
X131984Y120941D01*
X132076Y121059D01*
X132172Y121174D01*
X132271Y121286D01*
X132372Y121396D01*
X132477Y121503D01*
X132584Y121608D01*
X132694Y121709D01*
X132806Y121808D01*
X132921Y121903D01*
X133039Y121996D01*
X133159Y122085D01*
X133281Y122172D01*
X133405Y122255D01*
X133532Y122335D01*
X133661Y122411D01*
X133791Y122484D01*
X133924Y122554D01*
X134058Y122620D01*
X134194Y122682D01*
X134331Y122741D01*
X134470Y122797D01*
X134611Y122848D01*
X134752Y122896D01*
X134895Y122941D01*
X135039Y122981D01*
X135184Y123018D01*
X135330Y123051D01*
X135477Y123080D01*
X135624Y123105D01*
X135773Y123127D01*
X135921Y123144D01*
X136070Y123158D01*
X136219Y123167D01*
X136369Y123173D01*
X136519Y123175D01*
X136668Y123173D01*
X136818Y123167D01*
X136967Y123157D01*
X137116Y123143D01*
X137264Y123125D01*
X137413Y123104D01*
X137560Y123078D01*
X137707Y123049D01*
X136930Y113802D02*
X136801Y113766D01*
X136672Y113734D01*
X136542Y113705D01*
X136411Y113680D01*
X136279Y113659D01*
X136147Y113642D01*
X136014Y113628D01*
X135882Y113617D01*
X135748Y113611D01*
X135615Y113608D01*
X135482Y113609D01*
X135349Y113614D01*
X135216Y113622D01*
X135083Y113634D01*
X134950Y113650D01*
X134819Y113669D01*
X134687Y113693D01*
X134557Y113719D01*
X134427Y113750D01*
X134298Y113784D01*
X134170Y113822D01*
X134043Y113863D01*
X133918Y113907D01*
X133794Y113956D01*
X133671Y114007D01*
X133549Y114062D01*
X133429Y114121D01*
X133311Y114183D01*
X133195Y114248D01*
X136930Y113802D02*
X149682Y116134D01*
X144743Y107580D01*
X132570Y100324D02*
X127438Y103287D01*
X132570Y100324D02*
X134691Y95108D01*
X132570Y100324D02*
X138149Y101096D01*
X132570Y100324D02*
X128143Y96607D01*
X132570Y100324D02*
X133576Y106017D01*
X-90610Y79584D02*
X-106008Y70694D01*
X-90610Y79584D02*
X-93080Y83861D01*
X-93080Y83862D02*
X-93151Y83982D01*
X-93226Y84100D01*
X-93305Y84215D01*
X-93386Y84329D01*
X-93471Y84440D01*
X-93559Y84549D01*
X-93649Y84655D01*
X-93743Y84759D01*
X-93840Y84860D01*
X-93940Y84958D01*
X-94042Y85053D01*
X-94147Y85145D01*
X-94254Y85235D01*
X-94364Y85321D01*
X-94477Y85404D01*
X-94591Y85484D01*
X-94708Y85561D01*
X-94827Y85634D01*
X-94948Y85704D01*
X-95071Y85770D01*
X-95196Y85833D01*
X-95323Y85893D01*
X-95451Y85948D01*
X-95581Y86000D01*
X-95712Y86049D01*
X-95844Y86094D01*
X-95978Y86135D01*
X-96112Y86172D01*
X-96248Y86205D01*
X-96385Y86234D01*
X-96522Y86260D01*
X-96660Y86282D01*
X-96799Y86299D01*
X-96938Y86313D01*
X-97078Y86323D01*
X-97217Y86329D01*
X-97357Y86331D01*
X-97497Y86329D01*
X-97636Y86323D01*
X-97776Y86313D01*
X-97915Y86299D01*
X-98054Y86282D01*
X-98192Y86260D01*
X-98329Y86234D01*
X-98466Y86205D01*
X-98602Y86172D01*
X-98736Y86134D01*
X-98870Y86094D01*
X-99002Y86049D01*
X-99134Y86000D01*
X-99263Y85948D01*
X-99391Y85893D01*
X-99518Y85833D01*
X-99643Y85770D01*
X-99766Y85704D01*
X-99887Y85634D01*
X-100006Y85561D01*
X-100123Y85484D01*
X-100237Y85404D01*
X-100350Y85321D01*
X-100460Y85235D01*
X-100567Y85145D01*
X-100672Y85053D01*
X-100774Y84958D01*
X-100874Y84860D01*
X-100971Y84759D01*
X-101065Y84655D01*
X-101155Y84549D01*
X-101243Y84440D01*
X-101328Y84329D01*
X-101409Y84215D01*
X-101488Y84100D01*
X-101563Y83982D01*
X-101634Y83861D01*
X-101702Y83739D01*
X-101767Y83616D01*
X-101828Y83490D01*
X-101886Y83362D01*
X-101940Y83234D01*
X-101990Y83103D01*
X-102037Y82971D01*
X-102080Y82838D01*
X-102119Y82704D01*
X-102154Y82569D01*
X-102185Y82433D01*
X-102213Y82295D01*
X-102236Y82158D01*
X-102256Y82019D01*
X-102272Y81880D01*
X-102284Y81741D01*
X-102292Y81602D01*
X-102296Y81462D01*
X-102296Y81322D01*
X-102292Y81182D01*
X-102284Y81043D01*
X-102272Y80904D01*
X-102256Y80765D01*
X-102236Y80626D01*
X-102213Y80488D01*
X-102185Y80351D01*
X-102154Y80215D01*
X-102119Y80080D01*
X-102080Y79946D01*
X-102037Y79813D01*
X-101990Y79681D01*
X-101940Y79550D01*
X-101886Y79421D01*
X-101828Y79294D01*
X-101767Y79168D01*
X-101702Y79045D01*
X-101634Y78922D01*
X-99165Y74645D01*
X-110584Y86522D02*
X-100584Y96858D01*
X-110584Y86522D02*
X-115523Y95076D01*
X-110620Y94485D02*
X-117463Y90534D01*
X-119142Y107270D02*
X-114009Y110234D01*
X-119142Y107270D02*
X-124720Y108042D01*
X-119142Y107270D02*
X-121263Y102054D01*
X-119142Y107270D02*
X-120147Y112963D01*
X-119142Y107270D02*
X-114714Y103553D01*
X-102951Y186373D02*
X-102951Y204153D01*
X-107890Y204153D01*
X-108030Y204151D01*
X-108169Y204145D01*
X-108309Y204135D01*
X-108448Y204121D01*
X-108587Y204104D01*
X-108725Y204082D01*
X-108862Y204056D01*
X-108999Y204027D01*
X-109135Y203994D01*
X-109269Y203957D01*
X-109403Y203916D01*
X-109535Y203871D01*
X-109667Y203822D01*
X-109796Y203770D01*
X-109924Y203715D01*
X-110051Y203655D01*
X-110176Y203592D01*
X-110299Y203526D01*
X-110420Y203456D01*
X-110539Y203383D01*
X-110656Y203306D01*
X-110770Y203226D01*
X-110883Y203143D01*
X-110993Y203057D01*
X-111100Y202967D01*
X-111205Y202875D01*
X-111307Y202780D01*
X-111407Y202682D01*
X-111504Y202581D01*
X-111598Y202477D01*
X-111688Y202371D01*
X-111776Y202262D01*
X-111861Y202151D01*
X-111942Y202037D01*
X-112021Y201922D01*
X-112096Y201804D01*
X-112167Y201684D01*
X-112235Y201561D01*
X-112300Y201438D01*
X-112361Y201312D01*
X-112419Y201184D01*
X-112473Y201056D01*
X-112523Y200925D01*
X-112570Y200793D01*
X-112613Y200660D01*
X-112652Y200526D01*
X-112687Y200391D01*
X-112718Y200255D01*
X-112746Y200117D01*
X-112769Y199980D01*
X-112789Y199841D01*
X-112805Y199702D01*
X-112817Y199563D01*
X-112825Y199424D01*
X-112829Y199284D01*
X-112829Y199144D01*
X-112825Y199004D01*
X-112817Y198865D01*
X-112805Y198726D01*
X-112789Y198587D01*
X-112769Y198448D01*
X-112746Y198311D01*
X-112718Y198173D01*
X-112687Y198037D01*
X-112652Y197902D01*
X-112613Y197768D01*
X-112570Y197635D01*
X-112523Y197503D01*
X-112473Y197372D01*
X-112419Y197244D01*
X-112361Y197116D01*
X-112300Y196990D01*
X-112235Y196867D01*
X-112167Y196744D01*
X-112096Y196624D01*
X-112021Y196506D01*
X-111942Y196391D01*
X-111861Y196277D01*
X-111776Y196166D01*
X-111688Y196057D01*
X-111598Y195951D01*
X-111504Y195847D01*
X-111407Y195746D01*
X-111307Y195648D01*
X-111205Y195553D01*
X-111100Y195461D01*
X-110993Y195371D01*
X-110883Y195285D01*
X-110770Y195202D01*
X-110656Y195122D01*
X-110539Y195045D01*
X-110420Y194972D01*
X-110299Y194902D01*
X-110176Y194836D01*
X-110051Y194773D01*
X-109924Y194713D01*
X-109796Y194658D01*
X-109667Y194606D01*
X-109535Y194557D01*
X-109403Y194512D01*
X-109269Y194471D01*
X-109135Y194434D01*
X-108999Y194401D01*
X-108862Y194372D01*
X-108725Y194346D01*
X-108587Y194324D01*
X-108448Y194307D01*
X-108309Y194293D01*
X-108169Y194283D01*
X-108030Y194277D01*
X-107890Y194275D01*
X-102951Y194275D01*
X-118946Y186373D02*
X-124873Y186373D01*
X-124997Y186375D01*
X-125121Y186381D01*
X-125245Y186391D01*
X-125368Y186404D01*
X-125491Y186422D01*
X-125613Y186443D01*
X-125735Y186468D01*
X-125856Y186497D01*
X-125975Y186530D01*
X-126094Y186566D01*
X-126211Y186607D01*
X-126327Y186650D01*
X-126442Y186698D01*
X-126555Y186749D01*
X-126667Y186804D01*
X-126776Y186862D01*
X-126884Y186923D01*
X-126990Y186988D01*
X-127094Y187056D01*
X-127195Y187128D01*
X-127295Y187202D01*
X-127391Y187280D01*
X-127486Y187360D01*
X-127578Y187444D01*
X-127667Y187530D01*
X-127753Y187619D01*
X-127837Y187711D01*
X-127917Y187806D01*
X-127995Y187902D01*
X-128069Y188002D01*
X-128141Y188103D01*
X-128209Y188207D01*
X-128274Y188313D01*
X-128335Y188421D01*
X-128393Y188530D01*
X-128448Y188642D01*
X-128499Y188755D01*
X-128547Y188870D01*
X-128590Y188986D01*
X-128631Y189103D01*
X-128667Y189222D01*
X-128700Y189341D01*
X-128729Y189462D01*
X-128754Y189584D01*
X-128775Y189706D01*
X-128793Y189829D01*
X-128806Y189952D01*
X-128816Y190076D01*
X-128822Y190200D01*
X-128824Y190324D01*
X-128824Y192299D01*
X-128822Y192423D01*
X-128816Y192547D01*
X-128806Y192671D01*
X-128793Y192794D01*
X-128775Y192917D01*
X-128754Y193039D01*
X-128729Y193161D01*
X-128700Y193282D01*
X-128667Y193401D01*
X-128631Y193520D01*
X-128590Y193637D01*
X-128547Y193753D01*
X-128499Y193868D01*
X-128448Y193981D01*
X-128393Y194093D01*
X-128335Y194202D01*
X-128274Y194310D01*
X-128209Y194416D01*
X-128141Y194520D01*
X-128069Y194621D01*
X-127995Y194721D01*
X-127917Y194817D01*
X-127837Y194912D01*
X-127753Y195004D01*
X-127667Y195093D01*
X-127578Y195179D01*
X-127486Y195263D01*
X-127391Y195343D01*
X-127295Y195421D01*
X-127195Y195495D01*
X-127094Y195567D01*
X-126990Y195635D01*
X-126884Y195700D01*
X-126776Y195761D01*
X-126667Y195819D01*
X-126555Y195874D01*
X-126442Y195925D01*
X-126327Y195973D01*
X-126211Y196016D01*
X-126094Y196057D01*
X-125975Y196093D01*
X-125856Y196126D01*
X-125735Y196155D01*
X-125613Y196180D01*
X-125491Y196201D01*
X-125368Y196219D01*
X-125245Y196232D01*
X-125121Y196242D01*
X-124997Y196248D01*
X-124873Y196250D01*
X-118946Y196250D01*
X-118946Y204153D01*
X-128824Y204153D01*
X125649Y204153D02*
X125649Y186373D01*
X125649Y204153D02*
X120710Y204153D01*
X120570Y204151D01*
X120431Y204145D01*
X120291Y204135D01*
X120152Y204121D01*
X120013Y204104D01*
X119875Y204082D01*
X119738Y204056D01*
X119601Y204027D01*
X119465Y203994D01*
X119331Y203957D01*
X119197Y203916D01*
X119065Y203871D01*
X118933Y203822D01*
X118804Y203770D01*
X118676Y203715D01*
X118549Y203655D01*
X118424Y203592D01*
X118301Y203526D01*
X118180Y203456D01*
X118061Y203383D01*
X117944Y203306D01*
X117830Y203226D01*
X117717Y203143D01*
X117607Y203057D01*
X117500Y202967D01*
X117395Y202875D01*
X117293Y202780D01*
X117193Y202682D01*
X117096Y202581D01*
X117002Y202477D01*
X116912Y202371D01*
X116824Y202262D01*
X116739Y202151D01*
X116658Y202037D01*
X116579Y201922D01*
X116504Y201804D01*
X116433Y201684D01*
X116365Y201561D01*
X116300Y201438D01*
X116239Y201312D01*
X116181Y201184D01*
X116127Y201056D01*
X116077Y200925D01*
X116030Y200793D01*
X115987Y200660D01*
X115948Y200526D01*
X115913Y200391D01*
X115882Y200255D01*
X115854Y200117D01*
X115831Y199980D01*
X115811Y199841D01*
X115795Y199702D01*
X115783Y199563D01*
X115775Y199424D01*
X115771Y199284D01*
X115771Y199144D01*
X115775Y199004D01*
X115783Y198865D01*
X115795Y198726D01*
X115811Y198587D01*
X115831Y198448D01*
X115854Y198311D01*
X115882Y198173D01*
X115913Y198037D01*
X115948Y197902D01*
X115987Y197768D01*
X116030Y197635D01*
X116077Y197503D01*
X116127Y197372D01*
X116181Y197244D01*
X116239Y197116D01*
X116300Y196990D01*
X116365Y196867D01*
X116433Y196744D01*
X116504Y196624D01*
X116579Y196506D01*
X116658Y196391D01*
X116739Y196277D01*
X116824Y196166D01*
X116912Y196057D01*
X117002Y195951D01*
X117096Y195847D01*
X117193Y195746D01*
X117293Y195648D01*
X117395Y195553D01*
X117500Y195461D01*
X117607Y195371D01*
X117717Y195285D01*
X117830Y195202D01*
X117944Y195122D01*
X118061Y195045D01*
X118180Y194972D01*
X118301Y194902D01*
X118424Y194836D01*
X118549Y194773D01*
X118676Y194713D01*
X118804Y194658D01*
X118933Y194606D01*
X119065Y194557D01*
X119197Y194512D01*
X119331Y194471D01*
X119465Y194434D01*
X119601Y194401D01*
X119738Y194372D01*
X119875Y194346D01*
X120013Y194324D01*
X120152Y194307D01*
X120291Y194293D01*
X120431Y194283D01*
X120570Y194277D01*
X120710Y194275D01*
X125649Y194275D01*
X109654Y200201D02*
X104715Y204153D01*
X104715Y186373D01*
X109654Y186373D02*
X99776Y186373D01*
D11*
X30381Y129110D02*
X30381Y124707D01*
X27813Y121405D01*
X30381Y124707D02*
X32949Y121405D01*
X30381Y124707D02*
X26345Y126175D01*
X30381Y124707D02*
X34417Y126175D01*
D10*
X-20401Y278448D02*
X-20401Y296228D01*
X-25340Y296228D01*
X-25480Y296226D01*
X-25619Y296220D01*
X-25759Y296210D01*
X-25898Y296196D01*
X-26037Y296179D01*
X-26175Y296157D01*
X-26312Y296131D01*
X-26449Y296102D01*
X-26585Y296069D01*
X-26719Y296032D01*
X-26853Y295991D01*
X-26985Y295946D01*
X-27117Y295897D01*
X-27246Y295845D01*
X-27374Y295790D01*
X-27501Y295730D01*
X-27626Y295667D01*
X-27749Y295601D01*
X-27870Y295531D01*
X-27989Y295458D01*
X-28106Y295381D01*
X-28220Y295301D01*
X-28333Y295218D01*
X-28443Y295132D01*
X-28550Y295042D01*
X-28655Y294950D01*
X-28757Y294855D01*
X-28857Y294757D01*
X-28954Y294656D01*
X-29048Y294552D01*
X-29138Y294446D01*
X-29226Y294337D01*
X-29311Y294226D01*
X-29392Y294112D01*
X-29471Y293997D01*
X-29546Y293879D01*
X-29617Y293759D01*
X-29685Y293636D01*
X-29750Y293513D01*
X-29811Y293387D01*
X-29869Y293259D01*
X-29923Y293131D01*
X-29973Y293000D01*
X-30020Y292868D01*
X-30063Y292735D01*
X-30102Y292601D01*
X-30137Y292466D01*
X-30168Y292330D01*
X-30196Y292192D01*
X-30219Y292055D01*
X-30239Y291916D01*
X-30255Y291777D01*
X-30267Y291638D01*
X-30275Y291499D01*
X-30279Y291359D01*
X-30279Y291219D01*
X-30275Y291079D01*
X-30267Y290940D01*
X-30255Y290801D01*
X-30239Y290662D01*
X-30219Y290523D01*
X-30196Y290386D01*
X-30168Y290248D01*
X-30137Y290112D01*
X-30102Y289977D01*
X-30063Y289843D01*
X-30020Y289710D01*
X-29973Y289578D01*
X-29923Y289447D01*
X-29869Y289319D01*
X-29811Y289191D01*
X-29750Y289065D01*
X-29685Y288942D01*
X-29617Y288820D01*
X-29546Y288699D01*
X-29471Y288581D01*
X-29392Y288466D01*
X-29311Y288352D01*
X-29226Y288241D01*
X-29138Y288132D01*
X-29048Y288026D01*
X-28954Y287922D01*
X-28857Y287821D01*
X-28757Y287723D01*
X-28655Y287628D01*
X-28550Y287536D01*
X-28443Y287446D01*
X-28333Y287360D01*
X-28220Y287277D01*
X-28106Y287197D01*
X-27989Y287120D01*
X-27870Y287047D01*
X-27749Y286977D01*
X-27626Y286911D01*
X-27501Y286848D01*
X-27374Y286788D01*
X-27246Y286733D01*
X-27117Y286681D01*
X-26985Y286632D01*
X-26853Y286587D01*
X-26719Y286546D01*
X-26585Y286509D01*
X-26449Y286476D01*
X-26312Y286447D01*
X-26175Y286421D01*
X-26037Y286399D01*
X-25898Y286382D01*
X-25759Y286368D01*
X-25619Y286358D01*
X-25480Y286352D01*
X-25340Y286350D01*
X-20401Y286350D01*
X-36396Y288325D02*
X-42323Y288325D01*
X-42447Y288323D01*
X-42571Y288317D01*
X-42695Y288307D01*
X-42818Y288294D01*
X-42941Y288276D01*
X-43063Y288255D01*
X-43185Y288230D01*
X-43306Y288201D01*
X-43425Y288168D01*
X-43544Y288132D01*
X-43661Y288091D01*
X-43777Y288048D01*
X-43892Y288000D01*
X-44005Y287949D01*
X-44117Y287894D01*
X-44226Y287836D01*
X-44334Y287775D01*
X-44440Y287710D01*
X-44544Y287642D01*
X-44645Y287570D01*
X-44745Y287496D01*
X-44841Y287418D01*
X-44936Y287338D01*
X-45028Y287254D01*
X-45117Y287168D01*
X-45203Y287079D01*
X-45287Y286987D01*
X-45367Y286892D01*
X-45445Y286796D01*
X-45519Y286696D01*
X-45591Y286595D01*
X-45659Y286491D01*
X-45724Y286385D01*
X-45785Y286277D01*
X-45843Y286168D01*
X-45898Y286056D01*
X-45949Y285943D01*
X-45997Y285828D01*
X-46040Y285712D01*
X-46081Y285595D01*
X-46117Y285476D01*
X-46150Y285357D01*
X-46179Y285236D01*
X-46204Y285114D01*
X-46225Y284992D01*
X-46243Y284869D01*
X-46256Y284746D01*
X-46266Y284622D01*
X-46272Y284498D01*
X-46274Y284374D01*
X-46274Y283386D01*
X-46272Y283246D01*
X-46266Y283107D01*
X-46256Y282967D01*
X-46242Y282828D01*
X-46225Y282689D01*
X-46203Y282551D01*
X-46177Y282414D01*
X-46148Y282277D01*
X-46115Y282141D01*
X-46078Y282007D01*
X-46037Y281873D01*
X-45992Y281741D01*
X-45943Y281609D01*
X-45891Y281480D01*
X-45836Y281352D01*
X-45776Y281225D01*
X-45713Y281100D01*
X-45647Y280977D01*
X-45577Y280856D01*
X-45504Y280737D01*
X-45427Y280620D01*
X-45347Y280506D01*
X-45264Y280393D01*
X-45178Y280283D01*
X-45088Y280176D01*
X-44996Y280071D01*
X-44901Y279969D01*
X-44803Y279869D01*
X-44702Y279772D01*
X-44598Y279678D01*
X-44492Y279588D01*
X-44383Y279500D01*
X-44272Y279415D01*
X-44158Y279334D01*
X-44043Y279255D01*
X-43925Y279180D01*
X-43804Y279109D01*
X-43682Y279041D01*
X-43559Y278976D01*
X-43433Y278915D01*
X-43305Y278857D01*
X-43177Y278803D01*
X-43046Y278753D01*
X-42914Y278706D01*
X-42781Y278663D01*
X-42647Y278624D01*
X-42512Y278589D01*
X-42376Y278558D01*
X-42238Y278530D01*
X-42101Y278507D01*
X-41962Y278487D01*
X-41823Y278471D01*
X-41684Y278459D01*
X-41545Y278451D01*
X-41405Y278447D01*
X-41265Y278447D01*
X-41125Y278451D01*
X-40986Y278459D01*
X-40847Y278471D01*
X-40708Y278487D01*
X-40569Y278507D01*
X-40432Y278530D01*
X-40294Y278558D01*
X-40158Y278589D01*
X-40023Y278624D01*
X-39889Y278663D01*
X-39756Y278706D01*
X-39624Y278753D01*
X-39493Y278803D01*
X-39365Y278857D01*
X-39237Y278915D01*
X-39111Y278976D01*
X-38988Y279041D01*
X-38865Y279109D01*
X-38745Y279180D01*
X-38627Y279255D01*
X-38512Y279334D01*
X-38398Y279415D01*
X-38287Y279500D01*
X-38178Y279588D01*
X-38072Y279678D01*
X-37968Y279772D01*
X-37867Y279869D01*
X-37769Y279969D01*
X-37674Y280071D01*
X-37582Y280176D01*
X-37492Y280283D01*
X-37406Y280393D01*
X-37323Y280506D01*
X-37243Y280620D01*
X-37166Y280737D01*
X-37093Y280856D01*
X-37023Y280977D01*
X-36957Y281100D01*
X-36894Y281225D01*
X-36834Y281352D01*
X-36779Y281480D01*
X-36727Y281609D01*
X-36678Y281741D01*
X-36633Y281873D01*
X-36592Y282007D01*
X-36555Y282141D01*
X-36522Y282277D01*
X-36493Y282414D01*
X-36467Y282551D01*
X-36445Y282689D01*
X-36428Y282828D01*
X-36414Y282967D01*
X-36404Y283107D01*
X-36398Y283246D01*
X-36396Y283386D01*
X-36396Y288325D01*
X-36398Y288519D01*
X-36406Y288713D01*
X-36417Y288906D01*
X-36434Y289100D01*
X-36455Y289292D01*
X-36482Y289484D01*
X-36512Y289676D01*
X-36548Y289867D01*
X-36588Y290056D01*
X-36633Y290245D01*
X-36682Y290433D01*
X-36736Y290619D01*
X-36795Y290804D01*
X-36858Y290987D01*
X-36925Y291169D01*
X-36998Y291349D01*
X-37074Y291527D01*
X-37155Y291704D01*
X-37240Y291878D01*
X-37329Y292050D01*
X-37423Y292220D01*
X-37520Y292387D01*
X-37622Y292553D01*
X-37728Y292715D01*
X-37837Y292875D01*
X-37951Y293032D01*
X-38068Y293187D01*
X-38190Y293338D01*
X-38315Y293486D01*
X-38443Y293632D01*
X-38575Y293774D01*
X-38710Y293913D01*
X-38849Y294048D01*
X-38991Y294180D01*
X-39137Y294308D01*
X-39285Y294433D01*
X-39436Y294555D01*
X-39591Y294672D01*
X-39748Y294786D01*
X-39908Y294895D01*
X-40070Y295001D01*
X-40236Y295103D01*
X-40403Y295200D01*
X-40573Y295294D01*
X-40745Y295383D01*
X-40919Y295468D01*
X-41096Y295549D01*
X-41274Y295625D01*
X-41454Y295698D01*
X-41636Y295765D01*
X-41819Y295828D01*
X-42004Y295887D01*
X-42190Y295941D01*
X-42378Y295990D01*
X-42567Y296035D01*
X-42756Y296075D01*
X-42947Y296111D01*
X-43139Y296141D01*
X-43331Y296168D01*
X-43523Y296189D01*
X-43717Y296206D01*
X-43910Y296217D01*
X-44104Y296225D01*
X-44298Y296227D01*
D11*
X59746Y291162D02*
X61694Y291162D01*
X59746Y291162D02*
X59746Y284671D01*
X63641Y284671D01*
X63740Y284673D01*
X63840Y284679D01*
X63939Y284688D01*
X64037Y284701D01*
X64135Y284718D01*
X64233Y284739D01*
X64329Y284764D01*
X64424Y284792D01*
X64518Y284824D01*
X64611Y284859D01*
X64703Y284898D01*
X64793Y284941D01*
X64881Y284986D01*
X64968Y285036D01*
X65052Y285088D01*
X65135Y285144D01*
X65215Y285202D01*
X65293Y285264D01*
X65368Y285329D01*
X65441Y285397D01*
X65511Y285467D01*
X65579Y285540D01*
X65644Y285615D01*
X65706Y285693D01*
X65764Y285773D01*
X65820Y285856D01*
X65872Y285940D01*
X65922Y286027D01*
X65967Y286115D01*
X66010Y286205D01*
X66049Y286297D01*
X66084Y286390D01*
X66116Y286484D01*
X66144Y286579D01*
X66169Y286675D01*
X66190Y286773D01*
X66207Y286871D01*
X66220Y286969D01*
X66229Y287068D01*
X66235Y287168D01*
X66237Y287267D01*
X66238Y287267D02*
X66238Y293758D01*
X66237Y293758D02*
X66235Y293857D01*
X66229Y293957D01*
X66220Y294056D01*
X66207Y294154D01*
X66190Y294252D01*
X66169Y294350D01*
X66144Y294446D01*
X66116Y294541D01*
X66084Y294635D01*
X66049Y294728D01*
X66010Y294820D01*
X65967Y294910D01*
X65922Y294998D01*
X65872Y295085D01*
X65820Y295169D01*
X65764Y295252D01*
X65706Y295332D01*
X65644Y295410D01*
X65579Y295485D01*
X65511Y295558D01*
X65441Y295628D01*
X65368Y295696D01*
X65293Y295761D01*
X65215Y295823D01*
X65135Y295881D01*
X65052Y295937D01*
X64968Y295989D01*
X64881Y296039D01*
X64793Y296084D01*
X64703Y296127D01*
X64611Y296166D01*
X64518Y296201D01*
X64424Y296233D01*
X64329Y296261D01*
X64233Y296286D01*
X64135Y296307D01*
X64037Y296324D01*
X63939Y296337D01*
X63840Y296346D01*
X63740Y296352D01*
X63641Y296354D01*
X63641Y296355D02*
X59746Y296355D01*
X54046Y296355D02*
X54046Y284671D01*
X47554Y284671D02*
X54046Y296355D01*
X47554Y296355D02*
X47554Y284671D01*
X41854Y284671D02*
X41854Y296355D01*
X38608Y296355D01*
X38495Y296353D01*
X38382Y296347D01*
X38269Y296337D01*
X38156Y296323D01*
X38044Y296306D01*
X37933Y296284D01*
X37823Y296259D01*
X37713Y296229D01*
X37605Y296196D01*
X37498Y296159D01*
X37392Y296119D01*
X37288Y296074D01*
X37185Y296026D01*
X37084Y295975D01*
X36985Y295920D01*
X36888Y295862D01*
X36793Y295800D01*
X36700Y295735D01*
X36610Y295667D01*
X36522Y295596D01*
X36436Y295521D01*
X36353Y295444D01*
X36273Y295364D01*
X36196Y295281D01*
X36121Y295195D01*
X36050Y295107D01*
X35982Y295017D01*
X35917Y294924D01*
X35855Y294829D01*
X35797Y294732D01*
X35742Y294633D01*
X35691Y294532D01*
X35643Y294429D01*
X35598Y294325D01*
X35558Y294219D01*
X35521Y294112D01*
X35488Y294004D01*
X35458Y293894D01*
X35433Y293784D01*
X35411Y293673D01*
X35394Y293561D01*
X35380Y293448D01*
X35370Y293335D01*
X35364Y293222D01*
X35362Y293109D01*
X35362Y287916D01*
X35364Y287803D01*
X35370Y287690D01*
X35380Y287577D01*
X35394Y287464D01*
X35411Y287352D01*
X35433Y287241D01*
X35458Y287131D01*
X35488Y287021D01*
X35521Y286913D01*
X35558Y286806D01*
X35598Y286700D01*
X35643Y286596D01*
X35691Y286493D01*
X35742Y286392D01*
X35797Y286293D01*
X35855Y286196D01*
X35917Y286101D01*
X35982Y286008D01*
X36050Y285918D01*
X36121Y285830D01*
X36196Y285744D01*
X36273Y285661D01*
X36353Y285581D01*
X36436Y285504D01*
X36522Y285429D01*
X36610Y285358D01*
X36700Y285290D01*
X36793Y285225D01*
X36888Y285163D01*
X36985Y285105D01*
X37084Y285050D01*
X37185Y284999D01*
X37288Y284951D01*
X37392Y284906D01*
X37498Y284866D01*
X37605Y284829D01*
X37713Y284796D01*
X37823Y284766D01*
X37933Y284741D01*
X38044Y284719D01*
X38156Y284702D01*
X38269Y284688D01*
X38382Y284678D01*
X38495Y284672D01*
X38608Y284670D01*
X38608Y284671D02*
X41854Y284671D01*
X-86008Y273329D02*
X-87385Y271952D01*
X-82795Y267362D01*
X-80041Y270116D01*
X-79972Y270188D01*
X-79906Y270262D01*
X-79843Y270339D01*
X-79783Y270418D01*
X-79725Y270499D01*
X-79671Y270583D01*
X-79621Y270668D01*
X-79573Y270756D01*
X-79529Y270845D01*
X-79488Y270936D01*
X-79451Y271028D01*
X-79417Y271121D01*
X-79387Y271216D01*
X-79361Y271312D01*
X-79338Y271409D01*
X-79319Y271507D01*
X-79304Y271605D01*
X-79293Y271704D01*
X-79285Y271803D01*
X-79281Y271902D01*
X-79281Y272002D01*
X-79285Y272101D01*
X-79293Y272200D01*
X-79304Y272299D01*
X-79319Y272397D01*
X-79338Y272495D01*
X-79361Y272592D01*
X-79387Y272688D01*
X-79417Y272783D01*
X-79451Y272876D01*
X-79488Y272968D01*
X-79529Y273059D01*
X-79573Y273148D01*
X-79621Y273236D01*
X-79671Y273321D01*
X-79725Y273405D01*
X-79783Y273486D01*
X-79843Y273565D01*
X-79906Y273642D01*
X-79972Y273716D01*
X-80041Y273788D01*
X-84631Y278377D01*
X-84702Y278446D01*
X-84777Y278513D01*
X-84853Y278576D01*
X-84932Y278636D01*
X-85014Y278693D01*
X-85097Y278747D01*
X-85183Y278798D01*
X-85270Y278846D01*
X-85359Y278890D01*
X-85450Y278931D01*
X-85542Y278968D01*
X-85636Y279002D01*
X-85731Y279032D01*
X-85827Y279058D01*
X-85924Y279081D01*
X-86021Y279099D01*
X-86120Y279115D01*
X-86219Y279126D01*
X-86318Y279134D01*
X-86417Y279138D01*
X-86517Y279138D01*
X-86616Y279134D01*
X-86715Y279126D01*
X-86814Y279115D01*
X-86912Y279100D01*
X-87010Y279081D01*
X-87107Y279058D01*
X-87203Y279032D01*
X-87298Y279002D01*
X-87391Y278968D01*
X-87484Y278931D01*
X-87575Y278890D01*
X-87664Y278846D01*
X-87751Y278798D01*
X-87837Y278748D01*
X-87920Y278693D01*
X-88001Y278636D01*
X-88081Y278576D01*
X-88157Y278513D01*
X-88232Y278446D01*
X-88303Y278377D01*
X-91057Y275624D01*
X-95088Y271592D02*
X-86826Y263331D01*
X-91416Y258741D02*
X-95088Y271592D01*
X-99678Y267002D02*
X-91416Y258741D01*
X-95447Y254709D02*
X-103709Y262971D01*
X-106004Y260676D01*
X-106083Y260595D01*
X-106159Y260511D01*
X-106232Y260424D01*
X-106301Y260334D01*
X-106368Y260243D01*
X-106431Y260149D01*
X-106491Y260053D01*
X-106548Y259955D01*
X-106601Y259855D01*
X-106651Y259753D01*
X-106697Y259649D01*
X-106739Y259544D01*
X-106778Y259438D01*
X-106813Y259330D01*
X-106844Y259221D01*
X-106872Y259111D01*
X-106895Y259000D01*
X-106915Y258889D01*
X-106931Y258777D01*
X-106943Y258664D01*
X-106951Y258551D01*
X-106955Y258438D01*
X-106955Y258324D01*
X-106951Y258211D01*
X-106943Y258098D01*
X-106931Y257985D01*
X-106915Y257873D01*
X-106895Y257762D01*
X-106872Y257651D01*
X-106844Y257541D01*
X-106813Y257432D01*
X-106778Y257324D01*
X-106739Y257218D01*
X-106697Y257113D01*
X-106651Y257009D01*
X-106601Y256907D01*
X-106548Y256807D01*
X-106491Y256709D01*
X-106431Y256613D01*
X-106368Y256519D01*
X-106301Y256428D01*
X-106232Y256338D01*
X-106159Y256251D01*
X-106083Y256167D01*
X-106004Y256086D01*
X-102332Y252414D01*
X-102251Y252335D01*
X-102167Y252259D01*
X-102080Y252186D01*
X-101990Y252117D01*
X-101899Y252050D01*
X-101805Y251987D01*
X-101709Y251927D01*
X-101611Y251870D01*
X-101511Y251817D01*
X-101409Y251767D01*
X-101305Y251721D01*
X-101200Y251679D01*
X-101094Y251640D01*
X-100986Y251605D01*
X-100877Y251574D01*
X-100767Y251546D01*
X-100656Y251523D01*
X-100545Y251503D01*
X-100433Y251487D01*
X-100320Y251475D01*
X-100207Y251467D01*
X-100094Y251463D01*
X-99980Y251463D01*
X-99867Y251467D01*
X-99754Y251475D01*
X-99641Y251487D01*
X-99529Y251503D01*
X-99418Y251523D01*
X-99307Y251546D01*
X-99197Y251574D01*
X-99088Y251605D01*
X-98980Y251640D01*
X-98874Y251679D01*
X-98769Y251721D01*
X-98665Y251767D01*
X-98563Y251817D01*
X-98463Y251870D01*
X-98365Y251927D01*
X-98269Y251987D01*
X-98175Y252050D01*
X-98083Y252117D01*
X-97994Y252186D01*
X-97907Y252259D01*
X-97823Y252335D01*
X-97742Y252414D01*
X-97742Y252415D02*
X-95447Y254709D01*
X-62407Y17673D02*
X-61030Y16296D01*
X-62407Y17673D02*
X-66997Y13083D01*
X-64243Y10329D01*
X-64171Y10260D01*
X-64097Y10194D01*
X-64020Y10131D01*
X-63941Y10071D01*
X-63860Y10013D01*
X-63776Y9959D01*
X-63691Y9909D01*
X-63603Y9861D01*
X-63514Y9817D01*
X-63423Y9776D01*
X-63331Y9739D01*
X-63238Y9705D01*
X-63143Y9675D01*
X-63047Y9649D01*
X-62950Y9626D01*
X-62852Y9607D01*
X-62754Y9592D01*
X-62655Y9581D01*
X-62556Y9573D01*
X-62457Y9569D01*
X-62357Y9569D01*
X-62258Y9573D01*
X-62159Y9581D01*
X-62060Y9592D01*
X-61962Y9607D01*
X-61864Y9626D01*
X-61767Y9649D01*
X-61671Y9675D01*
X-61576Y9705D01*
X-61483Y9739D01*
X-61391Y9776D01*
X-61300Y9817D01*
X-61211Y9861D01*
X-61123Y9909D01*
X-61038Y9959D01*
X-60954Y10013D01*
X-60873Y10071D01*
X-60794Y10131D01*
X-60717Y10194D01*
X-60643Y10260D01*
X-60571Y10329D01*
X-60572Y10329D02*
X-55982Y14919D01*
X-55913Y14990D01*
X-55846Y15065D01*
X-55783Y15141D01*
X-55723Y15220D01*
X-55666Y15302D01*
X-55612Y15385D01*
X-55561Y15471D01*
X-55513Y15558D01*
X-55469Y15647D01*
X-55428Y15738D01*
X-55391Y15830D01*
X-55357Y15924D01*
X-55327Y16019D01*
X-55301Y16115D01*
X-55278Y16212D01*
X-55260Y16309D01*
X-55244Y16408D01*
X-55233Y16507D01*
X-55225Y16606D01*
X-55221Y16705D01*
X-55221Y16805D01*
X-55225Y16904D01*
X-55233Y17003D01*
X-55244Y17102D01*
X-55259Y17200D01*
X-55278Y17298D01*
X-55301Y17395D01*
X-55327Y17491D01*
X-55357Y17586D01*
X-55391Y17679D01*
X-55428Y17772D01*
X-55469Y17863D01*
X-55513Y17952D01*
X-55561Y18039D01*
X-55611Y18125D01*
X-55666Y18208D01*
X-55723Y18289D01*
X-55783Y18369D01*
X-55846Y18445D01*
X-55913Y18520D01*
X-55982Y18591D01*
X-58736Y21345D01*
X-62767Y25376D02*
X-71029Y17114D01*
X-75618Y21704D02*
X-62767Y25376D01*
X-67357Y29966D02*
X-75618Y21704D01*
X-79650Y25735D02*
X-71388Y33997D01*
X-73683Y36292D01*
X-73764Y36371D01*
X-73848Y36447D01*
X-73935Y36520D01*
X-74025Y36589D01*
X-74116Y36656D01*
X-74210Y36719D01*
X-74306Y36779D01*
X-74404Y36836D01*
X-74504Y36889D01*
X-74606Y36939D01*
X-74710Y36985D01*
X-74815Y37027D01*
X-74921Y37066D01*
X-75029Y37101D01*
X-75138Y37132D01*
X-75248Y37160D01*
X-75359Y37183D01*
X-75470Y37203D01*
X-75582Y37219D01*
X-75695Y37231D01*
X-75808Y37239D01*
X-75921Y37243D01*
X-76035Y37243D01*
X-76148Y37239D01*
X-76261Y37231D01*
X-76374Y37219D01*
X-76486Y37203D01*
X-76597Y37183D01*
X-76708Y37160D01*
X-76818Y37132D01*
X-76927Y37101D01*
X-77035Y37066D01*
X-77141Y37027D01*
X-77246Y36985D01*
X-77350Y36939D01*
X-77452Y36889D01*
X-77552Y36836D01*
X-77650Y36779D01*
X-77746Y36719D01*
X-77840Y36656D01*
X-77932Y36589D01*
X-78021Y36520D01*
X-78108Y36447D01*
X-78192Y36371D01*
X-78273Y36292D01*
X-81945Y32620D01*
X-82024Y32539D01*
X-82100Y32455D01*
X-82173Y32368D01*
X-82242Y32278D01*
X-82309Y32187D01*
X-82372Y32093D01*
X-82432Y31997D01*
X-82489Y31899D01*
X-82542Y31799D01*
X-82592Y31697D01*
X-82638Y31593D01*
X-82680Y31488D01*
X-82719Y31382D01*
X-82754Y31274D01*
X-82785Y31165D01*
X-82813Y31055D01*
X-82836Y30944D01*
X-82856Y30833D01*
X-82872Y30721D01*
X-82884Y30608D01*
X-82892Y30495D01*
X-82896Y30382D01*
X-82896Y30268D01*
X-82892Y30155D01*
X-82884Y30042D01*
X-82872Y29929D01*
X-82856Y29817D01*
X-82836Y29706D01*
X-82813Y29595D01*
X-82785Y29485D01*
X-82754Y29376D01*
X-82719Y29268D01*
X-82680Y29162D01*
X-82638Y29057D01*
X-82592Y28953D01*
X-82542Y28851D01*
X-82489Y28751D01*
X-82432Y28653D01*
X-82372Y28557D01*
X-82309Y28463D01*
X-82242Y28372D01*
X-82173Y28282D01*
X-82100Y28195D01*
X-82024Y28111D01*
X-81945Y28030D01*
X-79650Y25735D01*
X77577Y29668D02*
X78954Y31045D01*
X77577Y29668D02*
X82167Y25078D01*
X84921Y27832D01*
X84990Y27904D01*
X85056Y27978D01*
X85119Y28055D01*
X85179Y28134D01*
X85237Y28215D01*
X85291Y28299D01*
X85341Y28384D01*
X85389Y28472D01*
X85433Y28561D01*
X85474Y28652D01*
X85511Y28744D01*
X85545Y28837D01*
X85575Y28932D01*
X85601Y29028D01*
X85624Y29125D01*
X85643Y29223D01*
X85658Y29321D01*
X85669Y29420D01*
X85677Y29519D01*
X85681Y29618D01*
X85681Y29718D01*
X85677Y29817D01*
X85669Y29916D01*
X85658Y30015D01*
X85643Y30113D01*
X85624Y30211D01*
X85601Y30308D01*
X85575Y30404D01*
X85545Y30499D01*
X85511Y30592D01*
X85474Y30684D01*
X85433Y30775D01*
X85389Y30864D01*
X85341Y30952D01*
X85291Y31037D01*
X85237Y31121D01*
X85179Y31202D01*
X85119Y31281D01*
X85056Y31358D01*
X84990Y31432D01*
X84921Y31504D01*
X80331Y36093D01*
X80260Y36162D01*
X80185Y36229D01*
X80109Y36292D01*
X80030Y36352D01*
X79948Y36409D01*
X79865Y36463D01*
X79779Y36514D01*
X79692Y36562D01*
X79603Y36606D01*
X79512Y36647D01*
X79420Y36684D01*
X79326Y36718D01*
X79231Y36748D01*
X79135Y36774D01*
X79038Y36797D01*
X78941Y36815D01*
X78842Y36831D01*
X78743Y36842D01*
X78644Y36850D01*
X78545Y36854D01*
X78445Y36854D01*
X78346Y36850D01*
X78247Y36842D01*
X78148Y36831D01*
X78050Y36816D01*
X77952Y36797D01*
X77855Y36774D01*
X77759Y36748D01*
X77664Y36718D01*
X77571Y36684D01*
X77478Y36647D01*
X77387Y36606D01*
X77298Y36562D01*
X77211Y36514D01*
X77125Y36464D01*
X77042Y36409D01*
X76961Y36352D01*
X76881Y36292D01*
X76805Y36229D01*
X76730Y36162D01*
X76659Y36093D01*
X73905Y33340D01*
X69874Y29308D02*
X78136Y21047D01*
X73546Y16457D02*
X69874Y29308D01*
X65284Y24718D02*
X73546Y16457D01*
X69515Y12425D02*
X61253Y20687D01*
X58958Y18392D01*
X58879Y18311D01*
X58803Y18227D01*
X58730Y18140D01*
X58661Y18050D01*
X58594Y17959D01*
X58531Y17865D01*
X58471Y17769D01*
X58414Y17671D01*
X58361Y17571D01*
X58311Y17469D01*
X58265Y17365D01*
X58223Y17260D01*
X58184Y17154D01*
X58149Y17046D01*
X58118Y16937D01*
X58090Y16827D01*
X58067Y16716D01*
X58047Y16605D01*
X58031Y16493D01*
X58019Y16380D01*
X58011Y16267D01*
X58007Y16154D01*
X58007Y16040D01*
X58011Y15927D01*
X58019Y15814D01*
X58031Y15701D01*
X58047Y15589D01*
X58067Y15478D01*
X58090Y15367D01*
X58118Y15257D01*
X58149Y15148D01*
X58184Y15040D01*
X58223Y14934D01*
X58265Y14829D01*
X58311Y14725D01*
X58361Y14623D01*
X58414Y14523D01*
X58471Y14425D01*
X58531Y14329D01*
X58594Y14235D01*
X58661Y14144D01*
X58730Y14054D01*
X58803Y13967D01*
X58879Y13883D01*
X58958Y13802D01*
X62630Y10130D01*
X62711Y10051D01*
X62795Y9975D01*
X62882Y9902D01*
X62972Y9833D01*
X63063Y9766D01*
X63157Y9703D01*
X63253Y9643D01*
X63351Y9586D01*
X63451Y9533D01*
X63553Y9483D01*
X63657Y9437D01*
X63762Y9395D01*
X63868Y9356D01*
X63976Y9321D01*
X64085Y9290D01*
X64195Y9262D01*
X64306Y9239D01*
X64417Y9219D01*
X64529Y9203D01*
X64642Y9191D01*
X64755Y9183D01*
X64868Y9179D01*
X64982Y9179D01*
X65095Y9183D01*
X65208Y9191D01*
X65321Y9203D01*
X65433Y9219D01*
X65544Y9239D01*
X65655Y9262D01*
X65765Y9290D01*
X65874Y9321D01*
X65982Y9356D01*
X66088Y9395D01*
X66193Y9437D01*
X66297Y9483D01*
X66399Y9533D01*
X66499Y9586D01*
X66597Y9643D01*
X66693Y9703D01*
X66787Y9766D01*
X66879Y9833D01*
X66968Y9902D01*
X67055Y9975D01*
X67139Y10051D01*
X67220Y10130D01*
X67220Y10131D02*
X69515Y12425D01*
D10*
X-18814Y20003D02*
X-18814Y2223D01*
X-18814Y20003D02*
X-23753Y20003D01*
X-23893Y20001D01*
X-24032Y19995D01*
X-24172Y19985D01*
X-24311Y19971D01*
X-24450Y19954D01*
X-24588Y19932D01*
X-24725Y19906D01*
X-24862Y19877D01*
X-24998Y19844D01*
X-25132Y19807D01*
X-25266Y19766D01*
X-25398Y19721D01*
X-25530Y19672D01*
X-25659Y19620D01*
X-25787Y19565D01*
X-25914Y19505D01*
X-26039Y19442D01*
X-26162Y19376D01*
X-26283Y19306D01*
X-26402Y19233D01*
X-26519Y19156D01*
X-26633Y19076D01*
X-26746Y18993D01*
X-26856Y18907D01*
X-26963Y18817D01*
X-27068Y18725D01*
X-27170Y18630D01*
X-27270Y18532D01*
X-27367Y18431D01*
X-27461Y18327D01*
X-27551Y18221D01*
X-27639Y18112D01*
X-27724Y18001D01*
X-27805Y17887D01*
X-27884Y17772D01*
X-27959Y17654D01*
X-28030Y17533D01*
X-28098Y17411D01*
X-28163Y17288D01*
X-28224Y17162D01*
X-28282Y17034D01*
X-28336Y16906D01*
X-28386Y16775D01*
X-28433Y16643D01*
X-28476Y16510D01*
X-28515Y16376D01*
X-28550Y16241D01*
X-28581Y16105D01*
X-28609Y15967D01*
X-28632Y15830D01*
X-28652Y15691D01*
X-28668Y15552D01*
X-28680Y15413D01*
X-28688Y15274D01*
X-28692Y15134D01*
X-28692Y14994D01*
X-28688Y14854D01*
X-28680Y14715D01*
X-28668Y14576D01*
X-28652Y14437D01*
X-28632Y14298D01*
X-28609Y14161D01*
X-28581Y14023D01*
X-28550Y13887D01*
X-28515Y13752D01*
X-28476Y13618D01*
X-28433Y13485D01*
X-28386Y13353D01*
X-28336Y13222D01*
X-28282Y13094D01*
X-28224Y12966D01*
X-28163Y12840D01*
X-28098Y12717D01*
X-28030Y12594D01*
X-27959Y12474D01*
X-27884Y12356D01*
X-27805Y12241D01*
X-27724Y12127D01*
X-27639Y12016D01*
X-27551Y11907D01*
X-27461Y11801D01*
X-27367Y11697D01*
X-27270Y11596D01*
X-27170Y11498D01*
X-27068Y11403D01*
X-26963Y11311D01*
X-26856Y11221D01*
X-26746Y11135D01*
X-26633Y11052D01*
X-26519Y10972D01*
X-26402Y10895D01*
X-26283Y10822D01*
X-26162Y10752D01*
X-26039Y10686D01*
X-25914Y10623D01*
X-25787Y10563D01*
X-25659Y10508D01*
X-25530Y10456D01*
X-25398Y10407D01*
X-25266Y10362D01*
X-25132Y10321D01*
X-24998Y10284D01*
X-24862Y10251D01*
X-24725Y10222D01*
X-24588Y10196D01*
X-24450Y10174D01*
X-24311Y10157D01*
X-24172Y10143D01*
X-24032Y10133D01*
X-23893Y10127D01*
X-23753Y10125D01*
X-18814Y10125D01*
X-34809Y2223D02*
X-39748Y2223D01*
X-39748Y2222D02*
X-39888Y2224D01*
X-40027Y2230D01*
X-40167Y2240D01*
X-40306Y2254D01*
X-40445Y2271D01*
X-40583Y2293D01*
X-40720Y2319D01*
X-40857Y2348D01*
X-40993Y2381D01*
X-41127Y2418D01*
X-41261Y2459D01*
X-41393Y2504D01*
X-41525Y2553D01*
X-41654Y2605D01*
X-41782Y2660D01*
X-41909Y2720D01*
X-42034Y2783D01*
X-42157Y2849D01*
X-42278Y2919D01*
X-42397Y2992D01*
X-42514Y3069D01*
X-42628Y3149D01*
X-42741Y3232D01*
X-42851Y3318D01*
X-42958Y3408D01*
X-43063Y3500D01*
X-43165Y3595D01*
X-43265Y3693D01*
X-43362Y3794D01*
X-43456Y3898D01*
X-43546Y4004D01*
X-43634Y4113D01*
X-43719Y4224D01*
X-43800Y4338D01*
X-43879Y4453D01*
X-43954Y4571D01*
X-44025Y4691D01*
X-44093Y4814D01*
X-44158Y4937D01*
X-44219Y5063D01*
X-44277Y5191D01*
X-44331Y5319D01*
X-44381Y5450D01*
X-44428Y5582D01*
X-44471Y5715D01*
X-44510Y5849D01*
X-44545Y5984D01*
X-44576Y6120D01*
X-44604Y6258D01*
X-44627Y6395D01*
X-44647Y6534D01*
X-44663Y6673D01*
X-44675Y6812D01*
X-44683Y6951D01*
X-44687Y7091D01*
X-44687Y7231D01*
X-44683Y7371D01*
X-44675Y7510D01*
X-44663Y7649D01*
X-44647Y7788D01*
X-44627Y7927D01*
X-44604Y8064D01*
X-44576Y8202D01*
X-44545Y8338D01*
X-44510Y8473D01*
X-44471Y8607D01*
X-44428Y8740D01*
X-44381Y8872D01*
X-44331Y9003D01*
X-44277Y9131D01*
X-44219Y9259D01*
X-44158Y9385D01*
X-44093Y9508D01*
X-44025Y9630D01*
X-43954Y9751D01*
X-43879Y9869D01*
X-43800Y9984D01*
X-43719Y10098D01*
X-43634Y10209D01*
X-43546Y10318D01*
X-43456Y10424D01*
X-43362Y10528D01*
X-43265Y10629D01*
X-43165Y10727D01*
X-43063Y10822D01*
X-42958Y10914D01*
X-42851Y11004D01*
X-42741Y11090D01*
X-42628Y11173D01*
X-42514Y11253D01*
X-42397Y11330D01*
X-42278Y11403D01*
X-42157Y11473D01*
X-42034Y11539D01*
X-41909Y11602D01*
X-41782Y11662D01*
X-41654Y11717D01*
X-41525Y11769D01*
X-41393Y11818D01*
X-41261Y11863D01*
X-41127Y11904D01*
X-40993Y11941D01*
X-40857Y11974D01*
X-40720Y12003D01*
X-40583Y12029D01*
X-40445Y12051D01*
X-40306Y12068D01*
X-40167Y12082D01*
X-40027Y12092D01*
X-39888Y12098D01*
X-39748Y12100D01*
X-40735Y20003D02*
X-34809Y20003D01*
X-40735Y20002D02*
X-40859Y20000D01*
X-40983Y19994D01*
X-41107Y19984D01*
X-41230Y19971D01*
X-41353Y19953D01*
X-41475Y19932D01*
X-41597Y19907D01*
X-41718Y19878D01*
X-41837Y19845D01*
X-41956Y19809D01*
X-42073Y19768D01*
X-42189Y19725D01*
X-42304Y19677D01*
X-42417Y19626D01*
X-42529Y19571D01*
X-42638Y19513D01*
X-42746Y19452D01*
X-42852Y19387D01*
X-42956Y19319D01*
X-43057Y19247D01*
X-43157Y19173D01*
X-43253Y19095D01*
X-43348Y19015D01*
X-43440Y18931D01*
X-43529Y18845D01*
X-43615Y18756D01*
X-43699Y18664D01*
X-43779Y18569D01*
X-43857Y18473D01*
X-43931Y18373D01*
X-44003Y18272D01*
X-44071Y18168D01*
X-44136Y18062D01*
X-44197Y17954D01*
X-44255Y17845D01*
X-44310Y17733D01*
X-44361Y17620D01*
X-44409Y17505D01*
X-44452Y17389D01*
X-44493Y17272D01*
X-44529Y17153D01*
X-44562Y17034D01*
X-44591Y16913D01*
X-44616Y16791D01*
X-44637Y16669D01*
X-44655Y16546D01*
X-44668Y16423D01*
X-44678Y16299D01*
X-44684Y16175D01*
X-44686Y16051D01*
X-44684Y15927D01*
X-44678Y15803D01*
X-44668Y15679D01*
X-44655Y15556D01*
X-44637Y15433D01*
X-44616Y15311D01*
X-44591Y15189D01*
X-44562Y15068D01*
X-44529Y14949D01*
X-44493Y14830D01*
X-44452Y14713D01*
X-44409Y14597D01*
X-44361Y14482D01*
X-44310Y14369D01*
X-44255Y14257D01*
X-44197Y14148D01*
X-44136Y14040D01*
X-44071Y13934D01*
X-44003Y13830D01*
X-43931Y13729D01*
X-43857Y13629D01*
X-43779Y13533D01*
X-43699Y13438D01*
X-43615Y13346D01*
X-43529Y13257D01*
X-43440Y13171D01*
X-43348Y13087D01*
X-43253Y13007D01*
X-43157Y12929D01*
X-43057Y12855D01*
X-42956Y12783D01*
X-42852Y12715D01*
X-42746Y12650D01*
X-42638Y12589D01*
X-42529Y12531D01*
X-42417Y12476D01*
X-42304Y12425D01*
X-42189Y12377D01*
X-42073Y12334D01*
X-41956Y12293D01*
X-41837Y12257D01*
X-41718Y12224D01*
X-41597Y12195D01*
X-41475Y12170D01*
X-41353Y12149D01*
X-41230Y12131D01*
X-41107Y12118D01*
X-40983Y12108D01*
X-40859Y12102D01*
X-40735Y12100D01*
X-36784Y12100D01*
D12*
X50673Y119063D02*
X57277Y119063D01*
D13*
X80344Y117666D02*
X81980Y117666D01*
X81980Y117665D02*
X82058Y117667D01*
X82136Y117672D01*
X82213Y117682D01*
X82290Y117695D01*
X82366Y117711D01*
X82441Y117731D01*
X82515Y117755D01*
X82588Y117782D01*
X82660Y117813D01*
X82730Y117847D01*
X82799Y117884D01*
X82865Y117925D01*
X82930Y117969D01*
X82992Y118015D01*
X83052Y118065D01*
X83110Y118117D01*
X83165Y118172D01*
X83217Y118230D01*
X83267Y118290D01*
X83313Y118352D01*
X83357Y118417D01*
X83398Y118484D01*
X83435Y118552D01*
X83469Y118622D01*
X83500Y118694D01*
X83527Y118767D01*
X83551Y118841D01*
X83571Y118916D01*
X83587Y118992D01*
X83600Y119069D01*
X83610Y119146D01*
X83615Y119224D01*
X83617Y119302D01*
X83617Y123395D01*
X83615Y123473D01*
X83610Y123551D01*
X83600Y123628D01*
X83587Y123705D01*
X83571Y123781D01*
X83551Y123856D01*
X83527Y123930D01*
X83500Y124003D01*
X83469Y124075D01*
X83435Y124145D01*
X83398Y124214D01*
X83357Y124280D01*
X83313Y124345D01*
X83267Y124407D01*
X83217Y124467D01*
X83165Y124525D01*
X83110Y124580D01*
X83052Y124632D01*
X82992Y124682D01*
X82930Y124728D01*
X82865Y124772D01*
X82799Y124813D01*
X82730Y124850D01*
X82660Y124884D01*
X82588Y124915D01*
X82515Y124942D01*
X82441Y124966D01*
X82366Y124986D01*
X82290Y125002D01*
X82213Y125015D01*
X82136Y125025D01*
X82058Y125030D01*
X81980Y125032D01*
X80344Y125032D01*
X77498Y123395D02*
X75452Y125032D01*
X75452Y117666D01*
X77498Y117666D02*
X73406Y117666D01*
D12*
X-31750Y237998D02*
X-31750Y244602D01*
D13*
X-22035Y236191D02*
X-22035Y234554D01*
X-22033Y234476D01*
X-22028Y234398D01*
X-22018Y234321D01*
X-22005Y234244D01*
X-21989Y234168D01*
X-21969Y234093D01*
X-21945Y234019D01*
X-21918Y233946D01*
X-21887Y233874D01*
X-21853Y233804D01*
X-21816Y233736D01*
X-21775Y233669D01*
X-21731Y233604D01*
X-21685Y233542D01*
X-21635Y233482D01*
X-21583Y233424D01*
X-21528Y233369D01*
X-21470Y233317D01*
X-21410Y233267D01*
X-21348Y233221D01*
X-21283Y233177D01*
X-21217Y233136D01*
X-21148Y233099D01*
X-21078Y233065D01*
X-21006Y233034D01*
X-20933Y233007D01*
X-20859Y232983D01*
X-20784Y232963D01*
X-20708Y232947D01*
X-20631Y232934D01*
X-20554Y232924D01*
X-20476Y232919D01*
X-20398Y232917D01*
X-20398Y232918D02*
X-16305Y232918D01*
X-16305Y232917D02*
X-16225Y232919D01*
X-16145Y232925D01*
X-16065Y232935D01*
X-15986Y232948D01*
X-15907Y232966D01*
X-15830Y232987D01*
X-15754Y233013D01*
X-15679Y233042D01*
X-15605Y233074D01*
X-15533Y233110D01*
X-15463Y233150D01*
X-15396Y233193D01*
X-15330Y233239D01*
X-15267Y233289D01*
X-15206Y233341D01*
X-15147Y233396D01*
X-15092Y233455D01*
X-15040Y233515D01*
X-14990Y233579D01*
X-14944Y233644D01*
X-14901Y233712D01*
X-14861Y233782D01*
X-14825Y233854D01*
X-14793Y233928D01*
X-14764Y234002D01*
X-14739Y234079D01*
X-14717Y234156D01*
X-14699Y234235D01*
X-14686Y234314D01*
X-14676Y234393D01*
X-14670Y234474D01*
X-14668Y234554D01*
X-14669Y234554D02*
X-14669Y236191D01*
X-16305Y239037D02*
X-14669Y241083D01*
X-22035Y241083D01*
X-22035Y239037D02*
X-22035Y243129D01*
X-18352Y246352D02*
X-18199Y246354D01*
X-18046Y246360D01*
X-17894Y246369D01*
X-17741Y246383D01*
X-17589Y246400D01*
X-17438Y246421D01*
X-17287Y246446D01*
X-17137Y246475D01*
X-16987Y246507D01*
X-16839Y246544D01*
X-16691Y246584D01*
X-16544Y246627D01*
X-16399Y246675D01*
X-16255Y246726D01*
X-16112Y246780D01*
X-15970Y246839D01*
X-15831Y246900D01*
X-15692Y246966D01*
X-15622Y246992D01*
X-15552Y247022D01*
X-15485Y247055D01*
X-15419Y247091D01*
X-15355Y247130D01*
X-15293Y247173D01*
X-15234Y247219D01*
X-15176Y247267D01*
X-15122Y247318D01*
X-15069Y247372D01*
X-15020Y247429D01*
X-14973Y247488D01*
X-14930Y247549D01*
X-14889Y247612D01*
X-14852Y247677D01*
X-14817Y247744D01*
X-14787Y247813D01*
X-14759Y247883D01*
X-14736Y247954D01*
X-14715Y248026D01*
X-14699Y248099D01*
X-14686Y248173D01*
X-14676Y248248D01*
X-14671Y248323D01*
X-14669Y248398D01*
X-14671Y248473D01*
X-14676Y248548D01*
X-14686Y248623D01*
X-14699Y248697D01*
X-14715Y248770D01*
X-14736Y248842D01*
X-14759Y248913D01*
X-14787Y248983D01*
X-14817Y249052D01*
X-14852Y249119D01*
X-14889Y249184D01*
X-14930Y249247D01*
X-14973Y249308D01*
X-15020Y249367D01*
X-15069Y249424D01*
X-15122Y249478D01*
X-15176Y249529D01*
X-15234Y249578D01*
X-15293Y249623D01*
X-15355Y249666D01*
X-15419Y249705D01*
X-15485Y249742D01*
X-15553Y249774D01*
X-15622Y249804D01*
X-15692Y249830D01*
X-15830Y249895D01*
X-15970Y249957D01*
X-16112Y250015D01*
X-16255Y250070D01*
X-16399Y250121D01*
X-16544Y250169D01*
X-16691Y250212D01*
X-16838Y250252D01*
X-16987Y250289D01*
X-17137Y250321D01*
X-17287Y250350D01*
X-17438Y250375D01*
X-17589Y250396D01*
X-17741Y250413D01*
X-17894Y250427D01*
X-18046Y250436D01*
X-18199Y250442D01*
X-18352Y250444D01*
X-18352Y246352D02*
X-18505Y246354D01*
X-18658Y246360D01*
X-18810Y246369D01*
X-18963Y246383D01*
X-19115Y246400D01*
X-19266Y246421D01*
X-19417Y246446D01*
X-19567Y246475D01*
X-19717Y246507D01*
X-19865Y246544D01*
X-20013Y246584D01*
X-20160Y246627D01*
X-20305Y246675D01*
X-20449Y246726D01*
X-20592Y246780D01*
X-20734Y246839D01*
X-20873Y246900D01*
X-21012Y246966D01*
X-21011Y246966D02*
X-21082Y246992D01*
X-21151Y247022D01*
X-21218Y247055D01*
X-21284Y247091D01*
X-21348Y247130D01*
X-21410Y247173D01*
X-21469Y247219D01*
X-21527Y247267D01*
X-21581Y247318D01*
X-21634Y247372D01*
X-21683Y247429D01*
X-21730Y247488D01*
X-21773Y247549D01*
X-21814Y247612D01*
X-21851Y247677D01*
X-21886Y247744D01*
X-21916Y247813D01*
X-21944Y247883D01*
X-21967Y247954D01*
X-21988Y248026D01*
X-22004Y248099D01*
X-22017Y248173D01*
X-22027Y248248D01*
X-22032Y248323D01*
X-22034Y248398D01*
X-21012Y249830D02*
X-20874Y249895D01*
X-20734Y249957D01*
X-20592Y250015D01*
X-20449Y250070D01*
X-20305Y250121D01*
X-20160Y250169D01*
X-20013Y250212D01*
X-19866Y250252D01*
X-19717Y250289D01*
X-19567Y250321D01*
X-19417Y250350D01*
X-19266Y250375D01*
X-19115Y250396D01*
X-18963Y250413D01*
X-18810Y250427D01*
X-18658Y250436D01*
X-18505Y250442D01*
X-18352Y250444D01*
X-21011Y249830D02*
X-21081Y249804D01*
X-21151Y249774D01*
X-21218Y249741D01*
X-21284Y249705D01*
X-21348Y249666D01*
X-21410Y249623D01*
X-21469Y249577D01*
X-21527Y249529D01*
X-21581Y249478D01*
X-21634Y249424D01*
X-21683Y249367D01*
X-21730Y249308D01*
X-21773Y249247D01*
X-21814Y249184D01*
X-21851Y249119D01*
X-21886Y249052D01*
X-21916Y248983D01*
X-21944Y248913D01*
X-21967Y248842D01*
X-21988Y248770D01*
X-22004Y248697D01*
X-22017Y248623D01*
X-22027Y248548D01*
X-22032Y248473D01*
X-22034Y248398D01*
X-20398Y246761D02*
X-16305Y250035D01*
D10*
X33820Y140348D02*
X33820Y120218D01*
D12*
X50673Y130175D02*
X57277Y130175D01*
D13*
X80344Y146241D02*
X81980Y146241D01*
X81980Y146240D02*
X82058Y146242D01*
X82136Y146247D01*
X82213Y146257D01*
X82290Y146270D01*
X82366Y146286D01*
X82441Y146306D01*
X82515Y146330D01*
X82588Y146357D01*
X82660Y146388D01*
X82730Y146422D01*
X82799Y146459D01*
X82865Y146500D01*
X82930Y146544D01*
X82992Y146590D01*
X83052Y146640D01*
X83110Y146692D01*
X83165Y146747D01*
X83217Y146805D01*
X83267Y146865D01*
X83313Y146927D01*
X83357Y146992D01*
X83398Y147059D01*
X83435Y147127D01*
X83469Y147197D01*
X83500Y147269D01*
X83527Y147342D01*
X83551Y147416D01*
X83571Y147491D01*
X83587Y147567D01*
X83600Y147644D01*
X83610Y147721D01*
X83615Y147799D01*
X83617Y147877D01*
X83617Y151970D01*
X83615Y152048D01*
X83610Y152126D01*
X83600Y152203D01*
X83587Y152280D01*
X83571Y152356D01*
X83551Y152431D01*
X83527Y152505D01*
X83500Y152578D01*
X83469Y152650D01*
X83435Y152720D01*
X83398Y152789D01*
X83357Y152855D01*
X83313Y152920D01*
X83267Y152982D01*
X83217Y153042D01*
X83165Y153100D01*
X83110Y153155D01*
X83052Y153207D01*
X82992Y153257D01*
X82930Y153303D01*
X82865Y153347D01*
X82799Y153388D01*
X82730Y153425D01*
X82660Y153459D01*
X82588Y153490D01*
X82515Y153517D01*
X82441Y153541D01*
X82366Y153561D01*
X82290Y153577D01*
X82213Y153590D01*
X82136Y153600D01*
X82058Y153605D01*
X81980Y153607D01*
X80344Y153607D01*
X75248Y153607D02*
X75163Y153605D01*
X75078Y153599D01*
X74994Y153589D01*
X74910Y153576D01*
X74826Y153558D01*
X74744Y153537D01*
X74663Y153512D01*
X74583Y153483D01*
X74504Y153450D01*
X74427Y153414D01*
X74352Y153374D01*
X74278Y153331D01*
X74207Y153285D01*
X74138Y153235D01*
X74071Y153182D01*
X74007Y153126D01*
X73946Y153067D01*
X73887Y153006D01*
X73831Y152942D01*
X73778Y152875D01*
X73728Y152806D01*
X73682Y152735D01*
X73639Y152661D01*
X73599Y152586D01*
X73563Y152509D01*
X73530Y152430D01*
X73501Y152350D01*
X73476Y152269D01*
X73455Y152187D01*
X73437Y152103D01*
X73424Y152019D01*
X73414Y151935D01*
X73408Y151850D01*
X73406Y151765D01*
X75248Y153607D02*
X75344Y153605D01*
X75440Y153599D01*
X75535Y153589D01*
X75630Y153576D01*
X75725Y153558D01*
X75818Y153537D01*
X75911Y153512D01*
X76002Y153483D01*
X76093Y153451D01*
X76182Y153415D01*
X76269Y153375D01*
X76355Y153332D01*
X76439Y153286D01*
X76521Y153236D01*
X76601Y153182D01*
X76678Y153126D01*
X76753Y153066D01*
X76826Y153004D01*
X76896Y152938D01*
X76964Y152870D01*
X77029Y152799D01*
X77090Y152726D01*
X77149Y152650D01*
X77205Y152571D01*
X77257Y152491D01*
X77306Y152408D01*
X77352Y152324D01*
X77394Y152238D01*
X77432Y152150D01*
X77467Y152061D01*
X77499Y151970D01*
X74020Y150333D02*
X73960Y150392D01*
X73903Y150454D01*
X73848Y150518D01*
X73797Y150585D01*
X73748Y150654D01*
X73702Y150724D01*
X73659Y150797D01*
X73619Y150871D01*
X73583Y150947D01*
X73550Y151025D01*
X73520Y151104D01*
X73493Y151184D01*
X73470Y151265D01*
X73451Y151347D01*
X73435Y151429D01*
X73422Y151513D01*
X73413Y151597D01*
X73408Y151681D01*
X73406Y151765D01*
X74020Y150333D02*
X77498Y146241D01*
X73406Y146241D01*
D10*
X33820Y154635D02*
X33820Y134506D01*
D12*
X50673Y144463D02*
X57277Y144463D01*
D13*
X80344Y136716D02*
X81980Y136716D01*
X81980Y136715D02*
X82058Y136717D01*
X82136Y136722D01*
X82213Y136732D01*
X82290Y136745D01*
X82366Y136761D01*
X82441Y136781D01*
X82515Y136805D01*
X82588Y136832D01*
X82660Y136863D01*
X82730Y136897D01*
X82799Y136934D01*
X82865Y136975D01*
X82930Y137019D01*
X82992Y137065D01*
X83052Y137115D01*
X83110Y137167D01*
X83165Y137222D01*
X83217Y137280D01*
X83267Y137340D01*
X83313Y137402D01*
X83357Y137467D01*
X83398Y137534D01*
X83435Y137602D01*
X83469Y137672D01*
X83500Y137744D01*
X83527Y137817D01*
X83551Y137891D01*
X83571Y137966D01*
X83587Y138042D01*
X83600Y138119D01*
X83610Y138196D01*
X83615Y138274D01*
X83617Y138352D01*
X83617Y142445D01*
X83615Y142523D01*
X83610Y142601D01*
X83600Y142678D01*
X83587Y142755D01*
X83571Y142831D01*
X83551Y142906D01*
X83527Y142980D01*
X83500Y143053D01*
X83469Y143125D01*
X83435Y143195D01*
X83398Y143264D01*
X83357Y143330D01*
X83313Y143395D01*
X83267Y143457D01*
X83217Y143517D01*
X83165Y143575D01*
X83110Y143630D01*
X83052Y143682D01*
X82992Y143732D01*
X82930Y143778D01*
X82865Y143822D01*
X82799Y143863D01*
X82730Y143900D01*
X82660Y143934D01*
X82588Y143965D01*
X82515Y143992D01*
X82441Y144016D01*
X82366Y144036D01*
X82290Y144052D01*
X82213Y144065D01*
X82136Y144075D01*
X82058Y144080D01*
X81980Y144082D01*
X80344Y144082D01*
X77498Y136716D02*
X75452Y136716D01*
X75363Y136718D01*
X75274Y136724D01*
X75185Y136734D01*
X75097Y136747D01*
X75009Y136764D01*
X74922Y136786D01*
X74837Y136811D01*
X74752Y136839D01*
X74669Y136872D01*
X74587Y136908D01*
X74507Y136947D01*
X74429Y136990D01*
X74353Y137036D01*
X74278Y137086D01*
X74206Y137139D01*
X74137Y137195D01*
X74070Y137254D01*
X74005Y137315D01*
X73944Y137380D01*
X73885Y137447D01*
X73829Y137516D01*
X73776Y137588D01*
X73726Y137663D01*
X73680Y137739D01*
X73637Y137817D01*
X73598Y137897D01*
X73562Y137979D01*
X73529Y138062D01*
X73501Y138147D01*
X73476Y138232D01*
X73454Y138319D01*
X73437Y138407D01*
X73424Y138495D01*
X73414Y138584D01*
X73408Y138673D01*
X73406Y138762D01*
X73408Y138851D01*
X73414Y138940D01*
X73424Y139029D01*
X73437Y139117D01*
X73454Y139205D01*
X73476Y139292D01*
X73501Y139377D01*
X73529Y139462D01*
X73562Y139545D01*
X73598Y139627D01*
X73637Y139707D01*
X73680Y139785D01*
X73726Y139861D01*
X73776Y139936D01*
X73829Y140008D01*
X73885Y140077D01*
X73944Y140144D01*
X74005Y140209D01*
X74070Y140270D01*
X74137Y140329D01*
X74206Y140385D01*
X74278Y140438D01*
X74353Y140488D01*
X74429Y140534D01*
X74507Y140577D01*
X74587Y140616D01*
X74669Y140652D01*
X74752Y140685D01*
X74837Y140713D01*
X74922Y140738D01*
X75009Y140760D01*
X75097Y140777D01*
X75185Y140790D01*
X75274Y140800D01*
X75363Y140806D01*
X75452Y140808D01*
X75043Y144082D02*
X77498Y144082D01*
X75043Y144082D02*
X74964Y144080D01*
X74885Y144074D01*
X74806Y144065D01*
X74728Y144052D01*
X74651Y144034D01*
X74575Y144014D01*
X74500Y143989D01*
X74426Y143961D01*
X74353Y143930D01*
X74282Y143894D01*
X74213Y143856D01*
X74146Y143814D01*
X74081Y143769D01*
X74018Y143721D01*
X73957Y143670D01*
X73900Y143616D01*
X73844Y143560D01*
X73792Y143501D01*
X73742Y143439D01*
X73696Y143375D01*
X73652Y143309D01*
X73612Y143241D01*
X73576Y143171D01*
X73542Y143099D01*
X73512Y143025D01*
X73486Y142951D01*
X73463Y142875D01*
X73445Y142798D01*
X73429Y142721D01*
X73418Y142642D01*
X73410Y142564D01*
X73406Y142485D01*
X73406Y142405D01*
X73410Y142326D01*
X73418Y142248D01*
X73429Y142169D01*
X73445Y142092D01*
X73463Y142015D01*
X73486Y141939D01*
X73512Y141865D01*
X73542Y141791D01*
X73576Y141719D01*
X73612Y141649D01*
X73652Y141581D01*
X73696Y141515D01*
X73742Y141451D01*
X73792Y141389D01*
X73844Y141330D01*
X73900Y141274D01*
X73957Y141220D01*
X74018Y141169D01*
X74081Y141121D01*
X74146Y141076D01*
X74213Y141034D01*
X74282Y140996D01*
X74353Y140960D01*
X74426Y140929D01*
X74500Y140901D01*
X74575Y140876D01*
X74651Y140856D01*
X74728Y140838D01*
X74806Y140825D01*
X74885Y140816D01*
X74964Y140810D01*
X75043Y140808D01*
X76680Y140808D01*
D12*
X57277Y109538D02*
X50673Y109538D01*
D13*
X80344Y127191D02*
X81980Y127191D01*
X81980Y127190D02*
X82058Y127192D01*
X82136Y127197D01*
X82213Y127207D01*
X82290Y127220D01*
X82366Y127236D01*
X82441Y127256D01*
X82515Y127280D01*
X82588Y127307D01*
X82660Y127338D01*
X82730Y127372D01*
X82799Y127409D01*
X82865Y127450D01*
X82930Y127494D01*
X82992Y127540D01*
X83052Y127590D01*
X83110Y127642D01*
X83165Y127697D01*
X83217Y127755D01*
X83267Y127815D01*
X83313Y127877D01*
X83357Y127942D01*
X83398Y128009D01*
X83435Y128077D01*
X83469Y128147D01*
X83500Y128219D01*
X83527Y128292D01*
X83551Y128366D01*
X83571Y128441D01*
X83587Y128517D01*
X83600Y128594D01*
X83610Y128671D01*
X83615Y128749D01*
X83617Y128827D01*
X83617Y132920D01*
X83615Y132998D01*
X83610Y133076D01*
X83600Y133153D01*
X83587Y133230D01*
X83571Y133306D01*
X83551Y133381D01*
X83527Y133455D01*
X83500Y133528D01*
X83469Y133600D01*
X83435Y133670D01*
X83398Y133739D01*
X83357Y133805D01*
X83313Y133870D01*
X83267Y133932D01*
X83217Y133992D01*
X83165Y134050D01*
X83110Y134105D01*
X83052Y134157D01*
X82992Y134207D01*
X82930Y134253D01*
X82865Y134297D01*
X82799Y134338D01*
X82730Y134375D01*
X82660Y134409D01*
X82588Y134440D01*
X82515Y134467D01*
X82441Y134491D01*
X82366Y134511D01*
X82290Y134527D01*
X82213Y134540D01*
X82136Y134550D01*
X82058Y134555D01*
X81980Y134557D01*
X80344Y134557D01*
X77498Y131283D02*
X75043Y131283D01*
X74963Y131281D01*
X74883Y131275D01*
X74803Y131265D01*
X74724Y131252D01*
X74645Y131234D01*
X74568Y131213D01*
X74492Y131187D01*
X74417Y131158D01*
X74343Y131126D01*
X74271Y131090D01*
X74201Y131050D01*
X74134Y131007D01*
X74068Y130961D01*
X74005Y130911D01*
X73944Y130859D01*
X73885Y130804D01*
X73830Y130745D01*
X73778Y130685D01*
X73728Y130621D01*
X73682Y130555D01*
X73639Y130488D01*
X73599Y130418D01*
X73563Y130346D01*
X73531Y130272D01*
X73502Y130198D01*
X73476Y130121D01*
X73455Y130044D01*
X73437Y129965D01*
X73424Y129886D01*
X73414Y129806D01*
X73408Y129726D01*
X73406Y129646D01*
X73406Y129237D01*
X73408Y129148D01*
X73414Y129059D01*
X73424Y128970D01*
X73437Y128882D01*
X73454Y128794D01*
X73476Y128707D01*
X73501Y128622D01*
X73529Y128537D01*
X73562Y128454D01*
X73598Y128372D01*
X73637Y128292D01*
X73680Y128214D01*
X73726Y128138D01*
X73776Y128063D01*
X73829Y127991D01*
X73885Y127922D01*
X73944Y127855D01*
X74005Y127790D01*
X74070Y127729D01*
X74137Y127670D01*
X74206Y127614D01*
X74278Y127561D01*
X74353Y127511D01*
X74429Y127465D01*
X74507Y127422D01*
X74587Y127383D01*
X74669Y127347D01*
X74752Y127314D01*
X74837Y127286D01*
X74922Y127261D01*
X75009Y127239D01*
X75097Y127222D01*
X75185Y127209D01*
X75274Y127199D01*
X75363Y127193D01*
X75452Y127191D01*
X75541Y127193D01*
X75630Y127199D01*
X75719Y127209D01*
X75807Y127222D01*
X75895Y127239D01*
X75982Y127261D01*
X76067Y127286D01*
X76152Y127314D01*
X76235Y127347D01*
X76317Y127383D01*
X76397Y127422D01*
X76475Y127465D01*
X76551Y127511D01*
X76626Y127561D01*
X76698Y127614D01*
X76767Y127670D01*
X76834Y127729D01*
X76899Y127790D01*
X76960Y127855D01*
X77019Y127922D01*
X77075Y127991D01*
X77128Y128063D01*
X77178Y128138D01*
X77224Y128214D01*
X77267Y128292D01*
X77306Y128372D01*
X77342Y128454D01*
X77375Y128537D01*
X77403Y128622D01*
X77428Y128707D01*
X77450Y128794D01*
X77467Y128882D01*
X77480Y128970D01*
X77490Y129059D01*
X77496Y129148D01*
X77498Y129237D01*
X77498Y131283D01*
X77496Y131395D01*
X77490Y131506D01*
X77481Y131618D01*
X77468Y131729D01*
X77450Y131839D01*
X77430Y131949D01*
X77405Y132058D01*
X77377Y132166D01*
X77345Y132273D01*
X77309Y132379D01*
X77270Y132484D01*
X77227Y132587D01*
X77181Y132689D01*
X77131Y132789D01*
X77078Y132888D01*
X77021Y132984D01*
X76962Y133079D01*
X76899Y133171D01*
X76833Y133261D01*
X76764Y133349D01*
X76692Y133435D01*
X76617Y133518D01*
X76539Y133598D01*
X76459Y133676D01*
X76376Y133751D01*
X76290Y133823D01*
X76202Y133892D01*
X76112Y133958D01*
X76020Y134021D01*
X75925Y134080D01*
X75829Y134137D01*
X75730Y134190D01*
X75630Y134240D01*
X75528Y134286D01*
X75425Y134329D01*
X75320Y134368D01*
X75214Y134404D01*
X75107Y134436D01*
X74999Y134464D01*
X74890Y134489D01*
X74780Y134509D01*
X74670Y134527D01*
X74559Y134540D01*
X74447Y134549D01*
X74336Y134555D01*
X74224Y134557D01*
D12*
X-42736Y38100D02*
X-49340Y38100D01*
D13*
X-43342Y44831D02*
X-41705Y44831D01*
X-41627Y44833D01*
X-41549Y44838D01*
X-41472Y44848D01*
X-41395Y44861D01*
X-41319Y44877D01*
X-41244Y44897D01*
X-41170Y44921D01*
X-41097Y44948D01*
X-41025Y44979D01*
X-40955Y45013D01*
X-40886Y45050D01*
X-40820Y45091D01*
X-40755Y45135D01*
X-40693Y45181D01*
X-40633Y45231D01*
X-40575Y45283D01*
X-40520Y45338D01*
X-40468Y45396D01*
X-40418Y45456D01*
X-40372Y45518D01*
X-40328Y45583D01*
X-40287Y45650D01*
X-40250Y45718D01*
X-40216Y45788D01*
X-40185Y45860D01*
X-40158Y45933D01*
X-40134Y46007D01*
X-40114Y46082D01*
X-40098Y46158D01*
X-40085Y46235D01*
X-40075Y46312D01*
X-40070Y46390D01*
X-40068Y46468D01*
X-40069Y46468D02*
X-40069Y50560D01*
X-40068Y50560D02*
X-40070Y50640D01*
X-40076Y50720D01*
X-40086Y50800D01*
X-40099Y50879D01*
X-40117Y50958D01*
X-40138Y51035D01*
X-40164Y51111D01*
X-40193Y51186D01*
X-40225Y51260D01*
X-40261Y51332D01*
X-40301Y51402D01*
X-40344Y51469D01*
X-40390Y51535D01*
X-40440Y51598D01*
X-40492Y51659D01*
X-40547Y51718D01*
X-40606Y51773D01*
X-40666Y51825D01*
X-40730Y51875D01*
X-40796Y51921D01*
X-40863Y51964D01*
X-40933Y52004D01*
X-41005Y52040D01*
X-41079Y52072D01*
X-41153Y52101D01*
X-41230Y52127D01*
X-41307Y52148D01*
X-41386Y52166D01*
X-41465Y52179D01*
X-41545Y52189D01*
X-41625Y52195D01*
X-41705Y52197D01*
X-43342Y52197D01*
X-46188Y52197D02*
X-46188Y51379D01*
X-46188Y52197D02*
X-50280Y52197D01*
X-48234Y44831D01*
D12*
X79375Y93536D02*
X79375Y100140D01*
D13*
X87503Y95869D02*
X87503Y94232D01*
X87505Y94154D01*
X87510Y94076D01*
X87520Y93999D01*
X87533Y93922D01*
X87549Y93846D01*
X87569Y93771D01*
X87593Y93697D01*
X87620Y93624D01*
X87651Y93552D01*
X87685Y93482D01*
X87722Y93414D01*
X87763Y93347D01*
X87807Y93282D01*
X87853Y93220D01*
X87903Y93160D01*
X87955Y93102D01*
X88010Y93047D01*
X88068Y92995D01*
X88128Y92945D01*
X88190Y92899D01*
X88255Y92855D01*
X88322Y92814D01*
X88390Y92777D01*
X88460Y92743D01*
X88532Y92712D01*
X88605Y92685D01*
X88679Y92661D01*
X88754Y92641D01*
X88830Y92625D01*
X88907Y92612D01*
X88984Y92602D01*
X89062Y92597D01*
X89140Y92595D01*
X93232Y92595D01*
X93310Y92597D01*
X93388Y92602D01*
X93465Y92612D01*
X93542Y92625D01*
X93618Y92641D01*
X93693Y92661D01*
X93767Y92685D01*
X93840Y92712D01*
X93912Y92743D01*
X93982Y92777D01*
X94051Y92814D01*
X94117Y92855D01*
X94182Y92899D01*
X94244Y92945D01*
X94304Y92995D01*
X94362Y93047D01*
X94417Y93102D01*
X94469Y93160D01*
X94519Y93220D01*
X94565Y93282D01*
X94609Y93347D01*
X94650Y93414D01*
X94687Y93482D01*
X94721Y93552D01*
X94752Y93624D01*
X94779Y93697D01*
X94803Y93771D01*
X94823Y93846D01*
X94839Y93922D01*
X94852Y93999D01*
X94862Y94076D01*
X94867Y94154D01*
X94869Y94232D01*
X94869Y95869D01*
X89549Y98714D02*
X89638Y98716D01*
X89727Y98722D01*
X89816Y98732D01*
X89904Y98745D01*
X89992Y98762D01*
X90079Y98784D01*
X90164Y98809D01*
X90249Y98837D01*
X90332Y98870D01*
X90414Y98906D01*
X90494Y98945D01*
X90572Y98988D01*
X90648Y99034D01*
X90723Y99084D01*
X90795Y99137D01*
X90864Y99193D01*
X90931Y99252D01*
X90996Y99313D01*
X91057Y99378D01*
X91116Y99445D01*
X91172Y99514D01*
X91225Y99586D01*
X91275Y99661D01*
X91321Y99737D01*
X91364Y99815D01*
X91403Y99895D01*
X91439Y99977D01*
X91472Y100060D01*
X91500Y100145D01*
X91525Y100230D01*
X91547Y100317D01*
X91564Y100405D01*
X91577Y100493D01*
X91587Y100582D01*
X91593Y100671D01*
X91595Y100760D01*
X91593Y100849D01*
X91587Y100938D01*
X91577Y101027D01*
X91564Y101115D01*
X91547Y101203D01*
X91525Y101290D01*
X91500Y101375D01*
X91472Y101460D01*
X91439Y101543D01*
X91403Y101625D01*
X91364Y101705D01*
X91321Y101783D01*
X91275Y101859D01*
X91225Y101934D01*
X91172Y102006D01*
X91116Y102075D01*
X91057Y102142D01*
X90996Y102207D01*
X90931Y102268D01*
X90864Y102327D01*
X90795Y102383D01*
X90723Y102436D01*
X90648Y102486D01*
X90572Y102532D01*
X90494Y102575D01*
X90414Y102614D01*
X90332Y102650D01*
X90249Y102683D01*
X90164Y102711D01*
X90079Y102736D01*
X89992Y102758D01*
X89904Y102775D01*
X89816Y102788D01*
X89727Y102798D01*
X89638Y102804D01*
X89549Y102806D01*
X89460Y102804D01*
X89371Y102798D01*
X89282Y102788D01*
X89194Y102775D01*
X89106Y102758D01*
X89019Y102736D01*
X88934Y102711D01*
X88849Y102683D01*
X88766Y102650D01*
X88684Y102614D01*
X88604Y102575D01*
X88526Y102532D01*
X88450Y102486D01*
X88375Y102436D01*
X88303Y102383D01*
X88234Y102327D01*
X88167Y102268D01*
X88102Y102207D01*
X88041Y102142D01*
X87982Y102075D01*
X87926Y102006D01*
X87873Y101934D01*
X87823Y101859D01*
X87777Y101783D01*
X87734Y101705D01*
X87695Y101625D01*
X87659Y101543D01*
X87626Y101460D01*
X87598Y101375D01*
X87573Y101290D01*
X87551Y101203D01*
X87534Y101115D01*
X87521Y101027D01*
X87511Y100938D01*
X87505Y100849D01*
X87503Y100760D01*
X87505Y100671D01*
X87511Y100582D01*
X87521Y100493D01*
X87534Y100405D01*
X87551Y100317D01*
X87573Y100230D01*
X87598Y100145D01*
X87626Y100060D01*
X87659Y99977D01*
X87695Y99895D01*
X87734Y99815D01*
X87777Y99737D01*
X87823Y99661D01*
X87873Y99586D01*
X87926Y99514D01*
X87982Y99445D01*
X88041Y99378D01*
X88102Y99313D01*
X88167Y99252D01*
X88234Y99193D01*
X88303Y99137D01*
X88375Y99084D01*
X88450Y99034D01*
X88526Y98988D01*
X88604Y98945D01*
X88684Y98906D01*
X88766Y98870D01*
X88849Y98837D01*
X88934Y98809D01*
X89019Y98784D01*
X89106Y98762D01*
X89194Y98745D01*
X89282Y98732D01*
X89371Y98722D01*
X89460Y98716D01*
X89549Y98714D01*
X93232Y99123D02*
X93311Y99125D01*
X93390Y99131D01*
X93469Y99140D01*
X93547Y99153D01*
X93624Y99171D01*
X93700Y99191D01*
X93775Y99216D01*
X93849Y99244D01*
X93922Y99275D01*
X93993Y99311D01*
X94062Y99349D01*
X94129Y99391D01*
X94194Y99436D01*
X94257Y99484D01*
X94318Y99535D01*
X94375Y99589D01*
X94431Y99645D01*
X94483Y99704D01*
X94533Y99766D01*
X94579Y99830D01*
X94623Y99896D01*
X94663Y99964D01*
X94699Y100034D01*
X94733Y100106D01*
X94763Y100180D01*
X94789Y100254D01*
X94812Y100330D01*
X94830Y100407D01*
X94846Y100484D01*
X94857Y100563D01*
X94865Y100641D01*
X94869Y100720D01*
X94869Y100800D01*
X94865Y100879D01*
X94857Y100957D01*
X94846Y101036D01*
X94830Y101113D01*
X94812Y101190D01*
X94789Y101266D01*
X94763Y101340D01*
X94733Y101414D01*
X94699Y101486D01*
X94663Y101556D01*
X94623Y101624D01*
X94579Y101690D01*
X94533Y101754D01*
X94483Y101816D01*
X94431Y101875D01*
X94375Y101931D01*
X94318Y101985D01*
X94257Y102036D01*
X94194Y102084D01*
X94129Y102129D01*
X94062Y102171D01*
X93993Y102209D01*
X93922Y102245D01*
X93849Y102276D01*
X93775Y102304D01*
X93700Y102329D01*
X93624Y102349D01*
X93547Y102367D01*
X93469Y102380D01*
X93390Y102389D01*
X93311Y102395D01*
X93232Y102397D01*
X93153Y102395D01*
X93074Y102389D01*
X92995Y102380D01*
X92917Y102367D01*
X92840Y102349D01*
X92764Y102329D01*
X92689Y102304D01*
X92615Y102276D01*
X92542Y102245D01*
X92471Y102209D01*
X92402Y102171D01*
X92335Y102129D01*
X92270Y102084D01*
X92207Y102036D01*
X92146Y101985D01*
X92089Y101931D01*
X92033Y101875D01*
X91981Y101816D01*
X91931Y101754D01*
X91885Y101690D01*
X91841Y101624D01*
X91801Y101556D01*
X91765Y101486D01*
X91731Y101414D01*
X91701Y101340D01*
X91675Y101266D01*
X91652Y101190D01*
X91634Y101113D01*
X91618Y101036D01*
X91607Y100957D01*
X91599Y100879D01*
X91595Y100800D01*
X91595Y100720D01*
X91599Y100641D01*
X91607Y100563D01*
X91618Y100484D01*
X91634Y100407D01*
X91652Y100330D01*
X91675Y100254D01*
X91701Y100180D01*
X91731Y100106D01*
X91765Y100034D01*
X91801Y99964D01*
X91841Y99896D01*
X91885Y99830D01*
X91931Y99766D01*
X91981Y99704D01*
X92033Y99645D01*
X92089Y99589D01*
X92146Y99535D01*
X92207Y99484D01*
X92270Y99436D01*
X92335Y99391D01*
X92402Y99349D01*
X92471Y99311D01*
X92542Y99275D01*
X92615Y99244D01*
X92689Y99216D01*
X92764Y99191D01*
X92840Y99171D01*
X92917Y99153D01*
X92995Y99140D01*
X93074Y99131D01*
X93153Y99125D01*
X93232Y99123D01*
D12*
X-74486Y165100D02*
X-81090Y165100D01*
D13*
X-76819Y149416D02*
X-75182Y149416D01*
X-75182Y149415D02*
X-75104Y149417D01*
X-75026Y149422D01*
X-74949Y149432D01*
X-74872Y149445D01*
X-74796Y149461D01*
X-74721Y149481D01*
X-74647Y149505D01*
X-74574Y149532D01*
X-74502Y149563D01*
X-74432Y149597D01*
X-74364Y149634D01*
X-74297Y149675D01*
X-74232Y149719D01*
X-74170Y149765D01*
X-74110Y149815D01*
X-74052Y149867D01*
X-73997Y149922D01*
X-73945Y149980D01*
X-73895Y150040D01*
X-73849Y150102D01*
X-73805Y150167D01*
X-73764Y150234D01*
X-73727Y150302D01*
X-73693Y150372D01*
X-73662Y150444D01*
X-73635Y150517D01*
X-73611Y150591D01*
X-73591Y150666D01*
X-73575Y150742D01*
X-73562Y150819D01*
X-73552Y150896D01*
X-73547Y150974D01*
X-73545Y151052D01*
X-73545Y155145D01*
X-73547Y155225D01*
X-73553Y155305D01*
X-73563Y155385D01*
X-73576Y155464D01*
X-73594Y155543D01*
X-73615Y155620D01*
X-73641Y155696D01*
X-73670Y155771D01*
X-73702Y155845D01*
X-73738Y155917D01*
X-73778Y155987D01*
X-73821Y156054D01*
X-73867Y156120D01*
X-73917Y156183D01*
X-73969Y156244D01*
X-74024Y156303D01*
X-74083Y156358D01*
X-74143Y156410D01*
X-74207Y156460D01*
X-74273Y156506D01*
X-74340Y156549D01*
X-74410Y156589D01*
X-74482Y156625D01*
X-74556Y156657D01*
X-74630Y156686D01*
X-74707Y156712D01*
X-74784Y156733D01*
X-74863Y156751D01*
X-74942Y156764D01*
X-75022Y156774D01*
X-75102Y156780D01*
X-75182Y156782D01*
X-76819Y156782D01*
X-81301Y152689D02*
X-83757Y152689D01*
X-81301Y152689D02*
X-81223Y152691D01*
X-81145Y152696D01*
X-81068Y152706D01*
X-80991Y152719D01*
X-80915Y152735D01*
X-80840Y152755D01*
X-80766Y152779D01*
X-80693Y152806D01*
X-80621Y152837D01*
X-80551Y152871D01*
X-80482Y152908D01*
X-80416Y152949D01*
X-80351Y152993D01*
X-80289Y153039D01*
X-80229Y153089D01*
X-80171Y153141D01*
X-80116Y153196D01*
X-80064Y153254D01*
X-80014Y153314D01*
X-79968Y153376D01*
X-79924Y153441D01*
X-79883Y153508D01*
X-79846Y153576D01*
X-79812Y153646D01*
X-79781Y153718D01*
X-79754Y153791D01*
X-79730Y153865D01*
X-79710Y153940D01*
X-79694Y154016D01*
X-79681Y154093D01*
X-79671Y154170D01*
X-79666Y154248D01*
X-79664Y154326D01*
X-79664Y154735D01*
X-79666Y154824D01*
X-79672Y154913D01*
X-79682Y155002D01*
X-79695Y155090D01*
X-79712Y155178D01*
X-79734Y155265D01*
X-79759Y155350D01*
X-79787Y155435D01*
X-79820Y155518D01*
X-79856Y155600D01*
X-79895Y155680D01*
X-79938Y155758D01*
X-79984Y155834D01*
X-80034Y155909D01*
X-80087Y155981D01*
X-80143Y156050D01*
X-80202Y156117D01*
X-80263Y156182D01*
X-80328Y156243D01*
X-80395Y156302D01*
X-80464Y156358D01*
X-80536Y156411D01*
X-80611Y156461D01*
X-80687Y156507D01*
X-80765Y156550D01*
X-80845Y156589D01*
X-80927Y156625D01*
X-81010Y156658D01*
X-81095Y156686D01*
X-81180Y156711D01*
X-81267Y156733D01*
X-81355Y156750D01*
X-81443Y156763D01*
X-81532Y156773D01*
X-81621Y156779D01*
X-81710Y156781D01*
X-81799Y156779D01*
X-81888Y156773D01*
X-81977Y156763D01*
X-82065Y156750D01*
X-82153Y156733D01*
X-82240Y156711D01*
X-82325Y156686D01*
X-82410Y156658D01*
X-82493Y156625D01*
X-82575Y156589D01*
X-82655Y156550D01*
X-82733Y156507D01*
X-82809Y156461D01*
X-82884Y156411D01*
X-82956Y156358D01*
X-83025Y156302D01*
X-83092Y156243D01*
X-83157Y156182D01*
X-83218Y156117D01*
X-83277Y156050D01*
X-83333Y155981D01*
X-83386Y155909D01*
X-83436Y155834D01*
X-83482Y155758D01*
X-83525Y155680D01*
X-83564Y155600D01*
X-83600Y155518D01*
X-83633Y155435D01*
X-83661Y155350D01*
X-83686Y155265D01*
X-83708Y155178D01*
X-83725Y155090D01*
X-83738Y155002D01*
X-83748Y154913D01*
X-83754Y154824D01*
X-83756Y154735D01*
X-83757Y154735D02*
X-83757Y152689D01*
X-83755Y152577D01*
X-83749Y152466D01*
X-83740Y152354D01*
X-83727Y152243D01*
X-83709Y152133D01*
X-83689Y152023D01*
X-83664Y151914D01*
X-83636Y151806D01*
X-83604Y151699D01*
X-83568Y151593D01*
X-83529Y151488D01*
X-83486Y151385D01*
X-83440Y151283D01*
X-83390Y151183D01*
X-83337Y151084D01*
X-83280Y150988D01*
X-83221Y150893D01*
X-83158Y150801D01*
X-83092Y150711D01*
X-83023Y150623D01*
X-82951Y150537D01*
X-82876Y150454D01*
X-82798Y150374D01*
X-82718Y150296D01*
X-82635Y150221D01*
X-82549Y150149D01*
X-82461Y150080D01*
X-82371Y150014D01*
X-82279Y149951D01*
X-82184Y149892D01*
X-82088Y149835D01*
X-81989Y149782D01*
X-81889Y149732D01*
X-81787Y149686D01*
X-81684Y149643D01*
X-81579Y149604D01*
X-81473Y149568D01*
X-81366Y149536D01*
X-81258Y149508D01*
X-81149Y149483D01*
X-81039Y149463D01*
X-80929Y149445D01*
X-80818Y149432D01*
X-80706Y149423D01*
X-80595Y149417D01*
X-80483Y149415D01*
D14*
X45225Y195413D02*
X62725Y195413D01*
X62725Y182413D02*
X45225Y182413D01*
D13*
X34582Y186094D02*
X34582Y193460D01*
X32535Y193460D01*
X32535Y193459D02*
X32446Y193457D01*
X32357Y193451D01*
X32268Y193441D01*
X32180Y193428D01*
X32092Y193411D01*
X32005Y193389D01*
X31920Y193364D01*
X31835Y193336D01*
X31752Y193303D01*
X31670Y193267D01*
X31590Y193228D01*
X31512Y193185D01*
X31436Y193139D01*
X31361Y193089D01*
X31289Y193036D01*
X31220Y192980D01*
X31153Y192921D01*
X31088Y192860D01*
X31027Y192795D01*
X30968Y192728D01*
X30912Y192659D01*
X30859Y192587D01*
X30809Y192512D01*
X30763Y192436D01*
X30720Y192358D01*
X30681Y192278D01*
X30645Y192196D01*
X30612Y192113D01*
X30584Y192028D01*
X30559Y191943D01*
X30537Y191856D01*
X30520Y191768D01*
X30507Y191680D01*
X30497Y191591D01*
X30491Y191502D01*
X30489Y191413D01*
X30489Y188140D01*
X30491Y188051D01*
X30497Y187962D01*
X30507Y187873D01*
X30520Y187785D01*
X30537Y187697D01*
X30559Y187610D01*
X30584Y187525D01*
X30612Y187440D01*
X30645Y187357D01*
X30681Y187275D01*
X30720Y187195D01*
X30763Y187117D01*
X30809Y187041D01*
X30859Y186966D01*
X30912Y186894D01*
X30968Y186825D01*
X31027Y186758D01*
X31088Y186693D01*
X31153Y186632D01*
X31220Y186573D01*
X31289Y186517D01*
X31361Y186464D01*
X31436Y186414D01*
X31512Y186368D01*
X31590Y186325D01*
X31670Y186286D01*
X31752Y186250D01*
X31835Y186217D01*
X31920Y186189D01*
X32005Y186164D01*
X32092Y186142D01*
X32180Y186125D01*
X32268Y186112D01*
X32357Y186102D01*
X32446Y186096D01*
X32535Y186094D01*
X34582Y186094D01*
X24772Y193460D02*
X24687Y193458D01*
X24602Y193452D01*
X24518Y193442D01*
X24434Y193429D01*
X24350Y193411D01*
X24268Y193390D01*
X24187Y193365D01*
X24107Y193336D01*
X24028Y193303D01*
X23951Y193267D01*
X23876Y193227D01*
X23802Y193184D01*
X23731Y193138D01*
X23662Y193088D01*
X23595Y193035D01*
X23531Y192979D01*
X23470Y192920D01*
X23411Y192859D01*
X23355Y192795D01*
X23302Y192728D01*
X23252Y192659D01*
X23206Y192588D01*
X23163Y192514D01*
X23123Y192439D01*
X23087Y192362D01*
X23054Y192283D01*
X23025Y192203D01*
X23000Y192122D01*
X22979Y192040D01*
X22961Y191956D01*
X22948Y191872D01*
X22938Y191788D01*
X22932Y191703D01*
X22930Y191618D01*
X24772Y193460D02*
X24868Y193458D01*
X24964Y193452D01*
X25059Y193442D01*
X25154Y193429D01*
X25249Y193411D01*
X25342Y193390D01*
X25435Y193365D01*
X25526Y193336D01*
X25617Y193304D01*
X25706Y193268D01*
X25793Y193228D01*
X25879Y193185D01*
X25963Y193139D01*
X26045Y193089D01*
X26125Y193035D01*
X26202Y192979D01*
X26277Y192919D01*
X26350Y192857D01*
X26420Y192791D01*
X26488Y192723D01*
X26553Y192652D01*
X26614Y192579D01*
X26673Y192503D01*
X26729Y192424D01*
X26781Y192344D01*
X26830Y192261D01*
X26876Y192177D01*
X26918Y192091D01*
X26956Y192003D01*
X26991Y191914D01*
X27023Y191823D01*
X23544Y190186D02*
X23484Y190245D01*
X23427Y190307D01*
X23372Y190371D01*
X23321Y190438D01*
X23272Y190507D01*
X23226Y190577D01*
X23183Y190650D01*
X23143Y190724D01*
X23107Y190800D01*
X23074Y190878D01*
X23044Y190957D01*
X23017Y191037D01*
X22994Y191118D01*
X22975Y191200D01*
X22959Y191282D01*
X22946Y191366D01*
X22937Y191450D01*
X22932Y191534D01*
X22930Y191618D01*
X23544Y190186D02*
X27022Y186094D01*
X22930Y186094D01*
D15*
X44196Y171958D02*
X44196Y158242D01*
D13*
X36322Y159131D02*
X28956Y159131D01*
X36322Y159131D02*
X36322Y162405D01*
X33048Y162405D02*
X33048Y159131D01*
X33048Y165573D02*
X33048Y167619D01*
X33046Y167708D01*
X33040Y167797D01*
X33030Y167886D01*
X33017Y167974D01*
X33000Y168062D01*
X32978Y168149D01*
X32953Y168234D01*
X32925Y168319D01*
X32892Y168402D01*
X32856Y168484D01*
X32817Y168564D01*
X32774Y168642D01*
X32728Y168718D01*
X32678Y168793D01*
X32625Y168865D01*
X32569Y168934D01*
X32510Y169001D01*
X32449Y169066D01*
X32384Y169127D01*
X32317Y169186D01*
X32248Y169242D01*
X32176Y169295D01*
X32101Y169345D01*
X32025Y169391D01*
X31947Y169434D01*
X31867Y169473D01*
X31785Y169509D01*
X31702Y169542D01*
X31617Y169570D01*
X31532Y169595D01*
X31445Y169617D01*
X31357Y169634D01*
X31269Y169647D01*
X31180Y169657D01*
X31091Y169663D01*
X31002Y169665D01*
X30913Y169663D01*
X30824Y169657D01*
X30735Y169647D01*
X30647Y169634D01*
X30559Y169617D01*
X30472Y169595D01*
X30387Y169570D01*
X30302Y169542D01*
X30219Y169509D01*
X30137Y169473D01*
X30057Y169434D01*
X29979Y169391D01*
X29903Y169345D01*
X29828Y169295D01*
X29756Y169242D01*
X29687Y169186D01*
X29620Y169127D01*
X29555Y169066D01*
X29494Y169001D01*
X29435Y168934D01*
X29379Y168865D01*
X29326Y168793D01*
X29276Y168718D01*
X29230Y168642D01*
X29187Y168564D01*
X29148Y168484D01*
X29112Y168402D01*
X29079Y168319D01*
X29051Y168234D01*
X29026Y168149D01*
X29004Y168062D01*
X28987Y167974D01*
X28974Y167886D01*
X28964Y167797D01*
X28958Y167708D01*
X28956Y167619D01*
X28956Y165573D01*
X36322Y165573D01*
X36322Y167619D01*
X36320Y167698D01*
X36314Y167777D01*
X36305Y167856D01*
X36292Y167934D01*
X36274Y168011D01*
X36254Y168087D01*
X36229Y168162D01*
X36201Y168236D01*
X36170Y168309D01*
X36134Y168380D01*
X36096Y168449D01*
X36054Y168516D01*
X36009Y168581D01*
X35961Y168644D01*
X35910Y168705D01*
X35856Y168762D01*
X35800Y168818D01*
X35741Y168870D01*
X35679Y168920D01*
X35615Y168966D01*
X35549Y169010D01*
X35481Y169050D01*
X35411Y169086D01*
X35339Y169120D01*
X35265Y169150D01*
X35191Y169176D01*
X35115Y169199D01*
X35038Y169217D01*
X34961Y169233D01*
X34882Y169244D01*
X34804Y169252D01*
X34725Y169256D01*
X34645Y169256D01*
X34566Y169252D01*
X34488Y169244D01*
X34409Y169233D01*
X34332Y169217D01*
X34255Y169199D01*
X34179Y169176D01*
X34105Y169150D01*
X34031Y169120D01*
X33959Y169086D01*
X33889Y169050D01*
X33821Y169010D01*
X33755Y168966D01*
X33691Y168920D01*
X33629Y168870D01*
X33570Y168818D01*
X33514Y168762D01*
X33460Y168705D01*
X33409Y168644D01*
X33361Y168581D01*
X33316Y168516D01*
X33274Y168449D01*
X33236Y168380D01*
X33200Y168309D01*
X33169Y168236D01*
X33141Y168162D01*
X33116Y168087D01*
X33096Y168011D01*
X33078Y167934D01*
X33065Y167856D01*
X33056Y167777D01*
X33050Y167698D01*
X33048Y167619D01*
X34685Y172526D02*
X36322Y174573D01*
X28956Y174573D01*
X28956Y176619D02*
X28956Y172526D01*
D12*
X-69850Y254127D02*
X-69850Y260477D01*
D13*
X-61532Y251206D02*
X-54166Y251206D01*
X-54166Y253252D01*
X-54168Y253341D01*
X-54174Y253430D01*
X-54184Y253519D01*
X-54197Y253607D01*
X-54214Y253695D01*
X-54236Y253782D01*
X-54261Y253867D01*
X-54289Y253952D01*
X-54322Y254035D01*
X-54358Y254117D01*
X-54397Y254197D01*
X-54440Y254275D01*
X-54486Y254351D01*
X-54536Y254426D01*
X-54589Y254498D01*
X-54645Y254567D01*
X-54704Y254634D01*
X-54765Y254699D01*
X-54830Y254760D01*
X-54897Y254819D01*
X-54966Y254875D01*
X-55038Y254928D01*
X-55113Y254978D01*
X-55189Y255024D01*
X-55267Y255067D01*
X-55347Y255106D01*
X-55429Y255142D01*
X-55512Y255175D01*
X-55597Y255203D01*
X-55682Y255228D01*
X-55769Y255250D01*
X-55857Y255267D01*
X-55945Y255280D01*
X-56034Y255290D01*
X-56123Y255296D01*
X-56212Y255298D01*
X-56301Y255296D01*
X-56390Y255290D01*
X-56479Y255280D01*
X-56567Y255267D01*
X-56655Y255250D01*
X-56742Y255228D01*
X-56827Y255203D01*
X-56912Y255175D01*
X-56995Y255142D01*
X-57077Y255106D01*
X-57157Y255067D01*
X-57235Y255024D01*
X-57311Y254978D01*
X-57386Y254928D01*
X-57458Y254875D01*
X-57527Y254819D01*
X-57594Y254760D01*
X-57659Y254699D01*
X-57720Y254634D01*
X-57779Y254567D01*
X-57835Y254498D01*
X-57888Y254426D01*
X-57938Y254351D01*
X-57984Y254275D01*
X-58027Y254197D01*
X-58066Y254117D01*
X-58102Y254035D01*
X-58135Y253952D01*
X-58163Y253867D01*
X-58188Y253782D01*
X-58210Y253695D01*
X-58227Y253607D01*
X-58240Y253519D01*
X-58250Y253430D01*
X-58256Y253341D01*
X-58258Y253252D01*
X-58258Y251206D01*
X-58258Y253661D02*
X-61532Y255298D01*
X-55802Y258470D02*
X-54166Y260516D01*
X-61532Y260516D01*
X-61532Y258470D02*
X-61532Y262562D01*
D12*
X63500Y168148D02*
X63500Y161798D01*
D13*
X71628Y159713D02*
X78994Y159713D01*
X78994Y161759D01*
X78992Y161848D01*
X78986Y161937D01*
X78976Y162026D01*
X78963Y162114D01*
X78946Y162202D01*
X78924Y162289D01*
X78899Y162374D01*
X78871Y162459D01*
X78838Y162542D01*
X78802Y162624D01*
X78763Y162704D01*
X78720Y162782D01*
X78674Y162858D01*
X78624Y162933D01*
X78571Y163005D01*
X78515Y163074D01*
X78456Y163141D01*
X78395Y163206D01*
X78330Y163267D01*
X78263Y163326D01*
X78194Y163382D01*
X78122Y163435D01*
X78047Y163485D01*
X77971Y163531D01*
X77893Y163574D01*
X77813Y163613D01*
X77731Y163649D01*
X77648Y163682D01*
X77563Y163710D01*
X77478Y163735D01*
X77391Y163757D01*
X77303Y163774D01*
X77215Y163787D01*
X77126Y163797D01*
X77037Y163803D01*
X76948Y163805D01*
X76859Y163803D01*
X76770Y163797D01*
X76681Y163787D01*
X76593Y163774D01*
X76505Y163757D01*
X76418Y163735D01*
X76333Y163710D01*
X76248Y163682D01*
X76165Y163649D01*
X76083Y163613D01*
X76003Y163574D01*
X75925Y163531D01*
X75849Y163485D01*
X75774Y163435D01*
X75702Y163382D01*
X75633Y163326D01*
X75566Y163267D01*
X75501Y163206D01*
X75440Y163141D01*
X75381Y163074D01*
X75325Y163005D01*
X75272Y162933D01*
X75222Y162858D01*
X75176Y162782D01*
X75133Y162704D01*
X75094Y162624D01*
X75058Y162542D01*
X75025Y162459D01*
X74997Y162374D01*
X74972Y162289D01*
X74950Y162202D01*
X74933Y162114D01*
X74920Y162026D01*
X74910Y161937D01*
X74904Y161848D01*
X74902Y161759D01*
X74902Y159713D01*
X74902Y162168D02*
X71628Y163805D01*
X77153Y171070D02*
X77238Y171068D01*
X77323Y171062D01*
X77407Y171052D01*
X77491Y171039D01*
X77575Y171021D01*
X77657Y171000D01*
X77738Y170975D01*
X77818Y170946D01*
X77897Y170913D01*
X77974Y170877D01*
X78049Y170837D01*
X78123Y170794D01*
X78194Y170748D01*
X78263Y170698D01*
X78330Y170645D01*
X78394Y170589D01*
X78455Y170530D01*
X78514Y170469D01*
X78570Y170405D01*
X78623Y170338D01*
X78673Y170269D01*
X78719Y170198D01*
X78762Y170124D01*
X78802Y170049D01*
X78838Y169972D01*
X78871Y169893D01*
X78900Y169813D01*
X78925Y169732D01*
X78946Y169650D01*
X78964Y169566D01*
X78977Y169482D01*
X78987Y169398D01*
X78993Y169313D01*
X78995Y169228D01*
X78994Y169228D02*
X78992Y169132D01*
X78986Y169036D01*
X78976Y168941D01*
X78963Y168846D01*
X78945Y168751D01*
X78924Y168658D01*
X78899Y168565D01*
X78870Y168474D01*
X78838Y168383D01*
X78802Y168294D01*
X78762Y168207D01*
X78719Y168121D01*
X78673Y168037D01*
X78623Y167955D01*
X78569Y167875D01*
X78513Y167798D01*
X78453Y167723D01*
X78391Y167650D01*
X78325Y167580D01*
X78257Y167512D01*
X78186Y167447D01*
X78113Y167386D01*
X78037Y167327D01*
X77958Y167271D01*
X77878Y167219D01*
X77795Y167170D01*
X77711Y167124D01*
X77625Y167082D01*
X77537Y167044D01*
X77448Y167009D01*
X77357Y166977D01*
X75721Y170455D02*
X75780Y170515D01*
X75842Y170572D01*
X75906Y170627D01*
X75973Y170678D01*
X76042Y170727D01*
X76112Y170773D01*
X76185Y170816D01*
X76259Y170856D01*
X76335Y170892D01*
X76413Y170925D01*
X76492Y170955D01*
X76572Y170982D01*
X76653Y171005D01*
X76735Y171024D01*
X76817Y171040D01*
X76901Y171053D01*
X76985Y171062D01*
X77069Y171067D01*
X77153Y171069D01*
X75720Y170455D02*
X71628Y166977D01*
X71628Y171069D01*
D12*
X-49213Y149098D02*
X-49213Y142748D01*
D13*
X-52197Y162888D02*
X-44831Y162888D01*
X-44831Y164934D01*
X-44833Y165023D01*
X-44839Y165112D01*
X-44849Y165201D01*
X-44862Y165289D01*
X-44879Y165377D01*
X-44901Y165464D01*
X-44926Y165549D01*
X-44954Y165634D01*
X-44987Y165717D01*
X-45023Y165799D01*
X-45062Y165879D01*
X-45105Y165957D01*
X-45151Y166033D01*
X-45201Y166108D01*
X-45254Y166180D01*
X-45310Y166249D01*
X-45369Y166316D01*
X-45430Y166381D01*
X-45495Y166442D01*
X-45562Y166501D01*
X-45631Y166557D01*
X-45703Y166610D01*
X-45778Y166660D01*
X-45854Y166706D01*
X-45932Y166749D01*
X-46012Y166788D01*
X-46094Y166824D01*
X-46177Y166857D01*
X-46262Y166885D01*
X-46347Y166910D01*
X-46434Y166932D01*
X-46522Y166949D01*
X-46610Y166962D01*
X-46699Y166972D01*
X-46788Y166978D01*
X-46877Y166980D01*
X-46966Y166978D01*
X-47055Y166972D01*
X-47144Y166962D01*
X-47232Y166949D01*
X-47320Y166932D01*
X-47407Y166910D01*
X-47492Y166885D01*
X-47577Y166857D01*
X-47660Y166824D01*
X-47742Y166788D01*
X-47822Y166749D01*
X-47900Y166706D01*
X-47976Y166660D01*
X-48051Y166610D01*
X-48123Y166557D01*
X-48192Y166501D01*
X-48259Y166442D01*
X-48324Y166381D01*
X-48385Y166316D01*
X-48444Y166249D01*
X-48500Y166180D01*
X-48553Y166108D01*
X-48603Y166033D01*
X-48649Y165957D01*
X-48692Y165879D01*
X-48731Y165799D01*
X-48767Y165717D01*
X-48800Y165634D01*
X-48828Y165549D01*
X-48853Y165464D01*
X-48875Y165377D01*
X-48892Y165289D01*
X-48905Y165201D01*
X-48915Y165112D01*
X-48921Y165023D01*
X-48923Y164934D01*
X-48923Y162888D01*
X-48923Y165343D02*
X-52197Y166980D01*
X-52197Y170152D02*
X-52197Y172198D01*
X-52195Y172287D01*
X-52189Y172376D01*
X-52179Y172465D01*
X-52166Y172553D01*
X-52149Y172641D01*
X-52127Y172728D01*
X-52102Y172813D01*
X-52074Y172898D01*
X-52041Y172981D01*
X-52005Y173063D01*
X-51966Y173143D01*
X-51923Y173221D01*
X-51877Y173297D01*
X-51827Y173372D01*
X-51774Y173444D01*
X-51718Y173513D01*
X-51659Y173580D01*
X-51598Y173645D01*
X-51533Y173706D01*
X-51466Y173765D01*
X-51397Y173821D01*
X-51325Y173874D01*
X-51250Y173924D01*
X-51174Y173970D01*
X-51096Y174013D01*
X-51016Y174052D01*
X-50934Y174088D01*
X-50851Y174121D01*
X-50766Y174149D01*
X-50681Y174174D01*
X-50594Y174196D01*
X-50506Y174213D01*
X-50418Y174226D01*
X-50329Y174236D01*
X-50240Y174242D01*
X-50151Y174244D01*
X-50062Y174242D01*
X-49973Y174236D01*
X-49884Y174226D01*
X-49796Y174213D01*
X-49708Y174196D01*
X-49621Y174174D01*
X-49536Y174149D01*
X-49451Y174121D01*
X-49368Y174088D01*
X-49286Y174052D01*
X-49206Y174013D01*
X-49128Y173970D01*
X-49052Y173924D01*
X-48977Y173874D01*
X-48905Y173821D01*
X-48836Y173765D01*
X-48769Y173706D01*
X-48704Y173645D01*
X-48643Y173580D01*
X-48584Y173513D01*
X-48528Y173444D01*
X-48475Y173372D01*
X-48425Y173297D01*
X-48379Y173221D01*
X-48336Y173143D01*
X-48297Y173063D01*
X-48261Y172981D01*
X-48228Y172898D01*
X-48200Y172813D01*
X-48175Y172728D01*
X-48153Y172641D01*
X-48136Y172553D01*
X-48123Y172465D01*
X-48113Y172376D01*
X-48107Y172287D01*
X-48105Y172198D01*
X-44831Y172607D02*
X-44831Y170152D01*
X-44831Y172607D02*
X-44833Y172686D01*
X-44839Y172765D01*
X-44848Y172844D01*
X-44861Y172922D01*
X-44879Y172999D01*
X-44899Y173075D01*
X-44924Y173150D01*
X-44952Y173224D01*
X-44983Y173297D01*
X-45019Y173368D01*
X-45057Y173437D01*
X-45099Y173504D01*
X-45144Y173569D01*
X-45192Y173632D01*
X-45243Y173693D01*
X-45297Y173750D01*
X-45353Y173806D01*
X-45412Y173858D01*
X-45474Y173908D01*
X-45538Y173954D01*
X-45604Y173998D01*
X-45672Y174038D01*
X-45742Y174074D01*
X-45814Y174108D01*
X-45888Y174138D01*
X-45962Y174164D01*
X-46038Y174187D01*
X-46115Y174205D01*
X-46192Y174221D01*
X-46271Y174232D01*
X-46349Y174240D01*
X-46428Y174244D01*
X-46508Y174244D01*
X-46587Y174240D01*
X-46665Y174232D01*
X-46744Y174221D01*
X-46821Y174205D01*
X-46898Y174187D01*
X-46974Y174164D01*
X-47048Y174138D01*
X-47122Y174108D01*
X-47194Y174074D01*
X-47264Y174038D01*
X-47332Y173998D01*
X-47398Y173954D01*
X-47462Y173908D01*
X-47524Y173858D01*
X-47583Y173806D01*
X-47639Y173750D01*
X-47693Y173693D01*
X-47744Y173632D01*
X-47792Y173569D01*
X-47837Y173504D01*
X-47879Y173437D01*
X-47917Y173368D01*
X-47953Y173297D01*
X-47984Y173224D01*
X-48012Y173150D01*
X-48037Y173075D01*
X-48057Y172999D01*
X-48075Y172922D01*
X-48088Y172844D01*
X-48097Y172765D01*
X-48103Y172686D01*
X-48105Y172607D01*
X-48105Y170970D01*
X30817Y123910D02*
X30817Y119931D01*
X28496Y116947D01*
X30817Y119931D02*
X33139Y116947D01*
X30817Y119931D02*
X27170Y121258D01*
X30817Y119931D02*
X34465Y121258D01*
D16*
X581Y133943D02*
X581Y139446D01*
X581Y133943D02*
X579Y133852D01*
X573Y133761D01*
X563Y133670D01*
X550Y133580D01*
X532Y133491D01*
X511Y133402D01*
X486Y133315D01*
X457Y133228D01*
X424Y133143D01*
X388Y133060D01*
X348Y132978D01*
X305Y132898D01*
X258Y132819D01*
X208Y132743D01*
X155Y132669D01*
X99Y132598D01*
X39Y132529D01*
X-23Y132462D01*
X-88Y132399D01*
X-156Y132338D01*
X-226Y132280D01*
X-299Y132225D01*
X-374Y132173D01*
X-451Y132125D01*
X-531Y132080D01*
X-612Y132038D01*
X-694Y132000D01*
X-779Y131966D01*
X-865Y131935D01*
X-952Y131908D01*
X-1040Y131885D01*
X-1129Y131866D01*
X-1218Y131850D01*
X-1309Y131838D01*
X-1399Y131830D01*
X-1490Y131826D01*
X-1582Y131826D01*
X-1673Y131830D01*
X-1763Y131838D01*
X-1854Y131850D01*
X-1943Y131866D01*
X-2032Y131885D01*
X-2120Y131908D01*
X-2207Y131935D01*
X-2293Y131966D01*
X-2378Y132000D01*
X-2460Y132038D01*
X-2541Y132080D01*
X-2621Y132125D01*
X-2698Y132173D01*
X-2773Y132225D01*
X-2846Y132280D01*
X-2916Y132338D01*
X-2984Y132399D01*
X-3049Y132462D01*
X-3111Y132529D01*
X-3171Y132598D01*
X-3227Y132669D01*
X-3280Y132743D01*
X-3330Y132819D01*
X-3377Y132898D01*
X-3420Y132978D01*
X-3460Y133060D01*
X-3496Y133143D01*
X-3529Y133228D01*
X-3558Y133315D01*
X-3583Y133402D01*
X-3604Y133491D01*
X-3622Y133580D01*
X-3635Y133670D01*
X-3645Y133761D01*
X-3651Y133852D01*
X-3653Y133943D01*
X-3652Y133943D02*
X-3652Y139446D01*
X-6978Y137753D02*
X-9095Y139446D01*
X-9095Y131826D01*
X-11211Y131826D02*
X-6978Y131826D01*
D13*
X52372Y63119D02*
X57283Y55753D01*
X52372Y55753D02*
X57283Y63119D01*
X49558Y61482D02*
X47512Y63119D01*
X47512Y55753D01*
X49558Y55753D02*
X45466Y55753D01*
M02*
