G04 EAGLE Gerber RS-274X export*
G75*
%MOMM*%
%FSLAX34Y34*%
%LPD*%
%INSilkscreen Top*%
%IPPOS*%
%AMOC8*
5,1,8,0,0,1.08239X$1,22.5*%
G01*
%ADD10C,0.101600*%
%ADD11C,0.152400*%
%ADD12C,0.127000*%
%ADD13C,0.076200*%
%ADD14R,0.259075X0.015238*%
%ADD15R,1.310638X0.015238*%
%ADD16R,0.015238X0.015238*%
%ADD17R,0.304800X0.015238*%
%ADD18R,1.356356X0.015238*%
%ADD19R,0.335275X0.015238*%
%ADD20R,1.402075X0.015238*%
%ADD21R,0.365756X0.015238*%
%ADD22R,1.417319X0.015238*%
%ADD23R,0.381000X0.015238*%
%ADD24R,1.447800X0.015238*%
%ADD25R,0.396238X0.015238*%
%ADD26R,1.463037X0.015238*%
%ADD27R,0.411475X0.015238*%
%ADD28R,1.478275X0.015238*%
%ADD29R,0.426719X0.015238*%
%ADD30R,1.493519X0.015238*%
%ADD31R,0.441956X0.015238*%
%ADD32R,1.508756X0.015238*%
%ADD33R,0.457200X0.015238*%
%ADD34R,1.524000X0.015238*%
%ADD35R,0.472438X0.015238*%
%ADD36R,1.539238X0.015238*%
%ADD37R,0.487675X0.015238*%
%ADD38R,1.554475X0.015238*%
%ADD39R,0.502919X0.015238*%
%ADD40R,1.569719X0.015238*%
%ADD41R,0.518156X0.015238*%
%ADD42R,1.584956X0.015238*%
%ADD43R,0.533400X0.015238*%
%ADD44R,1.600200X0.015238*%
%ADD45R,0.548638X0.015238*%
%ADD46R,1.615438X0.015238*%
%ADD47R,0.563875X0.015238*%
%ADD48R,1.630675X0.015238*%
%ADD49R,0.579119X0.015238*%
%ADD50R,1.645919X0.015238*%
%ADD51R,0.594356X0.015238*%
%ADD52R,1.661156X0.015238*%
%ADD53R,0.609600X0.015238*%
%ADD54R,1.676400X0.015238*%
%ADD55R,0.624838X0.015238*%
%ADD56R,1.691638X0.015238*%
%ADD57R,0.640075X0.015238*%
%ADD58R,1.706875X0.015238*%
%ADD59R,0.655319X0.015238*%
%ADD60R,1.722119X0.015238*%
%ADD61R,0.670556X0.015238*%
%ADD62R,1.737356X0.015238*%
%ADD63R,0.685800X0.015238*%
%ADD64R,1.752600X0.015238*%
%ADD65R,0.701037X0.015238*%
%ADD66R,0.716275X0.015238*%
%ADD67R,0.731519X0.015238*%
%ADD68R,1.767838X0.015238*%
%ADD69R,1.783075X0.015238*%
%ADD70R,0.746756X0.015238*%
%ADD71R,1.798319X0.015238*%
%ADD72R,0.030481X0.015238*%
%ADD73R,0.762000X0.015238*%
%ADD74R,0.807719X0.015238*%
%ADD75R,0.868681X0.015238*%
%ADD76R,0.777238X0.015238*%
%ADD77R,0.853438X0.015238*%
%ADD78R,0.838200X0.015238*%
%ADD79R,0.792475X0.015238*%
%ADD80R,0.822963X0.015238*%
%ADD81R,0.822956X0.015238*%
%ADD82R,0.868675X0.015238*%
%ADD83R,0.883919X0.015238*%
%ADD84R,0.899156X0.015238*%
%ADD85R,0.914400X0.015238*%
%ADD86R,0.929638X0.015238*%
%ADD87R,0.944875X0.015238*%
%ADD88R,0.960119X0.015238*%
%ADD89R,0.975356X0.015238*%
%ADD90R,0.990600X0.015238*%
%ADD91R,1.005837X0.015238*%
%ADD92R,1.021075X0.015238*%
%ADD93R,1.036319X0.015238*%
%ADD94R,1.051556X0.015238*%
%ADD95R,1.066800X0.015238*%
%ADD96R,1.082037X0.015238*%
%ADD97R,1.097275X0.015238*%
%ADD98R,1.112519X0.015238*%
%ADD99R,1.127756X0.015238*%
%ADD100R,1.143000X0.015238*%
%ADD101R,1.158238X0.015238*%
%ADD102R,1.173475X0.015238*%
%ADD103R,1.188719X0.015238*%
%ADD104R,1.203956X0.015238*%
%ADD105R,1.219200X0.015238*%
%ADD106R,1.234438X0.015238*%
%ADD107R,1.249675X0.015238*%
%ADD108R,1.264919X0.015238*%
%ADD109R,1.280156X0.015238*%
%ADD110R,1.295400X0.015238*%
%ADD111R,1.325875X0.015238*%
%ADD112R,0.670563X0.015238*%
%ADD113R,1.341119X0.015238*%
%ADD114R,1.371600X0.015238*%
%ADD115R,1.386838X0.015238*%
%ADD116R,0.045719X0.015238*%
%ADD117R,0.060956X0.015238*%
%ADD118R,1.432556X0.015238*%
%ADD119R,0.106681X0.015238*%
%ADD120R,0.121919X0.015238*%
%ADD121R,0.152400X0.015238*%
%ADD122R,0.182875X0.015238*%
%ADD123R,0.030475X0.015238*%
%ADD124R,0.213363X0.015238*%
%ADD125R,0.076200X0.015238*%
%ADD126R,0.320038X0.015238*%
%ADD127R,0.243838X0.015238*%
%ADD128R,0.106675X0.015238*%
%ADD129R,0.274319X0.015238*%
%ADD130R,0.259081X0.015238*%
%ADD131R,0.198119X0.015238*%
%ADD132R,0.228600X0.015238*%


D10*
X36124Y284671D02*
X39370Y284671D01*
X39370Y284670D02*
X39483Y284672D01*
X39596Y284678D01*
X39709Y284688D01*
X39822Y284702D01*
X39934Y284719D01*
X40045Y284741D01*
X40155Y284766D01*
X40265Y284796D01*
X40373Y284829D01*
X40480Y284866D01*
X40586Y284906D01*
X40690Y284951D01*
X40793Y284999D01*
X40894Y285050D01*
X40993Y285105D01*
X41090Y285163D01*
X41185Y285225D01*
X41278Y285290D01*
X41368Y285358D01*
X41456Y285429D01*
X41542Y285504D01*
X41625Y285581D01*
X41705Y285661D01*
X41782Y285744D01*
X41857Y285830D01*
X41928Y285918D01*
X41996Y286008D01*
X42061Y286101D01*
X42123Y286196D01*
X42181Y286293D01*
X42236Y286392D01*
X42287Y286493D01*
X42335Y286596D01*
X42380Y286700D01*
X42420Y286806D01*
X42457Y286913D01*
X42490Y287021D01*
X42520Y287131D01*
X42545Y287241D01*
X42567Y287352D01*
X42584Y287464D01*
X42598Y287577D01*
X42608Y287690D01*
X42614Y287803D01*
X42616Y287916D01*
X42614Y288029D01*
X42608Y288142D01*
X42598Y288255D01*
X42584Y288368D01*
X42567Y288480D01*
X42545Y288591D01*
X42520Y288701D01*
X42490Y288811D01*
X42457Y288919D01*
X42420Y289026D01*
X42380Y289132D01*
X42335Y289236D01*
X42287Y289339D01*
X42236Y289440D01*
X42181Y289539D01*
X42123Y289636D01*
X42061Y289731D01*
X41996Y289824D01*
X41928Y289914D01*
X41857Y290002D01*
X41782Y290088D01*
X41705Y290171D01*
X41625Y290251D01*
X41542Y290328D01*
X41456Y290403D01*
X41368Y290474D01*
X41278Y290542D01*
X41185Y290607D01*
X41090Y290669D01*
X40993Y290727D01*
X40894Y290782D01*
X40793Y290833D01*
X40690Y290881D01*
X40586Y290926D01*
X40480Y290966D01*
X40373Y291003D01*
X40265Y291036D01*
X40155Y291066D01*
X40045Y291091D01*
X39934Y291113D01*
X39822Y291130D01*
X39709Y291144D01*
X39596Y291154D01*
X39483Y291160D01*
X39370Y291162D01*
X40019Y296355D02*
X36124Y296355D01*
X40019Y296354D02*
X40120Y296352D01*
X40220Y296346D01*
X40320Y296336D01*
X40420Y296323D01*
X40519Y296305D01*
X40618Y296284D01*
X40715Y296259D01*
X40812Y296230D01*
X40907Y296197D01*
X41001Y296161D01*
X41093Y296121D01*
X41184Y296078D01*
X41273Y296031D01*
X41360Y295981D01*
X41446Y295927D01*
X41529Y295870D01*
X41609Y295810D01*
X41688Y295747D01*
X41764Y295680D01*
X41837Y295611D01*
X41907Y295539D01*
X41975Y295465D01*
X42040Y295388D01*
X42101Y295308D01*
X42160Y295226D01*
X42215Y295142D01*
X42267Y295056D01*
X42316Y294968D01*
X42361Y294878D01*
X42403Y294786D01*
X42441Y294693D01*
X42475Y294598D01*
X42506Y294503D01*
X42533Y294406D01*
X42556Y294308D01*
X42576Y294209D01*
X42591Y294109D01*
X42603Y294009D01*
X42611Y293909D01*
X42615Y293808D01*
X42615Y293708D01*
X42611Y293607D01*
X42603Y293507D01*
X42591Y293407D01*
X42576Y293307D01*
X42556Y293208D01*
X42533Y293110D01*
X42506Y293013D01*
X42475Y292918D01*
X42441Y292823D01*
X42403Y292730D01*
X42361Y292638D01*
X42316Y292548D01*
X42267Y292460D01*
X42215Y292374D01*
X42160Y292290D01*
X42101Y292208D01*
X42040Y292128D01*
X41975Y292051D01*
X41907Y291977D01*
X41837Y291905D01*
X41764Y291836D01*
X41688Y291769D01*
X41609Y291706D01*
X41529Y291646D01*
X41446Y291589D01*
X41360Y291535D01*
X41273Y291485D01*
X41184Y291438D01*
X41093Y291395D01*
X41001Y291355D01*
X40907Y291319D01*
X40812Y291286D01*
X40715Y291257D01*
X40618Y291232D01*
X40519Y291211D01*
X40420Y291193D01*
X40320Y291180D01*
X40220Y291170D01*
X40120Y291164D01*
X40019Y291162D01*
X37423Y291162D01*
X46905Y296355D02*
X50800Y284671D01*
X54695Y296355D01*
X58984Y284671D02*
X62230Y284671D01*
X62230Y284670D02*
X62343Y284672D01*
X62456Y284678D01*
X62569Y284688D01*
X62682Y284702D01*
X62794Y284719D01*
X62905Y284741D01*
X63015Y284766D01*
X63125Y284796D01*
X63233Y284829D01*
X63340Y284866D01*
X63446Y284906D01*
X63550Y284951D01*
X63653Y284999D01*
X63754Y285050D01*
X63853Y285105D01*
X63950Y285163D01*
X64045Y285225D01*
X64138Y285290D01*
X64228Y285358D01*
X64316Y285429D01*
X64402Y285504D01*
X64485Y285581D01*
X64565Y285661D01*
X64642Y285744D01*
X64717Y285830D01*
X64788Y285918D01*
X64856Y286008D01*
X64921Y286101D01*
X64983Y286196D01*
X65041Y286293D01*
X65096Y286392D01*
X65147Y286493D01*
X65195Y286596D01*
X65240Y286700D01*
X65280Y286806D01*
X65317Y286913D01*
X65350Y287021D01*
X65380Y287131D01*
X65405Y287241D01*
X65427Y287352D01*
X65444Y287464D01*
X65458Y287577D01*
X65468Y287690D01*
X65474Y287803D01*
X65476Y287916D01*
X65474Y288029D01*
X65468Y288142D01*
X65458Y288255D01*
X65444Y288368D01*
X65427Y288480D01*
X65405Y288591D01*
X65380Y288701D01*
X65350Y288811D01*
X65317Y288919D01*
X65280Y289026D01*
X65240Y289132D01*
X65195Y289236D01*
X65147Y289339D01*
X65096Y289440D01*
X65041Y289539D01*
X64983Y289636D01*
X64921Y289731D01*
X64856Y289824D01*
X64788Y289914D01*
X64717Y290002D01*
X64642Y290088D01*
X64565Y290171D01*
X64485Y290251D01*
X64402Y290328D01*
X64316Y290403D01*
X64228Y290474D01*
X64138Y290542D01*
X64045Y290607D01*
X63950Y290669D01*
X63853Y290727D01*
X63754Y290782D01*
X63653Y290833D01*
X63550Y290881D01*
X63446Y290926D01*
X63340Y290966D01*
X63233Y291003D01*
X63125Y291036D01*
X63015Y291066D01*
X62905Y291091D01*
X62794Y291113D01*
X62682Y291130D01*
X62569Y291144D01*
X62456Y291154D01*
X62343Y291160D01*
X62230Y291162D01*
X62879Y296355D02*
X58984Y296355D01*
X62879Y296354D02*
X62980Y296352D01*
X63080Y296346D01*
X63180Y296336D01*
X63280Y296323D01*
X63379Y296305D01*
X63478Y296284D01*
X63575Y296259D01*
X63672Y296230D01*
X63767Y296197D01*
X63861Y296161D01*
X63953Y296121D01*
X64044Y296078D01*
X64133Y296031D01*
X64220Y295981D01*
X64306Y295927D01*
X64389Y295870D01*
X64469Y295810D01*
X64548Y295747D01*
X64624Y295680D01*
X64697Y295611D01*
X64767Y295539D01*
X64835Y295465D01*
X64900Y295388D01*
X64961Y295308D01*
X65020Y295226D01*
X65075Y295142D01*
X65127Y295056D01*
X65176Y294968D01*
X65221Y294878D01*
X65263Y294786D01*
X65301Y294693D01*
X65335Y294598D01*
X65366Y294503D01*
X65393Y294406D01*
X65416Y294308D01*
X65436Y294209D01*
X65451Y294109D01*
X65463Y294009D01*
X65471Y293909D01*
X65475Y293808D01*
X65475Y293708D01*
X65471Y293607D01*
X65463Y293507D01*
X65451Y293407D01*
X65436Y293307D01*
X65416Y293208D01*
X65393Y293110D01*
X65366Y293013D01*
X65335Y292918D01*
X65301Y292823D01*
X65263Y292730D01*
X65221Y292638D01*
X65176Y292548D01*
X65127Y292460D01*
X65075Y292374D01*
X65020Y292290D01*
X64961Y292208D01*
X64900Y292128D01*
X64835Y292051D01*
X64767Y291977D01*
X64697Y291905D01*
X64624Y291836D01*
X64548Y291769D01*
X64469Y291706D01*
X64389Y291646D01*
X64306Y291589D01*
X64220Y291535D01*
X64133Y291485D01*
X64044Y291438D01*
X63953Y291395D01*
X63861Y291355D01*
X63767Y291319D01*
X63672Y291286D01*
X63575Y291257D01*
X63478Y291232D01*
X63379Y291211D01*
X63280Y291193D01*
X63180Y291180D01*
X63080Y291170D01*
X62980Y291164D01*
X62879Y291162D01*
X60283Y291162D01*
D11*
X-120601Y140462D02*
X-124213Y140462D01*
X-124331Y140464D01*
X-124449Y140470D01*
X-124567Y140479D01*
X-124684Y140493D01*
X-124801Y140510D01*
X-124918Y140531D01*
X-125033Y140556D01*
X-125148Y140585D01*
X-125262Y140618D01*
X-125374Y140654D01*
X-125485Y140694D01*
X-125595Y140737D01*
X-125704Y140784D01*
X-125811Y140834D01*
X-125916Y140889D01*
X-126019Y140946D01*
X-126120Y141007D01*
X-126220Y141071D01*
X-126317Y141138D01*
X-126412Y141208D01*
X-126504Y141282D01*
X-126595Y141358D01*
X-126682Y141438D01*
X-126767Y141520D01*
X-126849Y141605D01*
X-126929Y141692D01*
X-127005Y141783D01*
X-127079Y141875D01*
X-127149Y141970D01*
X-127216Y142067D01*
X-127280Y142167D01*
X-127341Y142268D01*
X-127398Y142371D01*
X-127453Y142476D01*
X-127503Y142583D01*
X-127550Y142692D01*
X-127593Y142802D01*
X-127633Y142913D01*
X-127669Y143025D01*
X-127702Y143139D01*
X-127731Y143254D01*
X-127756Y143369D01*
X-127777Y143486D01*
X-127794Y143603D01*
X-127808Y143720D01*
X-127817Y143838D01*
X-127823Y143956D01*
X-127825Y144074D01*
X-127826Y144074D02*
X-127826Y153106D01*
X-127825Y153106D02*
X-127823Y153224D01*
X-127817Y153342D01*
X-127808Y153460D01*
X-127794Y153577D01*
X-127777Y153694D01*
X-127756Y153811D01*
X-127731Y153926D01*
X-127702Y154041D01*
X-127669Y154155D01*
X-127633Y154267D01*
X-127593Y154378D01*
X-127550Y154488D01*
X-127503Y154597D01*
X-127453Y154704D01*
X-127398Y154809D01*
X-127341Y154912D01*
X-127280Y155013D01*
X-127216Y155113D01*
X-127149Y155210D01*
X-127079Y155305D01*
X-127005Y155397D01*
X-126929Y155488D01*
X-126849Y155575D01*
X-126767Y155660D01*
X-126682Y155742D01*
X-126595Y155822D01*
X-126504Y155898D01*
X-126412Y155972D01*
X-126317Y156042D01*
X-126220Y156109D01*
X-126120Y156173D01*
X-126019Y156234D01*
X-125916Y156291D01*
X-125811Y156346D01*
X-125704Y156396D01*
X-125595Y156443D01*
X-125485Y156486D01*
X-125374Y156526D01*
X-125262Y156562D01*
X-125148Y156595D01*
X-125033Y156624D01*
X-124918Y156649D01*
X-124801Y156670D01*
X-124684Y156687D01*
X-124567Y156701D01*
X-124449Y156710D01*
X-124331Y156716D01*
X-124213Y156718D01*
X-120601Y156718D01*
X-127826Y131318D02*
X-127826Y115062D01*
X-127826Y131318D02*
X-123310Y131318D01*
X-123179Y131316D01*
X-123047Y131310D01*
X-122916Y131301D01*
X-122786Y131287D01*
X-122655Y131270D01*
X-122526Y131249D01*
X-122397Y131225D01*
X-122269Y131196D01*
X-122141Y131164D01*
X-122015Y131128D01*
X-121890Y131089D01*
X-121765Y131046D01*
X-121643Y130999D01*
X-121521Y130949D01*
X-121401Y130895D01*
X-121283Y130838D01*
X-121167Y130777D01*
X-121052Y130713D01*
X-120939Y130646D01*
X-120828Y130575D01*
X-120720Y130501D01*
X-120613Y130424D01*
X-120509Y130344D01*
X-120407Y130261D01*
X-120308Y130176D01*
X-120211Y130087D01*
X-120117Y129995D01*
X-120025Y129901D01*
X-119936Y129804D01*
X-119851Y129705D01*
X-119768Y129603D01*
X-119688Y129499D01*
X-119611Y129392D01*
X-119537Y129284D01*
X-119466Y129173D01*
X-119399Y129060D01*
X-119335Y128945D01*
X-119274Y128829D01*
X-119217Y128711D01*
X-119163Y128591D01*
X-119113Y128469D01*
X-119066Y128347D01*
X-119023Y128222D01*
X-118984Y128097D01*
X-118948Y127971D01*
X-118916Y127843D01*
X-118887Y127715D01*
X-118863Y127586D01*
X-118842Y127457D01*
X-118825Y127326D01*
X-118811Y127196D01*
X-118802Y127065D01*
X-118796Y126933D01*
X-118794Y126802D01*
X-118794Y119578D01*
X-118796Y119447D01*
X-118802Y119315D01*
X-118811Y119184D01*
X-118825Y119054D01*
X-118842Y118923D01*
X-118863Y118794D01*
X-118887Y118665D01*
X-118916Y118537D01*
X-118948Y118409D01*
X-118984Y118283D01*
X-119023Y118158D01*
X-119066Y118033D01*
X-119113Y117911D01*
X-119163Y117789D01*
X-119217Y117669D01*
X-119274Y117551D01*
X-119335Y117435D01*
X-119399Y117320D01*
X-119466Y117207D01*
X-119537Y117096D01*
X-119611Y116988D01*
X-119688Y116881D01*
X-119768Y116777D01*
X-119851Y116675D01*
X-119936Y116576D01*
X-120025Y116479D01*
X-120117Y116385D01*
X-120211Y116293D01*
X-120308Y116204D01*
X-120407Y116119D01*
X-120509Y116036D01*
X-120613Y115956D01*
X-120720Y115879D01*
X-120828Y115805D01*
X-120939Y115734D01*
X-121052Y115667D01*
X-121167Y115603D01*
X-121283Y115542D01*
X-121401Y115485D01*
X-121521Y115431D01*
X-121643Y115381D01*
X-121765Y115334D01*
X-121890Y115291D01*
X-122015Y115252D01*
X-122141Y115216D01*
X-122269Y115184D01*
X-122397Y115155D01*
X-122526Y115131D01*
X-122655Y115110D01*
X-122786Y115093D01*
X-122916Y115079D01*
X-123047Y115070D01*
X-123179Y115064D01*
X-123310Y115062D01*
X-127826Y115062D01*
D10*
X64534Y9032D02*
X66829Y11327D01*
X66908Y11408D01*
X66984Y11492D01*
X67057Y11579D01*
X67126Y11669D01*
X67193Y11760D01*
X67256Y11854D01*
X67316Y11950D01*
X67373Y12048D01*
X67426Y12148D01*
X67476Y12250D01*
X67522Y12354D01*
X67564Y12459D01*
X67603Y12565D01*
X67638Y12673D01*
X67669Y12782D01*
X67697Y12892D01*
X67720Y13003D01*
X67740Y13114D01*
X67756Y13226D01*
X67768Y13339D01*
X67776Y13452D01*
X67780Y13565D01*
X67780Y13679D01*
X67776Y13792D01*
X67768Y13905D01*
X67756Y14018D01*
X67740Y14130D01*
X67720Y14241D01*
X67697Y14352D01*
X67669Y14462D01*
X67638Y14571D01*
X67603Y14679D01*
X67564Y14785D01*
X67522Y14890D01*
X67476Y14994D01*
X67426Y15096D01*
X67373Y15196D01*
X67316Y15294D01*
X67256Y15390D01*
X67193Y15484D01*
X67126Y15575D01*
X67057Y15665D01*
X66984Y15752D01*
X66908Y15836D01*
X66829Y15917D01*
X66748Y15996D01*
X66664Y16072D01*
X66577Y16145D01*
X66488Y16214D01*
X66396Y16281D01*
X66302Y16344D01*
X66206Y16404D01*
X66108Y16461D01*
X66008Y16514D01*
X65906Y16564D01*
X65802Y16610D01*
X65697Y16652D01*
X65591Y16691D01*
X65483Y16726D01*
X65374Y16757D01*
X65264Y16785D01*
X65153Y16808D01*
X65042Y16828D01*
X64930Y16844D01*
X64817Y16856D01*
X64704Y16864D01*
X64591Y16868D01*
X64477Y16868D01*
X64364Y16864D01*
X64251Y16856D01*
X64138Y16844D01*
X64026Y16828D01*
X63915Y16808D01*
X63804Y16785D01*
X63694Y16757D01*
X63585Y16726D01*
X63477Y16691D01*
X63371Y16652D01*
X63266Y16610D01*
X63162Y16564D01*
X63060Y16514D01*
X62960Y16461D01*
X62862Y16404D01*
X62766Y16344D01*
X62672Y16281D01*
X62581Y16214D01*
X62491Y16145D01*
X62404Y16072D01*
X62320Y15996D01*
X62239Y15917D01*
X59026Y20048D02*
X56272Y17294D01*
X59026Y20048D02*
X59099Y20117D01*
X59174Y20184D01*
X59252Y20248D01*
X59332Y20309D01*
X59415Y20367D01*
X59499Y20421D01*
X59586Y20473D01*
X59674Y20520D01*
X59765Y20565D01*
X59857Y20606D01*
X59951Y20643D01*
X60045Y20676D01*
X60142Y20706D01*
X60239Y20732D01*
X60337Y20754D01*
X60436Y20773D01*
X60536Y20787D01*
X60636Y20798D01*
X60736Y20805D01*
X60837Y20808D01*
X60938Y20807D01*
X61038Y20802D01*
X61138Y20793D01*
X61238Y20781D01*
X61338Y20764D01*
X61436Y20744D01*
X61534Y20720D01*
X61631Y20692D01*
X61726Y20660D01*
X61820Y20625D01*
X61913Y20586D01*
X62005Y20543D01*
X62094Y20497D01*
X62182Y20448D01*
X62267Y20395D01*
X62351Y20339D01*
X62432Y20279D01*
X62511Y20217D01*
X62588Y20151D01*
X62662Y20083D01*
X62733Y20012D01*
X62801Y19938D01*
X62867Y19861D01*
X62929Y19782D01*
X62989Y19701D01*
X63045Y19617D01*
X63098Y19532D01*
X63147Y19444D01*
X63193Y19355D01*
X63236Y19263D01*
X63275Y19170D01*
X63310Y19076D01*
X63342Y18981D01*
X63370Y18884D01*
X63394Y18786D01*
X63414Y18688D01*
X63431Y18588D01*
X63443Y18488D01*
X63452Y18388D01*
X63457Y18288D01*
X63458Y18187D01*
X63455Y18086D01*
X63448Y17986D01*
X63437Y17886D01*
X63423Y17786D01*
X63404Y17687D01*
X63382Y17589D01*
X63356Y17492D01*
X63326Y17395D01*
X63293Y17301D01*
X63256Y17207D01*
X63215Y17115D01*
X63170Y17024D01*
X63123Y16936D01*
X63071Y16849D01*
X63017Y16765D01*
X62959Y16682D01*
X62898Y16602D01*
X62834Y16524D01*
X62767Y16449D01*
X62698Y16376D01*
X60862Y14540D01*
X63895Y24917D02*
X74911Y19409D01*
X69403Y30425D01*
X80698Y25196D02*
X82993Y27491D01*
X83072Y27572D01*
X83148Y27656D01*
X83221Y27743D01*
X83290Y27833D01*
X83357Y27924D01*
X83420Y28018D01*
X83480Y28114D01*
X83537Y28212D01*
X83590Y28312D01*
X83640Y28414D01*
X83686Y28518D01*
X83728Y28623D01*
X83767Y28729D01*
X83802Y28837D01*
X83833Y28946D01*
X83861Y29056D01*
X83884Y29167D01*
X83904Y29278D01*
X83920Y29390D01*
X83932Y29503D01*
X83940Y29616D01*
X83944Y29729D01*
X83944Y29843D01*
X83940Y29956D01*
X83932Y30069D01*
X83920Y30182D01*
X83904Y30294D01*
X83884Y30405D01*
X83861Y30516D01*
X83833Y30626D01*
X83802Y30735D01*
X83767Y30843D01*
X83728Y30949D01*
X83686Y31054D01*
X83640Y31158D01*
X83590Y31260D01*
X83537Y31360D01*
X83480Y31458D01*
X83420Y31554D01*
X83357Y31648D01*
X83290Y31739D01*
X83221Y31829D01*
X83148Y31916D01*
X83072Y32000D01*
X82993Y32081D01*
X82912Y32160D01*
X82828Y32236D01*
X82741Y32309D01*
X82652Y32378D01*
X82560Y32445D01*
X82466Y32508D01*
X82370Y32568D01*
X82272Y32625D01*
X82172Y32678D01*
X82070Y32728D01*
X81966Y32774D01*
X81861Y32816D01*
X81755Y32855D01*
X81647Y32890D01*
X81538Y32921D01*
X81428Y32949D01*
X81317Y32972D01*
X81206Y32992D01*
X81094Y33008D01*
X80981Y33020D01*
X80868Y33028D01*
X80755Y33032D01*
X80641Y33032D01*
X80528Y33028D01*
X80415Y33020D01*
X80302Y33008D01*
X80190Y32992D01*
X80079Y32972D01*
X79968Y32949D01*
X79858Y32921D01*
X79749Y32890D01*
X79641Y32855D01*
X79535Y32816D01*
X79430Y32774D01*
X79326Y32728D01*
X79224Y32678D01*
X79124Y32625D01*
X79026Y32568D01*
X78930Y32508D01*
X78836Y32445D01*
X78745Y32378D01*
X78655Y32309D01*
X78568Y32236D01*
X78484Y32160D01*
X78403Y32081D01*
X75190Y36212D02*
X72436Y33458D01*
X75190Y36212D02*
X75263Y36281D01*
X75338Y36348D01*
X75416Y36412D01*
X75496Y36473D01*
X75579Y36531D01*
X75663Y36585D01*
X75750Y36637D01*
X75838Y36684D01*
X75929Y36729D01*
X76021Y36770D01*
X76115Y36807D01*
X76209Y36840D01*
X76306Y36870D01*
X76403Y36896D01*
X76501Y36918D01*
X76600Y36937D01*
X76700Y36951D01*
X76800Y36962D01*
X76900Y36969D01*
X77001Y36972D01*
X77102Y36971D01*
X77202Y36966D01*
X77302Y36957D01*
X77402Y36945D01*
X77502Y36928D01*
X77600Y36908D01*
X77698Y36884D01*
X77795Y36856D01*
X77890Y36824D01*
X77984Y36789D01*
X78077Y36750D01*
X78169Y36707D01*
X78258Y36661D01*
X78346Y36612D01*
X78431Y36559D01*
X78515Y36503D01*
X78596Y36443D01*
X78675Y36381D01*
X78752Y36315D01*
X78826Y36247D01*
X78897Y36176D01*
X78965Y36102D01*
X79031Y36025D01*
X79093Y35946D01*
X79153Y35865D01*
X79209Y35781D01*
X79262Y35696D01*
X79311Y35608D01*
X79357Y35519D01*
X79400Y35427D01*
X79439Y35334D01*
X79474Y35240D01*
X79506Y35145D01*
X79534Y35048D01*
X79558Y34950D01*
X79578Y34852D01*
X79595Y34752D01*
X79607Y34652D01*
X79616Y34552D01*
X79621Y34452D01*
X79622Y34351D01*
X79619Y34250D01*
X79612Y34150D01*
X79601Y34050D01*
X79587Y33950D01*
X79568Y33851D01*
X79546Y33753D01*
X79520Y33656D01*
X79490Y33559D01*
X79457Y33465D01*
X79420Y33371D01*
X79379Y33279D01*
X79334Y33188D01*
X79287Y33100D01*
X79235Y33013D01*
X79181Y32929D01*
X79123Y32846D01*
X79062Y32766D01*
X78998Y32688D01*
X78931Y32613D01*
X78862Y32540D01*
X77026Y30704D01*
D11*
X-101915Y66064D02*
X-117312Y57174D01*
X-101915Y66064D02*
X-99445Y61787D01*
X-99377Y61664D01*
X-99312Y61541D01*
X-99251Y61415D01*
X-99193Y61287D01*
X-99139Y61159D01*
X-99089Y61028D01*
X-99042Y60896D01*
X-98999Y60763D01*
X-98960Y60629D01*
X-98925Y60494D01*
X-98894Y60358D01*
X-98866Y60220D01*
X-98843Y60083D01*
X-98823Y59944D01*
X-98807Y59805D01*
X-98795Y59666D01*
X-98787Y59527D01*
X-98783Y59387D01*
X-98783Y59247D01*
X-98787Y59107D01*
X-98795Y58968D01*
X-98807Y58829D01*
X-98823Y58690D01*
X-98843Y58551D01*
X-98866Y58414D01*
X-98894Y58276D01*
X-98925Y58140D01*
X-98960Y58005D01*
X-98999Y57871D01*
X-99042Y57738D01*
X-99089Y57606D01*
X-99139Y57475D01*
X-99193Y57347D01*
X-99251Y57219D01*
X-99312Y57093D01*
X-99377Y56970D01*
X-99445Y56847D01*
X-99516Y56727D01*
X-99591Y56609D01*
X-99670Y56494D01*
X-99751Y56380D01*
X-99836Y56269D01*
X-99924Y56160D01*
X-100014Y56054D01*
X-100108Y55950D01*
X-100205Y55849D01*
X-100305Y55751D01*
X-100407Y55656D01*
X-100512Y55564D01*
X-100619Y55474D01*
X-100729Y55388D01*
X-100842Y55305D01*
X-100956Y55225D01*
X-101073Y55148D01*
X-101192Y55075D01*
X-101313Y55005D01*
X-101436Y54939D01*
X-101561Y54876D01*
X-101688Y54816D01*
X-101816Y54761D01*
X-101946Y54709D01*
X-102077Y54660D01*
X-102209Y54615D01*
X-102343Y54574D01*
X-102477Y54537D01*
X-102613Y54504D01*
X-102750Y54475D01*
X-102887Y54449D01*
X-103025Y54427D01*
X-103164Y54410D01*
X-103303Y54396D01*
X-103443Y54386D01*
X-103582Y54380D01*
X-103722Y54378D01*
X-103862Y54380D01*
X-104001Y54386D01*
X-104141Y54396D01*
X-104280Y54410D01*
X-104419Y54427D01*
X-104557Y54449D01*
X-104694Y54475D01*
X-104831Y54504D01*
X-104967Y54537D01*
X-105101Y54575D01*
X-105235Y54615D01*
X-105367Y54660D01*
X-105499Y54709D01*
X-105628Y54761D01*
X-105756Y54816D01*
X-105883Y54876D01*
X-106008Y54939D01*
X-106131Y55005D01*
X-106252Y55075D01*
X-106371Y55148D01*
X-106488Y55225D01*
X-106602Y55305D01*
X-106715Y55388D01*
X-106825Y55474D01*
X-106932Y55564D01*
X-107037Y55656D01*
X-107139Y55751D01*
X-107239Y55849D01*
X-107336Y55950D01*
X-107430Y56054D01*
X-107520Y56160D01*
X-107608Y56269D01*
X-107693Y56380D01*
X-107774Y56494D01*
X-107853Y56609D01*
X-107928Y56727D01*
X-107999Y56848D01*
X-110469Y61125D01*
X-105893Y45297D02*
X-91941Y48790D01*
X-105893Y45297D02*
X-100954Y36743D01*
X-99014Y41285D02*
X-105858Y37334D01*
X-92203Y27512D02*
X-87070Y30475D01*
X-92203Y27512D02*
X-94324Y22295D01*
X-92203Y27512D02*
X-97781Y28283D01*
X-92203Y27512D02*
X-87776Y23795D01*
X-92203Y27512D02*
X-93208Y33204D01*
X-111361Y230823D02*
X-111361Y248603D01*
X-106423Y248603D01*
X-106283Y248601D01*
X-106144Y248595D01*
X-106004Y248585D01*
X-105865Y248571D01*
X-105726Y248554D01*
X-105588Y248532D01*
X-105451Y248506D01*
X-105314Y248477D01*
X-105178Y248444D01*
X-105044Y248407D01*
X-104910Y248366D01*
X-104778Y248321D01*
X-104646Y248272D01*
X-104517Y248220D01*
X-104389Y248165D01*
X-104262Y248105D01*
X-104137Y248042D01*
X-104014Y247976D01*
X-103893Y247906D01*
X-103774Y247833D01*
X-103657Y247756D01*
X-103543Y247676D01*
X-103430Y247593D01*
X-103320Y247507D01*
X-103213Y247417D01*
X-103108Y247325D01*
X-103006Y247230D01*
X-102906Y247132D01*
X-102809Y247031D01*
X-102715Y246927D01*
X-102625Y246821D01*
X-102537Y246712D01*
X-102452Y246601D01*
X-102371Y246487D01*
X-102292Y246372D01*
X-102217Y246254D01*
X-102146Y246134D01*
X-102078Y246011D01*
X-102013Y245888D01*
X-101952Y245762D01*
X-101894Y245634D01*
X-101840Y245506D01*
X-101790Y245375D01*
X-101743Y245243D01*
X-101700Y245110D01*
X-101661Y244976D01*
X-101626Y244841D01*
X-101595Y244705D01*
X-101567Y244567D01*
X-101544Y244430D01*
X-101524Y244291D01*
X-101508Y244152D01*
X-101496Y244013D01*
X-101488Y243874D01*
X-101484Y243734D01*
X-101484Y243594D01*
X-101488Y243454D01*
X-101496Y243315D01*
X-101508Y243176D01*
X-101524Y243037D01*
X-101544Y242898D01*
X-101567Y242761D01*
X-101595Y242623D01*
X-101626Y242487D01*
X-101661Y242352D01*
X-101700Y242218D01*
X-101743Y242085D01*
X-101790Y241953D01*
X-101840Y241822D01*
X-101894Y241694D01*
X-101952Y241566D01*
X-102013Y241440D01*
X-102078Y241317D01*
X-102146Y241195D01*
X-102217Y241074D01*
X-102292Y240956D01*
X-102371Y240841D01*
X-102452Y240727D01*
X-102537Y240616D01*
X-102625Y240507D01*
X-102715Y240401D01*
X-102809Y240297D01*
X-102906Y240196D01*
X-103006Y240098D01*
X-103108Y240003D01*
X-103213Y239911D01*
X-103320Y239821D01*
X-103430Y239735D01*
X-103543Y239652D01*
X-103657Y239572D01*
X-103774Y239495D01*
X-103893Y239422D01*
X-104014Y239352D01*
X-104137Y239286D01*
X-104262Y239223D01*
X-104389Y239163D01*
X-104517Y239108D01*
X-104646Y239056D01*
X-104778Y239007D01*
X-104910Y238962D01*
X-105044Y238921D01*
X-105178Y238884D01*
X-105314Y238851D01*
X-105451Y238822D01*
X-105588Y238796D01*
X-105726Y238774D01*
X-105865Y238757D01*
X-106004Y238743D01*
X-106144Y238733D01*
X-106283Y238727D01*
X-106423Y238725D01*
X-111361Y238725D01*
X-95366Y230823D02*
X-89440Y230823D01*
X-89316Y230825D01*
X-89192Y230831D01*
X-89068Y230841D01*
X-88945Y230854D01*
X-88822Y230872D01*
X-88700Y230893D01*
X-88578Y230918D01*
X-88457Y230947D01*
X-88338Y230980D01*
X-88219Y231016D01*
X-88102Y231057D01*
X-87986Y231100D01*
X-87871Y231148D01*
X-87758Y231199D01*
X-87646Y231254D01*
X-87537Y231312D01*
X-87429Y231373D01*
X-87323Y231438D01*
X-87219Y231506D01*
X-87118Y231578D01*
X-87018Y231652D01*
X-86922Y231730D01*
X-86827Y231810D01*
X-86735Y231894D01*
X-86646Y231980D01*
X-86560Y232069D01*
X-86476Y232161D01*
X-86396Y232256D01*
X-86318Y232352D01*
X-86244Y232452D01*
X-86172Y232553D01*
X-86104Y232657D01*
X-86039Y232763D01*
X-85978Y232871D01*
X-85920Y232980D01*
X-85865Y233092D01*
X-85814Y233205D01*
X-85766Y233320D01*
X-85723Y233436D01*
X-85682Y233553D01*
X-85646Y233672D01*
X-85613Y233791D01*
X-85584Y233912D01*
X-85559Y234034D01*
X-85538Y234156D01*
X-85520Y234279D01*
X-85507Y234402D01*
X-85497Y234526D01*
X-85491Y234650D01*
X-85489Y234774D01*
X-85489Y236749D01*
X-85491Y236873D01*
X-85497Y236997D01*
X-85507Y237121D01*
X-85520Y237244D01*
X-85538Y237367D01*
X-85559Y237489D01*
X-85584Y237611D01*
X-85613Y237732D01*
X-85646Y237851D01*
X-85682Y237970D01*
X-85723Y238087D01*
X-85766Y238203D01*
X-85814Y238318D01*
X-85865Y238431D01*
X-85920Y238543D01*
X-85978Y238652D01*
X-86039Y238760D01*
X-86104Y238866D01*
X-86172Y238970D01*
X-86244Y239071D01*
X-86318Y239171D01*
X-86396Y239267D01*
X-86476Y239362D01*
X-86560Y239454D01*
X-86646Y239543D01*
X-86735Y239629D01*
X-86827Y239713D01*
X-86922Y239793D01*
X-87018Y239871D01*
X-87118Y239945D01*
X-87219Y240017D01*
X-87323Y240085D01*
X-87429Y240150D01*
X-87537Y240211D01*
X-87646Y240269D01*
X-87758Y240324D01*
X-87871Y240375D01*
X-87986Y240423D01*
X-88102Y240466D01*
X-88219Y240507D01*
X-88338Y240543D01*
X-88457Y240576D01*
X-88578Y240605D01*
X-88700Y240630D01*
X-88822Y240651D01*
X-88945Y240669D01*
X-89068Y240682D01*
X-89192Y240692D01*
X-89316Y240698D01*
X-89440Y240700D01*
X-95366Y240700D01*
X-95366Y248603D01*
X-85489Y248603D01*
X109301Y204153D02*
X109301Y186373D01*
X109301Y204153D02*
X114240Y204153D01*
X114380Y204151D01*
X114519Y204145D01*
X114659Y204135D01*
X114798Y204121D01*
X114937Y204104D01*
X115075Y204082D01*
X115212Y204056D01*
X115349Y204027D01*
X115485Y203994D01*
X115619Y203957D01*
X115753Y203916D01*
X115885Y203871D01*
X116017Y203822D01*
X116146Y203770D01*
X116274Y203715D01*
X116401Y203655D01*
X116526Y203592D01*
X116649Y203526D01*
X116770Y203456D01*
X116889Y203383D01*
X117006Y203306D01*
X117120Y203226D01*
X117233Y203143D01*
X117343Y203057D01*
X117450Y202967D01*
X117555Y202875D01*
X117657Y202780D01*
X117757Y202682D01*
X117854Y202581D01*
X117948Y202477D01*
X118038Y202371D01*
X118126Y202262D01*
X118211Y202151D01*
X118292Y202037D01*
X118371Y201922D01*
X118446Y201804D01*
X118517Y201684D01*
X118585Y201561D01*
X118650Y201438D01*
X118711Y201312D01*
X118769Y201184D01*
X118823Y201056D01*
X118873Y200925D01*
X118920Y200793D01*
X118963Y200660D01*
X119002Y200526D01*
X119037Y200391D01*
X119068Y200255D01*
X119096Y200117D01*
X119119Y199980D01*
X119139Y199841D01*
X119155Y199702D01*
X119167Y199563D01*
X119175Y199424D01*
X119179Y199284D01*
X119179Y199144D01*
X119175Y199004D01*
X119167Y198865D01*
X119155Y198726D01*
X119139Y198587D01*
X119119Y198448D01*
X119096Y198311D01*
X119068Y198173D01*
X119037Y198037D01*
X119002Y197902D01*
X118963Y197768D01*
X118920Y197635D01*
X118873Y197503D01*
X118823Y197372D01*
X118769Y197244D01*
X118711Y197116D01*
X118650Y196990D01*
X118585Y196867D01*
X118517Y196745D01*
X118446Y196624D01*
X118371Y196506D01*
X118292Y196391D01*
X118211Y196277D01*
X118126Y196166D01*
X118038Y196057D01*
X117948Y195951D01*
X117854Y195847D01*
X117757Y195746D01*
X117657Y195648D01*
X117555Y195553D01*
X117450Y195461D01*
X117343Y195371D01*
X117233Y195285D01*
X117120Y195202D01*
X117006Y195122D01*
X116889Y195045D01*
X116770Y194972D01*
X116649Y194902D01*
X116526Y194836D01*
X116401Y194773D01*
X116274Y194713D01*
X116146Y194658D01*
X116017Y194606D01*
X115885Y194557D01*
X115753Y194512D01*
X115619Y194471D01*
X115485Y194434D01*
X115349Y194401D01*
X115212Y194372D01*
X115075Y194346D01*
X114937Y194324D01*
X114798Y194307D01*
X114659Y194293D01*
X114519Y194283D01*
X114380Y194277D01*
X114240Y194275D01*
X109301Y194275D01*
X125296Y200201D02*
X130235Y204153D01*
X130235Y186373D01*
X125296Y186373D02*
X135174Y186373D01*
X122244Y101420D02*
X137642Y92530D01*
X122244Y101420D02*
X124714Y105698D01*
X124785Y105818D01*
X124860Y105936D01*
X124939Y106051D01*
X125020Y106165D01*
X125105Y106276D01*
X125193Y106385D01*
X125283Y106491D01*
X125377Y106595D01*
X125474Y106696D01*
X125574Y106794D01*
X125676Y106889D01*
X125781Y106981D01*
X125888Y107071D01*
X125998Y107157D01*
X126111Y107240D01*
X126225Y107320D01*
X126342Y107397D01*
X126461Y107470D01*
X126582Y107540D01*
X126705Y107606D01*
X126830Y107669D01*
X126957Y107729D01*
X127085Y107784D01*
X127215Y107836D01*
X127346Y107885D01*
X127478Y107930D01*
X127612Y107971D01*
X127746Y108008D01*
X127882Y108041D01*
X128019Y108070D01*
X128156Y108096D01*
X128294Y108118D01*
X128433Y108135D01*
X128572Y108149D01*
X128712Y108159D01*
X128851Y108165D01*
X128991Y108167D01*
X129131Y108165D01*
X129270Y108159D01*
X129410Y108149D01*
X129549Y108135D01*
X129688Y108118D01*
X129826Y108096D01*
X129963Y108070D01*
X130100Y108041D01*
X130236Y108008D01*
X130370Y107970D01*
X130504Y107930D01*
X130636Y107885D01*
X130768Y107836D01*
X130897Y107784D01*
X131025Y107729D01*
X131152Y107669D01*
X131277Y107606D01*
X131400Y107540D01*
X131521Y107470D01*
X131640Y107397D01*
X131757Y107320D01*
X131871Y107240D01*
X131984Y107157D01*
X132094Y107071D01*
X132201Y106981D01*
X132306Y106889D01*
X132408Y106794D01*
X132508Y106696D01*
X132605Y106595D01*
X132699Y106491D01*
X132789Y106385D01*
X132877Y106276D01*
X132962Y106165D01*
X133043Y106051D01*
X133122Y105936D01*
X133197Y105818D01*
X133268Y105697D01*
X133336Y105575D01*
X133401Y105452D01*
X133462Y105326D01*
X133520Y105198D01*
X133574Y105070D01*
X133624Y104939D01*
X133671Y104807D01*
X133714Y104674D01*
X133753Y104540D01*
X133788Y104405D01*
X133819Y104269D01*
X133847Y104131D01*
X133870Y103994D01*
X133890Y103855D01*
X133906Y103716D01*
X133918Y103577D01*
X133926Y103438D01*
X133930Y103298D01*
X133930Y103158D01*
X133926Y103018D01*
X133918Y102879D01*
X133906Y102740D01*
X133890Y102601D01*
X133870Y102462D01*
X133847Y102324D01*
X133819Y102187D01*
X133788Y102051D01*
X133753Y101916D01*
X133714Y101782D01*
X133671Y101649D01*
X133624Y101517D01*
X133574Y101386D01*
X133520Y101257D01*
X133462Y101130D01*
X133401Y101004D01*
X133336Y100881D01*
X133268Y100758D01*
X133268Y100759D02*
X130799Y96482D01*
X132959Y119978D02*
X133026Y120091D01*
X133097Y120202D01*
X133171Y120311D01*
X133248Y120417D01*
X133329Y120522D01*
X133412Y120623D01*
X133499Y120723D01*
X133588Y120820D01*
X133680Y120914D01*
X133775Y121005D01*
X133873Y121093D01*
X133973Y121179D01*
X134076Y121261D01*
X134181Y121341D01*
X134289Y121417D01*
X134398Y121490D01*
X134510Y121560D01*
X134624Y121626D01*
X134739Y121689D01*
X134857Y121749D01*
X134976Y121805D01*
X135097Y121857D01*
X135219Y121906D01*
X135343Y121952D01*
X135468Y121993D01*
X135594Y122031D01*
X135721Y122065D01*
X135849Y122095D01*
X135979Y122122D01*
X136108Y122145D01*
X136239Y122163D01*
X136370Y122178D01*
X136501Y122189D01*
X136632Y122197D01*
X136764Y122200D01*
X136896Y122199D01*
X137027Y122195D01*
X137159Y122186D01*
X137290Y122174D01*
X137421Y122158D01*
X137551Y122137D01*
X137681Y122114D01*
X137809Y122086D01*
X137937Y122054D01*
X138064Y122019D01*
X138190Y121980D01*
X138315Y121937D01*
X138438Y121890D01*
X138560Y121840D01*
X138680Y121787D01*
X138799Y121729D01*
X138915Y121669D01*
X139030Y121604D01*
X132958Y119978D02*
X132885Y119847D01*
X132815Y119715D01*
X132749Y119580D01*
X132687Y119444D01*
X132628Y119307D01*
X132572Y119168D01*
X132520Y119028D01*
X132472Y118886D01*
X132428Y118743D01*
X132387Y118599D01*
X132351Y118454D01*
X132318Y118308D01*
X132288Y118161D01*
X132263Y118014D01*
X132242Y117866D01*
X132224Y117717D01*
X132210Y117568D01*
X132201Y117419D01*
X132195Y117269D01*
X132193Y117120D01*
X132195Y116970D01*
X132201Y116821D01*
X132211Y116671D01*
X132225Y116522D01*
X132242Y116374D01*
X132264Y116226D01*
X132289Y116078D01*
X132318Y115932D01*
X132352Y115786D01*
X132388Y115641D01*
X132429Y115497D01*
X132474Y115354D01*
X132522Y115212D01*
X132574Y115072D01*
X132629Y114933D01*
X132688Y114795D01*
X132751Y114660D01*
X132817Y114525D01*
X132887Y114393D01*
X132960Y114263D01*
X133037Y114134D01*
X133117Y114008D01*
X133200Y113883D01*
X133287Y113761D01*
X133376Y113641D01*
X133469Y113524D01*
X133565Y113409D01*
X133664Y113297D01*
X141283Y118593D02*
X141250Y118722D01*
X141213Y118850D01*
X141173Y118977D01*
X141129Y119103D01*
X141082Y119228D01*
X141031Y119351D01*
X140977Y119473D01*
X140919Y119593D01*
X140858Y119711D01*
X140794Y119828D01*
X140726Y119943D01*
X140656Y120056D01*
X140582Y120167D01*
X140505Y120276D01*
X140425Y120383D01*
X140342Y120487D01*
X140257Y120590D01*
X140168Y120689D01*
X140077Y120786D01*
X139983Y120881D01*
X139887Y120973D01*
X139788Y121062D01*
X139686Y121148D01*
X139582Y121232D01*
X139476Y121313D01*
X139368Y121390D01*
X139257Y121465D01*
X139145Y121536D01*
X139030Y121604D01*
X141283Y118593D02*
X145640Y106382D01*
X150579Y114937D01*
X150775Y129107D02*
X145643Y132070D01*
X150775Y129107D02*
X156354Y129878D01*
X150775Y129107D02*
X152896Y123890D01*
X150775Y129107D02*
X151781Y134799D01*
X150775Y129107D02*
X146348Y125390D01*
D10*
X-65778Y266945D02*
X-64156Y269755D01*
X-64155Y269755D02*
X-64100Y269854D01*
X-64049Y269955D01*
X-64001Y270058D01*
X-63956Y270162D01*
X-63916Y270268D01*
X-63879Y270375D01*
X-63846Y270483D01*
X-63816Y270593D01*
X-63791Y270703D01*
X-63769Y270814D01*
X-63752Y270926D01*
X-63738Y271039D01*
X-63728Y271152D01*
X-63722Y271265D01*
X-63720Y271378D01*
X-63722Y271491D01*
X-63728Y271604D01*
X-63738Y271717D01*
X-63752Y271830D01*
X-63769Y271942D01*
X-63791Y272053D01*
X-63816Y272163D01*
X-63846Y272273D01*
X-63879Y272381D01*
X-63916Y272488D01*
X-63956Y272594D01*
X-64001Y272698D01*
X-64049Y272801D01*
X-64100Y272902D01*
X-64155Y273001D01*
X-64213Y273098D01*
X-64275Y273193D01*
X-64340Y273286D01*
X-64408Y273376D01*
X-64479Y273464D01*
X-64554Y273550D01*
X-64631Y273633D01*
X-64711Y273713D01*
X-64794Y273790D01*
X-64880Y273865D01*
X-64968Y273936D01*
X-65058Y274004D01*
X-65151Y274069D01*
X-65246Y274131D01*
X-65343Y274189D01*
X-65442Y274244D01*
X-65543Y274295D01*
X-65646Y274343D01*
X-65750Y274388D01*
X-65856Y274428D01*
X-65963Y274465D01*
X-66071Y274498D01*
X-66181Y274528D01*
X-66291Y274553D01*
X-66402Y274575D01*
X-66514Y274592D01*
X-66627Y274606D01*
X-66740Y274616D01*
X-66853Y274622D01*
X-66966Y274624D01*
X-67079Y274622D01*
X-67192Y274616D01*
X-67305Y274606D01*
X-67418Y274592D01*
X-67530Y274575D01*
X-67641Y274553D01*
X-67751Y274528D01*
X-67861Y274498D01*
X-67969Y274465D01*
X-68076Y274428D01*
X-68182Y274388D01*
X-68286Y274343D01*
X-68389Y274295D01*
X-68490Y274244D01*
X-68589Y274189D01*
X-68686Y274131D01*
X-68781Y274069D01*
X-68874Y274004D01*
X-68964Y273936D01*
X-69052Y273865D01*
X-69138Y273790D01*
X-69221Y273713D01*
X-69301Y273633D01*
X-69378Y273550D01*
X-69453Y273464D01*
X-69524Y273376D01*
X-69592Y273286D01*
X-69657Y273193D01*
X-69719Y273098D01*
X-69777Y273001D01*
X-73950Y276159D02*
X-75897Y272787D01*
X-73950Y276160D02*
X-73898Y276246D01*
X-73843Y276330D01*
X-73784Y276412D01*
X-73722Y276491D01*
X-73658Y276569D01*
X-73590Y276643D01*
X-73519Y276715D01*
X-73446Y276784D01*
X-73370Y276850D01*
X-73292Y276914D01*
X-73211Y276974D01*
X-73128Y277031D01*
X-73043Y277084D01*
X-72956Y277135D01*
X-72867Y277182D01*
X-72776Y277225D01*
X-72683Y277265D01*
X-72589Y277301D01*
X-72494Y277334D01*
X-72397Y277363D01*
X-72300Y277388D01*
X-72201Y277409D01*
X-72102Y277427D01*
X-72002Y277440D01*
X-71902Y277450D01*
X-71802Y277456D01*
X-71701Y277458D01*
X-71600Y277456D01*
X-71500Y277450D01*
X-71400Y277440D01*
X-71300Y277427D01*
X-71201Y277409D01*
X-71102Y277388D01*
X-71005Y277363D01*
X-70908Y277334D01*
X-70813Y277301D01*
X-70719Y277265D01*
X-70626Y277225D01*
X-70535Y277182D01*
X-70446Y277135D01*
X-70359Y277084D01*
X-70274Y277031D01*
X-70191Y276974D01*
X-70110Y276914D01*
X-70032Y276850D01*
X-69956Y276784D01*
X-69883Y276715D01*
X-69812Y276643D01*
X-69744Y276569D01*
X-69680Y276491D01*
X-69618Y276412D01*
X-69559Y276330D01*
X-69504Y276246D01*
X-69452Y276160D01*
X-69403Y276071D01*
X-69358Y275981D01*
X-69316Y275890D01*
X-69278Y275796D01*
X-69244Y275702D01*
X-69213Y275606D01*
X-69186Y275509D01*
X-69163Y275411D01*
X-69143Y275312D01*
X-69128Y275212D01*
X-69116Y275112D01*
X-69108Y275012D01*
X-69104Y274911D01*
X-69104Y274811D01*
X-69108Y274710D01*
X-69116Y274610D01*
X-69128Y274510D01*
X-69143Y274410D01*
X-69163Y274311D01*
X-69186Y274213D01*
X-69213Y274116D01*
X-69244Y274020D01*
X-69278Y273926D01*
X-69316Y273832D01*
X-69358Y273741D01*
X-69403Y273651D01*
X-69452Y273563D01*
X-69453Y273563D02*
X-70751Y271314D01*
X-70507Y282123D02*
X-58441Y279654D01*
X-66612Y288869D01*
X-54348Y286742D02*
X-52726Y289553D01*
X-52725Y289552D02*
X-52670Y289651D01*
X-52619Y289752D01*
X-52571Y289855D01*
X-52526Y289959D01*
X-52486Y290065D01*
X-52449Y290172D01*
X-52416Y290280D01*
X-52386Y290390D01*
X-52361Y290500D01*
X-52339Y290611D01*
X-52322Y290723D01*
X-52308Y290836D01*
X-52298Y290949D01*
X-52292Y291062D01*
X-52290Y291175D01*
X-52292Y291288D01*
X-52298Y291401D01*
X-52308Y291514D01*
X-52322Y291627D01*
X-52339Y291739D01*
X-52361Y291850D01*
X-52386Y291960D01*
X-52416Y292070D01*
X-52449Y292178D01*
X-52486Y292285D01*
X-52526Y292391D01*
X-52571Y292495D01*
X-52619Y292598D01*
X-52670Y292699D01*
X-52725Y292798D01*
X-52783Y292895D01*
X-52845Y292990D01*
X-52910Y293083D01*
X-52978Y293173D01*
X-53049Y293261D01*
X-53124Y293347D01*
X-53201Y293430D01*
X-53281Y293510D01*
X-53364Y293587D01*
X-53450Y293662D01*
X-53538Y293733D01*
X-53628Y293801D01*
X-53721Y293866D01*
X-53816Y293928D01*
X-53913Y293986D01*
X-54012Y294041D01*
X-54113Y294092D01*
X-54216Y294140D01*
X-54320Y294185D01*
X-54426Y294225D01*
X-54533Y294262D01*
X-54641Y294295D01*
X-54751Y294325D01*
X-54861Y294350D01*
X-54972Y294372D01*
X-55084Y294389D01*
X-55197Y294403D01*
X-55310Y294413D01*
X-55423Y294419D01*
X-55536Y294421D01*
X-55649Y294419D01*
X-55762Y294413D01*
X-55875Y294403D01*
X-55988Y294389D01*
X-56100Y294372D01*
X-56211Y294350D01*
X-56321Y294325D01*
X-56431Y294295D01*
X-56539Y294262D01*
X-56646Y294225D01*
X-56752Y294185D01*
X-56856Y294140D01*
X-56959Y294092D01*
X-57060Y294041D01*
X-57159Y293986D01*
X-57256Y293928D01*
X-57351Y293866D01*
X-57444Y293801D01*
X-57534Y293733D01*
X-57622Y293662D01*
X-57708Y293587D01*
X-57791Y293510D01*
X-57871Y293430D01*
X-57948Y293347D01*
X-58023Y293261D01*
X-58094Y293173D01*
X-58162Y293083D01*
X-58227Y292990D01*
X-58289Y292895D01*
X-58347Y292798D01*
X-62520Y295957D02*
X-64467Y292584D01*
X-62520Y295957D02*
X-62468Y296043D01*
X-62413Y296127D01*
X-62354Y296209D01*
X-62292Y296288D01*
X-62228Y296366D01*
X-62160Y296440D01*
X-62089Y296512D01*
X-62016Y296581D01*
X-61940Y296647D01*
X-61862Y296711D01*
X-61781Y296771D01*
X-61698Y296828D01*
X-61613Y296881D01*
X-61526Y296932D01*
X-61437Y296979D01*
X-61346Y297022D01*
X-61253Y297062D01*
X-61159Y297098D01*
X-61064Y297131D01*
X-60967Y297160D01*
X-60870Y297185D01*
X-60771Y297206D01*
X-60672Y297224D01*
X-60572Y297237D01*
X-60472Y297247D01*
X-60372Y297253D01*
X-60271Y297255D01*
X-60170Y297253D01*
X-60070Y297247D01*
X-59970Y297237D01*
X-59870Y297224D01*
X-59771Y297206D01*
X-59672Y297185D01*
X-59575Y297160D01*
X-59478Y297131D01*
X-59383Y297098D01*
X-59289Y297062D01*
X-59196Y297022D01*
X-59105Y296979D01*
X-59016Y296932D01*
X-58929Y296881D01*
X-58844Y296828D01*
X-58761Y296771D01*
X-58680Y296711D01*
X-58602Y296647D01*
X-58526Y296581D01*
X-58453Y296512D01*
X-58382Y296440D01*
X-58314Y296366D01*
X-58250Y296288D01*
X-58188Y296209D01*
X-58129Y296127D01*
X-58074Y296043D01*
X-58022Y295957D01*
X-57973Y295868D01*
X-57928Y295778D01*
X-57886Y295687D01*
X-57848Y295593D01*
X-57814Y295499D01*
X-57783Y295403D01*
X-57756Y295306D01*
X-57733Y295208D01*
X-57713Y295109D01*
X-57698Y295009D01*
X-57686Y294909D01*
X-57678Y294809D01*
X-57674Y294708D01*
X-57674Y294608D01*
X-57678Y294507D01*
X-57686Y294407D01*
X-57698Y294307D01*
X-57713Y294207D01*
X-57733Y294108D01*
X-57756Y294010D01*
X-57783Y293913D01*
X-57814Y293817D01*
X-57848Y293723D01*
X-57886Y293629D01*
X-57928Y293538D01*
X-57973Y293448D01*
X-58022Y293360D01*
X-59321Y291112D01*
D11*
X-123310Y174893D02*
X-127826Y174893D01*
X-123310Y174894D02*
X-123177Y174892D01*
X-123045Y174886D01*
X-122913Y174876D01*
X-122781Y174863D01*
X-122649Y174845D01*
X-122519Y174824D01*
X-122388Y174799D01*
X-122259Y174770D01*
X-122131Y174737D01*
X-122003Y174701D01*
X-121877Y174661D01*
X-121752Y174617D01*
X-121628Y174569D01*
X-121506Y174518D01*
X-121385Y174463D01*
X-121266Y174405D01*
X-121148Y174343D01*
X-121033Y174278D01*
X-120919Y174209D01*
X-120808Y174138D01*
X-120699Y174062D01*
X-120592Y173984D01*
X-120487Y173903D01*
X-120385Y173818D01*
X-120285Y173731D01*
X-120188Y173641D01*
X-120093Y173548D01*
X-120002Y173452D01*
X-119913Y173354D01*
X-119827Y173253D01*
X-119744Y173149D01*
X-119664Y173043D01*
X-119588Y172935D01*
X-119514Y172825D01*
X-119444Y172712D01*
X-119377Y172598D01*
X-119314Y172481D01*
X-119254Y172363D01*
X-119197Y172243D01*
X-119144Y172121D01*
X-119095Y171998D01*
X-119049Y171874D01*
X-119007Y171748D01*
X-118969Y171621D01*
X-118934Y171493D01*
X-118903Y171364D01*
X-118876Y171235D01*
X-118853Y171104D01*
X-118833Y170973D01*
X-118818Y170841D01*
X-118806Y170709D01*
X-118798Y170577D01*
X-118794Y170444D01*
X-118794Y170312D01*
X-118798Y170179D01*
X-118806Y170047D01*
X-118818Y169915D01*
X-118833Y169783D01*
X-118853Y169652D01*
X-118876Y169521D01*
X-118903Y169392D01*
X-118934Y169263D01*
X-118969Y169135D01*
X-119007Y169008D01*
X-119049Y168882D01*
X-119095Y168758D01*
X-119144Y168635D01*
X-119197Y168513D01*
X-119254Y168393D01*
X-119314Y168275D01*
X-119377Y168158D01*
X-119444Y168044D01*
X-119514Y167931D01*
X-119588Y167821D01*
X-119664Y167713D01*
X-119744Y167607D01*
X-119827Y167503D01*
X-119913Y167402D01*
X-120002Y167304D01*
X-120093Y167208D01*
X-120188Y167115D01*
X-120285Y167025D01*
X-120385Y166938D01*
X-120487Y166853D01*
X-120592Y166772D01*
X-120699Y166694D01*
X-120808Y166618D01*
X-120919Y166547D01*
X-121033Y166478D01*
X-121148Y166413D01*
X-121266Y166351D01*
X-121385Y166293D01*
X-121506Y166238D01*
X-121628Y166187D01*
X-121752Y166139D01*
X-121877Y166095D01*
X-122003Y166055D01*
X-122131Y166019D01*
X-122259Y165986D01*
X-122388Y165957D01*
X-122519Y165932D01*
X-122649Y165911D01*
X-122781Y165893D01*
X-122913Y165880D01*
X-123045Y165870D01*
X-123177Y165864D01*
X-123310Y165862D01*
X-127826Y165862D01*
X-127826Y182118D01*
X-123310Y182118D01*
X-123191Y182116D01*
X-123071Y182110D01*
X-122952Y182100D01*
X-122834Y182086D01*
X-122715Y182069D01*
X-122598Y182047D01*
X-122481Y182022D01*
X-122366Y181992D01*
X-122251Y181959D01*
X-122137Y181922D01*
X-122025Y181882D01*
X-121914Y181837D01*
X-121805Y181789D01*
X-121697Y181738D01*
X-121591Y181683D01*
X-121487Y181624D01*
X-121385Y181562D01*
X-121285Y181497D01*
X-121187Y181428D01*
X-121091Y181356D01*
X-120998Y181281D01*
X-120908Y181204D01*
X-120820Y181123D01*
X-120735Y181039D01*
X-120653Y180952D01*
X-120573Y180863D01*
X-120497Y180771D01*
X-120423Y180677D01*
X-120353Y180580D01*
X-120286Y180482D01*
X-120222Y180381D01*
X-120162Y180277D01*
X-120105Y180172D01*
X-120052Y180065D01*
X-120002Y179957D01*
X-119956Y179847D01*
X-119914Y179735D01*
X-119875Y179622D01*
X-119840Y179508D01*
X-119809Y179393D01*
X-119781Y179276D01*
X-119758Y179159D01*
X-119738Y179042D01*
X-119722Y178923D01*
X-119710Y178804D01*
X-119702Y178685D01*
X-119698Y178566D01*
X-119698Y178446D01*
X-119702Y178327D01*
X-119710Y178208D01*
X-119722Y178089D01*
X-119738Y177970D01*
X-119758Y177853D01*
X-119781Y177736D01*
X-119809Y177619D01*
X-119840Y177504D01*
X-119875Y177390D01*
X-119914Y177277D01*
X-119956Y177165D01*
X-120002Y177055D01*
X-120052Y176947D01*
X-120105Y176840D01*
X-120162Y176735D01*
X-120222Y176631D01*
X-120286Y176530D01*
X-120353Y176432D01*
X-120423Y176335D01*
X-120497Y176241D01*
X-120573Y176149D01*
X-120653Y176060D01*
X-120735Y175973D01*
X-120820Y175889D01*
X-120908Y175808D01*
X-120998Y175731D01*
X-121091Y175656D01*
X-121187Y175584D01*
X-121285Y175515D01*
X-121385Y175450D01*
X-121487Y175388D01*
X-121591Y175329D01*
X-121697Y175274D01*
X-121805Y175223D01*
X-121914Y175175D01*
X-122025Y175130D01*
X-122137Y175090D01*
X-122251Y175053D01*
X-122366Y175020D01*
X-122481Y174990D01*
X-122598Y174965D01*
X-122715Y174943D01*
X-122834Y174926D01*
X-122952Y174912D01*
X-123071Y174902D01*
X-123191Y174896D01*
X-123310Y174894D01*
X-44686Y280035D02*
X-44686Y297815D01*
X-39748Y297815D01*
X-39608Y297813D01*
X-39469Y297807D01*
X-39329Y297797D01*
X-39190Y297783D01*
X-39051Y297766D01*
X-38913Y297744D01*
X-38776Y297718D01*
X-38639Y297689D01*
X-38503Y297656D01*
X-38369Y297619D01*
X-38235Y297578D01*
X-38103Y297533D01*
X-37971Y297484D01*
X-37842Y297432D01*
X-37714Y297377D01*
X-37587Y297317D01*
X-37462Y297254D01*
X-37339Y297188D01*
X-37218Y297118D01*
X-37099Y297045D01*
X-36982Y296968D01*
X-36868Y296888D01*
X-36755Y296805D01*
X-36645Y296719D01*
X-36538Y296629D01*
X-36433Y296537D01*
X-36331Y296442D01*
X-36231Y296344D01*
X-36134Y296243D01*
X-36040Y296139D01*
X-35950Y296033D01*
X-35862Y295924D01*
X-35777Y295813D01*
X-35696Y295699D01*
X-35617Y295584D01*
X-35542Y295466D01*
X-35471Y295346D01*
X-35403Y295223D01*
X-35338Y295100D01*
X-35277Y294974D01*
X-35219Y294846D01*
X-35165Y294718D01*
X-35115Y294587D01*
X-35068Y294455D01*
X-35025Y294322D01*
X-34986Y294188D01*
X-34951Y294053D01*
X-34920Y293917D01*
X-34892Y293779D01*
X-34869Y293642D01*
X-34849Y293503D01*
X-34833Y293364D01*
X-34821Y293225D01*
X-34813Y293086D01*
X-34809Y292946D01*
X-34809Y292806D01*
X-34813Y292666D01*
X-34821Y292527D01*
X-34833Y292388D01*
X-34849Y292249D01*
X-34869Y292110D01*
X-34892Y291973D01*
X-34920Y291835D01*
X-34951Y291699D01*
X-34986Y291564D01*
X-35025Y291430D01*
X-35068Y291297D01*
X-35115Y291165D01*
X-35165Y291034D01*
X-35219Y290906D01*
X-35277Y290778D01*
X-35338Y290652D01*
X-35403Y290529D01*
X-35471Y290407D01*
X-35542Y290286D01*
X-35617Y290168D01*
X-35696Y290053D01*
X-35777Y289939D01*
X-35862Y289828D01*
X-35950Y289719D01*
X-36040Y289613D01*
X-36134Y289509D01*
X-36231Y289408D01*
X-36331Y289310D01*
X-36433Y289215D01*
X-36538Y289123D01*
X-36645Y289033D01*
X-36755Y288947D01*
X-36868Y288864D01*
X-36982Y288784D01*
X-37099Y288707D01*
X-37218Y288634D01*
X-37339Y288564D01*
X-37462Y288498D01*
X-37587Y288435D01*
X-37714Y288375D01*
X-37842Y288320D01*
X-37971Y288268D01*
X-38103Y288219D01*
X-38235Y288174D01*
X-38369Y288133D01*
X-38503Y288096D01*
X-38639Y288063D01*
X-38776Y288034D01*
X-38913Y288008D01*
X-39051Y287986D01*
X-39190Y287969D01*
X-39329Y287955D01*
X-39469Y287945D01*
X-39608Y287939D01*
X-39748Y287937D01*
X-44686Y287937D01*
X-28691Y289913D02*
X-22765Y289913D01*
X-22641Y289911D01*
X-22517Y289905D01*
X-22393Y289895D01*
X-22270Y289882D01*
X-22147Y289864D01*
X-22025Y289843D01*
X-21903Y289818D01*
X-21782Y289789D01*
X-21663Y289756D01*
X-21544Y289720D01*
X-21427Y289679D01*
X-21311Y289636D01*
X-21196Y289588D01*
X-21083Y289537D01*
X-20971Y289482D01*
X-20862Y289424D01*
X-20754Y289363D01*
X-20648Y289298D01*
X-20544Y289230D01*
X-20443Y289158D01*
X-20343Y289084D01*
X-20247Y289006D01*
X-20152Y288926D01*
X-20060Y288842D01*
X-19971Y288756D01*
X-19885Y288667D01*
X-19801Y288575D01*
X-19721Y288480D01*
X-19643Y288384D01*
X-19569Y288284D01*
X-19497Y288183D01*
X-19429Y288079D01*
X-19364Y287973D01*
X-19303Y287865D01*
X-19245Y287756D01*
X-19190Y287644D01*
X-19139Y287531D01*
X-19091Y287416D01*
X-19048Y287300D01*
X-19007Y287183D01*
X-18971Y287064D01*
X-18938Y286945D01*
X-18909Y286824D01*
X-18884Y286702D01*
X-18863Y286580D01*
X-18845Y286457D01*
X-18832Y286334D01*
X-18822Y286210D01*
X-18816Y286086D01*
X-18814Y285962D01*
X-18814Y284974D01*
X-18813Y284974D02*
X-18815Y284834D01*
X-18821Y284695D01*
X-18831Y284555D01*
X-18845Y284416D01*
X-18862Y284277D01*
X-18884Y284139D01*
X-18910Y284002D01*
X-18939Y283865D01*
X-18972Y283729D01*
X-19009Y283595D01*
X-19050Y283461D01*
X-19095Y283329D01*
X-19144Y283197D01*
X-19196Y283068D01*
X-19251Y282940D01*
X-19311Y282813D01*
X-19374Y282688D01*
X-19440Y282565D01*
X-19510Y282444D01*
X-19583Y282325D01*
X-19660Y282208D01*
X-19740Y282094D01*
X-19823Y281981D01*
X-19909Y281871D01*
X-19999Y281764D01*
X-20091Y281659D01*
X-20186Y281557D01*
X-20284Y281457D01*
X-20385Y281360D01*
X-20489Y281266D01*
X-20595Y281176D01*
X-20704Y281088D01*
X-20815Y281003D01*
X-20929Y280922D01*
X-21044Y280843D01*
X-21162Y280768D01*
X-21282Y280697D01*
X-21405Y280629D01*
X-21528Y280564D01*
X-21654Y280503D01*
X-21782Y280445D01*
X-21910Y280391D01*
X-22041Y280341D01*
X-22173Y280294D01*
X-22306Y280251D01*
X-22440Y280212D01*
X-22575Y280177D01*
X-22711Y280146D01*
X-22849Y280118D01*
X-22986Y280095D01*
X-23125Y280075D01*
X-23264Y280059D01*
X-23403Y280047D01*
X-23542Y280039D01*
X-23682Y280035D01*
X-23822Y280035D01*
X-23962Y280039D01*
X-24101Y280047D01*
X-24240Y280059D01*
X-24379Y280075D01*
X-24518Y280095D01*
X-24655Y280118D01*
X-24793Y280146D01*
X-24929Y280177D01*
X-25064Y280212D01*
X-25198Y280251D01*
X-25331Y280294D01*
X-25463Y280341D01*
X-25594Y280391D01*
X-25722Y280445D01*
X-25850Y280503D01*
X-25976Y280564D01*
X-26099Y280629D01*
X-26221Y280697D01*
X-26342Y280768D01*
X-26460Y280843D01*
X-26575Y280922D01*
X-26689Y281003D01*
X-26800Y281088D01*
X-26909Y281176D01*
X-27015Y281266D01*
X-27119Y281360D01*
X-27220Y281457D01*
X-27318Y281557D01*
X-27413Y281659D01*
X-27505Y281764D01*
X-27595Y281871D01*
X-27681Y281981D01*
X-27764Y282094D01*
X-27844Y282208D01*
X-27921Y282325D01*
X-27994Y282444D01*
X-28064Y282565D01*
X-28130Y282688D01*
X-28193Y282813D01*
X-28253Y282940D01*
X-28308Y283068D01*
X-28360Y283197D01*
X-28409Y283329D01*
X-28454Y283461D01*
X-28495Y283595D01*
X-28532Y283729D01*
X-28565Y283865D01*
X-28594Y284002D01*
X-28620Y284139D01*
X-28642Y284277D01*
X-28659Y284416D01*
X-28673Y284555D01*
X-28683Y284695D01*
X-28689Y284834D01*
X-28691Y284974D01*
X-28691Y289913D01*
X-28689Y290107D01*
X-28681Y290301D01*
X-28670Y290494D01*
X-28653Y290688D01*
X-28632Y290880D01*
X-28605Y291072D01*
X-28575Y291264D01*
X-28539Y291455D01*
X-28499Y291644D01*
X-28454Y291833D01*
X-28405Y292021D01*
X-28351Y292207D01*
X-28292Y292392D01*
X-28229Y292575D01*
X-28162Y292757D01*
X-28090Y292937D01*
X-28013Y293115D01*
X-27932Y293292D01*
X-27847Y293466D01*
X-27758Y293638D01*
X-27664Y293808D01*
X-27567Y293975D01*
X-27465Y294141D01*
X-27359Y294303D01*
X-27250Y294463D01*
X-27136Y294620D01*
X-27019Y294775D01*
X-26897Y294926D01*
X-26772Y295074D01*
X-26644Y295220D01*
X-26512Y295362D01*
X-26377Y295501D01*
X-26238Y295636D01*
X-26096Y295768D01*
X-25950Y295896D01*
X-25802Y296021D01*
X-25651Y296142D01*
X-25496Y296260D01*
X-25339Y296374D01*
X-25179Y296483D01*
X-25017Y296589D01*
X-24851Y296691D01*
X-24684Y296788D01*
X-24514Y296882D01*
X-24342Y296971D01*
X-24168Y297056D01*
X-23991Y297137D01*
X-23813Y297213D01*
X-23633Y297285D01*
X-23451Y297353D01*
X-23268Y297416D01*
X-23083Y297475D01*
X-22897Y297529D01*
X-22709Y297578D01*
X-22520Y297623D01*
X-22331Y297663D01*
X-22140Y297699D01*
X-21949Y297729D01*
X-21756Y297756D01*
X-21564Y297777D01*
X-21370Y297794D01*
X-21177Y297805D01*
X-20983Y297813D01*
X-20789Y297815D01*
D10*
X-84086Y29401D02*
X-81791Y27106D01*
X-81710Y27027D01*
X-81626Y26951D01*
X-81539Y26878D01*
X-81449Y26809D01*
X-81358Y26742D01*
X-81264Y26679D01*
X-81168Y26619D01*
X-81070Y26562D01*
X-80970Y26509D01*
X-80868Y26459D01*
X-80764Y26413D01*
X-80659Y26371D01*
X-80553Y26332D01*
X-80445Y26297D01*
X-80336Y26266D01*
X-80226Y26238D01*
X-80115Y26215D01*
X-80004Y26195D01*
X-79892Y26179D01*
X-79779Y26167D01*
X-79666Y26159D01*
X-79553Y26155D01*
X-79439Y26155D01*
X-79326Y26159D01*
X-79213Y26167D01*
X-79100Y26179D01*
X-78988Y26195D01*
X-78877Y26215D01*
X-78766Y26238D01*
X-78656Y26266D01*
X-78547Y26297D01*
X-78439Y26332D01*
X-78333Y26371D01*
X-78228Y26413D01*
X-78124Y26459D01*
X-78022Y26509D01*
X-77922Y26562D01*
X-77824Y26619D01*
X-77728Y26679D01*
X-77634Y26742D01*
X-77543Y26809D01*
X-77453Y26878D01*
X-77366Y26951D01*
X-77282Y27027D01*
X-77201Y27106D01*
X-77122Y27187D01*
X-77046Y27271D01*
X-76973Y27358D01*
X-76904Y27447D01*
X-76837Y27539D01*
X-76774Y27633D01*
X-76714Y27729D01*
X-76657Y27827D01*
X-76604Y27927D01*
X-76554Y28029D01*
X-76508Y28133D01*
X-76466Y28238D01*
X-76427Y28344D01*
X-76392Y28452D01*
X-76361Y28561D01*
X-76333Y28671D01*
X-76310Y28782D01*
X-76290Y28893D01*
X-76274Y29005D01*
X-76262Y29118D01*
X-76254Y29231D01*
X-76250Y29344D01*
X-76250Y29458D01*
X-76254Y29571D01*
X-76262Y29684D01*
X-76274Y29797D01*
X-76290Y29909D01*
X-76310Y30020D01*
X-76333Y30131D01*
X-76361Y30241D01*
X-76392Y30350D01*
X-76427Y30458D01*
X-76466Y30564D01*
X-76508Y30669D01*
X-76554Y30773D01*
X-76604Y30875D01*
X-76657Y30975D01*
X-76714Y31073D01*
X-76774Y31169D01*
X-76837Y31263D01*
X-76904Y31354D01*
X-76973Y31444D01*
X-77046Y31531D01*
X-77122Y31615D01*
X-77201Y31696D01*
X-73070Y34909D02*
X-75824Y37663D01*
X-73070Y34909D02*
X-73001Y34836D01*
X-72934Y34761D01*
X-72870Y34683D01*
X-72809Y34603D01*
X-72751Y34520D01*
X-72697Y34436D01*
X-72645Y34349D01*
X-72598Y34261D01*
X-72553Y34170D01*
X-72512Y34078D01*
X-72475Y33984D01*
X-72442Y33890D01*
X-72412Y33793D01*
X-72386Y33696D01*
X-72364Y33598D01*
X-72345Y33499D01*
X-72331Y33399D01*
X-72320Y33299D01*
X-72313Y33199D01*
X-72310Y33098D01*
X-72311Y32997D01*
X-72316Y32897D01*
X-72325Y32797D01*
X-72337Y32697D01*
X-72354Y32597D01*
X-72374Y32499D01*
X-72398Y32401D01*
X-72426Y32304D01*
X-72458Y32209D01*
X-72493Y32115D01*
X-72532Y32022D01*
X-72575Y31930D01*
X-72621Y31841D01*
X-72670Y31753D01*
X-72723Y31668D01*
X-72779Y31584D01*
X-72839Y31503D01*
X-72901Y31424D01*
X-72967Y31347D01*
X-73035Y31273D01*
X-73106Y31202D01*
X-73180Y31134D01*
X-73257Y31068D01*
X-73336Y31006D01*
X-73417Y30946D01*
X-73501Y30890D01*
X-73586Y30837D01*
X-73674Y30788D01*
X-73763Y30742D01*
X-73855Y30699D01*
X-73948Y30660D01*
X-74042Y30625D01*
X-74137Y30593D01*
X-74234Y30565D01*
X-74332Y30541D01*
X-74430Y30521D01*
X-74530Y30504D01*
X-74630Y30492D01*
X-74730Y30483D01*
X-74830Y30478D01*
X-74931Y30477D01*
X-75032Y30480D01*
X-75132Y30487D01*
X-75232Y30498D01*
X-75332Y30512D01*
X-75431Y30531D01*
X-75529Y30553D01*
X-75626Y30579D01*
X-75723Y30609D01*
X-75817Y30642D01*
X-75911Y30679D01*
X-76003Y30720D01*
X-76094Y30765D01*
X-76182Y30812D01*
X-76269Y30864D01*
X-76353Y30918D01*
X-76436Y30976D01*
X-76516Y31037D01*
X-76594Y31101D01*
X-76669Y31168D01*
X-76742Y31237D01*
X-78578Y33073D01*
X-68201Y30040D02*
X-73708Y19024D01*
X-62693Y24532D01*
X-67921Y13237D02*
X-65626Y10942D01*
X-65545Y10863D01*
X-65461Y10787D01*
X-65374Y10714D01*
X-65284Y10645D01*
X-65193Y10578D01*
X-65099Y10515D01*
X-65003Y10455D01*
X-64905Y10398D01*
X-64805Y10345D01*
X-64703Y10295D01*
X-64599Y10249D01*
X-64494Y10207D01*
X-64388Y10168D01*
X-64280Y10133D01*
X-64171Y10102D01*
X-64061Y10074D01*
X-63950Y10051D01*
X-63839Y10031D01*
X-63727Y10015D01*
X-63614Y10003D01*
X-63501Y9995D01*
X-63388Y9991D01*
X-63274Y9991D01*
X-63161Y9995D01*
X-63048Y10003D01*
X-62935Y10015D01*
X-62823Y10031D01*
X-62712Y10051D01*
X-62601Y10074D01*
X-62491Y10102D01*
X-62382Y10133D01*
X-62274Y10168D01*
X-62168Y10207D01*
X-62063Y10249D01*
X-61959Y10295D01*
X-61857Y10345D01*
X-61757Y10398D01*
X-61659Y10455D01*
X-61563Y10515D01*
X-61469Y10578D01*
X-61378Y10645D01*
X-61288Y10714D01*
X-61201Y10787D01*
X-61117Y10863D01*
X-61036Y10942D01*
X-60957Y11023D01*
X-60881Y11107D01*
X-60808Y11194D01*
X-60739Y11283D01*
X-60672Y11375D01*
X-60609Y11469D01*
X-60549Y11565D01*
X-60492Y11663D01*
X-60439Y11763D01*
X-60389Y11865D01*
X-60343Y11969D01*
X-60301Y12074D01*
X-60262Y12180D01*
X-60227Y12288D01*
X-60196Y12397D01*
X-60168Y12507D01*
X-60145Y12618D01*
X-60125Y12729D01*
X-60109Y12841D01*
X-60097Y12954D01*
X-60089Y13067D01*
X-60085Y13180D01*
X-60085Y13294D01*
X-60089Y13407D01*
X-60097Y13520D01*
X-60109Y13633D01*
X-60125Y13745D01*
X-60145Y13856D01*
X-60168Y13967D01*
X-60196Y14077D01*
X-60227Y14186D01*
X-60262Y14294D01*
X-60301Y14400D01*
X-60343Y14505D01*
X-60389Y14609D01*
X-60439Y14711D01*
X-60492Y14811D01*
X-60549Y14909D01*
X-60609Y15005D01*
X-60672Y15099D01*
X-60739Y15190D01*
X-60808Y15280D01*
X-60881Y15367D01*
X-60957Y15451D01*
X-61036Y15532D01*
X-56905Y18745D02*
X-59659Y21498D01*
X-56905Y18745D02*
X-56836Y18672D01*
X-56769Y18597D01*
X-56705Y18519D01*
X-56644Y18439D01*
X-56586Y18356D01*
X-56532Y18272D01*
X-56480Y18185D01*
X-56433Y18097D01*
X-56388Y18006D01*
X-56347Y17914D01*
X-56310Y17820D01*
X-56277Y17726D01*
X-56247Y17629D01*
X-56221Y17532D01*
X-56199Y17434D01*
X-56180Y17335D01*
X-56166Y17235D01*
X-56155Y17135D01*
X-56148Y17035D01*
X-56145Y16934D01*
X-56146Y16833D01*
X-56151Y16733D01*
X-56160Y16633D01*
X-56172Y16533D01*
X-56189Y16433D01*
X-56209Y16335D01*
X-56233Y16237D01*
X-56261Y16140D01*
X-56293Y16045D01*
X-56328Y15951D01*
X-56367Y15858D01*
X-56410Y15766D01*
X-56456Y15677D01*
X-56505Y15589D01*
X-56558Y15504D01*
X-56614Y15420D01*
X-56674Y15339D01*
X-56736Y15260D01*
X-56802Y15183D01*
X-56870Y15109D01*
X-56941Y15038D01*
X-57015Y14970D01*
X-57092Y14904D01*
X-57171Y14842D01*
X-57252Y14782D01*
X-57336Y14726D01*
X-57421Y14673D01*
X-57509Y14624D01*
X-57598Y14578D01*
X-57690Y14535D01*
X-57783Y14496D01*
X-57877Y14461D01*
X-57972Y14429D01*
X-58069Y14401D01*
X-58167Y14377D01*
X-58265Y14357D01*
X-58365Y14340D01*
X-58465Y14328D01*
X-58565Y14319D01*
X-58665Y14314D01*
X-58766Y14313D01*
X-58867Y14316D01*
X-58967Y14323D01*
X-59067Y14334D01*
X-59167Y14348D01*
X-59266Y14367D01*
X-59364Y14389D01*
X-59461Y14415D01*
X-59558Y14445D01*
X-59652Y14478D01*
X-59746Y14515D01*
X-59838Y14556D01*
X-59929Y14601D01*
X-60017Y14648D01*
X-60104Y14700D01*
X-60188Y14754D01*
X-60271Y14812D01*
X-60351Y14873D01*
X-60429Y14937D01*
X-60504Y15004D01*
X-60577Y15073D01*
X-62413Y16909D01*
D11*
X-44686Y20003D02*
X-44686Y2223D01*
X-44686Y20003D02*
X-39748Y20003D01*
X-39608Y20001D01*
X-39469Y19995D01*
X-39329Y19985D01*
X-39190Y19971D01*
X-39051Y19954D01*
X-38913Y19932D01*
X-38776Y19906D01*
X-38639Y19877D01*
X-38503Y19844D01*
X-38369Y19807D01*
X-38235Y19766D01*
X-38103Y19721D01*
X-37971Y19672D01*
X-37842Y19620D01*
X-37714Y19565D01*
X-37587Y19505D01*
X-37462Y19442D01*
X-37339Y19376D01*
X-37218Y19306D01*
X-37099Y19233D01*
X-36982Y19156D01*
X-36868Y19076D01*
X-36755Y18993D01*
X-36645Y18907D01*
X-36538Y18817D01*
X-36433Y18725D01*
X-36331Y18630D01*
X-36231Y18532D01*
X-36134Y18431D01*
X-36040Y18327D01*
X-35950Y18221D01*
X-35862Y18112D01*
X-35777Y18001D01*
X-35696Y17887D01*
X-35617Y17772D01*
X-35542Y17654D01*
X-35471Y17534D01*
X-35403Y17411D01*
X-35338Y17288D01*
X-35277Y17162D01*
X-35219Y17034D01*
X-35165Y16906D01*
X-35115Y16775D01*
X-35068Y16643D01*
X-35025Y16510D01*
X-34986Y16376D01*
X-34951Y16241D01*
X-34920Y16105D01*
X-34892Y15967D01*
X-34869Y15830D01*
X-34849Y15691D01*
X-34833Y15552D01*
X-34821Y15413D01*
X-34813Y15274D01*
X-34809Y15134D01*
X-34809Y14994D01*
X-34813Y14854D01*
X-34821Y14715D01*
X-34833Y14576D01*
X-34849Y14437D01*
X-34869Y14298D01*
X-34892Y14161D01*
X-34920Y14023D01*
X-34951Y13887D01*
X-34986Y13752D01*
X-35025Y13618D01*
X-35068Y13485D01*
X-35115Y13353D01*
X-35165Y13222D01*
X-35219Y13094D01*
X-35277Y12966D01*
X-35338Y12840D01*
X-35403Y12717D01*
X-35471Y12595D01*
X-35542Y12474D01*
X-35617Y12356D01*
X-35696Y12241D01*
X-35777Y12127D01*
X-35862Y12016D01*
X-35950Y11907D01*
X-36040Y11801D01*
X-36134Y11697D01*
X-36231Y11596D01*
X-36331Y11498D01*
X-36433Y11403D01*
X-36538Y11311D01*
X-36645Y11221D01*
X-36755Y11135D01*
X-36868Y11052D01*
X-36982Y10972D01*
X-37099Y10895D01*
X-37218Y10822D01*
X-37339Y10752D01*
X-37462Y10686D01*
X-37587Y10623D01*
X-37714Y10563D01*
X-37842Y10508D01*
X-37971Y10456D01*
X-38103Y10407D01*
X-38235Y10362D01*
X-38369Y10321D01*
X-38503Y10284D01*
X-38639Y10251D01*
X-38776Y10222D01*
X-38913Y10196D01*
X-39051Y10174D01*
X-39190Y10157D01*
X-39329Y10143D01*
X-39469Y10133D01*
X-39608Y10127D01*
X-39748Y10125D01*
X-44686Y10125D01*
X-28691Y2223D02*
X-23752Y2223D01*
X-23752Y2222D02*
X-23612Y2224D01*
X-23473Y2230D01*
X-23333Y2240D01*
X-23194Y2254D01*
X-23055Y2271D01*
X-22917Y2293D01*
X-22780Y2319D01*
X-22643Y2348D01*
X-22507Y2381D01*
X-22373Y2418D01*
X-22239Y2459D01*
X-22107Y2504D01*
X-21975Y2553D01*
X-21846Y2605D01*
X-21718Y2660D01*
X-21591Y2720D01*
X-21466Y2783D01*
X-21343Y2849D01*
X-21222Y2919D01*
X-21103Y2992D01*
X-20986Y3069D01*
X-20872Y3149D01*
X-20759Y3232D01*
X-20649Y3318D01*
X-20542Y3408D01*
X-20437Y3500D01*
X-20335Y3595D01*
X-20235Y3693D01*
X-20138Y3794D01*
X-20044Y3898D01*
X-19954Y4004D01*
X-19866Y4113D01*
X-19781Y4224D01*
X-19700Y4338D01*
X-19621Y4453D01*
X-19546Y4571D01*
X-19475Y4692D01*
X-19407Y4814D01*
X-19342Y4937D01*
X-19281Y5063D01*
X-19223Y5191D01*
X-19169Y5319D01*
X-19119Y5450D01*
X-19072Y5582D01*
X-19029Y5715D01*
X-18990Y5849D01*
X-18955Y5984D01*
X-18924Y6120D01*
X-18896Y6258D01*
X-18873Y6395D01*
X-18853Y6534D01*
X-18837Y6673D01*
X-18825Y6812D01*
X-18817Y6951D01*
X-18813Y7091D01*
X-18813Y7231D01*
X-18817Y7371D01*
X-18825Y7510D01*
X-18837Y7649D01*
X-18853Y7788D01*
X-18873Y7927D01*
X-18896Y8064D01*
X-18924Y8202D01*
X-18955Y8338D01*
X-18990Y8473D01*
X-19029Y8607D01*
X-19072Y8740D01*
X-19119Y8872D01*
X-19169Y9003D01*
X-19223Y9131D01*
X-19281Y9259D01*
X-19342Y9385D01*
X-19407Y9508D01*
X-19475Y9631D01*
X-19546Y9751D01*
X-19621Y9869D01*
X-19700Y9984D01*
X-19781Y10098D01*
X-19866Y10209D01*
X-19954Y10318D01*
X-20044Y10424D01*
X-20138Y10528D01*
X-20235Y10629D01*
X-20335Y10727D01*
X-20437Y10822D01*
X-20542Y10914D01*
X-20649Y11004D01*
X-20759Y11090D01*
X-20872Y11173D01*
X-20986Y11253D01*
X-21103Y11330D01*
X-21222Y11403D01*
X-21343Y11473D01*
X-21466Y11539D01*
X-21591Y11602D01*
X-21718Y11662D01*
X-21846Y11717D01*
X-21975Y11769D01*
X-22107Y11818D01*
X-22239Y11863D01*
X-22373Y11904D01*
X-22507Y11941D01*
X-22643Y11974D01*
X-22780Y12003D01*
X-22917Y12029D01*
X-23055Y12051D01*
X-23194Y12068D01*
X-23333Y12082D01*
X-23473Y12092D01*
X-23612Y12098D01*
X-23752Y12100D01*
X-22765Y20003D02*
X-28691Y20003D01*
X-22765Y20002D02*
X-22641Y20000D01*
X-22517Y19994D01*
X-22393Y19984D01*
X-22270Y19971D01*
X-22147Y19953D01*
X-22025Y19932D01*
X-21903Y19907D01*
X-21782Y19878D01*
X-21663Y19845D01*
X-21544Y19809D01*
X-21427Y19768D01*
X-21311Y19725D01*
X-21196Y19677D01*
X-21083Y19626D01*
X-20971Y19571D01*
X-20862Y19513D01*
X-20754Y19452D01*
X-20648Y19387D01*
X-20544Y19319D01*
X-20443Y19247D01*
X-20343Y19173D01*
X-20247Y19095D01*
X-20152Y19015D01*
X-20060Y18931D01*
X-19971Y18845D01*
X-19885Y18756D01*
X-19801Y18664D01*
X-19721Y18569D01*
X-19643Y18473D01*
X-19569Y18373D01*
X-19497Y18272D01*
X-19429Y18168D01*
X-19364Y18062D01*
X-19303Y17954D01*
X-19245Y17845D01*
X-19190Y17733D01*
X-19139Y17620D01*
X-19091Y17505D01*
X-19048Y17389D01*
X-19007Y17272D01*
X-18971Y17153D01*
X-18938Y17034D01*
X-18909Y16913D01*
X-18884Y16791D01*
X-18863Y16669D01*
X-18845Y16546D01*
X-18832Y16423D01*
X-18822Y16299D01*
X-18816Y16175D01*
X-18814Y16051D01*
X-18816Y15927D01*
X-18822Y15803D01*
X-18832Y15679D01*
X-18845Y15556D01*
X-18863Y15433D01*
X-18884Y15311D01*
X-18909Y15189D01*
X-18938Y15068D01*
X-18971Y14949D01*
X-19007Y14830D01*
X-19048Y14713D01*
X-19091Y14597D01*
X-19139Y14482D01*
X-19190Y14369D01*
X-19245Y14257D01*
X-19303Y14148D01*
X-19364Y14040D01*
X-19429Y13934D01*
X-19497Y13830D01*
X-19569Y13729D01*
X-19643Y13629D01*
X-19721Y13533D01*
X-19801Y13438D01*
X-19885Y13346D01*
X-19971Y13257D01*
X-20060Y13171D01*
X-20152Y13087D01*
X-20247Y13007D01*
X-20343Y12929D01*
X-20443Y12855D01*
X-20544Y12783D01*
X-20648Y12715D01*
X-20754Y12650D01*
X-20862Y12589D01*
X-20971Y12531D01*
X-21083Y12476D01*
X-21196Y12425D01*
X-21311Y12377D01*
X-21427Y12334D01*
X-21544Y12293D01*
X-21663Y12257D01*
X-21782Y12224D01*
X-21903Y12195D01*
X-22025Y12170D01*
X-22147Y12149D01*
X-22270Y12131D01*
X-22393Y12118D01*
X-22517Y12108D01*
X-22641Y12102D01*
X-22765Y12100D01*
X-26716Y12100D01*
D12*
X-88225Y263525D02*
X-88225Y266025D01*
X-88225Y263525D02*
X-88225Y261025D01*
X-88225Y263525D02*
X-83225Y266025D01*
X-83225Y261025D02*
X-88225Y263525D01*
X-83225Y261025D02*
X-83225Y266025D01*
D13*
X-91057Y269381D02*
X-91057Y276747D01*
X-89010Y276747D01*
X-88921Y276745D01*
X-88832Y276739D01*
X-88743Y276729D01*
X-88655Y276716D01*
X-88567Y276699D01*
X-88480Y276677D01*
X-88395Y276652D01*
X-88310Y276624D01*
X-88227Y276591D01*
X-88145Y276555D01*
X-88065Y276516D01*
X-87987Y276473D01*
X-87911Y276427D01*
X-87836Y276377D01*
X-87764Y276324D01*
X-87695Y276268D01*
X-87628Y276209D01*
X-87563Y276148D01*
X-87502Y276083D01*
X-87443Y276016D01*
X-87387Y275947D01*
X-87334Y275875D01*
X-87284Y275800D01*
X-87238Y275724D01*
X-87195Y275646D01*
X-87156Y275566D01*
X-87120Y275484D01*
X-87087Y275401D01*
X-87059Y275316D01*
X-87034Y275231D01*
X-87012Y275144D01*
X-86995Y275056D01*
X-86982Y274968D01*
X-86972Y274879D01*
X-86966Y274790D01*
X-86964Y274701D01*
X-86964Y271427D01*
X-86966Y271338D01*
X-86972Y271249D01*
X-86982Y271160D01*
X-86995Y271072D01*
X-87012Y270984D01*
X-87034Y270897D01*
X-87059Y270812D01*
X-87087Y270727D01*
X-87120Y270644D01*
X-87156Y270562D01*
X-87195Y270482D01*
X-87238Y270404D01*
X-87284Y270328D01*
X-87334Y270253D01*
X-87387Y270181D01*
X-87443Y270112D01*
X-87502Y270045D01*
X-87563Y269980D01*
X-87628Y269919D01*
X-87695Y269860D01*
X-87764Y269804D01*
X-87836Y269751D01*
X-87911Y269701D01*
X-87987Y269655D01*
X-88065Y269612D01*
X-88145Y269573D01*
X-88227Y269537D01*
X-88310Y269504D01*
X-88395Y269476D01*
X-88480Y269451D01*
X-88567Y269429D01*
X-88655Y269412D01*
X-88743Y269399D01*
X-88832Y269389D01*
X-88921Y269383D01*
X-89010Y269381D01*
X-91057Y269381D01*
X-83497Y275110D02*
X-81451Y276747D01*
X-81451Y269381D01*
X-83497Y269381D02*
X-79405Y269381D01*
D11*
X-131763Y180975D02*
X-131763Y168275D01*
X-138113Y161925D01*
X-150813Y161925D01*
X-157163Y168275D01*
X-138113Y161925D02*
X-131763Y155575D01*
X-131763Y142875D01*
X-138113Y136525D01*
X-150813Y136525D01*
X-157163Y142875D01*
X-157163Y155575D01*
X-150813Y161925D01*
X-150813Y187325D02*
X-138113Y187325D01*
X-131763Y180975D01*
X-150813Y187325D02*
X-157163Y180975D01*
X-157163Y168275D01*
X-138113Y136525D02*
X-131763Y130175D01*
X-131763Y117475D01*
X-138113Y111125D01*
X-150813Y111125D01*
X-157163Y117475D01*
X-157163Y130175D01*
X-150813Y136525D01*
X138113Y161925D02*
X150813Y161925D01*
X157163Y155575D01*
X157163Y142875D01*
X150813Y136525D01*
X131763Y142875D02*
X131763Y155575D01*
X138113Y161925D01*
X131763Y142875D02*
X138113Y136525D01*
X150813Y136525D01*
X119063Y141288D02*
X119063Y157544D01*
X123578Y157544D01*
X123711Y157542D01*
X123843Y157536D01*
X123975Y157526D01*
X124107Y157513D01*
X124239Y157495D01*
X124369Y157474D01*
X124500Y157449D01*
X124629Y157420D01*
X124757Y157387D01*
X124885Y157351D01*
X125011Y157311D01*
X125136Y157267D01*
X125260Y157219D01*
X125382Y157168D01*
X125503Y157113D01*
X125622Y157055D01*
X125740Y156993D01*
X125855Y156928D01*
X125969Y156859D01*
X126080Y156788D01*
X126189Y156712D01*
X126296Y156634D01*
X126401Y156553D01*
X126503Y156468D01*
X126603Y156381D01*
X126700Y156291D01*
X126795Y156198D01*
X126886Y156102D01*
X126975Y156004D01*
X127061Y155903D01*
X127144Y155799D01*
X127224Y155693D01*
X127300Y155585D01*
X127374Y155475D01*
X127444Y155362D01*
X127511Y155248D01*
X127574Y155131D01*
X127634Y155013D01*
X127691Y154893D01*
X127744Y154771D01*
X127793Y154648D01*
X127839Y154524D01*
X127881Y154398D01*
X127919Y154271D01*
X127954Y154143D01*
X127985Y154014D01*
X128012Y153885D01*
X128035Y153754D01*
X128055Y153623D01*
X128070Y153491D01*
X128082Y153359D01*
X128090Y153227D01*
X128094Y153094D01*
X128094Y152962D01*
X128090Y152829D01*
X128082Y152697D01*
X128070Y152565D01*
X128055Y152433D01*
X128035Y152302D01*
X128012Y152171D01*
X127985Y152042D01*
X127954Y151913D01*
X127919Y151785D01*
X127881Y151658D01*
X127839Y151532D01*
X127793Y151408D01*
X127744Y151285D01*
X127691Y151163D01*
X127634Y151043D01*
X127574Y150925D01*
X127511Y150808D01*
X127444Y150694D01*
X127374Y150581D01*
X127300Y150471D01*
X127224Y150363D01*
X127144Y150257D01*
X127061Y150153D01*
X126975Y150052D01*
X126886Y149954D01*
X126795Y149858D01*
X126700Y149765D01*
X126603Y149675D01*
X126503Y149588D01*
X126401Y149503D01*
X126296Y149422D01*
X126189Y149344D01*
X126080Y149268D01*
X125969Y149197D01*
X125855Y149128D01*
X125740Y149063D01*
X125622Y149001D01*
X125503Y148943D01*
X125382Y148888D01*
X125260Y148837D01*
X125136Y148789D01*
X125011Y148745D01*
X124885Y148705D01*
X124757Y148669D01*
X124629Y148636D01*
X124500Y148607D01*
X124369Y148582D01*
X124239Y148561D01*
X124107Y148543D01*
X123975Y148530D01*
X123843Y148520D01*
X123711Y148514D01*
X123578Y148512D01*
X119063Y148512D01*
X124481Y148512D02*
X128094Y141288D01*
D14*
X75756Y239865D03*
D15*
X87109Y239865D03*
D16*
X73927Y240017D03*
X77127Y240017D03*
X94044Y240017D03*
D17*
X75527Y240017D03*
D18*
X87186Y240017D03*
D16*
X73622Y240170D03*
X77127Y240170D03*
D19*
X75375Y240170D03*
D20*
X87414Y240170D03*
D16*
X77127Y240322D03*
X94653Y240322D03*
D21*
X75222Y240322D03*
D22*
X87490Y240322D03*
D16*
X77127Y240474D03*
D23*
X75146Y240474D03*
D24*
X87643Y240474D03*
D16*
X73012Y240627D03*
X77127Y240627D03*
D25*
X75070Y240627D03*
D26*
X87719Y240627D03*
D16*
X77127Y240779D03*
D27*
X74994Y240779D03*
D28*
X87795Y240779D03*
D16*
X77127Y240932D03*
X95263Y240932D03*
D29*
X74917Y240932D03*
D28*
X87795Y240932D03*
D16*
X72708Y241084D03*
X77127Y241084D03*
D29*
X74917Y241084D03*
D30*
X87871Y241084D03*
D16*
X77127Y241236D03*
D31*
X74841Y241236D03*
D32*
X87948Y241236D03*
D16*
X77127Y241389D03*
X95568Y241389D03*
D33*
X74765Y241389D03*
D32*
X87948Y241389D03*
D16*
X72403Y241541D03*
X77127Y241541D03*
D33*
X74765Y241541D03*
D34*
X88024Y241541D03*
D16*
X77127Y241694D03*
X95720Y241694D03*
D35*
X74689Y241694D03*
D34*
X88024Y241694D03*
D16*
X72250Y241846D03*
X77127Y241846D03*
D35*
X74689Y241846D03*
D36*
X88100Y241846D03*
D16*
X77127Y241998D03*
D37*
X74613Y241998D03*
D38*
X88176Y241998D03*
D16*
X77127Y242151D03*
X96025Y242151D03*
D39*
X74536Y242151D03*
D38*
X88176Y242151D03*
D16*
X77127Y242303D03*
D39*
X74536Y242303D03*
D40*
X88252Y242303D03*
D16*
X77127Y242456D03*
X96177Y242456D03*
D41*
X74460Y242456D03*
D40*
X88252Y242456D03*
D16*
X71793Y242608D03*
X77127Y242608D03*
D41*
X74460Y242608D03*
D42*
X88329Y242608D03*
D16*
X77127Y242760D03*
X96330Y242760D03*
D43*
X74384Y242760D03*
D42*
X88329Y242760D03*
D16*
X71641Y242913D03*
X77127Y242913D03*
D43*
X74384Y242913D03*
D44*
X88405Y242913D03*
D16*
X77127Y243065D03*
D45*
X74308Y243065D03*
D46*
X88481Y243065D03*
D16*
X77127Y243218D03*
X96634Y243218D03*
D47*
X74232Y243218D03*
D46*
X88481Y243218D03*
D16*
X71336Y243370D03*
X77127Y243370D03*
D47*
X74232Y243370D03*
D48*
X88557Y243370D03*
D16*
X77127Y243522D03*
X96787Y243522D03*
D49*
X74155Y243522D03*
D48*
X88557Y243522D03*
D16*
X71184Y243675D03*
X77127Y243675D03*
D49*
X74155Y243675D03*
D50*
X88633Y243675D03*
D16*
X77127Y243827D03*
D51*
X74079Y243827D03*
D52*
X88710Y243827D03*
D16*
X71031Y243980D03*
X77127Y243980D03*
D51*
X74079Y243980D03*
D52*
X88710Y243980D03*
D16*
X77127Y244132D03*
D53*
X74003Y244132D03*
D54*
X88786Y244132D03*
D16*
X77127Y244284D03*
X97244Y244284D03*
D55*
X73927Y244284D03*
D54*
X88786Y244284D03*
D16*
X70726Y244437D03*
X77127Y244437D03*
D55*
X73927Y244437D03*
D56*
X88862Y244437D03*
D16*
X77127Y244589D03*
X97396Y244589D03*
D57*
X73851Y244589D03*
D56*
X88862Y244589D03*
D16*
X70574Y244742D03*
X77127Y244742D03*
D57*
X73851Y244742D03*
D58*
X88938Y244742D03*
D16*
X77127Y244894D03*
D59*
X73774Y244894D03*
D60*
X89014Y244894D03*
D16*
X70422Y245046D03*
X77127Y245046D03*
D59*
X73774Y245046D03*
D60*
X89014Y245046D03*
D16*
X77127Y245199D03*
D61*
X73698Y245199D03*
D62*
X89091Y245199D03*
D16*
X77127Y245351D03*
X97854Y245351D03*
D63*
X73622Y245351D03*
D62*
X89091Y245351D03*
D16*
X70117Y245504D03*
X77127Y245504D03*
D63*
X73622Y245504D03*
D64*
X89167Y245504D03*
D16*
X77127Y245656D03*
X80480Y245656D03*
X98006Y245656D03*
D65*
X73546Y245656D03*
D62*
X89243Y245656D03*
D16*
X69964Y245808D03*
X77127Y245808D03*
X80480Y245808D03*
D65*
X73546Y245808D03*
D64*
X89319Y245808D03*
D16*
X77127Y245961D03*
X80480Y245961D03*
X98158Y245961D03*
D66*
X73470Y245961D03*
D64*
X89319Y245961D03*
D16*
X77127Y246113D03*
X80480Y246113D03*
D67*
X73393Y246113D03*
D68*
X89395Y246113D03*
D16*
X77127Y246266D03*
X80480Y246266D03*
D67*
X73393Y246266D03*
D69*
X89472Y246266D03*
D16*
X77127Y246418D03*
X80480Y246418D03*
X98463Y246418D03*
D70*
X73317Y246418D03*
D69*
X89472Y246418D03*
D16*
X69507Y246570D03*
X77127Y246570D03*
X80480Y246570D03*
D70*
X73317Y246570D03*
D71*
X89548Y246570D03*
D16*
X77127Y246723D03*
X80480Y246723D03*
D72*
X88786Y246723D03*
D16*
X89776Y246723D03*
X98616Y246723D03*
D73*
X73241Y246723D03*
D74*
X84595Y246723D03*
D75*
X94196Y246723D03*
D16*
X69355Y246875D03*
X77127Y246875D03*
X80480Y246875D03*
X88405Y246875D03*
X90081Y246875D03*
D73*
X73241Y246875D03*
D76*
X84442Y246875D03*
D77*
X94425Y246875D03*
D16*
X77127Y247028D03*
X80480Y247028D03*
X88252Y247028D03*
X98768Y247028D03*
D76*
X73165Y247028D03*
D73*
X84366Y247028D03*
D78*
X94501Y247028D03*
D16*
X77127Y247180D03*
X80480Y247180D03*
X90538Y247180D03*
X98920Y247180D03*
D79*
X73089Y247180D03*
D70*
X84290Y247180D03*
D80*
X94729Y247180D03*
D16*
X69050Y247332D03*
X77127Y247332D03*
X80480Y247332D03*
X87948Y247332D03*
D79*
X73089Y247332D03*
D67*
X84214Y247332D03*
D78*
X94806Y247332D03*
D16*
X77127Y247485D03*
X80480Y247485D03*
X99073Y247485D03*
D74*
X73012Y247485D03*
D67*
X84214Y247485D03*
D81*
X94882Y247485D03*
D16*
X68898Y247637D03*
X77127Y247637D03*
X80480Y247637D03*
D74*
X73012Y247637D03*
D66*
X84138Y247637D03*
D78*
X94958Y247637D03*
D16*
X77127Y247790D03*
X80480Y247790D03*
X90843Y247790D03*
X99225Y247790D03*
D81*
X72936Y247790D03*
D66*
X84138Y247790D03*
D81*
X95034Y247790D03*
D16*
X68745Y247942D03*
X77127Y247942D03*
X80480Y247942D03*
X87643Y247942D03*
D81*
X72936Y247942D03*
D65*
X84061Y247942D03*
D78*
X95110Y247942D03*
D16*
X77127Y248094D03*
X80480Y248094D03*
X87643Y248094D03*
X99378Y248094D03*
D78*
X72860Y248094D03*
D65*
X84061Y248094D03*
D78*
X95110Y248094D03*
D16*
X77127Y248247D03*
X80480Y248247D03*
X87643Y248247D03*
D77*
X72784Y248247D03*
D65*
X84061Y248247D03*
D77*
X95187Y248247D03*
D16*
X68440Y248399D03*
X77127Y248399D03*
X80480Y248399D03*
X87643Y248399D03*
X99530Y248399D03*
D77*
X72784Y248399D03*
D65*
X84061Y248399D03*
D77*
X95187Y248399D03*
D16*
X77127Y248552D03*
X80480Y248552D03*
X87643Y248552D03*
D82*
X72708Y248552D03*
D65*
X84061Y248552D03*
D75*
X95263Y248552D03*
D16*
X68288Y248704D03*
X77127Y248704D03*
X80480Y248704D03*
X87643Y248704D03*
D82*
X72708Y248704D03*
D65*
X84061Y248704D03*
D83*
X95339Y248704D03*
D16*
X77127Y248856D03*
X80480Y248856D03*
X87643Y248856D03*
X99835Y248856D03*
D83*
X72631Y248856D03*
D65*
X84061Y248856D03*
D83*
X95339Y248856D03*
D16*
X68136Y249009D03*
X77127Y249009D03*
X80480Y249009D03*
X87643Y249009D03*
D83*
X72631Y249009D03*
D65*
X84061Y249009D03*
D84*
X95415Y249009D03*
D16*
X77127Y249161D03*
X80480Y249161D03*
X87643Y249161D03*
X99987Y249161D03*
D84*
X72555Y249161D03*
D65*
X84061Y249161D03*
D84*
X95415Y249161D03*
D16*
X77127Y249314D03*
X80480Y249314D03*
X87643Y249314D03*
D85*
X72479Y249314D03*
D65*
X84061Y249314D03*
D85*
X95491Y249314D03*
D16*
X67831Y249466D03*
X77127Y249466D03*
X80480Y249466D03*
X87643Y249466D03*
X90996Y249466D03*
X100140Y249466D03*
D85*
X72479Y249466D03*
D65*
X84061Y249466D03*
D84*
X95568Y249466D03*
D16*
X77127Y249618D03*
X80480Y249618D03*
X87643Y249618D03*
X90996Y249618D03*
D86*
X72403Y249618D03*
D65*
X84061Y249618D03*
D85*
X95644Y249618D03*
D16*
X67678Y249771D03*
X77127Y249771D03*
X80480Y249771D03*
X87643Y249771D03*
X90996Y249771D03*
D86*
X72403Y249771D03*
D65*
X84061Y249771D03*
D86*
X95720Y249771D03*
D16*
X77127Y249923D03*
X80480Y249923D03*
X87643Y249923D03*
X90996Y249923D03*
X100444Y249923D03*
D87*
X72327Y249923D03*
D65*
X84061Y249923D03*
D86*
X95720Y249923D03*
D16*
X67526Y250076D03*
X77127Y250076D03*
X80480Y250076D03*
X87643Y250076D03*
X90996Y250076D03*
D87*
X72327Y250076D03*
D65*
X84061Y250076D03*
D87*
X95796Y250076D03*
D16*
X77127Y250228D03*
X80480Y250228D03*
X87643Y250228D03*
X90996Y250228D03*
X100597Y250228D03*
D88*
X72250Y250228D03*
D65*
X84061Y250228D03*
D87*
X95796Y250228D03*
D16*
X77127Y250380D03*
X80480Y250380D03*
X87643Y250380D03*
X90996Y250380D03*
D89*
X72174Y250380D03*
D65*
X84061Y250380D03*
D88*
X95872Y250380D03*
D16*
X67221Y250533D03*
X77127Y250533D03*
X80480Y250533D03*
X90996Y250533D03*
D89*
X72174Y250533D03*
D65*
X84061Y250533D03*
D89*
X95949Y250533D03*
D16*
X77127Y250685D03*
X80480Y250685D03*
X90996Y250685D03*
X100902Y250685D03*
D90*
X72098Y250685D03*
D65*
X84061Y250685D03*
D89*
X95949Y250685D03*
D16*
X67069Y250838D03*
X77127Y250838D03*
X80480Y250838D03*
X90996Y250838D03*
D90*
X72098Y250838D03*
D65*
X84061Y250838D03*
D90*
X96025Y250838D03*
D16*
X77127Y250990D03*
X80480Y250990D03*
X90996Y250990D03*
X101054Y250990D03*
D91*
X72022Y250990D03*
D65*
X84061Y250990D03*
D90*
X96025Y250990D03*
D16*
X66916Y251142D03*
X77127Y251142D03*
X80480Y251142D03*
X90996Y251142D03*
D91*
X72022Y251142D03*
D65*
X84061Y251142D03*
D91*
X96101Y251142D03*
D16*
X77127Y251295D03*
X80480Y251295D03*
X90996Y251295D03*
X101206Y251295D03*
D92*
X71946Y251295D03*
D65*
X84061Y251295D03*
D91*
X96101Y251295D03*
D16*
X77127Y251447D03*
X80480Y251447D03*
X90996Y251447D03*
D93*
X71869Y251447D03*
D65*
X84061Y251447D03*
D92*
X96177Y251447D03*
D16*
X66612Y251600D03*
X77127Y251600D03*
X80480Y251600D03*
X90996Y251600D03*
D93*
X71869Y251600D03*
D65*
X84061Y251600D03*
D93*
X96253Y251600D03*
D16*
X77127Y251752D03*
X80480Y251752D03*
X90996Y251752D03*
X101511Y251752D03*
D94*
X71793Y251752D03*
D65*
X84061Y251752D03*
D93*
X96253Y251752D03*
D16*
X66459Y251904D03*
X77127Y251904D03*
X80480Y251904D03*
X90996Y251904D03*
D94*
X71793Y251904D03*
D65*
X84061Y251904D03*
D94*
X96330Y251904D03*
D16*
X77127Y252057D03*
X80480Y252057D03*
X90996Y252057D03*
X101664Y252057D03*
D95*
X71717Y252057D03*
D65*
X84061Y252057D03*
D94*
X96330Y252057D03*
D16*
X66307Y252209D03*
X77127Y252209D03*
X80480Y252209D03*
X90996Y252209D03*
D95*
X71717Y252209D03*
D65*
X84061Y252209D03*
D95*
X96406Y252209D03*
D16*
X77127Y252362D03*
X80480Y252362D03*
X90996Y252362D03*
X101816Y252362D03*
D96*
X71641Y252362D03*
D65*
X84061Y252362D03*
D95*
X96406Y252362D03*
D16*
X77127Y252514D03*
X80480Y252514D03*
X90996Y252514D03*
D97*
X71565Y252514D03*
D65*
X84061Y252514D03*
D96*
X96482Y252514D03*
D16*
X66002Y252666D03*
X77127Y252666D03*
X80480Y252666D03*
X90996Y252666D03*
D97*
X71565Y252666D03*
D65*
X84061Y252666D03*
D97*
X96558Y252666D03*
D16*
X77127Y252819D03*
X80480Y252819D03*
X90996Y252819D03*
X102121Y252819D03*
D98*
X71488Y252819D03*
D65*
X84061Y252819D03*
D97*
X96558Y252819D03*
D16*
X65850Y252971D03*
X77127Y252971D03*
X80480Y252971D03*
X90996Y252971D03*
D98*
X71488Y252971D03*
D65*
X84061Y252971D03*
D98*
X96634Y252971D03*
D16*
X77127Y253124D03*
X80480Y253124D03*
X90996Y253124D03*
X102273Y253124D03*
D99*
X71412Y253124D03*
D65*
X84061Y253124D03*
D98*
X96634Y253124D03*
D16*
X77127Y253276D03*
X80480Y253276D03*
X90996Y253276D03*
D100*
X71336Y253276D03*
D65*
X84061Y253276D03*
D99*
X96711Y253276D03*
D16*
X65545Y253428D03*
X77127Y253428D03*
X80480Y253428D03*
X90996Y253428D03*
X102426Y253428D03*
D100*
X71336Y253428D03*
D65*
X84061Y253428D03*
D99*
X96711Y253428D03*
D16*
X77127Y253581D03*
X80480Y253581D03*
X90996Y253581D03*
X102578Y253581D03*
D101*
X71260Y253581D03*
D65*
X84061Y253581D03*
D100*
X96787Y253581D03*
D16*
X65392Y253733D03*
X77127Y253733D03*
X80480Y253733D03*
X90996Y253733D03*
D101*
X71260Y253733D03*
D65*
X84061Y253733D03*
D101*
X96863Y253733D03*
D16*
X77127Y253886D03*
X80480Y253886D03*
X90996Y253886D03*
X102730Y253886D03*
D102*
X71184Y253886D03*
D65*
X84061Y253886D03*
D101*
X96863Y253886D03*
D16*
X65240Y254038D03*
X77127Y254038D03*
X80480Y254038D03*
X90996Y254038D03*
D102*
X71184Y254038D03*
D65*
X84061Y254038D03*
D102*
X96939Y254038D03*
D16*
X77127Y254190D03*
X80480Y254190D03*
X90996Y254190D03*
X102883Y254190D03*
D103*
X71107Y254190D03*
D65*
X84061Y254190D03*
D102*
X96939Y254190D03*
D16*
X77127Y254343D03*
X80480Y254343D03*
X90996Y254343D03*
D104*
X71031Y254343D03*
D65*
X84061Y254343D03*
D103*
X97015Y254343D03*
D16*
X64935Y254495D03*
X77127Y254495D03*
X80480Y254495D03*
X90996Y254495D03*
D104*
X71031Y254495D03*
D65*
X84061Y254495D03*
D104*
X97092Y254495D03*
D16*
X77127Y254648D03*
X80480Y254648D03*
X90996Y254648D03*
X103188Y254648D03*
D105*
X70955Y254648D03*
D65*
X84061Y254648D03*
D104*
X97092Y254648D03*
D16*
X64783Y254800D03*
X77127Y254800D03*
X80480Y254800D03*
X90996Y254800D03*
D105*
X70955Y254800D03*
D65*
X84061Y254800D03*
D105*
X97168Y254800D03*
D16*
X77127Y254952D03*
X80480Y254952D03*
X90996Y254952D03*
X103340Y254952D03*
D106*
X70879Y254952D03*
D65*
X84061Y254952D03*
D105*
X97168Y254952D03*
D16*
X64630Y255105D03*
X77127Y255105D03*
X80480Y255105D03*
X90996Y255105D03*
D106*
X70879Y255105D03*
D65*
X84061Y255105D03*
D106*
X97244Y255105D03*
D16*
X77127Y255257D03*
X80480Y255257D03*
X90996Y255257D03*
X103492Y255257D03*
D107*
X70803Y255257D03*
D65*
X84061Y255257D03*
D106*
X97244Y255257D03*
D16*
X77127Y255410D03*
X80480Y255410D03*
X90996Y255410D03*
D108*
X70726Y255410D03*
D65*
X84061Y255410D03*
D107*
X97320Y255410D03*
D16*
X64326Y255562D03*
X77127Y255562D03*
X80480Y255562D03*
X90996Y255562D03*
D108*
X70726Y255562D03*
D65*
X84061Y255562D03*
D108*
X97396Y255562D03*
D16*
X80480Y255714D03*
X90996Y255714D03*
X103797Y255714D03*
D109*
X70650Y255714D03*
D65*
X84061Y255714D03*
D108*
X97396Y255714D03*
D16*
X64173Y255867D03*
X80480Y255867D03*
X90996Y255867D03*
D109*
X70650Y255867D03*
D65*
X84061Y255867D03*
D109*
X97473Y255867D03*
D16*
X80480Y256019D03*
X90996Y256019D03*
X103950Y256019D03*
D110*
X70574Y256019D03*
D65*
X84061Y256019D03*
D109*
X97473Y256019D03*
D16*
X64021Y256172D03*
X80480Y256172D03*
X90996Y256172D03*
D110*
X70574Y256172D03*
D65*
X84061Y256172D03*
D110*
X97549Y256172D03*
D16*
X80480Y256324D03*
X90996Y256324D03*
X104102Y256324D03*
D15*
X70498Y256324D03*
D65*
X84061Y256324D03*
D110*
X97549Y256324D03*
D16*
X80632Y256476D03*
X87490Y256476D03*
X90996Y256476D03*
X104254Y256476D03*
D111*
X70422Y256476D03*
D112*
X84061Y256476D03*
D15*
X97625Y256476D03*
D16*
X63716Y256629D03*
X90996Y256629D03*
D111*
X70422Y256629D03*
X97701Y256629D03*
D16*
X90996Y256781D03*
X104407Y256781D03*
D113*
X70345Y256781D03*
D111*
X97701Y256781D03*
D16*
X63564Y256934D03*
X90996Y256934D03*
D113*
X70345Y256934D03*
X97777Y256934D03*
D16*
X90996Y257086D03*
X104559Y257086D03*
D18*
X70269Y257086D03*
D113*
X97777Y257086D03*
D16*
X63411Y257238D03*
X90996Y257238D03*
D18*
X70269Y257238D03*
X97854Y257238D03*
D16*
X90996Y257391D03*
X104712Y257391D03*
D114*
X70193Y257391D03*
D18*
X97854Y257391D03*
D16*
X63259Y257543D03*
X90996Y257543D03*
D114*
X70193Y257543D03*
X97930Y257543D03*
D16*
X63259Y257696D03*
X90996Y257696D03*
D114*
X70193Y257696D03*
X97930Y257696D03*
D16*
X90996Y257848D03*
D115*
X70117Y257848D03*
D114*
X97930Y257848D03*
D16*
X90996Y258000D03*
X104864Y258000D03*
D115*
X70117Y258000D03*
D114*
X97930Y258000D03*
D16*
X90996Y258153D03*
X104864Y258153D03*
D115*
X70117Y258153D03*
D114*
X97930Y258153D03*
D16*
X90996Y258305D03*
X104864Y258305D03*
D115*
X70117Y258305D03*
D114*
X97930Y258305D03*
D16*
X90996Y258458D03*
X104864Y258458D03*
D115*
X70117Y258458D03*
D114*
X97930Y258458D03*
D16*
X90996Y258610D03*
X104864Y258610D03*
D115*
X70117Y258610D03*
D114*
X97930Y258610D03*
D16*
X90996Y258762D03*
D115*
X70117Y258762D03*
D114*
X97930Y258762D03*
D16*
X63259Y258915D03*
X90996Y258915D03*
D114*
X70193Y258915D03*
X97930Y258915D03*
D16*
X90996Y259067D03*
X104712Y259067D03*
D114*
X70193Y259067D03*
D18*
X97854Y259067D03*
D16*
X90996Y259220D03*
X104712Y259220D03*
D114*
X70193Y259220D03*
D18*
X97854Y259220D03*
D16*
X63411Y259372D03*
X90996Y259372D03*
D18*
X70269Y259372D03*
X97854Y259372D03*
D16*
X90996Y259524D03*
X104559Y259524D03*
D18*
X70269Y259524D03*
D113*
X97777Y259524D03*
D16*
X63564Y259677D03*
X90996Y259677D03*
D113*
X70345Y259677D03*
X97777Y259677D03*
D16*
X90996Y259829D03*
D113*
X70345Y259829D03*
D111*
X97701Y259829D03*
D16*
X90996Y259982D03*
X104254Y259982D03*
D111*
X70422Y259982D03*
D15*
X97625Y259982D03*
D16*
X63868Y260134D03*
X90996Y260134D03*
D15*
X70498Y260134D03*
D65*
X84061Y260134D03*
D15*
X97625Y260134D03*
D16*
X80480Y260286D03*
X90996Y260286D03*
X104102Y260286D03*
D15*
X70498Y260286D03*
D65*
X84061Y260286D03*
D110*
X97549Y260286D03*
D16*
X64021Y260439D03*
X80480Y260439D03*
X90996Y260439D03*
D110*
X70574Y260439D03*
D65*
X84061Y260439D03*
D110*
X97549Y260439D03*
D16*
X80480Y260591D03*
X90996Y260591D03*
X103950Y260591D03*
D110*
X70574Y260591D03*
D65*
X84061Y260591D03*
D109*
X97473Y260591D03*
D16*
X64173Y260744D03*
X80480Y260744D03*
X90996Y260744D03*
X103797Y260744D03*
D109*
X70650Y260744D03*
D65*
X84061Y260744D03*
D108*
X97396Y260744D03*
D16*
X64326Y260896D03*
X80480Y260896D03*
X90996Y260896D03*
D108*
X70726Y260896D03*
D65*
X84061Y260896D03*
D108*
X97396Y260896D03*
D16*
X80480Y261048D03*
X90996Y261048D03*
X103645Y261048D03*
D108*
X70726Y261048D03*
D65*
X84061Y261048D03*
D107*
X97320Y261048D03*
D16*
X64478Y261201D03*
X80480Y261201D03*
X90996Y261201D03*
D107*
X70803Y261201D03*
D65*
X84061Y261201D03*
D107*
X97320Y261201D03*
D16*
X80480Y261353D03*
X90996Y261353D03*
X103492Y261353D03*
D107*
X70803Y261353D03*
D65*
X84061Y261353D03*
D106*
X97244Y261353D03*
D16*
X64630Y261506D03*
X80480Y261506D03*
X90996Y261506D03*
D106*
X70879Y261506D03*
D65*
X84061Y261506D03*
D106*
X97244Y261506D03*
D16*
X80480Y261658D03*
X90996Y261658D03*
X103340Y261658D03*
D106*
X70879Y261658D03*
D65*
X84061Y261658D03*
D105*
X97168Y261658D03*
D16*
X80480Y261810D03*
X90996Y261810D03*
X103188Y261810D03*
D105*
X70955Y261810D03*
D65*
X84061Y261810D03*
D104*
X97092Y261810D03*
D16*
X64935Y261963D03*
X80480Y261963D03*
X90996Y261963D03*
D104*
X71031Y261963D03*
D65*
X84061Y261963D03*
D104*
X97092Y261963D03*
D16*
X80480Y262115D03*
X90996Y262115D03*
X103035Y262115D03*
D104*
X71031Y262115D03*
D65*
X84061Y262115D03*
D103*
X97015Y262115D03*
D16*
X65088Y262268D03*
X80480Y262268D03*
X90996Y262268D03*
D103*
X71107Y262268D03*
D65*
X84061Y262268D03*
D103*
X97015Y262268D03*
D16*
X80480Y262420D03*
X90996Y262420D03*
X102883Y262420D03*
D103*
X71107Y262420D03*
D65*
X84061Y262420D03*
D102*
X96939Y262420D03*
D16*
X65240Y262572D03*
X80480Y262572D03*
X90996Y262572D03*
D102*
X71184Y262572D03*
D65*
X84061Y262572D03*
D102*
X96939Y262572D03*
D16*
X80480Y262725D03*
X90996Y262725D03*
D102*
X71184Y262725D03*
D65*
X84061Y262725D03*
D101*
X96863Y262725D03*
D16*
X80480Y262877D03*
X90996Y262877D03*
X102578Y262877D03*
D101*
X71260Y262877D03*
D65*
X84061Y262877D03*
D100*
X96787Y262877D03*
D16*
X65545Y263030D03*
X80480Y263030D03*
X90996Y263030D03*
D100*
X71336Y263030D03*
D65*
X84061Y263030D03*
D100*
X96787Y263030D03*
D16*
X80480Y263182D03*
X90996Y263182D03*
X102426Y263182D03*
D100*
X71336Y263182D03*
D65*
X84061Y263182D03*
D99*
X96711Y263182D03*
D16*
X65697Y263334D03*
X80480Y263334D03*
X90996Y263334D03*
D99*
X71412Y263334D03*
D65*
X84061Y263334D03*
D99*
X96711Y263334D03*
D16*
X80480Y263487D03*
X90996Y263487D03*
X102273Y263487D03*
D99*
X71412Y263487D03*
D65*
X84061Y263487D03*
D98*
X96634Y263487D03*
D16*
X65850Y263639D03*
X80480Y263639D03*
X90996Y263639D03*
D98*
X71488Y263639D03*
D65*
X84061Y263639D03*
D98*
X96634Y263639D03*
D16*
X80480Y263792D03*
X90996Y263792D03*
D98*
X71488Y263792D03*
D65*
X84061Y263792D03*
D97*
X96558Y263792D03*
D16*
X80480Y263944D03*
X90996Y263944D03*
X101968Y263944D03*
D97*
X71565Y263944D03*
D65*
X84061Y263944D03*
D96*
X96482Y263944D03*
D16*
X66154Y264096D03*
X80480Y264096D03*
X90996Y264096D03*
D96*
X71641Y264096D03*
D65*
X84061Y264096D03*
D96*
X96482Y264096D03*
D16*
X80480Y264249D03*
X90996Y264249D03*
X101816Y264249D03*
D96*
X71641Y264249D03*
D65*
X84061Y264249D03*
D95*
X96406Y264249D03*
D16*
X80480Y264401D03*
X90996Y264401D03*
D95*
X71717Y264401D03*
D65*
X84061Y264401D03*
D95*
X96406Y264401D03*
D16*
X66459Y264554D03*
X80480Y264554D03*
X90996Y264554D03*
X101664Y264554D03*
D94*
X71793Y264554D03*
D65*
X84061Y264554D03*
D94*
X96330Y264554D03*
D16*
X80480Y264706D03*
X90996Y264706D03*
X101511Y264706D03*
D94*
X71793Y264706D03*
D65*
X84061Y264706D03*
D93*
X96253Y264706D03*
D16*
X66612Y264858D03*
X80480Y264858D03*
X90996Y264858D03*
D93*
X71869Y264858D03*
D65*
X84061Y264858D03*
D93*
X96253Y264858D03*
D16*
X80480Y265011D03*
X90996Y265011D03*
X101359Y265011D03*
D93*
X71869Y265011D03*
D65*
X84061Y265011D03*
D92*
X96177Y265011D03*
D16*
X66764Y265163D03*
X77127Y265163D03*
X80480Y265163D03*
X90996Y265163D03*
D92*
X71946Y265163D03*
D65*
X84061Y265163D03*
D92*
X96177Y265163D03*
D16*
X66916Y265316D03*
X77127Y265316D03*
X80480Y265316D03*
X90996Y265316D03*
X101206Y265316D03*
D91*
X72022Y265316D03*
D65*
X84061Y265316D03*
D91*
X96101Y265316D03*
D16*
X77127Y265468D03*
X80480Y265468D03*
X90996Y265468D03*
D91*
X72022Y265468D03*
D65*
X84061Y265468D03*
D91*
X96101Y265468D03*
D16*
X67069Y265620D03*
X77127Y265620D03*
X80480Y265620D03*
X90996Y265620D03*
X101054Y265620D03*
D90*
X72098Y265620D03*
D65*
X84061Y265620D03*
D90*
X96025Y265620D03*
D16*
X77127Y265773D03*
X80480Y265773D03*
X90996Y265773D03*
X100902Y265773D03*
D90*
X72098Y265773D03*
D65*
X84061Y265773D03*
D89*
X95949Y265773D03*
D16*
X67221Y265925D03*
X77127Y265925D03*
X80480Y265925D03*
X90996Y265925D03*
D89*
X72174Y265925D03*
D65*
X84061Y265925D03*
D89*
X95949Y265925D03*
D16*
X77127Y266078D03*
X80480Y266078D03*
X90996Y266078D03*
X100749Y266078D03*
D89*
X72174Y266078D03*
D65*
X84061Y266078D03*
D88*
X95872Y266078D03*
D16*
X67374Y266230D03*
X77127Y266230D03*
X80480Y266230D03*
X90996Y266230D03*
D88*
X72250Y266230D03*
D65*
X84061Y266230D03*
D88*
X95872Y266230D03*
D16*
X67526Y266382D03*
X77127Y266382D03*
X80480Y266382D03*
X90996Y266382D03*
X100597Y266382D03*
D87*
X72327Y266382D03*
D65*
X84061Y266382D03*
D87*
X95796Y266382D03*
D16*
X77127Y266535D03*
X80480Y266535D03*
X90996Y266535D03*
D87*
X72327Y266535D03*
D65*
X84061Y266535D03*
D87*
X95796Y266535D03*
D16*
X67678Y266687D03*
X77127Y266687D03*
X80480Y266687D03*
X90996Y266687D03*
D86*
X72403Y266687D03*
D65*
X84061Y266687D03*
D86*
X95720Y266687D03*
D16*
X77127Y266840D03*
X80480Y266840D03*
X90996Y266840D03*
X100292Y266840D03*
D86*
X72403Y266840D03*
D65*
X84061Y266840D03*
D85*
X95644Y266840D03*
D16*
X67831Y266992D03*
X77127Y266992D03*
X80480Y266992D03*
X90996Y266992D03*
D85*
X72479Y266992D03*
D65*
X84061Y266992D03*
D85*
X95644Y266992D03*
D16*
X77127Y267144D03*
X80480Y267144D03*
X90996Y267144D03*
X100140Y267144D03*
D85*
X72479Y267144D03*
D65*
X84061Y267144D03*
D84*
X95568Y267144D03*
D16*
X67983Y267297D03*
X77127Y267297D03*
X80480Y267297D03*
X90996Y267297D03*
D84*
X72555Y267297D03*
D65*
X84061Y267297D03*
D84*
X95568Y267297D03*
D16*
X68136Y267449D03*
X77127Y267449D03*
X80480Y267449D03*
X90996Y267449D03*
X99987Y267449D03*
D83*
X72631Y267449D03*
D65*
X84061Y267449D03*
D83*
X95491Y267449D03*
D16*
X77127Y267602D03*
X80480Y267602D03*
X90996Y267602D03*
X99835Y267602D03*
D83*
X72631Y267602D03*
D65*
X84061Y267602D03*
D82*
X95415Y267602D03*
D16*
X68288Y267754D03*
X77127Y267754D03*
X80480Y267754D03*
X90996Y267754D03*
D82*
X72708Y267754D03*
D65*
X84061Y267754D03*
D82*
X95415Y267754D03*
D16*
X77127Y267906D03*
X80480Y267906D03*
X90996Y267906D03*
X99682Y267906D03*
D82*
X72708Y267906D03*
D65*
X84061Y267906D03*
D77*
X95339Y267906D03*
D16*
X68440Y268059D03*
X77127Y268059D03*
X80480Y268059D03*
X90996Y268059D03*
D77*
X72784Y268059D03*
D65*
X84061Y268059D03*
D77*
X95339Y268059D03*
D16*
X77127Y268211D03*
X80480Y268211D03*
X90996Y268211D03*
X99530Y268211D03*
D77*
X72784Y268211D03*
D65*
X84061Y268211D03*
D78*
X95263Y268211D03*
D16*
X77127Y268364D03*
X80480Y268364D03*
X90996Y268364D03*
D78*
X72860Y268364D03*
D65*
X84061Y268364D03*
D78*
X95263Y268364D03*
D16*
X68745Y268516D03*
X77127Y268516D03*
X80480Y268516D03*
X90996Y268516D03*
X99378Y268516D03*
D81*
X72936Y268516D03*
D65*
X84061Y268516D03*
D81*
X95187Y268516D03*
D16*
X77127Y268668D03*
X90996Y268668D03*
X99225Y268668D03*
D81*
X72936Y268668D03*
D66*
X83985Y268668D03*
D74*
X95110Y268668D03*
D16*
X68898Y268821D03*
X90996Y268821D03*
D81*
X73089Y268821D03*
D66*
X83985Y268821D03*
D74*
X95110Y268821D03*
D16*
X77280Y268973D03*
X80328Y268973D03*
X90996Y268973D03*
X99073Y268973D03*
D81*
X73089Y268973D03*
D66*
X83985Y268973D03*
D79*
X95034Y268973D03*
D16*
X69050Y269126D03*
X90996Y269126D03*
D81*
X73241Y269126D03*
D67*
X83909Y269126D03*
D79*
X95034Y269126D03*
D16*
X69202Y269278D03*
X77432Y269278D03*
X90996Y269278D03*
X98920Y269278D03*
D74*
X73317Y269278D03*
D70*
X83833Y269278D03*
D76*
X94958Y269278D03*
D16*
X77584Y269430D03*
X80023Y269430D03*
X90996Y269430D03*
D80*
X73393Y269430D03*
D70*
X83833Y269430D03*
D76*
X94958Y269430D03*
D16*
X69355Y269583D03*
X77737Y269583D03*
X79870Y269583D03*
X90996Y269583D03*
X98768Y269583D03*
D81*
X73546Y269583D03*
D73*
X83757Y269583D03*
X94882Y269583D03*
D16*
X78042Y269735D03*
X79566Y269735D03*
X90996Y269735D03*
X98616Y269735D03*
D77*
X73698Y269735D03*
D79*
X83604Y269735D03*
D70*
X94806Y269735D03*
D16*
X69507Y269888D03*
D116*
X78499Y269888D03*
X79108Y269888D03*
D16*
X90996Y269888D03*
D75*
X73927Y269888D03*
D81*
X83452Y269888D03*
D70*
X94806Y269888D03*
D16*
X90996Y270040D03*
X98463Y270040D03*
D71*
X78575Y270040D03*
D67*
X94729Y270040D03*
D16*
X69660Y270192D03*
X90996Y270192D03*
D69*
X78651Y270192D03*
D67*
X94729Y270192D03*
D16*
X69812Y270345D03*
X90996Y270345D03*
X98311Y270345D03*
D68*
X78727Y270345D03*
D66*
X94653Y270345D03*
D16*
X90996Y270497D03*
D68*
X78727Y270497D03*
D66*
X94653Y270497D03*
D16*
X69964Y270650D03*
X90996Y270650D03*
D64*
X78804Y270650D03*
D65*
X94577Y270650D03*
D16*
X90996Y270802D03*
X98006Y270802D03*
D64*
X78804Y270802D03*
D63*
X94501Y270802D03*
D16*
X70117Y270954D03*
X90996Y270954D03*
D62*
X78880Y270954D03*
D63*
X94501Y270954D03*
D16*
X90996Y271107D03*
X97854Y271107D03*
D62*
X78880Y271107D03*
D61*
X94425Y271107D03*
D16*
X70269Y271259D03*
X90996Y271259D03*
D60*
X78956Y271259D03*
D61*
X94425Y271259D03*
D16*
X70422Y271412D03*
X90996Y271412D03*
X97701Y271412D03*
D58*
X79032Y271412D03*
D59*
X94348Y271412D03*
D16*
X90996Y271564D03*
X97549Y271564D03*
D58*
X79032Y271564D03*
D57*
X94272Y271564D03*
D16*
X70574Y271716D03*
X90996Y271716D03*
D56*
X79108Y271716D03*
D57*
X94272Y271716D03*
D16*
X90996Y271869D03*
X97396Y271869D03*
D56*
X79108Y271869D03*
D55*
X94196Y271869D03*
D16*
X70726Y272021D03*
X90996Y272021D03*
D54*
X79185Y272021D03*
D55*
X94196Y272021D03*
D16*
X70879Y272174D03*
X90996Y272174D03*
X97244Y272174D03*
D52*
X79261Y272174D03*
D53*
X94120Y272174D03*
D16*
X90996Y272326D03*
D52*
X79261Y272326D03*
D53*
X94120Y272326D03*
D16*
X71031Y272478D03*
X90996Y272478D03*
X97092Y272478D03*
D50*
X79337Y272478D03*
D51*
X94044Y272478D03*
D16*
X90996Y272631D03*
X96939Y272631D03*
D50*
X79337Y272631D03*
D49*
X93967Y272631D03*
D16*
X71184Y272783D03*
X90996Y272783D03*
D48*
X79413Y272783D03*
D49*
X93967Y272783D03*
D16*
X90996Y272936D03*
X96787Y272936D03*
D48*
X79413Y272936D03*
D47*
X93891Y272936D03*
D16*
X71336Y273088D03*
X90996Y273088D03*
D46*
X79489Y273088D03*
D47*
X93891Y273088D03*
D16*
X71488Y273240D03*
X90996Y273240D03*
X96634Y273240D03*
D44*
X79566Y273240D03*
D45*
X93815Y273240D03*
D16*
X90996Y273393D03*
D44*
X79566Y273393D03*
D45*
X93815Y273393D03*
D16*
X71641Y273545D03*
X90996Y273545D03*
X96482Y273545D03*
D42*
X79642Y273545D03*
D43*
X93739Y273545D03*
D16*
X90996Y273698D03*
X96330Y273698D03*
D42*
X79642Y273698D03*
D41*
X93663Y273698D03*
D16*
X71793Y273850D03*
X90996Y273850D03*
D40*
X79718Y273850D03*
D41*
X93663Y273850D03*
D16*
X90996Y274002D03*
X96177Y274002D03*
D40*
X79718Y274002D03*
D39*
X93586Y274002D03*
D16*
X71946Y274155D03*
X90996Y274155D03*
D38*
X79794Y274155D03*
D39*
X93586Y274155D03*
D16*
X72098Y274307D03*
X90996Y274307D03*
X96025Y274307D03*
D36*
X79870Y274307D03*
D37*
X93510Y274307D03*
D16*
X90996Y274460D03*
X95872Y274460D03*
D36*
X79870Y274460D03*
D35*
X93434Y274460D03*
D16*
X72250Y274612D03*
X90996Y274612D03*
D34*
X79947Y274612D03*
D35*
X93434Y274612D03*
D16*
X90996Y274764D03*
X95720Y274764D03*
D34*
X79947Y274764D03*
D33*
X93358Y274764D03*
D72*
X72631Y274917D03*
D16*
X72403Y274917D03*
X90996Y274917D03*
D28*
X80175Y274917D03*
D33*
X93358Y274917D03*
D117*
X72936Y275069D03*
D16*
X90996Y275069D03*
X95568Y275069D03*
X72555Y275069D03*
D118*
X80404Y275069D03*
D31*
X93282Y275069D03*
D119*
X73165Y275222D03*
D16*
X72555Y275222D03*
X90996Y275222D03*
D115*
X80632Y275222D03*
D31*
X93282Y275222D03*
D120*
X73393Y275374D03*
D16*
X72708Y275374D03*
X90996Y275374D03*
X95415Y275374D03*
D18*
X80785Y275374D03*
D29*
X93205Y275374D03*
D121*
X73698Y275526D03*
D16*
X90996Y275526D03*
X95263Y275526D03*
X72860Y275526D03*
D15*
X81013Y275526D03*
D27*
X93129Y275526D03*
D122*
X73851Y275679D03*
D123*
X91224Y275679D03*
D16*
X72860Y275679D03*
X90996Y275679D03*
D109*
X81166Y275679D03*
D23*
X93282Y275679D03*
D124*
X74155Y275831D03*
D125*
X91453Y275831D03*
D16*
X73012Y275831D03*
X90996Y275831D03*
D106*
X81394Y275831D03*
D126*
X93434Y275831D03*
D127*
X74460Y275984D03*
D128*
X91605Y275984D03*
D16*
X73165Y275984D03*
X90996Y275984D03*
D103*
X81623Y275984D03*
D129*
X93510Y275984D03*
D130*
X74689Y276136D03*
D121*
X91834Y276136D03*
D16*
X73317Y276136D03*
X90996Y276136D03*
X94653Y276136D03*
D101*
X81775Y276136D03*
D131*
X93586Y276136D03*
D129*
X75070Y276288D03*
D122*
X91986Y276288D03*
D16*
X73622Y276288D03*
X90996Y276288D03*
X94501Y276288D03*
D98*
X82004Y276288D03*
D121*
X93663Y276288D03*
D129*
X75375Y276441D03*
D132*
X92215Y276441D03*
D16*
X73927Y276441D03*
X90996Y276441D03*
X94196Y276441D03*
D96*
X82156Y276441D03*
D125*
X93739Y276441D03*
D127*
X75984Y276593D03*
D132*
X92215Y276593D03*
D116*
X74384Y276593D03*
D16*
X90996Y276593D03*
D123*
X93663Y276593D03*
D16*
X74689Y276593D03*
D93*
X82385Y276593D03*
D16*
X93434Y276593D03*
M02*
