G04 EAGLE Gerber RS-274X export*
G75*
%MOMM*%
%FSLAX34Y34*%
%LPD*%
%INSoldermask Top*%
%IPPOS*%
%AMOC8*
5,1,8,0,0,1.08239X$1,22.5*%
G01*
%ADD10R,1.003200X1.003200*%
%ADD11C,1.727200*%
%ADD12C,1.203200*%
%ADD13P,1.869504X8X22.500000*%
%ADD14C,1.981200*%
%ADD15C,2.489200*%

G36*
X17029Y-1268D02*
X17029Y-1268D01*
X17058Y-1271D01*
X17125Y-1249D01*
X17195Y-1235D01*
X17219Y-1218D01*
X17247Y-1209D01*
X17300Y-1162D01*
X17359Y-1122D01*
X17375Y-1098D01*
X17397Y-1078D01*
X17428Y-1014D01*
X17466Y-955D01*
X17471Y-926D01*
X17483Y-900D01*
X17492Y-800D01*
X17499Y-758D01*
X17496Y-748D01*
X17498Y-734D01*
X17266Y2064D01*
X17256Y2098D01*
X17252Y2146D01*
X16563Y4867D01*
X16548Y4899D01*
X16536Y4945D01*
X15408Y7517D01*
X15388Y7545D01*
X15369Y7589D01*
X13833Y9940D01*
X13809Y9964D01*
X13783Y10005D01*
X11881Y12070D01*
X11853Y12091D01*
X11820Y12126D01*
X9605Y13851D01*
X9574Y13866D01*
X9536Y13896D01*
X7066Y15232D01*
X7033Y15242D01*
X6991Y15265D01*
X5805Y15673D01*
X4351Y16172D01*
X4350Y16172D01*
X4335Y16177D01*
X4301Y16182D01*
X4255Y16197D01*
X1486Y16659D01*
X1451Y16658D01*
X1404Y16666D01*
X-1404Y16666D01*
X-1438Y16659D01*
X-1486Y16659D01*
X-4255Y16197D01*
X-4288Y16185D01*
X-4335Y16177D01*
X-6991Y15265D01*
X-7021Y15248D01*
X-7066Y15232D01*
X-9536Y13896D01*
X-9562Y13874D01*
X-9605Y13851D01*
X-11820Y12126D01*
X-11843Y12100D01*
X-11881Y12070D01*
X-13783Y10005D01*
X-13801Y9975D01*
X-13833Y9940D01*
X-15369Y7589D01*
X-15382Y7557D01*
X-15408Y7517D01*
X-16536Y4945D01*
X-16543Y4912D01*
X-16546Y4905D01*
X-16552Y4896D01*
X-16553Y4890D01*
X-16563Y4867D01*
X-17252Y2146D01*
X-17254Y2111D01*
X-17266Y2064D01*
X-17498Y-734D01*
X-17494Y-763D01*
X-17499Y-792D01*
X-17483Y-861D01*
X-17474Y-931D01*
X-17460Y-957D01*
X-17453Y-985D01*
X-17411Y-1042D01*
X-17376Y-1104D01*
X-17352Y-1122D01*
X-17335Y-1145D01*
X-17274Y-1181D01*
X-17217Y-1224D01*
X-17189Y-1232D01*
X-17164Y-1247D01*
X-17066Y-1263D01*
X-17025Y-1274D01*
X-17014Y-1272D01*
X-17000Y-1274D01*
X17000Y-1274D01*
X17029Y-1268D01*
G37*
G36*
X1438Y281791D02*
X1438Y281791D01*
X1486Y281791D01*
X4255Y282253D01*
X4288Y282265D01*
X4335Y282273D01*
X6991Y283185D01*
X7021Y283202D01*
X7066Y283218D01*
X9536Y284554D01*
X9562Y284576D01*
X9605Y284599D01*
X11820Y286324D01*
X11843Y286350D01*
X11881Y286380D01*
X13783Y288445D01*
X13801Y288475D01*
X13833Y288510D01*
X15369Y290861D01*
X15382Y290893D01*
X15408Y290933D01*
X16536Y293505D01*
X16543Y293538D01*
X16563Y293583D01*
X17252Y296304D01*
X17254Y296339D01*
X17266Y296386D01*
X17498Y299184D01*
X17494Y299213D01*
X17499Y299242D01*
X17483Y299311D01*
X17474Y299381D01*
X17460Y299407D01*
X17453Y299435D01*
X17411Y299492D01*
X17376Y299554D01*
X17352Y299572D01*
X17335Y299595D01*
X17274Y299631D01*
X17217Y299674D01*
X17189Y299682D01*
X17164Y299697D01*
X17066Y299713D01*
X17025Y299724D01*
X17014Y299722D01*
X17000Y299724D01*
X-17000Y299724D01*
X-17029Y299718D01*
X-17058Y299721D01*
X-17125Y299699D01*
X-17195Y299685D01*
X-17219Y299668D01*
X-17247Y299659D01*
X-17300Y299612D01*
X-17359Y299572D01*
X-17375Y299548D01*
X-17397Y299528D01*
X-17428Y299464D01*
X-17466Y299405D01*
X-17471Y299376D01*
X-17483Y299350D01*
X-17492Y299250D01*
X-17499Y299208D01*
X-17496Y299198D01*
X-17498Y299184D01*
X-17266Y296386D01*
X-17256Y296352D01*
X-17252Y296304D01*
X-16563Y293583D01*
X-16548Y293551D01*
X-16536Y293505D01*
X-15408Y290933D01*
X-15388Y290905D01*
X-15369Y290861D01*
X-13833Y288510D01*
X-13809Y288486D01*
X-13783Y288445D01*
X-11881Y286380D01*
X-11853Y286359D01*
X-11820Y286324D01*
X-9605Y284599D01*
X-9574Y284584D01*
X-9536Y284554D01*
X-7066Y283218D01*
X-7033Y283208D01*
X-6991Y283185D01*
X-4335Y282273D01*
X-4301Y282269D01*
X-4255Y282253D01*
X-1486Y281791D01*
X-1451Y281792D01*
X-1404Y281784D01*
X1404Y281784D01*
X1438Y281791D01*
G37*
G36*
X-121393Y59035D02*
X-121393Y59035D01*
X-121322Y59032D01*
X-121295Y59042D01*
X-121266Y59044D01*
X-121176Y59086D01*
X-121136Y59101D01*
X-121128Y59109D01*
X-121115Y59115D01*
X-118812Y60714D01*
X-118788Y60740D01*
X-118748Y60767D01*
X-116739Y62724D01*
X-116720Y62753D01*
X-116685Y62786D01*
X-115026Y65047D01*
X-115011Y65078D01*
X-114982Y65117D01*
X-113718Y67620D01*
X-113709Y67654D01*
X-113687Y67697D01*
X-112851Y70374D01*
X-112848Y70408D01*
X-112833Y70454D01*
X-112450Y73233D01*
X-112452Y73267D01*
X-112446Y73315D01*
X-112525Y76118D01*
X-112533Y76152D01*
X-112534Y76200D01*
X-113073Y78952D01*
X-113087Y78984D01*
X-113096Y79032D01*
X-114081Y81657D01*
X-114096Y81682D01*
X-114101Y81702D01*
X-114109Y81713D01*
X-114116Y81732D01*
X-115520Y84160D01*
X-115543Y84186D01*
X-115567Y84228D01*
X-117351Y86391D01*
X-117378Y86413D01*
X-117409Y86450D01*
X-119525Y88291D01*
X-119555Y88308D01*
X-119591Y88340D01*
X-121982Y89807D01*
X-122014Y89818D01*
X-122055Y89844D01*
X-124654Y90897D01*
X-124688Y90904D01*
X-124733Y90922D01*
X-127470Y91533D01*
X-127505Y91534D01*
X-127552Y91545D01*
X-130352Y91697D01*
X-130386Y91692D01*
X-130434Y91695D01*
X-133222Y91385D01*
X-133255Y91374D01*
X-133303Y91369D01*
X-136001Y90604D01*
X-136031Y90588D01*
X-136078Y90575D01*
X-138613Y89376D01*
X-138637Y89359D01*
X-138664Y89349D01*
X-138716Y89300D01*
X-138773Y89257D01*
X-138787Y89232D01*
X-138809Y89212D01*
X-138837Y89147D01*
X-138873Y89086D01*
X-138876Y89057D01*
X-138888Y89030D01*
X-138889Y88959D01*
X-138898Y88888D01*
X-138890Y88860D01*
X-138890Y88831D01*
X-138856Y88738D01*
X-138844Y88697D01*
X-138837Y88688D01*
X-138832Y88675D01*
X-121832Y59275D01*
X-121813Y59253D01*
X-121800Y59227D01*
X-121747Y59179D01*
X-121700Y59126D01*
X-121674Y59114D01*
X-121652Y59094D01*
X-121585Y59071D01*
X-121521Y59041D01*
X-121492Y59039D01*
X-121464Y59030D01*
X-121393Y59035D01*
G37*
G36*
X130386Y206758D02*
X130386Y206758D01*
X130434Y206755D01*
X133222Y207065D01*
X133255Y207076D01*
X133303Y207081D01*
X136001Y207846D01*
X136031Y207862D01*
X136078Y207875D01*
X138613Y209074D01*
X138637Y209091D01*
X138664Y209101D01*
X138716Y209150D01*
X138773Y209193D01*
X138787Y209218D01*
X138809Y209238D01*
X138837Y209303D01*
X138873Y209365D01*
X138876Y209393D01*
X138888Y209420D01*
X138889Y209491D01*
X138898Y209562D01*
X138890Y209590D01*
X138890Y209619D01*
X138856Y209712D01*
X138844Y209753D01*
X138837Y209762D01*
X138832Y209775D01*
X121832Y239175D01*
X121813Y239197D01*
X121800Y239223D01*
X121747Y239271D01*
X121700Y239324D01*
X121674Y239336D01*
X121652Y239356D01*
X121585Y239379D01*
X121521Y239409D01*
X121492Y239411D01*
X121464Y239420D01*
X121393Y239415D01*
X121322Y239418D01*
X121295Y239408D01*
X121266Y239406D01*
X121176Y239364D01*
X121136Y239349D01*
X121128Y239341D01*
X121115Y239335D01*
X118812Y237736D01*
X118788Y237711D01*
X118748Y237683D01*
X116739Y235726D01*
X116720Y235697D01*
X116685Y235664D01*
X115026Y233403D01*
X115011Y233372D01*
X114982Y233333D01*
X113718Y230830D01*
X113709Y230796D01*
X113687Y230753D01*
X112851Y228076D01*
X112848Y228042D01*
X112833Y227996D01*
X112450Y225217D01*
X112452Y225183D01*
X112446Y225135D01*
X112525Y222332D01*
X112533Y222298D01*
X112534Y222250D01*
X113073Y219498D01*
X113087Y219466D01*
X113096Y219418D01*
X114081Y216793D01*
X114099Y216763D01*
X114116Y216718D01*
X115520Y214290D01*
X115543Y214264D01*
X115567Y214223D01*
X117351Y212059D01*
X117378Y212037D01*
X117409Y212000D01*
X119525Y210159D01*
X119555Y210142D01*
X119591Y210111D01*
X121982Y208643D01*
X122014Y208632D01*
X122055Y208606D01*
X124654Y207553D01*
X124688Y207546D01*
X124733Y207528D01*
X127470Y206917D01*
X127505Y206916D01*
X127552Y206905D01*
X130352Y206753D01*
X130386Y206758D01*
G37*
G36*
X121426Y59036D02*
X121426Y59036D01*
X121497Y59035D01*
X121524Y59046D01*
X121553Y59050D01*
X121615Y59084D01*
X121680Y59112D01*
X121701Y59133D01*
X121726Y59147D01*
X121789Y59223D01*
X121819Y59254D01*
X121823Y59264D01*
X121832Y59275D01*
X138832Y88675D01*
X138841Y88703D01*
X138858Y88727D01*
X138873Y88796D01*
X138895Y88864D01*
X138893Y88893D01*
X138899Y88921D01*
X138886Y88991D01*
X138880Y89062D01*
X138867Y89088D01*
X138861Y89116D01*
X138821Y89175D01*
X138789Y89238D01*
X138766Y89257D01*
X138750Y89281D01*
X138668Y89338D01*
X138635Y89365D01*
X138625Y89368D01*
X138613Y89376D01*
X136078Y90575D01*
X136044Y90583D01*
X136001Y90604D01*
X133303Y91369D01*
X133268Y91371D01*
X133222Y91385D01*
X130434Y91695D01*
X130400Y91692D01*
X130352Y91697D01*
X127552Y91545D01*
X127518Y91536D01*
X127470Y91533D01*
X124733Y90922D01*
X124701Y90908D01*
X124654Y90897D01*
X122055Y89844D01*
X122026Y89825D01*
X121982Y89807D01*
X119591Y88340D01*
X119566Y88316D01*
X119525Y88291D01*
X117409Y86450D01*
X117388Y86423D01*
X117351Y86391D01*
X115567Y84228D01*
X115551Y84197D01*
X115520Y84160D01*
X114116Y81732D01*
X114105Y81699D01*
X114098Y81686D01*
X114088Y81672D01*
X114088Y81669D01*
X114081Y81657D01*
X113096Y79032D01*
X113090Y78997D01*
X113073Y78952D01*
X112534Y76200D01*
X112534Y76166D01*
X112525Y76118D01*
X112446Y73315D01*
X112452Y73281D01*
X112450Y73233D01*
X112833Y70454D01*
X112845Y70422D01*
X112851Y70374D01*
X113687Y67697D01*
X113704Y67666D01*
X113718Y67620D01*
X114982Y65117D01*
X115004Y65090D01*
X115026Y65047D01*
X116685Y62786D01*
X116711Y62763D01*
X116739Y62724D01*
X118748Y60767D01*
X118777Y60748D01*
X118812Y60714D01*
X121115Y59115D01*
X121142Y59103D01*
X121165Y59085D01*
X121233Y59064D01*
X121298Y59036D01*
X121327Y59036D01*
X121355Y59028D01*
X121426Y59036D01*
G37*
G36*
X-127552Y206905D02*
X-127552Y206905D01*
X-127518Y206914D01*
X-127470Y206917D01*
X-124733Y207528D01*
X-124701Y207542D01*
X-124654Y207553D01*
X-122055Y208606D01*
X-122026Y208625D01*
X-121982Y208643D01*
X-119591Y210111D01*
X-119566Y210134D01*
X-119525Y210159D01*
X-117409Y212000D01*
X-117388Y212027D01*
X-117351Y212059D01*
X-115567Y214223D01*
X-115551Y214253D01*
X-115520Y214290D01*
X-114116Y216718D01*
X-114105Y216751D01*
X-114081Y216793D01*
X-113096Y219418D01*
X-113090Y219453D01*
X-113073Y219498D01*
X-112534Y222250D01*
X-112534Y222285D01*
X-112525Y222332D01*
X-112446Y225135D01*
X-112452Y225169D01*
X-112450Y225217D01*
X-112833Y227996D01*
X-112845Y228028D01*
X-112851Y228076D01*
X-113687Y230753D01*
X-113704Y230784D01*
X-113718Y230830D01*
X-114982Y233333D01*
X-115004Y233360D01*
X-115026Y233403D01*
X-116685Y235664D01*
X-116711Y235687D01*
X-116739Y235726D01*
X-118748Y237683D01*
X-118777Y237702D01*
X-118812Y237736D01*
X-121115Y239335D01*
X-121142Y239347D01*
X-121165Y239365D01*
X-121233Y239386D01*
X-121298Y239414D01*
X-121327Y239414D01*
X-121355Y239422D01*
X-121426Y239414D01*
X-121497Y239415D01*
X-121524Y239404D01*
X-121553Y239400D01*
X-121615Y239366D01*
X-121680Y239338D01*
X-121701Y239317D01*
X-121726Y239303D01*
X-121789Y239227D01*
X-121819Y239196D01*
X-121823Y239186D01*
X-121832Y239175D01*
X-138832Y209775D01*
X-138841Y209747D01*
X-138858Y209723D01*
X-138873Y209654D01*
X-138895Y209586D01*
X-138893Y209557D01*
X-138899Y209529D01*
X-138886Y209459D01*
X-138880Y209388D01*
X-138867Y209362D01*
X-138861Y209334D01*
X-138821Y209275D01*
X-138789Y209212D01*
X-138766Y209193D01*
X-138750Y209169D01*
X-138668Y209112D01*
X-138635Y209085D01*
X-138625Y209082D01*
X-138613Y209074D01*
X-136078Y207875D01*
X-136044Y207867D01*
X-136001Y207846D01*
X-133303Y207081D01*
X-133268Y207079D01*
X-133222Y207065D01*
X-130434Y206755D01*
X-130400Y206758D01*
X-130352Y206753D01*
X-127552Y206905D01*
G37*
G36*
X163727Y132236D02*
X163727Y132236D01*
X163798Y132236D01*
X163825Y132247D01*
X163854Y132250D01*
X163916Y132285D01*
X163981Y132313D01*
X164002Y132333D01*
X164027Y132348D01*
X164090Y132425D01*
X164120Y132455D01*
X164124Y132465D01*
X164133Y132476D01*
X173633Y148976D01*
X173643Y149008D01*
X173652Y149021D01*
X173656Y149045D01*
X173657Y149049D01*
X173688Y149119D01*
X173688Y149143D01*
X173696Y149165D01*
X173690Y149241D01*
X173691Y149318D01*
X173681Y149342D01*
X173680Y149363D01*
X173659Y149402D01*
X173633Y149474D01*
X164133Y165974D01*
X164114Y165996D01*
X164101Y166022D01*
X164048Y166070D01*
X164001Y166123D01*
X163975Y166136D01*
X163954Y166155D01*
X163886Y166178D01*
X163822Y166209D01*
X163793Y166211D01*
X163766Y166220D01*
X163694Y166215D01*
X163623Y166218D01*
X163596Y166208D01*
X163567Y166206D01*
X163477Y166164D01*
X163437Y166149D01*
X163429Y166142D01*
X163416Y166136D01*
X160893Y164394D01*
X160869Y164370D01*
X160831Y164343D01*
X158619Y162219D01*
X158600Y162191D01*
X158566Y162159D01*
X156724Y159708D01*
X156710Y159677D01*
X156681Y159640D01*
X155256Y156925D01*
X155247Y156894D01*
X155231Y156869D01*
X155230Y156861D01*
X155225Y156851D01*
X154254Y153943D01*
X154250Y153909D01*
X154235Y153865D01*
X153743Y150838D01*
X153744Y150804D01*
X153736Y150758D01*
X153736Y147692D01*
X153737Y147688D01*
X153737Y147686D01*
X153743Y147659D01*
X153743Y147612D01*
X154235Y144585D01*
X154247Y144554D01*
X154254Y144507D01*
X155225Y141599D01*
X155242Y141570D01*
X155256Y141525D01*
X156681Y138810D01*
X156703Y138784D01*
X156724Y138742D01*
X158566Y136291D01*
X158591Y136268D01*
X158619Y136231D01*
X160831Y134107D01*
X160859Y134089D01*
X160893Y134056D01*
X163416Y132314D01*
X163443Y132303D01*
X163465Y132284D01*
X163534Y132264D01*
X163599Y132236D01*
X163628Y132236D01*
X163656Y132228D01*
X163727Y132236D01*
G37*
G36*
X-163694Y132235D02*
X-163694Y132235D01*
X-163623Y132232D01*
X-163596Y132242D01*
X-163567Y132244D01*
X-163477Y132286D01*
X-163437Y132301D01*
X-163429Y132308D01*
X-163416Y132314D01*
X-160893Y134056D01*
X-160869Y134080D01*
X-160831Y134107D01*
X-158619Y136231D01*
X-158600Y136259D01*
X-158566Y136291D01*
X-156724Y138742D01*
X-156710Y138773D01*
X-156681Y138810D01*
X-155256Y141525D01*
X-155247Y141558D01*
X-155225Y141599D01*
X-154254Y144507D01*
X-154250Y144541D01*
X-154235Y144585D01*
X-153743Y147612D01*
X-153744Y147646D01*
X-153736Y147692D01*
X-153736Y150758D01*
X-153743Y150791D01*
X-153743Y150838D01*
X-154235Y153865D01*
X-154247Y153896D01*
X-154254Y153943D01*
X-155225Y156851D01*
X-155238Y156874D01*
X-155244Y156899D01*
X-155251Y156908D01*
X-155256Y156925D01*
X-156681Y159640D01*
X-156703Y159666D01*
X-156724Y159708D01*
X-158566Y162159D01*
X-158591Y162182D01*
X-158619Y162219D01*
X-160831Y164343D01*
X-160859Y164361D01*
X-160893Y164394D01*
X-163416Y166136D01*
X-163443Y166147D01*
X-163465Y166166D01*
X-163534Y166186D01*
X-163599Y166214D01*
X-163628Y166214D01*
X-163656Y166222D01*
X-163727Y166214D01*
X-163798Y166215D01*
X-163825Y166203D01*
X-163854Y166200D01*
X-163916Y166165D01*
X-163981Y166137D01*
X-164002Y166117D01*
X-164027Y166102D01*
X-164090Y166025D01*
X-164120Y165995D01*
X-164124Y165985D01*
X-164133Y165974D01*
X-173633Y149474D01*
X-173657Y149401D01*
X-173688Y149331D01*
X-173688Y149307D01*
X-173696Y149285D01*
X-173690Y149209D01*
X-173691Y149132D01*
X-173681Y149108D01*
X-173680Y149087D01*
X-173659Y149048D01*
X-173640Y148996D01*
X-173639Y148990D01*
X-173637Y148988D01*
X-173633Y148976D01*
X-164133Y132476D01*
X-164114Y132454D01*
X-164101Y132428D01*
X-164048Y132380D01*
X-164001Y132327D01*
X-163975Y132314D01*
X-163954Y132295D01*
X-163886Y132272D01*
X-163822Y132241D01*
X-163793Y132240D01*
X-163766Y132230D01*
X-163694Y132235D01*
G37*
G36*
X86676Y-1259D02*
X86676Y-1259D01*
X86754Y-1250D01*
X86773Y-1239D01*
X86795Y-1235D01*
X86859Y-1191D01*
X86927Y-1152D01*
X86943Y-1133D01*
X86959Y-1122D01*
X86983Y-1084D01*
X87033Y-1024D01*
X96533Y15476D01*
X96542Y15503D01*
X96558Y15527D01*
X96573Y15597D01*
X96596Y15665D01*
X96593Y15693D01*
X96599Y15721D01*
X96586Y15792D01*
X96580Y15863D01*
X96567Y15888D01*
X96561Y15916D01*
X96521Y15976D01*
X96488Y16039D01*
X96466Y16057D01*
X96450Y16081D01*
X96367Y16139D01*
X96335Y16166D01*
X96324Y16169D01*
X96314Y16176D01*
X93548Y17485D01*
X93515Y17493D01*
X93472Y17513D01*
X90532Y18361D01*
X90498Y18364D01*
X90454Y18377D01*
X87416Y18742D01*
X87382Y18739D01*
X87335Y18745D01*
X84278Y18618D01*
X84245Y18610D01*
X84198Y18609D01*
X81201Y17993D01*
X81170Y17980D01*
X81124Y17971D01*
X78264Y16882D01*
X78236Y16864D01*
X78192Y16848D01*
X75544Y15314D01*
X75518Y15292D01*
X75478Y15269D01*
X73110Y13331D01*
X73088Y13304D01*
X73052Y13275D01*
X71025Y10982D01*
X71009Y10953D01*
X70977Y10918D01*
X69345Y8330D01*
X69333Y8298D01*
X69308Y8259D01*
X68112Y5442D01*
X68105Y5409D01*
X68102Y5402D01*
X68098Y5396D01*
X68097Y5390D01*
X68086Y5366D01*
X67358Y2394D01*
X67356Y2360D01*
X67345Y2315D01*
X67102Y-735D01*
X67106Y-764D01*
X67101Y-792D01*
X67118Y-861D01*
X67126Y-933D01*
X67141Y-957D01*
X67147Y-985D01*
X67190Y-1043D01*
X67226Y-1105D01*
X67248Y-1122D01*
X67265Y-1145D01*
X67327Y-1182D01*
X67384Y-1225D01*
X67412Y-1232D01*
X67436Y-1247D01*
X67536Y-1263D01*
X67577Y-1274D01*
X67587Y-1272D01*
X67600Y-1274D01*
X86600Y-1274D01*
X86676Y-1259D01*
G37*
G36*
X-67572Y-1269D02*
X-67572Y-1269D01*
X-67544Y-1271D01*
X-67476Y-1249D01*
X-67405Y-1235D01*
X-67382Y-1219D01*
X-67355Y-1210D01*
X-67300Y-1163D01*
X-67241Y-1122D01*
X-67226Y-1098D01*
X-67205Y-1080D01*
X-67173Y-1015D01*
X-67134Y-955D01*
X-67129Y-927D01*
X-67117Y-901D01*
X-67108Y-799D01*
X-67101Y-758D01*
X-67103Y-748D01*
X-67102Y-735D01*
X-67345Y2315D01*
X-67354Y2347D01*
X-67358Y2394D01*
X-68086Y5366D01*
X-68101Y5397D01*
X-68112Y5442D01*
X-69308Y8259D01*
X-69327Y8287D01*
X-69345Y8330D01*
X-70977Y10918D01*
X-71001Y10942D01*
X-71025Y10982D01*
X-73052Y13275D01*
X-73079Y13295D01*
X-73110Y13331D01*
X-75478Y15269D01*
X-75508Y15285D01*
X-75544Y15314D01*
X-78192Y16848D01*
X-78224Y16858D01*
X-78264Y16882D01*
X-81124Y17971D01*
X-81157Y17976D01*
X-81201Y17993D01*
X-84198Y18609D01*
X-84232Y18609D01*
X-84278Y18618D01*
X-87335Y18745D01*
X-87369Y18740D01*
X-87416Y18742D01*
X-90454Y18377D01*
X-90486Y18366D01*
X-90532Y18361D01*
X-93472Y17513D01*
X-93502Y17497D01*
X-93548Y17485D01*
X-96314Y16176D01*
X-96336Y16159D01*
X-96363Y16149D01*
X-96415Y16100D01*
X-96473Y16057D01*
X-96487Y16032D01*
X-96508Y16013D01*
X-96537Y15947D01*
X-96573Y15885D01*
X-96576Y15857D01*
X-96588Y15831D01*
X-96589Y15759D01*
X-96598Y15688D01*
X-96590Y15661D01*
X-96591Y15632D01*
X-96555Y15537D01*
X-96544Y15497D01*
X-96537Y15488D01*
X-96533Y15476D01*
X-87033Y-1024D01*
X-86981Y-1082D01*
X-86935Y-1145D01*
X-86916Y-1156D01*
X-86901Y-1173D01*
X-86831Y-1207D01*
X-86764Y-1247D01*
X-86740Y-1251D01*
X-86722Y-1259D01*
X-86677Y-1261D01*
X-86600Y-1274D01*
X-67600Y-1274D01*
X-67572Y-1269D01*
G37*
G36*
X87369Y279710D02*
X87369Y279710D01*
X87416Y279708D01*
X90454Y280073D01*
X90486Y280084D01*
X90532Y280089D01*
X93472Y280937D01*
X93502Y280953D01*
X93548Y280965D01*
X96314Y282274D01*
X96336Y282291D01*
X96363Y282301D01*
X96415Y282350D01*
X96473Y282393D01*
X96487Y282418D01*
X96508Y282437D01*
X96537Y282503D01*
X96573Y282565D01*
X96576Y282593D01*
X96588Y282619D01*
X96589Y282691D01*
X96598Y282762D01*
X96590Y282789D01*
X96591Y282818D01*
X96555Y282913D01*
X96544Y282953D01*
X96537Y282962D01*
X96533Y282974D01*
X87033Y299474D01*
X86981Y299533D01*
X86935Y299595D01*
X86916Y299606D01*
X86901Y299623D01*
X86831Y299657D01*
X86764Y299697D01*
X86740Y299701D01*
X86722Y299709D01*
X86677Y299711D01*
X86600Y299724D01*
X67600Y299724D01*
X67572Y299719D01*
X67544Y299721D01*
X67476Y299699D01*
X67405Y299685D01*
X67382Y299669D01*
X67355Y299660D01*
X67300Y299613D01*
X67241Y299572D01*
X67226Y299548D01*
X67205Y299530D01*
X67173Y299465D01*
X67134Y299405D01*
X67129Y299377D01*
X67117Y299351D01*
X67108Y299250D01*
X67101Y299208D01*
X67103Y299198D01*
X67102Y299185D01*
X67345Y296135D01*
X67354Y296103D01*
X67358Y296056D01*
X68086Y293084D01*
X68101Y293053D01*
X68112Y293008D01*
X69308Y290191D01*
X69327Y290163D01*
X69345Y290120D01*
X70977Y287532D01*
X71001Y287508D01*
X71025Y287468D01*
X73052Y285175D01*
X73079Y285155D01*
X73110Y285119D01*
X75478Y283181D01*
X75508Y283165D01*
X75544Y283136D01*
X78192Y281603D01*
X78224Y281592D01*
X78264Y281568D01*
X81124Y280480D01*
X81157Y280474D01*
X81201Y280457D01*
X84198Y279841D01*
X84232Y279841D01*
X84278Y279832D01*
X87335Y279705D01*
X87369Y279710D01*
G37*
G36*
X-84278Y279832D02*
X-84278Y279832D01*
X-84245Y279840D01*
X-84198Y279841D01*
X-81201Y280457D01*
X-81170Y280470D01*
X-81124Y280480D01*
X-78264Y281568D01*
X-78236Y281586D01*
X-78192Y281603D01*
X-75544Y283136D01*
X-75518Y283158D01*
X-75478Y283181D01*
X-73110Y285119D01*
X-73088Y285146D01*
X-73052Y285175D01*
X-71025Y287468D01*
X-71009Y287497D01*
X-70977Y287532D01*
X-69345Y290120D01*
X-69333Y290152D01*
X-69308Y290191D01*
X-68112Y293008D01*
X-68105Y293041D01*
X-68086Y293084D01*
X-67358Y296056D01*
X-67356Y296090D01*
X-67345Y296135D01*
X-67102Y299185D01*
X-67106Y299214D01*
X-67101Y299242D01*
X-67118Y299311D01*
X-67126Y299383D01*
X-67141Y299407D01*
X-67147Y299435D01*
X-67190Y299493D01*
X-67226Y299555D01*
X-67248Y299572D01*
X-67265Y299595D01*
X-67327Y299632D01*
X-67384Y299675D01*
X-67412Y299682D01*
X-67436Y299697D01*
X-67536Y299713D01*
X-67577Y299724D01*
X-67587Y299722D01*
X-67600Y299724D01*
X-86600Y299724D01*
X-86676Y299709D01*
X-86754Y299700D01*
X-86773Y299689D01*
X-86795Y299685D01*
X-86859Y299641D01*
X-86927Y299602D01*
X-86943Y299583D01*
X-86959Y299572D01*
X-86983Y299534D01*
X-87033Y299474D01*
X-96533Y282974D01*
X-96542Y282947D01*
X-96558Y282923D01*
X-96573Y282853D01*
X-96596Y282785D01*
X-96593Y282757D01*
X-96599Y282729D01*
X-96586Y282659D01*
X-96580Y282587D01*
X-96567Y282562D01*
X-96561Y282534D01*
X-96521Y282474D01*
X-96488Y282411D01*
X-96466Y282393D01*
X-96450Y282369D01*
X-96367Y282311D01*
X-96335Y282284D01*
X-96324Y282281D01*
X-96314Y282274D01*
X-93548Y280965D01*
X-93515Y280957D01*
X-93472Y280937D01*
X-90532Y280089D01*
X-90498Y280086D01*
X-90454Y280073D01*
X-87416Y279708D01*
X-87382Y279711D01*
X-87335Y279705D01*
X-84278Y279832D01*
G37*
D10*
X-78225Y263525D03*
X-93225Y263525D03*
D11*
X-144463Y174625D03*
X-144463Y149225D03*
X-144463Y123825D03*
D12*
X82600Y292325D03*
X165200Y149225D03*
X82600Y6125D03*
X-82600Y6125D03*
X-165200Y149225D03*
X-82600Y292325D03*
X123900Y220725D03*
X123900Y77725D03*
X0Y6125D03*
X-123900Y77725D03*
X-123900Y220725D03*
X0Y292325D03*
D13*
X144463Y149225D03*
D14*
X-31750Y266700D03*
X31750Y266700D03*
X-31750Y215900D03*
X31750Y215900D03*
X-25400Y38100D03*
X0Y38100D03*
X25400Y38100D03*
D15*
X-76200Y206375D03*
X-76200Y73025D03*
X76200Y73025D03*
X76200Y206375D03*
D14*
X-101600Y165100D03*
X-101600Y139700D03*
X-101600Y114300D03*
M02*
