G04 EAGLE Gerber RS-274X export*
G75*
%MOMM*%
%FSLAX34Y34*%
%LPD*%
%INSolderpaste Bottom*%
%IPPOS*%
%AMOC8*
5,1,8,0,0,1.08239X$1,22.5*%
G01*
%ADD10R,1.100000X1.000000*%
%ADD11R,1.000000X1.100000*%
%ADD12R,1.300000X1.500000*%
%ADD13R,0.800000X0.500000*%
%ADD14R,0.550000X0.254000*%
%ADD15R,0.254000X0.550000*%
%ADD16R,1.399997X0.400000*%

G36*
X-18397Y105586D02*
X-18397Y105586D01*
X-18395Y105585D01*
X-18352Y105605D01*
X-18308Y105624D01*
X-18308Y105626D01*
X-18306Y105627D01*
X-18273Y105712D01*
X-18273Y117936D01*
X-18274Y117938D01*
X-18273Y117940D01*
X-18293Y117983D01*
X-18311Y118026D01*
X-18313Y118027D01*
X-18314Y118029D01*
X-18399Y118062D01*
X-30623Y118062D01*
X-30625Y118061D01*
X-30627Y118062D01*
X-30670Y118042D01*
X-30714Y118023D01*
X-30714Y118021D01*
X-30716Y118020D01*
X-30749Y117936D01*
X-30749Y105712D01*
X-30748Y105710D01*
X-30749Y105707D01*
X-30729Y105664D01*
X-30711Y105621D01*
X-30709Y105620D01*
X-30708Y105618D01*
X-30623Y105585D01*
X-18399Y105585D01*
X-18397Y105586D01*
G37*
G36*
X10051Y105586D02*
X10051Y105586D01*
X10053Y105585D01*
X10096Y105605D01*
X10140Y105624D01*
X10140Y105626D01*
X10142Y105627D01*
X10175Y105712D01*
X10175Y117936D01*
X10174Y117938D01*
X10175Y117940D01*
X10155Y117983D01*
X10137Y118026D01*
X10135Y118027D01*
X10134Y118029D01*
X10049Y118062D01*
X-2175Y118062D01*
X-2177Y118061D01*
X-2179Y118062D01*
X-2222Y118042D01*
X-2266Y118023D01*
X-2266Y118021D01*
X-2268Y118020D01*
X-2301Y117936D01*
X-2301Y105712D01*
X-2300Y105710D01*
X-2301Y105707D01*
X-2281Y105664D01*
X-2263Y105621D01*
X-2261Y105620D01*
X-2260Y105618D01*
X-2175Y105585D01*
X10049Y105585D01*
X10051Y105586D01*
G37*
G36*
X-4173Y105586D02*
X-4173Y105586D01*
X-4171Y105585D01*
X-4128Y105605D01*
X-4084Y105624D01*
X-4084Y105626D01*
X-4082Y105627D01*
X-4049Y105712D01*
X-4049Y117936D01*
X-4050Y117938D01*
X-4049Y117940D01*
X-4069Y117983D01*
X-4087Y118026D01*
X-4089Y118027D01*
X-4090Y118029D01*
X-4175Y118062D01*
X-16399Y118062D01*
X-16401Y118061D01*
X-16403Y118062D01*
X-16446Y118042D01*
X-16490Y118023D01*
X-16490Y118021D01*
X-16492Y118020D01*
X-16525Y117936D01*
X-16525Y105712D01*
X-16524Y105710D01*
X-16525Y105707D01*
X-16505Y105664D01*
X-16487Y105621D01*
X-16485Y105620D01*
X-16484Y105618D01*
X-16399Y105585D01*
X-4175Y105585D01*
X-4173Y105586D01*
G37*
G36*
X24275Y105586D02*
X24275Y105586D01*
X24277Y105585D01*
X24320Y105605D01*
X24364Y105624D01*
X24364Y105626D01*
X24366Y105627D01*
X24399Y105712D01*
X24399Y117936D01*
X24398Y117938D01*
X24399Y117940D01*
X24379Y117983D01*
X24361Y118026D01*
X24359Y118027D01*
X24358Y118029D01*
X24273Y118062D01*
X12049Y118062D01*
X12047Y118061D01*
X12045Y118062D01*
X12002Y118042D01*
X11958Y118023D01*
X11958Y118021D01*
X11956Y118020D01*
X11923Y117936D01*
X11923Y105712D01*
X11924Y105710D01*
X11923Y105707D01*
X11943Y105664D01*
X11961Y105621D01*
X11963Y105620D01*
X11964Y105618D01*
X12049Y105585D01*
X24273Y105585D01*
X24275Y105586D01*
G37*
G36*
X10051Y91362D02*
X10051Y91362D01*
X10053Y91361D01*
X10096Y91381D01*
X10140Y91400D01*
X10140Y91402D01*
X10142Y91403D01*
X10175Y91488D01*
X10175Y103712D01*
X10174Y103714D01*
X10175Y103716D01*
X10155Y103759D01*
X10137Y103802D01*
X10135Y103803D01*
X10134Y103805D01*
X10049Y103838D01*
X-2175Y103838D01*
X-2177Y103837D01*
X-2179Y103838D01*
X-2222Y103818D01*
X-2266Y103799D01*
X-2266Y103797D01*
X-2268Y103796D01*
X-2301Y103712D01*
X-2301Y91488D01*
X-2300Y91486D01*
X-2301Y91483D01*
X-2281Y91440D01*
X-2263Y91397D01*
X-2261Y91396D01*
X-2260Y91394D01*
X-2175Y91361D01*
X10049Y91361D01*
X10051Y91362D01*
G37*
G36*
X-18397Y91362D02*
X-18397Y91362D01*
X-18395Y91361D01*
X-18352Y91381D01*
X-18308Y91400D01*
X-18308Y91402D01*
X-18306Y91403D01*
X-18273Y91488D01*
X-18273Y103712D01*
X-18274Y103714D01*
X-18273Y103716D01*
X-18293Y103759D01*
X-18311Y103802D01*
X-18313Y103803D01*
X-18314Y103805D01*
X-18399Y103838D01*
X-30623Y103838D01*
X-30625Y103837D01*
X-30627Y103838D01*
X-30670Y103818D01*
X-30714Y103799D01*
X-30714Y103797D01*
X-30716Y103796D01*
X-30749Y103712D01*
X-30749Y91488D01*
X-30748Y91486D01*
X-30749Y91483D01*
X-30729Y91440D01*
X-30711Y91397D01*
X-30709Y91396D01*
X-30708Y91394D01*
X-30623Y91361D01*
X-18399Y91361D01*
X-18397Y91362D01*
G37*
G36*
X-4173Y91362D02*
X-4173Y91362D01*
X-4171Y91361D01*
X-4128Y91381D01*
X-4084Y91400D01*
X-4084Y91402D01*
X-4082Y91403D01*
X-4049Y91488D01*
X-4049Y103712D01*
X-4050Y103714D01*
X-4049Y103716D01*
X-4069Y103759D01*
X-4087Y103802D01*
X-4089Y103803D01*
X-4090Y103805D01*
X-4175Y103838D01*
X-16399Y103838D01*
X-16401Y103837D01*
X-16403Y103838D01*
X-16446Y103818D01*
X-16490Y103799D01*
X-16490Y103797D01*
X-16492Y103796D01*
X-16525Y103712D01*
X-16525Y91488D01*
X-16524Y91486D01*
X-16525Y91483D01*
X-16505Y91440D01*
X-16487Y91397D01*
X-16485Y91396D01*
X-16484Y91394D01*
X-16399Y91361D01*
X-4175Y91361D01*
X-4173Y91362D01*
G37*
G36*
X24275Y91362D02*
X24275Y91362D01*
X24277Y91361D01*
X24320Y91381D01*
X24364Y91400D01*
X24364Y91402D01*
X24366Y91403D01*
X24399Y91488D01*
X24399Y103712D01*
X24398Y103714D01*
X24399Y103716D01*
X24379Y103759D01*
X24361Y103802D01*
X24359Y103803D01*
X24358Y103805D01*
X24273Y103838D01*
X12049Y103838D01*
X12047Y103837D01*
X12045Y103838D01*
X12002Y103818D01*
X11958Y103799D01*
X11958Y103797D01*
X11956Y103796D01*
X11923Y103712D01*
X11923Y91488D01*
X11924Y91486D01*
X11923Y91483D01*
X11943Y91440D01*
X11961Y91397D01*
X11963Y91396D01*
X11964Y91394D01*
X12049Y91361D01*
X24273Y91361D01*
X24275Y91362D01*
G37*
G36*
X-18397Y77138D02*
X-18397Y77138D01*
X-18395Y77137D01*
X-18352Y77157D01*
X-18308Y77176D01*
X-18308Y77178D01*
X-18306Y77179D01*
X-18273Y77264D01*
X-18273Y89488D01*
X-18274Y89490D01*
X-18273Y89492D01*
X-18293Y89535D01*
X-18311Y89578D01*
X-18313Y89579D01*
X-18314Y89581D01*
X-18399Y89614D01*
X-30623Y89614D01*
X-30625Y89613D01*
X-30627Y89614D01*
X-30670Y89594D01*
X-30714Y89575D01*
X-30714Y89573D01*
X-30716Y89572D01*
X-30749Y89488D01*
X-30749Y77264D01*
X-30748Y77262D01*
X-30749Y77259D01*
X-30729Y77216D01*
X-30711Y77173D01*
X-30709Y77172D01*
X-30708Y77170D01*
X-30623Y77137D01*
X-18399Y77137D01*
X-18397Y77138D01*
G37*
G36*
X10051Y77138D02*
X10051Y77138D01*
X10053Y77137D01*
X10096Y77157D01*
X10140Y77176D01*
X10140Y77178D01*
X10142Y77179D01*
X10175Y77264D01*
X10175Y89488D01*
X10174Y89490D01*
X10175Y89492D01*
X10155Y89535D01*
X10137Y89578D01*
X10135Y89579D01*
X10134Y89581D01*
X10049Y89614D01*
X-2175Y89614D01*
X-2177Y89613D01*
X-2179Y89614D01*
X-2222Y89594D01*
X-2266Y89575D01*
X-2266Y89573D01*
X-2268Y89572D01*
X-2301Y89488D01*
X-2301Y77264D01*
X-2300Y77262D01*
X-2301Y77259D01*
X-2281Y77216D01*
X-2263Y77173D01*
X-2261Y77172D01*
X-2260Y77170D01*
X-2175Y77137D01*
X10049Y77137D01*
X10051Y77138D01*
G37*
G36*
X-4173Y77138D02*
X-4173Y77138D01*
X-4171Y77137D01*
X-4128Y77157D01*
X-4084Y77176D01*
X-4084Y77178D01*
X-4082Y77179D01*
X-4049Y77264D01*
X-4049Y89488D01*
X-4050Y89490D01*
X-4049Y89492D01*
X-4069Y89535D01*
X-4087Y89578D01*
X-4089Y89579D01*
X-4090Y89581D01*
X-4175Y89614D01*
X-16399Y89614D01*
X-16401Y89613D01*
X-16403Y89614D01*
X-16446Y89594D01*
X-16490Y89575D01*
X-16490Y89573D01*
X-16492Y89572D01*
X-16525Y89488D01*
X-16525Y77264D01*
X-16524Y77262D01*
X-16525Y77259D01*
X-16505Y77216D01*
X-16487Y77173D01*
X-16485Y77172D01*
X-16484Y77170D01*
X-16399Y77137D01*
X-4175Y77137D01*
X-4173Y77138D01*
G37*
G36*
X24275Y77138D02*
X24275Y77138D01*
X24277Y77137D01*
X24320Y77157D01*
X24364Y77176D01*
X24364Y77178D01*
X24366Y77179D01*
X24399Y77264D01*
X24399Y89488D01*
X24398Y89490D01*
X24399Y89492D01*
X24379Y89535D01*
X24361Y89578D01*
X24359Y89579D01*
X24358Y89581D01*
X24273Y89614D01*
X12049Y89614D01*
X12047Y89613D01*
X12045Y89614D01*
X12002Y89594D01*
X11958Y89575D01*
X11958Y89573D01*
X11956Y89572D01*
X11923Y89488D01*
X11923Y77264D01*
X11924Y77262D01*
X11923Y77259D01*
X11943Y77216D01*
X11961Y77173D01*
X11963Y77172D01*
X11964Y77170D01*
X12049Y77137D01*
X24273Y77137D01*
X24275Y77138D01*
G37*
G36*
X-4173Y62914D02*
X-4173Y62914D01*
X-4171Y62913D01*
X-4128Y62933D01*
X-4084Y62952D01*
X-4084Y62954D01*
X-4082Y62955D01*
X-4049Y63040D01*
X-4049Y75264D01*
X-4050Y75266D01*
X-4049Y75268D01*
X-4069Y75311D01*
X-4087Y75354D01*
X-4089Y75355D01*
X-4090Y75357D01*
X-4175Y75390D01*
X-16399Y75390D01*
X-16401Y75389D01*
X-16403Y75390D01*
X-16446Y75370D01*
X-16490Y75351D01*
X-16490Y75349D01*
X-16492Y75348D01*
X-16525Y75264D01*
X-16525Y63040D01*
X-16524Y63038D01*
X-16525Y63035D01*
X-16505Y62992D01*
X-16487Y62949D01*
X-16485Y62948D01*
X-16484Y62946D01*
X-16399Y62913D01*
X-4175Y62913D01*
X-4173Y62914D01*
G37*
G36*
X10051Y62914D02*
X10051Y62914D01*
X10053Y62913D01*
X10096Y62933D01*
X10140Y62952D01*
X10140Y62954D01*
X10142Y62955D01*
X10175Y63040D01*
X10175Y75264D01*
X10174Y75266D01*
X10175Y75268D01*
X10155Y75311D01*
X10137Y75354D01*
X10135Y75355D01*
X10134Y75357D01*
X10049Y75390D01*
X-2175Y75390D01*
X-2177Y75389D01*
X-2179Y75390D01*
X-2222Y75370D01*
X-2266Y75351D01*
X-2266Y75349D01*
X-2268Y75348D01*
X-2301Y75264D01*
X-2301Y63040D01*
X-2300Y63038D01*
X-2301Y63035D01*
X-2281Y62992D01*
X-2263Y62949D01*
X-2261Y62948D01*
X-2260Y62946D01*
X-2175Y62913D01*
X10049Y62913D01*
X10051Y62914D01*
G37*
G36*
X24275Y62914D02*
X24275Y62914D01*
X24277Y62913D01*
X24320Y62933D01*
X24364Y62952D01*
X24364Y62954D01*
X24366Y62955D01*
X24399Y63040D01*
X24399Y75264D01*
X24398Y75266D01*
X24399Y75268D01*
X24379Y75311D01*
X24361Y75354D01*
X24359Y75355D01*
X24358Y75357D01*
X24273Y75390D01*
X12049Y75390D01*
X12047Y75389D01*
X12045Y75390D01*
X12002Y75370D01*
X11958Y75351D01*
X11958Y75349D01*
X11956Y75348D01*
X11923Y75264D01*
X11923Y63040D01*
X11924Y63038D01*
X11923Y63035D01*
X11943Y62992D01*
X11961Y62949D01*
X11963Y62948D01*
X11964Y62946D01*
X12049Y62913D01*
X24273Y62913D01*
X24275Y62914D01*
G37*
G36*
X-18397Y62914D02*
X-18397Y62914D01*
X-18395Y62913D01*
X-18352Y62933D01*
X-18308Y62952D01*
X-18308Y62954D01*
X-18306Y62955D01*
X-18273Y63040D01*
X-18273Y75264D01*
X-18274Y75266D01*
X-18273Y75268D01*
X-18293Y75311D01*
X-18311Y75354D01*
X-18313Y75355D01*
X-18314Y75357D01*
X-18399Y75390D01*
X-30623Y75390D01*
X-30625Y75389D01*
X-30627Y75390D01*
X-30670Y75370D01*
X-30714Y75351D01*
X-30714Y75349D01*
X-30716Y75348D01*
X-30749Y75264D01*
X-30749Y63040D01*
X-30748Y63038D01*
X-30749Y63035D01*
X-30729Y62992D01*
X-30711Y62949D01*
X-30709Y62948D01*
X-30708Y62946D01*
X-30623Y62913D01*
X-18399Y62913D01*
X-18397Y62914D01*
G37*
D10*
X45475Y119063D03*
X62475Y119063D03*
D11*
X-31750Y249800D03*
X-31750Y232800D03*
D12*
X44475Y130175D03*
X63475Y130175D03*
X44475Y144463D03*
X63475Y144463D03*
D10*
X45475Y109538D03*
X62475Y109538D03*
X-37538Y38100D03*
X-54538Y38100D03*
D11*
X79375Y105338D03*
X79375Y88338D03*
D10*
X-86288Y165100D03*
X-69288Y165100D03*
D13*
X64975Y188913D03*
X42975Y188913D03*
D10*
X44450Y156600D03*
X44450Y173600D03*
X-69850Y248675D03*
X-69850Y265675D03*
X63500Y173600D03*
X63500Y156600D03*
X-49213Y154550D03*
X-49213Y137550D03*
D14*
X30625Y117995D03*
X30625Y112994D03*
X30625Y107992D03*
X30625Y102991D03*
X30625Y97990D03*
X30625Y92989D03*
X30625Y87987D03*
X30625Y82986D03*
X30625Y77985D03*
X30625Y72984D03*
X30625Y67982D03*
X30625Y62981D03*
D15*
X24332Y56688D03*
X19331Y56688D03*
X14329Y56688D03*
X9328Y56688D03*
X4327Y56688D03*
X-674Y56688D03*
X-5676Y56688D03*
X-10677Y56688D03*
X-15678Y56688D03*
X-20679Y56688D03*
X-25681Y56688D03*
X-30682Y56688D03*
D14*
X-36975Y62981D03*
X-36975Y67982D03*
X-36975Y72984D03*
X-36975Y77985D03*
X-36975Y82986D03*
X-36975Y87987D03*
X-36975Y92989D03*
X-36975Y97990D03*
X-36975Y102991D03*
X-36975Y107992D03*
X-36975Y112994D03*
X-36975Y117995D03*
D15*
X-30682Y124288D03*
X-25681Y124288D03*
X-20679Y124288D03*
X-15678Y124288D03*
X-10677Y124288D03*
X-5676Y124288D03*
X-674Y124288D03*
X4327Y124288D03*
X9328Y124288D03*
X14329Y124288D03*
X19331Y124288D03*
X24332Y124288D03*
D16*
X50800Y68963D03*
X50800Y80963D03*
X50800Y92962D03*
M02*
