M48
;GenerationSoftware,Autodesk,EAGLE,9.2.2*%
;CreationDate,2019-02-06T14:36:33Z*%
FMAT,2
ICI,OFF
METRIC,TZ,000.000
T4C0.356
T3C0.889
T2C0.900
T1C1.397
%
G90
M71
T1
X9700Y21668
X9700Y8333
X24940Y8333
X24940Y21668
T2
X20495Y27700
X14145Y27700
X14145Y22620
X20495Y22620
T3
X14780Y4840
X17320Y4840
X19860Y4840
X7160Y17540
X7160Y15000
X7160Y12460
T4
X3883Y10225
X32154Y16270
X20470Y25643
X15009Y17311
X14247Y1589
X13764Y18810
X20749Y18429
X11808Y13654
X6627Y5373
X4087Y19953
X9421Y15508
X27480Y13603
X15034Y13832
X15999Y25439
X23568Y24169
X26870Y17591
X28902Y14949
X29004Y9666
X20038Y1335
X28471Y20639
X7160Y23534
X9700Y23661
X17117Y23407
X14602Y24373
X18311Y10377
X8557Y3011
X29080Y16270
X17320Y13857
X17320Y15000
X17320Y16143
X17320Y17286
X16050Y13832
X16939Y8904
X19581Y13832
X18565Y13832
X19555Y17337
X22451Y1309
X31900Y12409
X26769Y19674
M30