G04 EAGLE Gerber RS-274X export*
G75*
%MOMM*%
%FSLAX34Y34*%
%LPD*%
%INSilkscreen Top*%
%IPPOS*%
%AMOC8*
5,1,8,0,0,1.08239X$1,22.5*%
G01*
%ADD10C,0.152400*%
%ADD11C,0.127000*%
%ADD12C,0.101600*%
%ADD13R,0.014731X0.014731*%
%ADD14R,0.147319X0.014731*%
%ADD15R,0.265175X0.014731*%
%ADD16R,0.383031X0.014731*%
%ADD17R,0.515619X0.014731*%
%ADD18R,0.633475X0.014731*%
%ADD19R,0.751331X0.014731*%
%ADD20R,0.883919X0.014731*%
%ADD21R,1.001775X0.014731*%
%ADD22R,1.119631X0.014731*%
%ADD23R,1.134363X0.014731*%
%ADD24R,1.149094X0.014731*%
%ADD25R,1.163825X0.014731*%
%ADD26R,1.178556X0.014731*%
%ADD27R,1.193288X0.014731*%
%ADD28R,1.222756X0.014731*%
%ADD29R,1.237488X0.014731*%
%ADD30R,1.266950X0.014731*%
%ADD31R,1.281681X0.014731*%
%ADD32R,1.311144X0.014731*%
%ADD33R,1.325881X0.014731*%
%ADD34R,1.355344X0.014731*%
%ADD35R,1.370075X0.014731*%
%ADD36R,1.384806X0.014731*%
%ADD37R,1.399538X0.014731*%
%ADD38R,1.414275X0.014731*%
%ADD39R,1.443738X0.014731*%
%ADD40R,1.458469X0.014731*%
%ADD41R,1.487931X0.014731*%
%ADD42R,1.502663X0.014731*%
%ADD43R,1.517394X0.014731*%
%ADD44R,1.532125X0.014731*%
%ADD45R,1.546856X0.014731*%
%ADD46R,1.576319X0.014731*%
%ADD47R,1.605788X0.014731*%
%ADD48R,1.620519X0.014731*%
%ADD49R,1.649981X0.014731*%
%ADD50R,1.664713X0.014731*%
%ADD51R,1.694175X0.014731*%
%ADD52R,1.708913X0.014731*%
%ADD53R,1.738375X0.014731*%
%ADD54R,1.753106X0.014731*%
%ADD55R,1.767838X0.014731*%
%ADD56R,1.782569X0.014731*%
%ADD57R,1.797306X0.014731*%
%ADD58R,0.117856X0.014731*%
%ADD59R,1.826769X0.014731*%
%ADD60R,0.235713X0.014731*%
%ADD61R,0.353569X0.014731*%
%ADD62R,1.856231X0.014731*%
%ADD63R,0.486156X0.014731*%
%ADD64R,1.870963X0.014731*%
%ADD65R,0.604013X0.014731*%
%ADD66R,0.721869X0.014731*%
%ADD67R,1.885694X0.014731*%
%ADD68R,0.839719X0.014731*%
%ADD69R,0.972306X0.014731*%
%ADD70R,1.090169X0.014731*%
%ADD71R,1.208025X0.014731*%
%ADD72R,1.252219X0.014731*%
%ADD73R,1.296412X0.014731*%
%ADD74R,1.340612X0.014731*%
%ADD75R,1.826763X0.014731*%
%ADD76R,1.414269X0.014731*%
%ADD77R,1.812031X0.014731*%
%ADD78R,1.429000X0.014731*%
%ADD79R,1.458462X0.014731*%
%ADD80R,1.473200X0.014731*%
%ADD81R,1.723644X0.014731*%
%ADD82R,1.694181X0.014731*%
%ADD83R,1.679450X0.014731*%
%ADD84R,1.561594X0.014731*%
%ADD85R,1.576325X0.014731*%
%ADD86R,1.591056X0.014731*%
%ADD87R,1.635250X0.014731*%
%ADD88R,1.561588X0.014731*%
%ADD89R,1.443731X0.014731*%
%ADD90R,1.797300X0.014731*%
%ADD91R,1.841500X0.014731*%
%ADD92R,1.311150X0.014731*%
%ADD93R,1.296419X0.014731*%
%ADD94R,1.193294X0.014731*%
%ADD95R,0.957575X0.014731*%
%ADD96R,0.589281X0.014731*%
%ADD97R,0.471425X0.014731*%
%ADD98R,0.220975X0.014731*%
%ADD99R,1.812038X0.014731*%
%ADD100R,0.103119X0.014731*%
%ADD101R,0.029463X0.014731*%
%ADD102R,0.162050X0.014731*%
%ADD103R,0.397763X0.014731*%
%ADD104R,0.648206X0.014731*%
%ADD105R,1.679444X0.014731*%
%ADD106R,1.016506X0.014731*%
%ADD107R,1.104900X0.014731*%
%ADD108R,1.222750X0.014731*%
%ADD109R,1.429006X0.014731*%
%ADD110R,1.208019X0.014731*%
%ADD111R,0.987044X0.014731*%
%ADD112R,0.854456X0.014731*%
%ADD113R,0.618744X0.014731*%
%ADD114R,0.500888X0.014731*%
%ADD115R,0.368300X0.014731*%
%ADD116R,0.132587X0.014731*%
%ADD117R,1.664719X0.014731*%
%ADD118R,1.075438X0.014731*%
%ADD119R,0.942844X0.014731*%
%ADD120R,0.707131X0.014731*%
%ADD121R,0.456694X0.014731*%
%ADD122R,0.088388X0.014731*%
%ADD123C,0.076200*%
%ADD124C,0.100000*%
%ADD125C,0.203200*%


D10*
X273530Y187846D02*
X273530Y205641D01*
X282428Y205641D01*
X285393Y202675D01*
X285393Y196744D01*
X282428Y193778D01*
X273530Y193778D01*
X291305Y199709D02*
X297237Y205641D01*
X297237Y187846D01*
X303168Y187846D02*
X291305Y187846D01*
D11*
X272133Y109500D02*
X272133Y94247D01*
X272133Y109500D02*
X279760Y109500D01*
X282302Y106958D01*
X282302Y101874D01*
X279760Y99331D01*
X272133Y99331D01*
X287335Y94247D02*
X297504Y94247D01*
X287335Y94247D02*
X297504Y104416D01*
X297504Y106958D01*
X294962Y109500D01*
X289877Y109500D01*
X287335Y106958D01*
X302537Y106958D02*
X312706Y96789D01*
X302537Y96789D02*
X312706Y106958D01*
X312706Y101874D02*
X302537Y101874D01*
X307622Y106958D02*
X307622Y96789D01*
D10*
X189710Y32159D02*
X189710Y14364D01*
X189710Y32159D02*
X198608Y32159D01*
X201573Y29193D01*
X201573Y23262D01*
X198608Y20296D01*
X189710Y20296D01*
X207485Y29193D02*
X210451Y32159D01*
X216382Y32159D01*
X219348Y29193D01*
X219348Y26227D01*
X216382Y23262D01*
X213417Y23262D01*
X216382Y23262D02*
X219348Y20296D01*
X219348Y17330D01*
X216382Y14364D01*
X210451Y14364D01*
X207485Y17330D01*
D11*
X62329Y54623D02*
X62329Y69876D01*
X69956Y69876D01*
X72498Y67334D01*
X72498Y62250D01*
X69956Y59707D01*
X62329Y59707D01*
X85158Y54623D02*
X85158Y69876D01*
X77531Y62250D01*
X87700Y62250D01*
D10*
X29690Y182004D02*
X29690Y199799D01*
X38588Y199799D01*
X41553Y196833D01*
X41553Y190902D01*
X38588Y187936D01*
X29690Y187936D01*
X47465Y199799D02*
X59328Y199799D01*
X47465Y199799D02*
X47465Y190902D01*
X53397Y193867D01*
X56362Y193867D01*
X59328Y190902D01*
X59328Y184970D01*
X56362Y182004D01*
X50431Y182004D01*
X47465Y184970D01*
D12*
X84931Y268672D02*
X85410Y271387D01*
X88603Y273622D01*
X91317Y273144D01*
X92435Y271547D01*
X91957Y268833D01*
X90360Y267715D01*
X91957Y268833D02*
X94671Y268354D01*
X95789Y266758D01*
X95310Y264043D01*
X92117Y261807D01*
X89403Y262286D01*
X97864Y270590D02*
X93392Y276976D01*
X97864Y270590D02*
X103293Y269633D01*
X104250Y275061D01*
X99779Y281448D01*
X104089Y282087D02*
X104568Y284801D01*
X107761Y287037D01*
X110476Y286558D01*
X111593Y284962D01*
X111115Y282247D01*
X109518Y281130D01*
X111115Y282247D02*
X113829Y281769D01*
X114947Y280172D01*
X114469Y277458D01*
X111275Y275222D01*
X108561Y275701D01*
X238933Y283075D02*
X241647Y283554D01*
X244840Y281318D01*
X245319Y278604D01*
X244201Y277007D01*
X241487Y276529D01*
X239890Y277646D01*
X241487Y276529D02*
X241965Y273814D01*
X240847Y272218D01*
X238133Y271739D01*
X234940Y273975D01*
X234461Y276689D01*
X245158Y271578D02*
X249630Y277964D01*
X245158Y271578D02*
X246116Y266150D01*
X251544Y267107D01*
X256016Y273493D01*
X258091Y269661D02*
X260806Y270139D01*
X263999Y267903D01*
X264477Y265189D01*
X263359Y263592D01*
X260645Y263114D01*
X259048Y264232D01*
X260645Y263114D02*
X261124Y260399D01*
X260006Y258803D01*
X257291Y258324D01*
X254098Y260560D01*
X253620Y263274D01*
X312382Y132137D02*
X314331Y130188D01*
X312382Y132137D02*
X312382Y136035D01*
X314331Y137984D01*
X316280Y137984D01*
X318229Y136035D01*
X318229Y134086D01*
X318229Y136035D02*
X320178Y137984D01*
X322127Y137984D01*
X324076Y136035D01*
X324076Y132137D01*
X322127Y130188D01*
X320178Y141882D02*
X312382Y141882D01*
X320178Y141882D02*
X324076Y145780D01*
X320178Y149678D01*
X312382Y149678D01*
X314331Y153576D02*
X312382Y155525D01*
X312382Y159423D01*
X314331Y161372D01*
X316280Y161372D01*
X318229Y159423D01*
X318229Y157474D01*
X318229Y159423D02*
X320178Y161372D01*
X322127Y161372D01*
X324076Y159423D01*
X324076Y155525D01*
X322127Y153576D01*
X227142Y22213D02*
X226663Y19498D01*
X227142Y22213D02*
X230335Y24448D01*
X233049Y23970D01*
X234167Y22373D01*
X233689Y19659D01*
X232092Y18541D01*
X233689Y19659D02*
X236403Y19180D01*
X237521Y17584D01*
X237042Y14869D01*
X233849Y12633D01*
X231135Y13112D01*
X239596Y21416D02*
X235124Y27802D01*
X239596Y21416D02*
X245025Y20459D01*
X245982Y25887D01*
X241511Y32274D01*
X245821Y32913D02*
X246300Y35627D01*
X249493Y37863D01*
X252208Y37384D01*
X253325Y35788D01*
X252847Y33073D01*
X251250Y31956D01*
X252847Y33073D02*
X255561Y32595D01*
X256679Y30998D01*
X256201Y28284D01*
X253007Y26048D01*
X250293Y26527D01*
X98899Y37682D02*
X96185Y37203D01*
X98899Y37682D02*
X102092Y35446D01*
X102571Y32732D01*
X101453Y31135D01*
X98739Y30657D01*
X97142Y31774D01*
X98739Y30657D02*
X99217Y27942D01*
X98099Y26346D01*
X95385Y25867D01*
X92192Y28103D01*
X91713Y30817D01*
X102410Y25706D02*
X106882Y32092D01*
X102410Y25706D02*
X103368Y20278D01*
X108796Y21235D01*
X113268Y27621D01*
X115343Y23789D02*
X118058Y24267D01*
X121251Y22031D01*
X121729Y19317D01*
X120611Y17720D01*
X117897Y17242D01*
X116300Y18360D01*
X117897Y17242D02*
X118376Y14527D01*
X117258Y12931D01*
X114543Y12452D01*
X111350Y14688D01*
X110872Y17402D01*
X25025Y135268D02*
X23076Y137217D01*
X23076Y141115D01*
X25025Y143064D01*
X26974Y143064D01*
X28923Y141115D01*
X28923Y139166D01*
X28923Y141115D02*
X30872Y143064D01*
X32821Y143064D01*
X34770Y141115D01*
X34770Y137217D01*
X32821Y135268D01*
X30872Y146962D02*
X23076Y146962D01*
X30872Y146962D02*
X34770Y150860D01*
X30872Y154758D01*
X23076Y154758D01*
X25025Y158656D02*
X23076Y160605D01*
X23076Y164503D01*
X25025Y166452D01*
X26974Y166452D01*
X28923Y164503D01*
X28923Y162554D01*
X28923Y164503D02*
X30872Y166452D01*
X32821Y166452D01*
X34770Y164503D01*
X34770Y160605D01*
X32821Y158656D01*
D13*
X264726Y37315D03*
D14*
X264211Y37463D03*
D15*
X263621Y37610D03*
D16*
X263180Y37757D03*
D17*
X262664Y37905D03*
D18*
X262222Y38052D03*
D19*
X261633Y38199D03*
D20*
X261117Y38347D03*
D21*
X260675Y38494D03*
D22*
X260233Y38641D03*
D23*
X260159Y38789D03*
D24*
X260233Y38936D03*
D25*
X260307Y39083D03*
D26*
X260233Y39231D03*
D27*
X260307Y39378D03*
D28*
X260307Y39525D03*
D29*
X260380Y39673D03*
X260380Y39820D03*
D30*
X260380Y39967D03*
D31*
X260454Y40115D03*
D32*
X260454Y40262D03*
X260454Y40409D03*
D33*
X260528Y40556D03*
D34*
X260528Y40704D03*
D35*
X260601Y40851D03*
D36*
X260528Y40998D03*
D37*
X260601Y41146D03*
D38*
X260675Y41293D03*
D39*
X260675Y41440D03*
X260675Y41588D03*
D40*
X260749Y41735D03*
D41*
X260749Y41882D03*
D42*
X260822Y42030D03*
D43*
X260749Y42177D03*
D44*
X260822Y42324D03*
D45*
X260896Y42472D03*
D46*
X260896Y42619D03*
X260896Y42766D03*
D47*
X260896Y42914D03*
D48*
X260970Y43061D03*
X260970Y43208D03*
D49*
X260970Y43356D03*
D50*
X261043Y43503D03*
D51*
X261043Y43650D03*
X261043Y43798D03*
D52*
X261117Y43945D03*
D53*
X261117Y44092D03*
D54*
X261191Y44239D03*
D55*
X261117Y44387D03*
D56*
X261191Y44534D03*
D57*
X261264Y44681D03*
D58*
X281742Y44681D03*
D59*
X261264Y44829D03*
D60*
X281153Y44829D03*
D59*
X261264Y44976D03*
D61*
X280711Y44976D03*
D62*
X261264Y45123D03*
D63*
X280195Y45123D03*
D64*
X261338Y45271D03*
D65*
X279753Y45271D03*
D64*
X261338Y45418D03*
D66*
X279164Y45418D03*
D67*
X261264Y45565D03*
D68*
X278722Y45565D03*
D67*
X261264Y45713D03*
D69*
X278206Y45713D03*
D64*
X261191Y45860D03*
D70*
X277764Y45860D03*
D67*
X261117Y46007D03*
D22*
X277617Y46007D03*
D67*
X261117Y46155D03*
D24*
X277617Y46155D03*
D67*
X260970Y46302D03*
D25*
X277691Y46302D03*
D67*
X260970Y46449D03*
D26*
X277764Y46449D03*
D64*
X260896Y46597D03*
D27*
X277691Y46597D03*
D67*
X260822Y46744D03*
D71*
X277764Y46744D03*
D67*
X260822Y46891D03*
D29*
X277764Y46891D03*
D67*
X260675Y47039D03*
D72*
X277838Y47039D03*
D67*
X260675Y47186D03*
D72*
X277838Y47186D03*
D64*
X260601Y47333D03*
D31*
X277838Y47333D03*
D67*
X260528Y47481D03*
D73*
X277912Y47481D03*
D67*
X260528Y47628D03*
D33*
X277912Y47628D03*
D67*
X260380Y47775D03*
D33*
X277912Y47775D03*
D67*
X260380Y47922D03*
D74*
X277985Y47922D03*
D64*
X260307Y48070D03*
D35*
X277985Y48070D03*
D62*
X260380Y48217D03*
D36*
X278059Y48217D03*
D62*
X260380Y48364D03*
D37*
X277985Y48364D03*
D75*
X260380Y48512D03*
D76*
X278059Y48512D03*
D77*
X260454Y48659D03*
D78*
X278132Y48659D03*
D56*
X260454Y48806D03*
D79*
X278132Y48806D03*
D56*
X260454Y48954D03*
D79*
X278132Y48954D03*
D55*
X260528Y49101D03*
D80*
X278206Y49101D03*
D53*
X260528Y49248D03*
D42*
X278206Y49248D03*
D81*
X260601Y49396D03*
D42*
X278206Y49396D03*
D52*
X260528Y49543D03*
D44*
X278206Y49543D03*
D82*
X260601Y49690D03*
D45*
X278280Y49690D03*
D83*
X260675Y49838D03*
D84*
X278353Y49838D03*
D49*
X260675Y49985D03*
D85*
X278280Y49985D03*
D49*
X260675Y50132D03*
D86*
X278353Y50132D03*
D87*
X260749Y50280D03*
D48*
X278353Y50280D03*
D47*
X260749Y50427D03*
D87*
X278427Y50427D03*
D47*
X260749Y50574D03*
D87*
X278427Y50574D03*
D85*
X260749Y50722D03*
D50*
X278427Y50722D03*
D88*
X260822Y50869D03*
D83*
X278501Y50869D03*
D45*
X260896Y51016D03*
D52*
X278501Y51016D03*
D44*
X260822Y51164D03*
D52*
X278501Y51164D03*
D43*
X260896Y51311D03*
D81*
X278574Y51311D03*
D41*
X260896Y51458D03*
D54*
X278574Y51458D03*
D80*
X260970Y51605D03*
D55*
X278648Y51605D03*
D80*
X260970Y51753D03*
D56*
X278574Y51753D03*
D89*
X260970Y51900D03*
D90*
X278648Y51900D03*
D78*
X261043Y52047D03*
D77*
X278722Y52047D03*
D37*
X261043Y52195D03*
D91*
X278722Y52195D03*
D37*
X261043Y52342D03*
D91*
X278722Y52342D03*
D36*
X261117Y52489D03*
D64*
X278722Y52489D03*
D34*
X261117Y52637D03*
D67*
X278795Y52637D03*
D74*
X261191Y52784D03*
D64*
X278722Y52784D03*
D33*
X261117Y52931D03*
D67*
X278648Y52931D03*
D92*
X261191Y53079D03*
D67*
X278648Y53079D03*
D93*
X261264Y53226D03*
D64*
X278574Y53226D03*
D30*
X261264Y53373D03*
D67*
X278501Y53373D03*
D30*
X261264Y53521D03*
D67*
X278501Y53521D03*
D72*
X261338Y53668D03*
D67*
X278353Y53668D03*
D28*
X261338Y53815D03*
D67*
X278353Y53815D03*
D71*
X261412Y53963D03*
D64*
X278280Y53963D03*
D94*
X261338Y54110D03*
D67*
X278206Y54110D03*
D26*
X261412Y54257D03*
D67*
X278206Y54257D03*
D25*
X261485Y54405D03*
D67*
X278059Y54405D03*
D24*
X261412Y54552D03*
D67*
X278059Y54552D03*
D23*
X261485Y54699D03*
D64*
X277985Y54699D03*
D70*
X261412Y54847D03*
D67*
X277912Y54847D03*
D95*
X260896Y54994D03*
D67*
X277912Y54994D03*
D68*
X260307Y55141D03*
D67*
X277764Y55141D03*
D66*
X259865Y55288D03*
D67*
X277764Y55288D03*
D96*
X259349Y55436D03*
D62*
X277764Y55436D03*
D97*
X258907Y55583D03*
D91*
X277838Y55583D03*
D61*
X258318Y55730D03*
D91*
X277838Y55730D03*
D98*
X257802Y55878D03*
D99*
X277838Y55878D03*
D100*
X257360Y56025D03*
D57*
X277912Y56025D03*
D101*
X267157Y56172D03*
D56*
X277838Y56172D03*
D102*
X266642Y56320D03*
D55*
X277912Y56320D03*
D15*
X266126Y56467D03*
D54*
X277985Y56467D03*
D103*
X265610Y56614D03*
D81*
X277985Y56614D03*
D17*
X265168Y56762D03*
D81*
X277985Y56762D03*
D104*
X264653Y56909D03*
D82*
X277985Y56909D03*
D19*
X264137Y57056D03*
D105*
X278059Y57056D03*
D20*
X263621Y57204D03*
D50*
X278132Y57204D03*
D106*
X263106Y57351D03*
D49*
X278059Y57351D03*
D107*
X262664Y57498D03*
D87*
X278132Y57498D03*
D23*
X262664Y57646D03*
D48*
X278206Y57646D03*
D24*
X262738Y57793D03*
D86*
X278206Y57793D03*
D25*
X262811Y57940D03*
D86*
X278206Y57940D03*
D26*
X262738Y58088D03*
D88*
X278206Y58088D03*
D27*
X262811Y58235D03*
D45*
X278280Y58235D03*
D108*
X262811Y58382D03*
D44*
X278353Y58382D03*
D29*
X262885Y58530D03*
D43*
X278280Y58530D03*
D29*
X262885Y58677D03*
D42*
X278353Y58677D03*
D30*
X262885Y58824D03*
D80*
X278353Y58824D03*
D31*
X262959Y58971D03*
D40*
X278427Y58971D03*
D32*
X262959Y59119D03*
D40*
X278427Y59119D03*
D32*
X262959Y59266D03*
D109*
X278427Y59266D03*
D33*
X263032Y59413D03*
D76*
X278501Y59413D03*
D34*
X263032Y59561D03*
D36*
X278501Y59561D03*
D35*
X263106Y59708D03*
D36*
X278501Y59708D03*
X263032Y59855D03*
D35*
X278574Y59855D03*
D37*
X263106Y60003D03*
D74*
X278574Y60003D03*
D76*
X263180Y60150D03*
D74*
X278574Y60150D03*
D39*
X263180Y60297D03*
D92*
X278574Y60297D03*
D39*
X263180Y60445D03*
D73*
X278648Y60445D03*
D80*
X263180Y60592D03*
D31*
X278722Y60592D03*
D41*
X263253Y60739D03*
D30*
X278648Y60739D03*
D42*
X263327Y60887D03*
D72*
X278722Y60887D03*
D43*
X263253Y61034D03*
D28*
X278722Y61034D03*
D44*
X263327Y61181D03*
D110*
X278795Y61181D03*
D88*
X263327Y61329D03*
D110*
X278795Y61329D03*
D46*
X263400Y61476D03*
D26*
X278795Y61476D03*
D46*
X263400Y61623D03*
D25*
X278869Y61623D03*
D47*
X263400Y61771D03*
D24*
X278943Y61771D03*
D48*
X263474Y61918D03*
D23*
X278869Y61918D03*
D48*
X263474Y62065D03*
D107*
X278869Y62065D03*
D49*
X263474Y62213D03*
D111*
X278427Y62213D03*
D50*
X263548Y62360D03*
D112*
X277912Y62360D03*
D51*
X263548Y62507D03*
D19*
X277396Y62507D03*
D51*
X263548Y62654D03*
D113*
X276880Y62654D03*
D52*
X263621Y62802D03*
D114*
X276438Y62802D03*
D53*
X263621Y62949D03*
D115*
X275923Y62949D03*
D54*
X263695Y63096D03*
D15*
X275407Y63096D03*
D55*
X263621Y63244D03*
D116*
X274891Y63244D03*
D56*
X263695Y63391D03*
D13*
X274449Y63391D03*
D57*
X263769Y63538D03*
D59*
X263769Y63686D03*
X263769Y63833D03*
D62*
X263769Y63980D03*
D64*
X263842Y64128D03*
X263842Y64275D03*
D67*
X263769Y64422D03*
X263769Y64570D03*
X263621Y64717D03*
X263621Y64864D03*
D64*
X263548Y65012D03*
D67*
X263474Y65159D03*
X263474Y65306D03*
X263327Y65454D03*
X263327Y65601D03*
D64*
X263253Y65748D03*
D67*
X263180Y65896D03*
X263180Y66043D03*
D64*
X263106Y66190D03*
D67*
X263032Y66337D03*
X263032Y66485D03*
X262885Y66632D03*
X262885Y66779D03*
D64*
X262811Y66927D03*
D62*
X262885Y67074D03*
X262885Y67221D03*
D75*
X262885Y67369D03*
D77*
X262959Y67516D03*
D56*
X262959Y67663D03*
X262959Y67811D03*
D55*
X263032Y67958D03*
D53*
X263032Y68105D03*
D81*
X263106Y68253D03*
D52*
X263032Y68400D03*
D82*
X263106Y68547D03*
D83*
X263180Y68695D03*
D117*
X263106Y68842D03*
D49*
X263180Y68989D03*
D48*
X263180Y69137D03*
D47*
X263253Y69284D03*
X263253Y69431D03*
D85*
X263253Y69579D03*
D88*
X263327Y69726D03*
D44*
X263327Y69873D03*
X263327Y70020D03*
D43*
X263400Y70168D03*
D41*
X263400Y70315D03*
D80*
X263474Y70462D03*
X263474Y70610D03*
D89*
X263474Y70757D03*
D78*
X263548Y70904D03*
D37*
X263548Y71052D03*
X263548Y71199D03*
D36*
X263621Y71346D03*
D34*
X263621Y71494D03*
D74*
X263695Y71641D03*
D33*
X263621Y71788D03*
D92*
X263695Y71936D03*
D93*
X263769Y72083D03*
D30*
X263769Y72230D03*
X263769Y72378D03*
D29*
X263769Y72525D03*
D28*
X263842Y72672D03*
D71*
X263916Y72820D03*
D94*
X263842Y72967D03*
D26*
X263916Y73114D03*
D24*
X263916Y73262D03*
X263916Y73409D03*
D23*
X263990Y73556D03*
D118*
X263842Y73703D03*
D119*
X263327Y73851D03*
D68*
X262811Y73998D03*
D120*
X262296Y74145D03*
D96*
X261854Y74293D03*
D121*
X261338Y74440D03*
D61*
X260822Y74587D03*
D98*
X260307Y74735D03*
D122*
X259791Y74882D03*
D10*
X159992Y258966D02*
X159992Y276761D01*
X168890Y276761D01*
X171855Y273795D01*
X171855Y267864D01*
X168890Y264898D01*
X159992Y264898D01*
X183699Y273795D02*
X189630Y276761D01*
X183699Y273795D02*
X177767Y267864D01*
X177767Y261932D01*
X180733Y258966D01*
X186664Y258966D01*
X189630Y261932D01*
X189630Y264898D01*
X186664Y267864D01*
X177767Y267864D01*
D11*
X39890Y115670D02*
X39890Y113170D01*
X39890Y110670D01*
X39890Y113170D02*
X44890Y115670D01*
X44890Y110670D02*
X39890Y113170D01*
X44890Y110670D02*
X44890Y115670D01*
X54890Y118170D02*
X54890Y108170D01*
X29890Y108170D01*
X29890Y118170D01*
X54890Y118170D01*
D123*
X22517Y119915D02*
X22517Y129321D01*
X22517Y119915D02*
X27220Y119915D01*
X28788Y121483D01*
X28788Y127753D01*
X27220Y129321D01*
X22517Y129321D01*
X31872Y126186D02*
X35008Y129321D01*
X35008Y119915D01*
X38143Y119915D02*
X31872Y119915D01*
X283518Y122957D02*
X283518Y113551D01*
X283518Y122957D02*
X289789Y122957D01*
X286653Y118254D02*
X283518Y118254D01*
X292873Y113551D02*
X292873Y122957D01*
X297576Y122957D01*
X299144Y121389D01*
X299144Y119822D01*
X297576Y118254D01*
X299144Y116686D01*
X299144Y115119D01*
X297576Y113551D01*
X292873Y113551D01*
X292873Y118254D02*
X297576Y118254D01*
X302228Y119822D02*
X305364Y122957D01*
X305364Y113551D01*
X308499Y113551D02*
X302228Y113551D01*
X39977Y154317D02*
X39977Y163723D01*
X44680Y163723D01*
X46248Y162155D01*
X46248Y159020D01*
X44680Y157452D01*
X39977Y157452D01*
X43112Y157452D02*
X46248Y154317D01*
X49332Y160588D02*
X52468Y163723D01*
X52468Y154317D01*
X55603Y154317D02*
X49332Y154317D01*
D10*
X72113Y222390D02*
X72113Y240185D01*
X72113Y222390D02*
X81011Y222390D01*
X83977Y225356D01*
X83977Y237219D01*
X81011Y240185D01*
X72113Y240185D01*
X111486Y244249D02*
X114451Y241283D01*
X111486Y244249D02*
X105554Y244249D01*
X102588Y241283D01*
X102588Y229420D01*
X105554Y226454D01*
X111486Y226454D01*
X114451Y229420D01*
X260576Y230010D02*
X260576Y247805D01*
X269474Y247805D01*
X272439Y244839D01*
X272439Y241873D01*
X269474Y238908D01*
X272439Y235942D01*
X272439Y232976D01*
X269474Y230010D01*
X260576Y230010D01*
X260576Y238908D02*
X269474Y238908D01*
X306042Y183543D02*
X306042Y165748D01*
X306042Y183543D02*
X314940Y183543D01*
X317905Y180577D01*
X317905Y174646D01*
X314940Y171680D01*
X306042Y171680D01*
X311974Y171680D02*
X317905Y165748D01*
D124*
X259800Y300000D02*
X86600Y300000D01*
X86600Y0D02*
X259800Y0D01*
X0Y150000D02*
X86600Y300000D01*
X259800Y300000D02*
X346400Y150000D01*
X259800Y0D01*
X86600Y0D02*
X0Y150000D01*
D125*
X166850Y150000D02*
X166852Y150159D01*
X166858Y150318D01*
X166868Y150476D01*
X166882Y150635D01*
X166900Y150793D01*
X166921Y150950D01*
X166947Y151107D01*
X166977Y151263D01*
X167010Y151419D01*
X167048Y151573D01*
X167089Y151727D01*
X167134Y151879D01*
X167183Y152030D01*
X167236Y152180D01*
X167292Y152329D01*
X167353Y152476D01*
X167416Y152621D01*
X167484Y152765D01*
X167555Y152908D01*
X167629Y153048D01*
X167707Y153186D01*
X167789Y153323D01*
X167874Y153457D01*
X167962Y153590D01*
X168053Y153720D01*
X168148Y153847D01*
X168246Y153972D01*
X168347Y154095D01*
X168451Y154215D01*
X168558Y154333D01*
X168668Y154448D01*
X168781Y154560D01*
X168896Y154669D01*
X169014Y154775D01*
X169135Y154879D01*
X169259Y154979D01*
X169384Y155076D01*
X169513Y155170D01*
X169643Y155260D01*
X169776Y155348D01*
X169911Y155432D01*
X170048Y155512D01*
X170187Y155590D01*
X170328Y155663D01*
X170470Y155733D01*
X170615Y155800D01*
X170761Y155863D01*
X170908Y155922D01*
X171057Y155978D01*
X171208Y156029D01*
X171359Y156077D01*
X171512Y156121D01*
X171666Y156162D01*
X171820Y156198D01*
X171976Y156231D01*
X172132Y156260D01*
X172289Y156284D01*
X172447Y156305D01*
X172605Y156322D01*
X172763Y156335D01*
X172922Y156344D01*
X173081Y156349D01*
X173240Y156350D01*
X173399Y156347D01*
X173557Y156340D01*
X173716Y156329D01*
X173874Y156314D01*
X174032Y156295D01*
X174189Y156272D01*
X174346Y156246D01*
X174502Y156215D01*
X174657Y156181D01*
X174811Y156142D01*
X174965Y156100D01*
X175117Y156054D01*
X175268Y156004D01*
X175417Y155950D01*
X175566Y155893D01*
X175712Y155832D01*
X175858Y155767D01*
X176001Y155699D01*
X176143Y155627D01*
X176283Y155551D01*
X176421Y155473D01*
X176557Y155390D01*
X176691Y155305D01*
X176822Y155216D01*
X176952Y155123D01*
X177079Y155028D01*
X177203Y154929D01*
X177326Y154827D01*
X177445Y154723D01*
X177562Y154615D01*
X177676Y154504D01*
X177787Y154391D01*
X177896Y154275D01*
X178001Y154156D01*
X178104Y154034D01*
X178203Y153910D01*
X178300Y153784D01*
X178393Y153655D01*
X178483Y153524D01*
X178569Y153390D01*
X178652Y153255D01*
X178732Y153117D01*
X178808Y152978D01*
X178881Y152837D01*
X178950Y152694D01*
X179016Y152549D01*
X179078Y152402D01*
X179136Y152255D01*
X179191Y152105D01*
X179242Y151955D01*
X179289Y151803D01*
X179332Y151650D01*
X179371Y151496D01*
X179407Y151341D01*
X179438Y151185D01*
X179466Y151029D01*
X179490Y150872D01*
X179510Y150714D01*
X179526Y150556D01*
X179538Y150397D01*
X179546Y150238D01*
X179550Y150079D01*
X179550Y149921D01*
X179546Y149762D01*
X179538Y149603D01*
X179526Y149444D01*
X179510Y149286D01*
X179490Y149128D01*
X179466Y148971D01*
X179438Y148815D01*
X179407Y148659D01*
X179371Y148504D01*
X179332Y148350D01*
X179289Y148197D01*
X179242Y148045D01*
X179191Y147895D01*
X179136Y147745D01*
X179078Y147598D01*
X179016Y147451D01*
X178950Y147306D01*
X178881Y147163D01*
X178808Y147022D01*
X178732Y146883D01*
X178652Y146745D01*
X178569Y146610D01*
X178483Y146476D01*
X178393Y146345D01*
X178300Y146216D01*
X178203Y146090D01*
X178104Y145966D01*
X178001Y145844D01*
X177896Y145725D01*
X177787Y145609D01*
X177676Y145496D01*
X177562Y145385D01*
X177445Y145277D01*
X177326Y145173D01*
X177203Y145071D01*
X177079Y144972D01*
X176952Y144877D01*
X176822Y144784D01*
X176691Y144695D01*
X176557Y144610D01*
X176421Y144527D01*
X176283Y144449D01*
X176143Y144373D01*
X176001Y144301D01*
X175858Y144233D01*
X175712Y144168D01*
X175566Y144107D01*
X175417Y144050D01*
X175268Y143996D01*
X175117Y143946D01*
X174965Y143900D01*
X174811Y143858D01*
X174657Y143819D01*
X174502Y143785D01*
X174346Y143754D01*
X174189Y143728D01*
X174032Y143705D01*
X173874Y143686D01*
X173716Y143671D01*
X173557Y143660D01*
X173399Y143653D01*
X173240Y143650D01*
X173081Y143651D01*
X172922Y143656D01*
X172763Y143665D01*
X172605Y143678D01*
X172447Y143695D01*
X172289Y143716D01*
X172132Y143740D01*
X171976Y143769D01*
X171820Y143802D01*
X171666Y143838D01*
X171512Y143879D01*
X171359Y143923D01*
X171208Y143971D01*
X171057Y144022D01*
X170908Y144078D01*
X170761Y144137D01*
X170615Y144200D01*
X170470Y144267D01*
X170328Y144337D01*
X170187Y144410D01*
X170048Y144488D01*
X169911Y144568D01*
X169776Y144652D01*
X169643Y144740D01*
X169513Y144830D01*
X169384Y144924D01*
X169259Y145021D01*
X169135Y145121D01*
X169014Y145225D01*
X168896Y145331D01*
X168781Y145440D01*
X168668Y145552D01*
X168558Y145667D01*
X168451Y145785D01*
X168347Y145905D01*
X168246Y146028D01*
X168148Y146153D01*
X168053Y146280D01*
X167962Y146410D01*
X167874Y146543D01*
X167789Y146677D01*
X167707Y146814D01*
X167629Y146952D01*
X167555Y147092D01*
X167484Y147235D01*
X167416Y147379D01*
X167353Y147524D01*
X167292Y147671D01*
X167236Y147820D01*
X167183Y147970D01*
X167134Y148121D01*
X167089Y148273D01*
X167048Y148427D01*
X167010Y148581D01*
X166977Y148737D01*
X166947Y148893D01*
X166921Y149050D01*
X166900Y149207D01*
X166882Y149365D01*
X166868Y149524D01*
X166858Y149682D01*
X166852Y149841D01*
X166850Y150000D01*
X117320Y289700D02*
X229080Y289700D01*
X221460Y35700D02*
X124940Y35700D01*
X221460Y35700D02*
X221460Y61100D01*
X124940Y61100D02*
X124940Y35700D01*
X221460Y61100D02*
X249400Y61100D01*
X124940Y61100D02*
X97000Y61100D01*
X268450Y109360D02*
X268450Y190640D01*
X249400Y190640D01*
X249400Y109360D02*
X268450Y109360D01*
X229080Y219850D02*
X229080Y289700D01*
X117320Y289700D02*
X117320Y219850D01*
X97000Y198260D02*
X61440Y198260D01*
X61440Y101740D02*
X97000Y101740D01*
X61440Y101740D02*
X61440Y198260D01*
D123*
X132687Y29485D02*
X132687Y21647D01*
X134255Y20079D01*
X137390Y20079D01*
X138958Y21647D01*
X138958Y29485D01*
X142042Y20079D02*
X148313Y20079D01*
X142042Y20079D02*
X148313Y26350D01*
X148313Y27917D01*
X146745Y29485D01*
X143610Y29485D01*
X142042Y27917D01*
M02*
