G04 EAGLE Gerber RS-274X export*
G75*
%MOMM*%
%FSLAX34Y34*%
%LPD*%
%INSolderpaste Bottom*%
%IPPOS*%
%AMOC8*
5,1,8,0,0,1.08239X$1,22.5*%
G01*
%ADD10R,1.000000X1.100000*%
%ADD11R,1.500000X1.300000*%
%ADD12C,0.124994*%
%ADD13R,5.699988X5.699988*%
%ADD14R,1.399997X0.400000*%
%ADD15R,1.100000X1.000000*%


D10*
X255659Y172488D03*
X255659Y189488D03*
D11*
X256336Y119038D03*
X256336Y138038D03*
D12*
X204825Y176875D02*
X204825Y178125D01*
X210575Y178125D01*
X210575Y176875D01*
X204825Y176875D01*
X204825Y178062D02*
X210575Y178062D01*
X204825Y173125D02*
X204825Y171875D01*
X204825Y173125D02*
X210575Y173125D01*
X210575Y171875D01*
X204825Y171875D01*
X204825Y173062D02*
X210575Y173062D01*
X204825Y168125D02*
X204825Y166875D01*
X204825Y168125D02*
X210575Y168125D01*
X210575Y166875D01*
X204825Y166875D01*
X204825Y168062D02*
X210575Y168062D01*
X204825Y163125D02*
X204825Y161875D01*
X204825Y163125D02*
X210575Y163125D01*
X210575Y161875D01*
X204825Y161875D01*
X204825Y163062D02*
X210575Y163062D01*
X204825Y158125D02*
X204825Y156875D01*
X204825Y158125D02*
X210575Y158125D01*
X210575Y156875D01*
X204825Y156875D01*
X204825Y158062D02*
X210575Y158062D01*
X204825Y153125D02*
X204825Y151875D01*
X204825Y153125D02*
X210575Y153125D01*
X210575Y151875D01*
X204825Y151875D01*
X204825Y153062D02*
X210575Y153062D01*
X204825Y148125D02*
X204825Y146875D01*
X204825Y148125D02*
X210575Y148125D01*
X210575Y146875D01*
X204825Y146875D01*
X204825Y148062D02*
X210575Y148062D01*
X204825Y143125D02*
X204825Y141875D01*
X204825Y143125D02*
X210575Y143125D01*
X210575Y141875D01*
X204825Y141875D01*
X204825Y143062D02*
X210575Y143062D01*
X204825Y138125D02*
X204825Y136875D01*
X204825Y138125D02*
X210575Y138125D01*
X210575Y136875D01*
X204825Y136875D01*
X204825Y138062D02*
X210575Y138062D01*
X204825Y133125D02*
X204825Y131875D01*
X204825Y133125D02*
X210575Y133125D01*
X210575Y131875D01*
X204825Y131875D01*
X204825Y133062D02*
X210575Y133062D01*
X204825Y128125D02*
X204825Y126875D01*
X204825Y128125D02*
X210575Y128125D01*
X210575Y126875D01*
X204825Y126875D01*
X204825Y128062D02*
X210575Y128062D01*
X204825Y123125D02*
X204825Y121875D01*
X204825Y123125D02*
X210575Y123125D01*
X210575Y121875D01*
X204825Y121875D01*
X204825Y123062D02*
X210575Y123062D01*
X201325Y118375D02*
X200075Y118375D01*
X201325Y118375D02*
X201325Y112625D01*
X200075Y112625D01*
X200075Y118375D01*
X200075Y113812D02*
X201325Y113812D01*
X201325Y114999D02*
X200075Y114999D01*
X200075Y116186D02*
X201325Y116186D01*
X201325Y117373D02*
X200075Y117373D01*
X196325Y118375D02*
X195075Y118375D01*
X196325Y118375D02*
X196325Y112625D01*
X195075Y112625D01*
X195075Y118375D01*
X195075Y113812D02*
X196325Y113812D01*
X196325Y114999D02*
X195075Y114999D01*
X195075Y116186D02*
X196325Y116186D01*
X196325Y117373D02*
X195075Y117373D01*
X191325Y118375D02*
X190075Y118375D01*
X191325Y118375D02*
X191325Y112625D01*
X190075Y112625D01*
X190075Y118375D01*
X190075Y113812D02*
X191325Y113812D01*
X191325Y114999D02*
X190075Y114999D01*
X190075Y116186D02*
X191325Y116186D01*
X191325Y117373D02*
X190075Y117373D01*
X186325Y118375D02*
X185075Y118375D01*
X186325Y118375D02*
X186325Y112625D01*
X185075Y112625D01*
X185075Y118375D01*
X185075Y113812D02*
X186325Y113812D01*
X186325Y114999D02*
X185075Y114999D01*
X185075Y116186D02*
X186325Y116186D01*
X186325Y117373D02*
X185075Y117373D01*
X181325Y118375D02*
X180075Y118375D01*
X181325Y118375D02*
X181325Y112625D01*
X180075Y112625D01*
X180075Y118375D01*
X180075Y113812D02*
X181325Y113812D01*
X181325Y114999D02*
X180075Y114999D01*
X180075Y116186D02*
X181325Y116186D01*
X181325Y117373D02*
X180075Y117373D01*
X176325Y118375D02*
X175075Y118375D01*
X176325Y118375D02*
X176325Y112625D01*
X175075Y112625D01*
X175075Y118375D01*
X175075Y113812D02*
X176325Y113812D01*
X176325Y114999D02*
X175075Y114999D01*
X175075Y116186D02*
X176325Y116186D01*
X176325Y117373D02*
X175075Y117373D01*
X171325Y118375D02*
X170075Y118375D01*
X171325Y118375D02*
X171325Y112625D01*
X170075Y112625D01*
X170075Y118375D01*
X170075Y113812D02*
X171325Y113812D01*
X171325Y114999D02*
X170075Y114999D01*
X170075Y116186D02*
X171325Y116186D01*
X171325Y117373D02*
X170075Y117373D01*
X166325Y118375D02*
X165075Y118375D01*
X166325Y118375D02*
X166325Y112625D01*
X165075Y112625D01*
X165075Y118375D01*
X165075Y113812D02*
X166325Y113812D01*
X166325Y114999D02*
X165075Y114999D01*
X165075Y116186D02*
X166325Y116186D01*
X166325Y117373D02*
X165075Y117373D01*
X161325Y118375D02*
X160075Y118375D01*
X161325Y118375D02*
X161325Y112625D01*
X160075Y112625D01*
X160075Y118375D01*
X160075Y113812D02*
X161325Y113812D01*
X161325Y114999D02*
X160075Y114999D01*
X160075Y116186D02*
X161325Y116186D01*
X161325Y117373D02*
X160075Y117373D01*
X156325Y118375D02*
X155075Y118375D01*
X156325Y118375D02*
X156325Y112625D01*
X155075Y112625D01*
X155075Y118375D01*
X155075Y113812D02*
X156325Y113812D01*
X156325Y114999D02*
X155075Y114999D01*
X155075Y116186D02*
X156325Y116186D01*
X156325Y117373D02*
X155075Y117373D01*
X151325Y118375D02*
X150075Y118375D01*
X151325Y118375D02*
X151325Y112625D01*
X150075Y112625D01*
X150075Y118375D01*
X150075Y113812D02*
X151325Y113812D01*
X151325Y114999D02*
X150075Y114999D01*
X150075Y116186D02*
X151325Y116186D01*
X151325Y117373D02*
X150075Y117373D01*
X146325Y118375D02*
X145075Y118375D01*
X146325Y118375D02*
X146325Y112625D01*
X145075Y112625D01*
X145075Y118375D01*
X145075Y113812D02*
X146325Y113812D01*
X146325Y114999D02*
X145075Y114999D01*
X145075Y116186D02*
X146325Y116186D01*
X146325Y117373D02*
X145075Y117373D01*
X141575Y121875D02*
X141575Y123125D01*
X141575Y121875D02*
X135825Y121875D01*
X135825Y123125D01*
X141575Y123125D01*
X141575Y123062D02*
X135825Y123062D01*
X141575Y126875D02*
X141575Y128125D01*
X141575Y126875D02*
X135825Y126875D01*
X135825Y128125D01*
X141575Y128125D01*
X141575Y128062D02*
X135825Y128062D01*
X141575Y131875D02*
X141575Y133125D01*
X141575Y131875D02*
X135825Y131875D01*
X135825Y133125D01*
X141575Y133125D01*
X141575Y133062D02*
X135825Y133062D01*
X141575Y136875D02*
X141575Y138125D01*
X141575Y136875D02*
X135825Y136875D01*
X135825Y138125D01*
X141575Y138125D01*
X141575Y138062D02*
X135825Y138062D01*
X141575Y141875D02*
X141575Y143125D01*
X141575Y141875D02*
X135825Y141875D01*
X135825Y143125D01*
X141575Y143125D01*
X141575Y143062D02*
X135825Y143062D01*
X141575Y146875D02*
X141575Y148125D01*
X141575Y146875D02*
X135825Y146875D01*
X135825Y148125D01*
X141575Y148125D01*
X141575Y148062D02*
X135825Y148062D01*
X141575Y151875D02*
X141575Y153125D01*
X141575Y151875D02*
X135825Y151875D01*
X135825Y153125D01*
X141575Y153125D01*
X141575Y153062D02*
X135825Y153062D01*
X141575Y156875D02*
X141575Y158125D01*
X141575Y156875D02*
X135825Y156875D01*
X135825Y158125D01*
X141575Y158125D01*
X141575Y158062D02*
X135825Y158062D01*
X141575Y161875D02*
X141575Y163125D01*
X141575Y161875D02*
X135825Y161875D01*
X135825Y163125D01*
X141575Y163125D01*
X141575Y163062D02*
X135825Y163062D01*
X141575Y166875D02*
X141575Y168125D01*
X141575Y166875D02*
X135825Y166875D01*
X135825Y168125D01*
X141575Y168125D01*
X141575Y168062D02*
X135825Y168062D01*
X141575Y171875D02*
X141575Y173125D01*
X141575Y171875D02*
X135825Y171875D01*
X135825Y173125D01*
X141575Y173125D01*
X141575Y173062D02*
X135825Y173062D01*
X141575Y176875D02*
X141575Y178125D01*
X141575Y176875D02*
X135825Y176875D01*
X135825Y178125D01*
X141575Y178125D01*
X141575Y178062D02*
X135825Y178062D01*
X145075Y181625D02*
X146325Y181625D01*
X145075Y181625D02*
X145075Y187375D01*
X146325Y187375D01*
X146325Y181625D01*
X146325Y182812D02*
X145075Y182812D01*
X145075Y183999D02*
X146325Y183999D01*
X146325Y185186D02*
X145075Y185186D01*
X145075Y186373D02*
X146325Y186373D01*
X150075Y181625D02*
X151325Y181625D01*
X150075Y181625D02*
X150075Y187375D01*
X151325Y187375D01*
X151325Y181625D01*
X151325Y182812D02*
X150075Y182812D01*
X150075Y183999D02*
X151325Y183999D01*
X151325Y185186D02*
X150075Y185186D01*
X150075Y186373D02*
X151325Y186373D01*
X155075Y181625D02*
X156325Y181625D01*
X155075Y181625D02*
X155075Y187375D01*
X156325Y187375D01*
X156325Y181625D01*
X156325Y182812D02*
X155075Y182812D01*
X155075Y183999D02*
X156325Y183999D01*
X156325Y185186D02*
X155075Y185186D01*
X155075Y186373D02*
X156325Y186373D01*
X160075Y181625D02*
X161325Y181625D01*
X160075Y181625D02*
X160075Y187375D01*
X161325Y187375D01*
X161325Y181625D01*
X161325Y182812D02*
X160075Y182812D01*
X160075Y183999D02*
X161325Y183999D01*
X161325Y185186D02*
X160075Y185186D01*
X160075Y186373D02*
X161325Y186373D01*
X165075Y181625D02*
X166325Y181625D01*
X165075Y181625D02*
X165075Y187375D01*
X166325Y187375D01*
X166325Y181625D01*
X166325Y182812D02*
X165075Y182812D01*
X165075Y183999D02*
X166325Y183999D01*
X166325Y185186D02*
X165075Y185186D01*
X165075Y186373D02*
X166325Y186373D01*
X170075Y181625D02*
X171325Y181625D01*
X170075Y181625D02*
X170075Y187375D01*
X171325Y187375D01*
X171325Y181625D01*
X171325Y182812D02*
X170075Y182812D01*
X170075Y183999D02*
X171325Y183999D01*
X171325Y185186D02*
X170075Y185186D01*
X170075Y186373D02*
X171325Y186373D01*
X175075Y181625D02*
X176325Y181625D01*
X175075Y181625D02*
X175075Y187375D01*
X176325Y187375D01*
X176325Y181625D01*
X176325Y182812D02*
X175075Y182812D01*
X175075Y183999D02*
X176325Y183999D01*
X176325Y185186D02*
X175075Y185186D01*
X175075Y186373D02*
X176325Y186373D01*
X180075Y181625D02*
X181325Y181625D01*
X180075Y181625D02*
X180075Y187375D01*
X181325Y187375D01*
X181325Y181625D01*
X181325Y182812D02*
X180075Y182812D01*
X180075Y183999D02*
X181325Y183999D01*
X181325Y185186D02*
X180075Y185186D01*
X180075Y186373D02*
X181325Y186373D01*
X185075Y181625D02*
X186325Y181625D01*
X185075Y181625D02*
X185075Y187375D01*
X186325Y187375D01*
X186325Y181625D01*
X186325Y182812D02*
X185075Y182812D01*
X185075Y183999D02*
X186325Y183999D01*
X186325Y185186D02*
X185075Y185186D01*
X185075Y186373D02*
X186325Y186373D01*
X190075Y181625D02*
X191325Y181625D01*
X190075Y181625D02*
X190075Y187375D01*
X191325Y187375D01*
X191325Y181625D01*
X191325Y182812D02*
X190075Y182812D01*
X190075Y183999D02*
X191325Y183999D01*
X191325Y185186D02*
X190075Y185186D01*
X190075Y186373D02*
X191325Y186373D01*
X195075Y181625D02*
X196325Y181625D01*
X195075Y181625D02*
X195075Y187375D01*
X196325Y187375D01*
X196325Y181625D01*
X196325Y182812D02*
X195075Y182812D01*
X195075Y183999D02*
X196325Y183999D01*
X196325Y185186D02*
X195075Y185186D01*
X195075Y186373D02*
X196325Y186373D01*
X200075Y181625D02*
X201325Y181625D01*
X200075Y181625D02*
X200075Y187375D01*
X201325Y187375D01*
X201325Y181625D01*
X201325Y182812D02*
X200075Y182812D01*
X200075Y183999D02*
X201325Y183999D01*
X201325Y185186D02*
X200075Y185186D01*
X200075Y186373D02*
X201325Y186373D01*
D13*
X173200Y150000D03*
D14*
X229774Y173430D03*
X229774Y161430D03*
X229774Y149430D03*
D10*
X217860Y256680D03*
X234860Y256680D03*
D11*
X104112Y193851D03*
X104112Y174851D03*
X96492Y126480D03*
X96492Y107480D03*
D10*
X235684Y117524D03*
X235684Y134524D03*
X124432Y193806D03*
X124432Y176806D03*
X118336Y125226D03*
X118336Y108226D03*
D15*
X201258Y206642D03*
X184258Y206642D03*
X221850Y194958D03*
X238850Y194958D03*
X276578Y164088D03*
X276578Y147088D03*
X141822Y255410D03*
X124822Y255410D03*
M02*
