G04 EAGLE Gerber RS-274X export*
G75*
%MOMM*%
%FSLAX34Y34*%
%LPD*%
%INSoldermask Bottom*%
%IPPOS*%
%AMOC8*
5,1,8,0,0,1.08239X$1,22.5*%
G01*
%ADD10R,1.101600X1.201600*%
%ADD11R,1.601600X1.401600*%
%ADD12C,0.225016*%
%ADD13R,5.801588X5.801588*%
%ADD14R,1.501597X0.501600*%
%ADD15R,1.201600X1.101600*%
%ADD16C,0.605878*%
%ADD17C,1.101597*%
%ADD18C,1.879600*%
%ADD19C,2.387600*%

G36*
X191682Y-498D02*
X191682Y-498D01*
X191776Y-486D01*
X191792Y-478D01*
X191810Y-475D01*
X191891Y-427D01*
X191975Y-384D01*
X191988Y-370D01*
X192004Y-361D01*
X192063Y-288D01*
X192127Y-218D01*
X192134Y-201D01*
X192145Y-187D01*
X192175Y-98D01*
X192211Y-10D01*
X192212Y10D01*
X192217Y26D01*
X192216Y76D01*
X192222Y177D01*
X191932Y3397D01*
X191925Y3421D01*
X191925Y3422D01*
X191925Y3423D01*
X191921Y3436D01*
X191916Y3492D01*
X191446Y5402D01*
X191431Y5435D01*
X191420Y5483D01*
X190580Y7613D01*
X190571Y7628D01*
X190564Y7649D01*
X189824Y9229D01*
X189805Y9256D01*
X189787Y9297D01*
X188857Y10777D01*
X188836Y10801D01*
X188814Y10838D01*
X187744Y12168D01*
X187737Y12174D01*
X187731Y12183D01*
X186521Y13593D01*
X186487Y13621D01*
X186445Y13668D01*
X184515Y15268D01*
X184486Y15285D01*
X184452Y15314D01*
X181752Y17044D01*
X181707Y17063D01*
X181636Y17103D01*
X179536Y17903D01*
X179516Y17906D01*
X179494Y17917D01*
X177644Y18477D01*
X177607Y18481D01*
X177560Y18496D01*
X174730Y18946D01*
X174688Y18946D01*
X174630Y18954D01*
X172370Y18954D01*
X172347Y18950D01*
X172317Y18952D01*
X170527Y18802D01*
X170498Y18794D01*
X170459Y18793D01*
X168549Y18423D01*
X168514Y18409D01*
X168463Y18399D01*
X166613Y17759D01*
X166601Y17753D01*
X166584Y17749D01*
X164714Y16999D01*
X164684Y16980D01*
X164640Y16964D01*
X162960Y16024D01*
X162935Y16003D01*
X162896Y15982D01*
X161296Y14812D01*
X161275Y14790D01*
X161243Y14769D01*
X159543Y13219D01*
X159520Y13189D01*
X159482Y13155D01*
X157962Y11325D01*
X157948Y11300D01*
X157923Y11272D01*
X156613Y9312D01*
X156600Y9283D01*
X156575Y9248D01*
X155715Y7558D01*
X155703Y7520D01*
X155679Y7472D01*
X154809Y4882D01*
X154803Y4845D01*
X154787Y4798D01*
X154417Y2838D01*
X154416Y2805D01*
X154407Y2764D01*
X154403Y2700D01*
X154386Y2620D01*
X154367Y2534D01*
X154307Y1664D01*
X154308Y1661D01*
X154307Y1659D01*
X154217Y189D01*
X154227Y105D01*
X154229Y20D01*
X154240Y-6D01*
X154243Y-34D01*
X154282Y-109D01*
X154313Y-188D01*
X154332Y-209D01*
X154345Y-234D01*
X154407Y-291D01*
X154465Y-354D01*
X154490Y-367D01*
X154510Y-386D01*
X154589Y-418D01*
X154664Y-456D01*
X154695Y-461D01*
X154718Y-470D01*
X154768Y-472D01*
X154849Y-484D01*
X191589Y-514D01*
X191682Y-498D01*
G37*
G36*
X52324Y59082D02*
X52324Y59082D01*
X52404Y59090D01*
X52438Y59105D01*
X52466Y59111D01*
X52506Y59136D01*
X52575Y59168D01*
X53255Y59608D01*
X53261Y59614D01*
X53271Y59619D01*
X54961Y60789D01*
X54989Y60816D01*
X55034Y60847D01*
X56454Y62177D01*
X56474Y62205D01*
X56510Y62237D01*
X58280Y64387D01*
X58294Y64413D01*
X58320Y64442D01*
X59160Y65722D01*
X59165Y65734D01*
X59167Y65736D01*
X59171Y65748D01*
X59174Y65754D01*
X59200Y65793D01*
X59920Y67273D01*
X59924Y67285D01*
X59932Y67299D01*
X60662Y68989D01*
X60672Y69030D01*
X60695Y69085D01*
X61205Y71115D01*
X61207Y71141D01*
X61217Y71172D01*
X61577Y73472D01*
X61576Y73515D01*
X61584Y73577D01*
X61554Y76247D01*
X61548Y76280D01*
X61549Y76325D01*
X61259Y78465D01*
X61249Y78495D01*
X61245Y78536D01*
X60695Y80706D01*
X60679Y80740D01*
X60667Y80790D01*
X59617Y83360D01*
X59601Y83385D01*
X59588Y83422D01*
X58748Y84972D01*
X58723Y85004D01*
X58695Y85053D01*
X57405Y86753D01*
X57381Y86776D01*
X57356Y86811D01*
X55606Y88621D01*
X55578Y88641D01*
X55547Y88675D01*
X54027Y89895D01*
X54000Y89909D01*
X53969Y89936D01*
X52309Y90986D01*
X52277Y90999D01*
X52239Y91024D01*
X50169Y91994D01*
X50152Y91999D01*
X50133Y92010D01*
X48763Y92550D01*
X48727Y92557D01*
X48681Y92576D01*
X46801Y93036D01*
X46776Y93038D01*
X46746Y93047D01*
X45376Y93257D01*
X45358Y93256D01*
X45335Y93262D01*
X43845Y93392D01*
X43819Y93389D01*
X43786Y93394D01*
X42326Y93384D01*
X42302Y93380D01*
X42272Y93382D01*
X41082Y93272D01*
X41067Y93268D01*
X41048Y93268D01*
X39678Y93068D01*
X39651Y93058D01*
X39613Y93054D01*
X38363Y92734D01*
X38351Y92729D01*
X38335Y92727D01*
X36955Y92307D01*
X36932Y92295D01*
X36898Y92286D01*
X35468Y91696D01*
X35467Y91695D01*
X35465Y91695D01*
X33985Y91075D01*
X33892Y91015D01*
X33800Y90956D01*
X33798Y90954D01*
X33797Y90953D01*
X33731Y90865D01*
X33664Y90777D01*
X33664Y90775D01*
X33662Y90773D01*
X33632Y90668D01*
X33600Y90562D01*
X33600Y90560D01*
X33599Y90558D01*
X33607Y90449D01*
X33614Y90338D01*
X33615Y90336D01*
X33615Y90334D01*
X33661Y90234D01*
X33706Y90133D01*
X33707Y90132D01*
X33708Y90130D01*
X33723Y90115D01*
X51682Y59380D01*
X51734Y59319D01*
X51780Y59253D01*
X51807Y59234D01*
X51828Y59209D01*
X51898Y59170D01*
X51964Y59124D01*
X51995Y59116D01*
X52024Y59100D01*
X52103Y59088D01*
X52181Y59068D01*
X52213Y59071D01*
X52246Y59066D01*
X52324Y59082D01*
G37*
G36*
X294160Y58970D02*
X294160Y58970D01*
X294177Y58968D01*
X294269Y58994D01*
X294363Y59014D01*
X294377Y59023D01*
X294393Y59028D01*
X294471Y59083D01*
X294552Y59135D01*
X294563Y59150D01*
X294576Y59159D01*
X294603Y59200D01*
X294669Y59282D01*
X312579Y90152D01*
X312608Y90232D01*
X312644Y90309D01*
X312646Y90337D01*
X312655Y90363D01*
X312654Y90448D01*
X312661Y90533D01*
X312654Y90559D01*
X312653Y90587D01*
X312623Y90667D01*
X312600Y90749D01*
X312583Y90771D01*
X312574Y90797D01*
X312517Y90861D01*
X312467Y90930D01*
X312442Y90947D01*
X312426Y90966D01*
X312382Y90989D01*
X312314Y91037D01*
X310714Y91837D01*
X310685Y91846D01*
X310651Y91865D01*
X308871Y92525D01*
X308842Y92530D01*
X308806Y92545D01*
X306756Y93065D01*
X306731Y93067D01*
X306700Y93076D01*
X305000Y93346D01*
X304965Y93346D01*
X304918Y93354D01*
X303178Y93404D01*
X303157Y93401D01*
X303129Y93404D01*
X301489Y93324D01*
X301464Y93318D01*
X301432Y93318D01*
X299512Y93048D01*
X299483Y93039D01*
X299444Y93035D01*
X297284Y92485D01*
X297247Y92468D01*
X297192Y92454D01*
X294532Y91324D01*
X294492Y91298D01*
X294424Y91265D01*
X292314Y89835D01*
X292295Y89817D01*
X292266Y89799D01*
X290136Y88039D01*
X290106Y88004D01*
X290054Y87958D01*
X288334Y85908D01*
X288316Y85876D01*
X288284Y85839D01*
X286784Y83469D01*
X286769Y83431D01*
X286738Y83382D01*
X285938Y81532D01*
X285929Y81495D01*
X285908Y81447D01*
X285238Y78987D01*
X285236Y78968D01*
X285229Y78947D01*
X284939Y77527D01*
X284938Y77499D01*
X284929Y77463D01*
X284779Y75953D01*
X284781Y75922D01*
X284776Y75883D01*
X284796Y74173D01*
X284800Y74152D01*
X284798Y74127D01*
X284928Y72587D01*
X284934Y72566D01*
X284934Y72538D01*
X285204Y70888D01*
X285217Y70851D01*
X285225Y70798D01*
X285805Y68968D01*
X285813Y68954D01*
X285817Y68935D01*
X286317Y67615D01*
X286330Y67593D01*
X286341Y67560D01*
X286921Y66380D01*
X286931Y66367D01*
X286938Y66348D01*
X287548Y65268D01*
X287564Y65248D01*
X287579Y65218D01*
X288399Y64038D01*
X288411Y64026D01*
X288422Y64007D01*
X289322Y62867D01*
X289347Y62845D01*
X289374Y62809D01*
X290424Y61769D01*
X290434Y61762D01*
X290444Y61750D01*
X291634Y60670D01*
X291653Y60658D01*
X291674Y60637D01*
X292029Y60365D01*
X292029Y60364D01*
X292840Y59742D01*
X292859Y59723D01*
X293139Y59513D01*
X293183Y59491D01*
X293751Y59084D01*
X293837Y59043D01*
X293921Y58998D01*
X293938Y58995D01*
X293953Y58988D01*
X294049Y58980D01*
X294144Y58966D01*
X294160Y58970D01*
G37*
G36*
X107722Y-499D02*
X107722Y-499D01*
X107806Y-492D01*
X107832Y-480D01*
X107861Y-475D01*
X107933Y-432D01*
X108009Y-396D01*
X108029Y-375D01*
X108054Y-361D01*
X108107Y-295D01*
X108166Y-235D01*
X108177Y-209D01*
X108195Y-187D01*
X108222Y-107D01*
X108256Y-30D01*
X108259Y2D01*
X108267Y26D01*
X108266Y75D01*
X108273Y157D01*
X108163Y2047D01*
X108159Y2065D01*
X108159Y2089D01*
X107829Y4719D01*
X107819Y4752D01*
X107814Y4798D01*
X107314Y6738D01*
X107304Y6760D01*
X107298Y6791D01*
X106808Y8181D01*
X106801Y8194D01*
X106796Y8213D01*
X106336Y9323D01*
X106330Y9332D01*
X106326Y9345D01*
X105766Y10565D01*
X105751Y10587D01*
X105738Y10620D01*
X104968Y11940D01*
X104953Y11957D01*
X104940Y11983D01*
X103900Y13473D01*
X103880Y13493D01*
X103860Y13525D01*
X101880Y15815D01*
X101852Y15838D01*
X101820Y15875D01*
X100540Y17005D01*
X100523Y17015D01*
X100507Y17033D01*
X99167Y18063D01*
X99148Y18073D01*
X99128Y18091D01*
X97678Y19041D01*
X97652Y19052D01*
X97622Y19073D01*
X96062Y19883D01*
X96045Y19888D01*
X96026Y19900D01*
X94416Y20610D01*
X94397Y20615D01*
X94375Y20627D01*
X92655Y21247D01*
X92621Y21252D01*
X92578Y21269D01*
X90688Y21689D01*
X90663Y21690D01*
X90632Y21699D01*
X88192Y22019D01*
X88160Y22017D01*
X88116Y22024D01*
X86156Y22044D01*
X86145Y22042D01*
X86131Y22044D01*
X84771Y22004D01*
X84744Y21998D01*
X84707Y21999D01*
X83117Y21789D01*
X83091Y21781D01*
X83057Y21778D01*
X81027Y21308D01*
X81011Y21301D01*
X80988Y21298D01*
X79248Y20778D01*
X79220Y20763D01*
X79179Y20753D01*
X77109Y19863D01*
X77096Y19854D01*
X77076Y19847D01*
X75616Y19117D01*
X75610Y19112D01*
X75602Y19110D01*
X75452Y18998D01*
X75422Y18968D01*
X75366Y18889D01*
X75307Y18811D01*
X75302Y18797D01*
X75293Y18784D01*
X75269Y18690D01*
X75240Y18597D01*
X75241Y18582D01*
X75238Y18567D01*
X75248Y18470D01*
X75253Y18373D01*
X75259Y18357D01*
X75261Y18344D01*
X75282Y18300D01*
X75323Y18199D01*
X86113Y-191D01*
X86120Y-199D01*
X86123Y-208D01*
X86192Y-284D01*
X86259Y-361D01*
X86268Y-366D01*
X86275Y-374D01*
X86366Y-421D01*
X86455Y-470D01*
X86465Y-472D01*
X86474Y-476D01*
X86660Y-504D01*
X107640Y-514D01*
X107722Y-499D01*
G37*
G36*
X173907Y282021D02*
X173907Y282021D01*
X173951Y282020D01*
X176161Y282270D01*
X176187Y282278D01*
X176222Y282280D01*
X178002Y282660D01*
X178030Y282671D01*
X178070Y282678D01*
X179940Y283298D01*
X179966Y283312D01*
X180003Y283323D01*
X181453Y283983D01*
X181474Y283997D01*
X181505Y284009D01*
X183185Y284969D01*
X183214Y284993D01*
X183258Y285019D01*
X185168Y286499D01*
X185195Y286528D01*
X185239Y286562D01*
X186929Y288332D01*
X186947Y288359D01*
X186977Y288389D01*
X188237Y290069D01*
X188251Y290097D01*
X188277Y290130D01*
X189377Y292010D01*
X189391Y292046D01*
X189418Y292091D01*
X190248Y294131D01*
X190255Y294168D01*
X190275Y294217D01*
X190925Y296827D01*
X190927Y296855D01*
X190938Y296891D01*
X191198Y298731D01*
X191197Y298767D01*
X191204Y298814D01*
X191214Y299874D01*
X191203Y299942D01*
X191201Y300011D01*
X191184Y300052D01*
X191177Y300095D01*
X191142Y300155D01*
X191116Y300219D01*
X191086Y300251D01*
X191064Y300289D01*
X191011Y300334D01*
X190964Y300385D01*
X190925Y300405D01*
X190892Y300433D01*
X190826Y300455D01*
X190765Y300487D01*
X190715Y300494D01*
X190680Y300506D01*
X190638Y300506D01*
X190579Y300514D01*
X155759Y300474D01*
X155705Y300465D01*
X155651Y300465D01*
X155596Y300445D01*
X155539Y300434D01*
X155491Y300406D01*
X155440Y300388D01*
X155396Y300350D01*
X155345Y300320D01*
X155311Y300277D01*
X155269Y300242D01*
X155241Y300191D01*
X155204Y300146D01*
X155187Y300094D01*
X155160Y300046D01*
X155151Y299988D01*
X155133Y299933D01*
X155134Y299878D01*
X155126Y299824D01*
X155138Y299755D01*
X155139Y299709D01*
X155151Y299680D01*
X155156Y299652D01*
X155330Y298100D01*
X155334Y298085D01*
X155334Y298065D01*
X155774Y295435D01*
X155789Y295394D01*
X155801Y295332D01*
X156751Y292592D01*
X156774Y292551D01*
X156802Y292481D01*
X158182Y290111D01*
X158201Y290088D01*
X158219Y290054D01*
X159449Y288384D01*
X159476Y288358D01*
X159506Y288317D01*
X161036Y286747D01*
X161062Y286729D01*
X161091Y286697D01*
X162771Y285337D01*
X162791Y285326D01*
X162799Y285317D01*
X162815Y285309D01*
X162838Y285289D01*
X164908Y284019D01*
X164941Y284007D01*
X164980Y283981D01*
X166920Y283111D01*
X166956Y283103D01*
X167000Y283082D01*
X168860Y282532D01*
X168893Y282528D01*
X168935Y282515D01*
X171735Y282045D01*
X171776Y282045D01*
X171834Y282036D01*
X173874Y282016D01*
X173907Y282021D01*
G37*
G36*
X259753Y-482D02*
X259753Y-482D01*
X259765Y-484D01*
X259863Y-462D01*
X259961Y-445D01*
X259972Y-438D01*
X259984Y-435D01*
X260068Y-381D01*
X260154Y-330D01*
X260162Y-321D01*
X260173Y-314D01*
X260289Y-167D01*
X270759Y17993D01*
X270783Y18060D01*
X270816Y18123D01*
X270821Y18165D01*
X270835Y18204D01*
X270835Y18275D01*
X270843Y18346D01*
X270833Y18387D01*
X270833Y18429D01*
X270808Y18495D01*
X270791Y18564D01*
X270768Y18599D01*
X270753Y18638D01*
X270706Y18692D01*
X270666Y18750D01*
X270628Y18780D01*
X270605Y18807D01*
X270567Y18827D01*
X270518Y18865D01*
X268788Y19825D01*
X268759Y19834D01*
X268725Y19855D01*
X266645Y20725D01*
X266612Y20732D01*
X266572Y20751D01*
X264512Y21331D01*
X264479Y21334D01*
X264437Y21347D01*
X262307Y21677D01*
X262291Y21676D01*
X262271Y21681D01*
X260721Y21831D01*
X260698Y21829D01*
X260670Y21834D01*
X258750Y21864D01*
X258720Y21859D01*
X258680Y21861D01*
X256900Y21691D01*
X256875Y21684D01*
X256841Y21683D01*
X255161Y21363D01*
X255146Y21357D01*
X255125Y21355D01*
X253175Y20865D01*
X253149Y20853D01*
X253113Y20846D01*
X251083Y20106D01*
X251057Y20091D01*
X251019Y20079D01*
X248809Y18989D01*
X248784Y18970D01*
X248746Y18953D01*
X246996Y17823D01*
X246976Y17804D01*
X246946Y17787D01*
X245586Y16707D01*
X245568Y16686D01*
X245539Y16666D01*
X244089Y15266D01*
X244075Y15246D01*
X244051Y15225D01*
X243081Y14105D01*
X243068Y14084D01*
X243046Y14061D01*
X241926Y12511D01*
X241917Y12494D01*
X241901Y12474D01*
X241181Y11314D01*
X241176Y11302D01*
X241166Y11289D01*
X240246Y9639D01*
X240238Y9617D01*
X240222Y9591D01*
X239512Y8021D01*
X239502Y7981D01*
X239478Y7927D01*
X238778Y5357D01*
X238777Y5339D01*
X238769Y5319D01*
X238449Y3779D01*
X238448Y3752D01*
X238439Y3719D01*
X238239Y1879D01*
X238241Y1864D01*
X238237Y1846D01*
X238157Y436D01*
X238159Y420D01*
X238156Y400D01*
X238156Y150D01*
X238167Y85D01*
X238169Y19D01*
X238187Y-24D01*
X238195Y-71D01*
X238229Y-128D01*
X238254Y-188D01*
X238285Y-223D01*
X238310Y-264D01*
X238361Y-306D01*
X238405Y-354D01*
X238447Y-376D01*
X238484Y-405D01*
X238546Y-426D01*
X238605Y-457D01*
X238659Y-465D01*
X238696Y-477D01*
X238736Y-476D01*
X238790Y-484D01*
X259740Y-484D01*
X259753Y-482D01*
G37*
G36*
X304211Y207306D02*
X304211Y207306D01*
X304231Y207310D01*
X304256Y207308D01*
X306046Y207468D01*
X306083Y207478D01*
X306134Y207482D01*
X308234Y207972D01*
X308268Y207987D01*
X308316Y207997D01*
X310516Y208837D01*
X310532Y208847D01*
X310554Y208853D01*
X311864Y209453D01*
X311941Y209507D01*
X312020Y209555D01*
X312032Y209570D01*
X312048Y209581D01*
X312102Y209658D01*
X312159Y209731D01*
X312165Y209750D01*
X312177Y209766D01*
X312200Y209856D01*
X312228Y209945D01*
X312228Y209964D01*
X312233Y209983D01*
X312223Y210076D01*
X312219Y210169D01*
X312211Y210189D01*
X312209Y210206D01*
X312187Y210251D01*
X312151Y210344D01*
X295201Y240134D01*
X295164Y240179D01*
X295135Y240229D01*
X295093Y240264D01*
X295058Y240306D01*
X295007Y240335D01*
X294962Y240372D01*
X294910Y240390D01*
X294863Y240417D01*
X294805Y240427D01*
X294750Y240446D01*
X294695Y240445D01*
X294642Y240454D01*
X294584Y240443D01*
X294526Y240442D01*
X294465Y240420D01*
X294421Y240412D01*
X294392Y240394D01*
X294349Y240378D01*
X294219Y240308D01*
X294201Y240294D01*
X294173Y240281D01*
X292673Y239301D01*
X292650Y239279D01*
X292613Y239256D01*
X290953Y237866D01*
X290932Y237841D01*
X290897Y237814D01*
X289537Y236364D01*
X289517Y236333D01*
X289482Y236296D01*
X288422Y234796D01*
X288413Y234777D01*
X288396Y234757D01*
X287506Y233277D01*
X287494Y233244D01*
X287469Y233204D01*
X286539Y231074D01*
X286530Y231039D01*
X286510Y230995D01*
X285810Y228555D01*
X285806Y228517D01*
X285792Y228467D01*
X285502Y226377D01*
X285503Y226339D01*
X285496Y226287D01*
X285506Y224197D01*
X285511Y224169D01*
X285510Y224131D01*
X285750Y221941D01*
X285759Y221909D01*
X285763Y221863D01*
X286243Y219843D01*
X286254Y219818D01*
X286261Y219782D01*
X286881Y217992D01*
X286899Y217960D01*
X286915Y217913D01*
X287805Y216163D01*
X287824Y216137D01*
X287842Y216099D01*
X288972Y214399D01*
X288997Y214372D01*
X289025Y214330D01*
X290835Y212280D01*
X290862Y212259D01*
X290892Y212223D01*
X292102Y211163D01*
X292119Y211153D01*
X292136Y211135D01*
X293306Y210245D01*
X293334Y210231D01*
X293367Y210204D01*
X294787Y209364D01*
X294814Y209354D01*
X294846Y209333D01*
X296246Y208693D01*
X296272Y208687D01*
X296301Y208671D01*
X298451Y207921D01*
X298484Y207916D01*
X298527Y207900D01*
X300577Y207460D01*
X300608Y207459D01*
X300649Y207449D01*
X302399Y207279D01*
X302430Y207281D01*
X302471Y207276D01*
X304211Y207306D01*
G37*
G36*
X45066Y207356D02*
X45066Y207356D01*
X45103Y207364D01*
X45155Y207366D01*
X47115Y207726D01*
X47142Y207736D01*
X47180Y207742D01*
X49040Y208292D01*
X49066Y208305D01*
X49103Y208314D01*
X51153Y209164D01*
X51180Y209182D01*
X51221Y209197D01*
X52981Y210187D01*
X53014Y210214D01*
X53068Y210246D01*
X54918Y211736D01*
X54931Y211751D01*
X54952Y211765D01*
X56082Y212815D01*
X56104Y212846D01*
X56143Y212881D01*
X57333Y214351D01*
X57347Y214377D01*
X57373Y214406D01*
X58623Y216346D01*
X58634Y216374D01*
X58657Y216405D01*
X59527Y218135D01*
X59536Y218166D01*
X59557Y218204D01*
X60287Y220224D01*
X60293Y220265D01*
X60313Y220321D01*
X60813Y222931D01*
X60813Y222960D01*
X60822Y222998D01*
X60992Y225048D01*
X60988Y225093D01*
X60991Y225161D01*
X60751Y227651D01*
X60744Y227678D01*
X60742Y227715D01*
X60322Y229805D01*
X60308Y229841D01*
X60297Y229895D01*
X59517Y232065D01*
X59498Y232098D01*
X59479Y232149D01*
X58539Y233909D01*
X58520Y233934D01*
X58502Y233971D01*
X57292Y235721D01*
X57279Y235734D01*
X57267Y235754D01*
X56427Y236814D01*
X56409Y236830D01*
X56391Y236856D01*
X55331Y237976D01*
X55306Y237994D01*
X55280Y238024D01*
X54030Y239084D01*
X54005Y239099D01*
X53977Y239124D01*
X52477Y240144D01*
X52381Y240187D01*
X52326Y240213D01*
X52094Y240363D01*
X52017Y240395D01*
X51943Y240434D01*
X51914Y240438D01*
X51887Y240449D01*
X51804Y240453D01*
X51721Y240464D01*
X51692Y240457D01*
X51663Y240458D01*
X51584Y240432D01*
X51502Y240414D01*
X51477Y240398D01*
X51450Y240389D01*
X51384Y240337D01*
X51314Y240291D01*
X51294Y240265D01*
X51274Y240249D01*
X51248Y240207D01*
X51199Y240143D01*
X34269Y210363D01*
X34239Y210280D01*
X34203Y210198D01*
X34202Y210174D01*
X34194Y210152D01*
X34195Y210063D01*
X34190Y209974D01*
X34197Y209952D01*
X34198Y209928D01*
X34230Y209845D01*
X34256Y209760D01*
X34271Y209741D01*
X34279Y209719D01*
X34338Y209652D01*
X34392Y209582D01*
X34414Y209567D01*
X34429Y209551D01*
X34473Y209527D01*
X34548Y209477D01*
X35348Y209097D01*
X35367Y209092D01*
X35389Y209079D01*
X37899Y208099D01*
X37932Y208093D01*
X37972Y208076D01*
X39802Y207606D01*
X39836Y207603D01*
X39881Y207591D01*
X41711Y207361D01*
X41734Y207362D01*
X41762Y207356D01*
X43332Y207286D01*
X43356Y207290D01*
X43386Y207286D01*
X45066Y207356D01*
G37*
G36*
X260038Y279301D02*
X260038Y279301D01*
X260078Y279298D01*
X262568Y279488D01*
X262599Y279496D01*
X262640Y279497D01*
X264710Y279897D01*
X264746Y279911D01*
X264797Y279921D01*
X267547Y280871D01*
X267579Y280888D01*
X267626Y280904D01*
X269926Y282064D01*
X269992Y282114D01*
X270063Y282157D01*
X270081Y282181D01*
X270105Y282199D01*
X270150Y282269D01*
X270201Y282334D01*
X270210Y282362D01*
X270226Y282387D01*
X270244Y282468D01*
X270269Y282548D01*
X270267Y282578D01*
X270274Y282607D01*
X270262Y282689D01*
X270258Y282772D01*
X270246Y282803D01*
X270242Y282829D01*
X270219Y282872D01*
X270190Y282946D01*
X260280Y300166D01*
X260272Y300176D01*
X260267Y300188D01*
X260200Y300261D01*
X260135Y300338D01*
X260124Y300344D01*
X260115Y300354D01*
X260027Y300399D01*
X259940Y300449D01*
X259927Y300451D01*
X259916Y300456D01*
X259731Y300484D01*
X239761Y300504D01*
X239668Y300488D01*
X239575Y300477D01*
X239559Y300468D01*
X239540Y300465D01*
X239459Y300417D01*
X239376Y300375D01*
X239363Y300361D01*
X239346Y300351D01*
X239287Y300278D01*
X239224Y300209D01*
X239217Y300192D01*
X239205Y300177D01*
X239175Y300088D01*
X239140Y300001D01*
X239138Y299980D01*
X239133Y299964D01*
X239134Y299914D01*
X239128Y299814D01*
X239180Y299231D01*
X239179Y299210D01*
X239219Y298790D01*
X239221Y298783D01*
X239399Y296968D01*
X239406Y296943D01*
X239407Y296909D01*
X239797Y294909D01*
X239808Y294882D01*
X239813Y294846D01*
X240523Y292506D01*
X240540Y292473D01*
X240555Y292423D01*
X241375Y290653D01*
X241382Y290643D01*
X241387Y290628D01*
X242307Y288858D01*
X242334Y288823D01*
X242363Y288769D01*
X243793Y286869D01*
X243805Y286858D01*
X243815Y286841D01*
X244725Y285761D01*
X244750Y285740D01*
X244777Y285706D01*
X246417Y284176D01*
X246433Y284166D01*
X246449Y284148D01*
X247799Y283048D01*
X247832Y283030D01*
X247873Y282997D01*
X249913Y281767D01*
X249937Y281757D01*
X249965Y281738D01*
X251505Y280998D01*
X251531Y280991D01*
X251561Y280975D01*
X253871Y280125D01*
X253901Y280120D01*
X253938Y280104D01*
X255758Y279654D01*
X255787Y279652D01*
X255823Y279642D01*
X257693Y279382D01*
X257721Y279383D01*
X257757Y279376D01*
X260007Y279296D01*
X260038Y279301D01*
G37*
G36*
X87787Y279321D02*
X87787Y279321D01*
X87831Y279320D01*
X89861Y279550D01*
X89883Y279556D01*
X89911Y279557D01*
X91611Y279887D01*
X91640Y279899D01*
X91682Y279906D01*
X94642Y280846D01*
X94682Y280867D01*
X94746Y280889D01*
X97036Y282099D01*
X97058Y282117D01*
X97091Y282132D01*
X99541Y283762D01*
X99573Y283792D01*
X99624Y283828D01*
X101934Y285998D01*
X101960Y286033D01*
X102006Y286077D01*
X103696Y288307D01*
X103709Y288334D01*
X103734Y288364D01*
X105054Y290564D01*
X105067Y290598D01*
X105094Y290642D01*
X106094Y292992D01*
X106102Y293030D01*
X106124Y293081D01*
X106814Y295751D01*
X106816Y295783D01*
X106828Y295824D01*
X107068Y297574D01*
X107068Y297592D01*
X107073Y297614D01*
X107233Y299834D01*
X107223Y299923D01*
X107221Y300011D01*
X107211Y300033D01*
X107209Y300058D01*
X107169Y300137D01*
X107136Y300219D01*
X107120Y300237D01*
X107109Y300258D01*
X107044Y300319D01*
X106984Y300384D01*
X106963Y300395D01*
X106945Y300412D01*
X106864Y300446D01*
X106785Y300487D01*
X106758Y300491D01*
X106739Y300499D01*
X106688Y300501D01*
X106599Y300514D01*
X86649Y300494D01*
X86635Y300492D01*
X86620Y300494D01*
X86524Y300472D01*
X86429Y300454D01*
X86416Y300447D01*
X86401Y300443D01*
X86319Y300390D01*
X86236Y300340D01*
X86226Y300328D01*
X86213Y300320D01*
X86098Y300172D01*
X76298Y282852D01*
X76279Y282798D01*
X76251Y282747D01*
X76242Y282693D01*
X76224Y282641D01*
X76225Y282583D01*
X76216Y282526D01*
X76227Y282472D01*
X76228Y282416D01*
X76249Y282363D01*
X76261Y282306D01*
X76290Y282259D01*
X76310Y282207D01*
X76349Y282164D01*
X76379Y282115D01*
X76430Y282073D01*
X76460Y282040D01*
X76489Y282025D01*
X76524Y281996D01*
X76724Y281876D01*
X76743Y281869D01*
X76763Y281854D01*
X77533Y281464D01*
X77557Y281457D01*
X77583Y281442D01*
X79543Y280652D01*
X79559Y280649D01*
X79576Y280639D01*
X81286Y280059D01*
X81312Y280056D01*
X81343Y280043D01*
X83573Y279513D01*
X83613Y279511D01*
X83668Y279498D01*
X85628Y279338D01*
X85649Y279340D01*
X85674Y279336D01*
X87754Y279316D01*
X87787Y279321D01*
G37*
G36*
X9870Y132513D02*
X9870Y132513D01*
X9962Y132526D01*
X9982Y132535D01*
X9999Y132539D01*
X10042Y132565D01*
X10130Y132608D01*
X11254Y133383D01*
X12637Y134289D01*
X12670Y134320D01*
X12723Y134357D01*
X14753Y136257D01*
X14780Y136293D01*
X14827Y136339D01*
X16247Y138229D01*
X16250Y138236D01*
X16257Y138242D01*
X17587Y140112D01*
X17607Y140155D01*
X17647Y140216D01*
X18677Y142466D01*
X18686Y142501D01*
X18707Y142547D01*
X19657Y145697D01*
X19661Y145731D01*
X19676Y145775D01*
X20056Y148045D01*
X20055Y148075D01*
X20063Y148113D01*
X20193Y150363D01*
X20188Y150402D01*
X20192Y150457D01*
X19922Y153437D01*
X19911Y153475D01*
X19907Y153528D01*
X19377Y155738D01*
X19359Y155778D01*
X19343Y155839D01*
X17923Y159169D01*
X17906Y159195D01*
X17891Y159235D01*
X16851Y161055D01*
X16824Y161087D01*
X16794Y161138D01*
X14734Y163698D01*
X14702Y163725D01*
X14663Y163772D01*
X13123Y165152D01*
X13107Y165162D01*
X13091Y165180D01*
X11351Y166540D01*
X11324Y166554D01*
X11295Y166579D01*
X10145Y167293D01*
X10122Y167319D01*
X10097Y167332D01*
X10077Y167351D01*
X9999Y167384D01*
X9924Y167424D01*
X9896Y167428D01*
X9870Y167439D01*
X9786Y167442D01*
X9702Y167454D01*
X9674Y167447D01*
X9646Y167449D01*
X9565Y167423D01*
X9483Y167404D01*
X9459Y167389D01*
X9432Y167380D01*
X9330Y167305D01*
X9295Y167282D01*
X9289Y167274D01*
X9282Y167268D01*
X9272Y167258D01*
X9257Y167237D01*
X9237Y167221D01*
X9207Y167170D01*
X9179Y167134D01*
X9151Y167086D01*
X9143Y167074D01*
X9142Y167070D01*
X-401Y150334D01*
X-404Y150326D01*
X-410Y150319D01*
X-442Y150220D01*
X-476Y150123D01*
X-476Y150114D01*
X-479Y150105D01*
X-474Y150001D01*
X-472Y149898D01*
X-469Y149890D01*
X-469Y149881D01*
X-401Y149706D01*
X9219Y132816D01*
X9278Y132745D01*
X9333Y132670D01*
X9350Y132659D01*
X9363Y132644D01*
X9443Y132598D01*
X9521Y132547D01*
X9540Y132542D01*
X9557Y132532D01*
X9649Y132517D01*
X9740Y132496D01*
X9759Y132499D01*
X9779Y132496D01*
X9870Y132513D01*
G37*
G36*
X336742Y132574D02*
X336742Y132574D01*
X336776Y132573D01*
X336851Y132599D01*
X336928Y132616D01*
X336956Y132635D01*
X336988Y132646D01*
X337049Y132696D01*
X337116Y132739D01*
X337139Y132769D01*
X337162Y132788D01*
X337186Y132829D01*
X337231Y132886D01*
X346801Y149706D01*
X346805Y149716D01*
X346811Y149724D01*
X346842Y149821D01*
X346876Y149918D01*
X346876Y149928D01*
X346879Y149937D01*
X346874Y150040D01*
X346872Y150142D01*
X346869Y150151D01*
X346868Y150161D01*
X346800Y150336D01*
X337140Y167146D01*
X337136Y167150D01*
X337135Y167154D01*
X337131Y167158D01*
X337127Y167167D01*
X337060Y167241D01*
X336995Y167318D01*
X336985Y167324D01*
X336976Y167333D01*
X336888Y167379D01*
X336800Y167428D01*
X336788Y167430D01*
X336777Y167436D01*
X336678Y167448D01*
X336579Y167464D01*
X336567Y167462D01*
X336554Y167463D01*
X336371Y167425D01*
X336181Y167355D01*
X336138Y167330D01*
X336044Y167285D01*
X334864Y166485D01*
X334858Y166479D01*
X334847Y166473D01*
X333607Y165573D01*
X333580Y165545D01*
X333537Y165514D01*
X331747Y163764D01*
X331730Y163740D01*
X331701Y163714D01*
X330211Y161914D01*
X330198Y161890D01*
X330174Y161864D01*
X328674Y159634D01*
X328656Y159594D01*
X328622Y159541D01*
X327652Y157391D01*
X327646Y157366D01*
X327631Y157338D01*
X326931Y155318D01*
X326924Y155278D01*
X326906Y155224D01*
X326516Y153084D01*
X326516Y153057D01*
X326508Y153023D01*
X326268Y150173D01*
X326271Y150143D01*
X326266Y150102D01*
X326336Y147612D01*
X326346Y147566D01*
X326351Y147491D01*
X327081Y144241D01*
X327095Y144209D01*
X327104Y144164D01*
X328054Y141544D01*
X328077Y141504D01*
X328104Y141438D01*
X329544Y138998D01*
X329565Y138973D01*
X329585Y138936D01*
X331165Y136856D01*
X331190Y136834D01*
X331216Y136797D01*
X332806Y135167D01*
X332833Y135148D01*
X332864Y135115D01*
X334414Y133875D01*
X334442Y133860D01*
X334474Y133832D01*
X336344Y132662D01*
X336417Y132633D01*
X336487Y132596D01*
X336520Y132591D01*
X336552Y132579D01*
X336631Y132577D01*
X336709Y132566D01*
X336742Y132574D01*
G37*
D10*
X255659Y172488D03*
X255659Y189488D03*
D11*
X256336Y119038D03*
X256336Y138038D03*
D12*
X204817Y176867D02*
X204817Y178133D01*
X210583Y178133D01*
X210583Y176867D01*
X204817Y176867D01*
X204817Y173133D02*
X204817Y171867D01*
X204817Y173133D02*
X210583Y173133D01*
X210583Y171867D01*
X204817Y171867D01*
X204817Y168133D02*
X204817Y166867D01*
X204817Y168133D02*
X210583Y168133D01*
X210583Y166867D01*
X204817Y166867D01*
X204817Y163133D02*
X204817Y161867D01*
X204817Y163133D02*
X210583Y163133D01*
X210583Y161867D01*
X204817Y161867D01*
X204817Y158133D02*
X204817Y156867D01*
X204817Y158133D02*
X210583Y158133D01*
X210583Y156867D01*
X204817Y156867D01*
X204817Y153133D02*
X204817Y151867D01*
X204817Y153133D02*
X210583Y153133D01*
X210583Y151867D01*
X204817Y151867D01*
X204817Y148133D02*
X204817Y146867D01*
X204817Y148133D02*
X210583Y148133D01*
X210583Y146867D01*
X204817Y146867D01*
X204817Y143133D02*
X204817Y141867D01*
X204817Y143133D02*
X210583Y143133D01*
X210583Y141867D01*
X204817Y141867D01*
X204817Y138133D02*
X204817Y136867D01*
X204817Y138133D02*
X210583Y138133D01*
X210583Y136867D01*
X204817Y136867D01*
X204817Y133133D02*
X204817Y131867D01*
X204817Y133133D02*
X210583Y133133D01*
X210583Y131867D01*
X204817Y131867D01*
X204817Y128133D02*
X204817Y126867D01*
X204817Y128133D02*
X210583Y128133D01*
X210583Y126867D01*
X204817Y126867D01*
X204817Y123133D02*
X204817Y121867D01*
X204817Y123133D02*
X210583Y123133D01*
X210583Y121867D01*
X204817Y121867D01*
X201333Y118383D02*
X200067Y118383D01*
X201333Y118383D02*
X201333Y112617D01*
X200067Y112617D01*
X200067Y118383D01*
X200067Y114754D02*
X201333Y114754D01*
X201333Y116891D02*
X200067Y116891D01*
X196333Y118383D02*
X195067Y118383D01*
X196333Y118383D02*
X196333Y112617D01*
X195067Y112617D01*
X195067Y118383D01*
X195067Y114754D02*
X196333Y114754D01*
X196333Y116891D02*
X195067Y116891D01*
X191333Y118383D02*
X190067Y118383D01*
X191333Y118383D02*
X191333Y112617D01*
X190067Y112617D01*
X190067Y118383D01*
X190067Y114754D02*
X191333Y114754D01*
X191333Y116891D02*
X190067Y116891D01*
X186333Y118383D02*
X185067Y118383D01*
X186333Y118383D02*
X186333Y112617D01*
X185067Y112617D01*
X185067Y118383D01*
X185067Y114754D02*
X186333Y114754D01*
X186333Y116891D02*
X185067Y116891D01*
X181333Y118383D02*
X180067Y118383D01*
X181333Y118383D02*
X181333Y112617D01*
X180067Y112617D01*
X180067Y118383D01*
X180067Y114754D02*
X181333Y114754D01*
X181333Y116891D02*
X180067Y116891D01*
X176333Y118383D02*
X175067Y118383D01*
X176333Y118383D02*
X176333Y112617D01*
X175067Y112617D01*
X175067Y118383D01*
X175067Y114754D02*
X176333Y114754D01*
X176333Y116891D02*
X175067Y116891D01*
X171333Y118383D02*
X170067Y118383D01*
X171333Y118383D02*
X171333Y112617D01*
X170067Y112617D01*
X170067Y118383D01*
X170067Y114754D02*
X171333Y114754D01*
X171333Y116891D02*
X170067Y116891D01*
X166333Y118383D02*
X165067Y118383D01*
X166333Y118383D02*
X166333Y112617D01*
X165067Y112617D01*
X165067Y118383D01*
X165067Y114754D02*
X166333Y114754D01*
X166333Y116891D02*
X165067Y116891D01*
X161333Y118383D02*
X160067Y118383D01*
X161333Y118383D02*
X161333Y112617D01*
X160067Y112617D01*
X160067Y118383D01*
X160067Y114754D02*
X161333Y114754D01*
X161333Y116891D02*
X160067Y116891D01*
X156333Y118383D02*
X155067Y118383D01*
X156333Y118383D02*
X156333Y112617D01*
X155067Y112617D01*
X155067Y118383D01*
X155067Y114754D02*
X156333Y114754D01*
X156333Y116891D02*
X155067Y116891D01*
X151333Y118383D02*
X150067Y118383D01*
X151333Y118383D02*
X151333Y112617D01*
X150067Y112617D01*
X150067Y118383D01*
X150067Y114754D02*
X151333Y114754D01*
X151333Y116891D02*
X150067Y116891D01*
X146333Y118383D02*
X145067Y118383D01*
X146333Y118383D02*
X146333Y112617D01*
X145067Y112617D01*
X145067Y118383D01*
X145067Y114754D02*
X146333Y114754D01*
X146333Y116891D02*
X145067Y116891D01*
X141583Y121867D02*
X141583Y123133D01*
X141583Y121867D02*
X135817Y121867D01*
X135817Y123133D01*
X141583Y123133D01*
X141583Y126867D02*
X141583Y128133D01*
X141583Y126867D02*
X135817Y126867D01*
X135817Y128133D01*
X141583Y128133D01*
X141583Y131867D02*
X141583Y133133D01*
X141583Y131867D02*
X135817Y131867D01*
X135817Y133133D01*
X141583Y133133D01*
X141583Y136867D02*
X141583Y138133D01*
X141583Y136867D02*
X135817Y136867D01*
X135817Y138133D01*
X141583Y138133D01*
X141583Y141867D02*
X141583Y143133D01*
X141583Y141867D02*
X135817Y141867D01*
X135817Y143133D01*
X141583Y143133D01*
X141583Y146867D02*
X141583Y148133D01*
X141583Y146867D02*
X135817Y146867D01*
X135817Y148133D01*
X141583Y148133D01*
X141583Y151867D02*
X141583Y153133D01*
X141583Y151867D02*
X135817Y151867D01*
X135817Y153133D01*
X141583Y153133D01*
X141583Y156867D02*
X141583Y158133D01*
X141583Y156867D02*
X135817Y156867D01*
X135817Y158133D01*
X141583Y158133D01*
X141583Y161867D02*
X141583Y163133D01*
X141583Y161867D02*
X135817Y161867D01*
X135817Y163133D01*
X141583Y163133D01*
X141583Y166867D02*
X141583Y168133D01*
X141583Y166867D02*
X135817Y166867D01*
X135817Y168133D01*
X141583Y168133D01*
X141583Y171867D02*
X141583Y173133D01*
X141583Y171867D02*
X135817Y171867D01*
X135817Y173133D01*
X141583Y173133D01*
X141583Y176867D02*
X141583Y178133D01*
X141583Y176867D02*
X135817Y176867D01*
X135817Y178133D01*
X141583Y178133D01*
X145067Y181617D02*
X146333Y181617D01*
X145067Y181617D02*
X145067Y187383D01*
X146333Y187383D01*
X146333Y181617D01*
X146333Y183754D02*
X145067Y183754D01*
X145067Y185891D02*
X146333Y185891D01*
X150067Y181617D02*
X151333Y181617D01*
X150067Y181617D02*
X150067Y187383D01*
X151333Y187383D01*
X151333Y181617D01*
X151333Y183754D02*
X150067Y183754D01*
X150067Y185891D02*
X151333Y185891D01*
X155067Y181617D02*
X156333Y181617D01*
X155067Y181617D02*
X155067Y187383D01*
X156333Y187383D01*
X156333Y181617D01*
X156333Y183754D02*
X155067Y183754D01*
X155067Y185891D02*
X156333Y185891D01*
X160067Y181617D02*
X161333Y181617D01*
X160067Y181617D02*
X160067Y187383D01*
X161333Y187383D01*
X161333Y181617D01*
X161333Y183754D02*
X160067Y183754D01*
X160067Y185891D02*
X161333Y185891D01*
X165067Y181617D02*
X166333Y181617D01*
X165067Y181617D02*
X165067Y187383D01*
X166333Y187383D01*
X166333Y181617D01*
X166333Y183754D02*
X165067Y183754D01*
X165067Y185891D02*
X166333Y185891D01*
X170067Y181617D02*
X171333Y181617D01*
X170067Y181617D02*
X170067Y187383D01*
X171333Y187383D01*
X171333Y181617D01*
X171333Y183754D02*
X170067Y183754D01*
X170067Y185891D02*
X171333Y185891D01*
X175067Y181617D02*
X176333Y181617D01*
X175067Y181617D02*
X175067Y187383D01*
X176333Y187383D01*
X176333Y181617D01*
X176333Y183754D02*
X175067Y183754D01*
X175067Y185891D02*
X176333Y185891D01*
X180067Y181617D02*
X181333Y181617D01*
X180067Y181617D02*
X180067Y187383D01*
X181333Y187383D01*
X181333Y181617D01*
X181333Y183754D02*
X180067Y183754D01*
X180067Y185891D02*
X181333Y185891D01*
X185067Y181617D02*
X186333Y181617D01*
X185067Y181617D02*
X185067Y187383D01*
X186333Y187383D01*
X186333Y181617D01*
X186333Y183754D02*
X185067Y183754D01*
X185067Y185891D02*
X186333Y185891D01*
X190067Y181617D02*
X191333Y181617D01*
X190067Y181617D02*
X190067Y187383D01*
X191333Y187383D01*
X191333Y181617D01*
X191333Y183754D02*
X190067Y183754D01*
X190067Y185891D02*
X191333Y185891D01*
X195067Y181617D02*
X196333Y181617D01*
X195067Y181617D02*
X195067Y187383D01*
X196333Y187383D01*
X196333Y181617D01*
X196333Y183754D02*
X195067Y183754D01*
X195067Y185891D02*
X196333Y185891D01*
X200067Y181617D02*
X201333Y181617D01*
X200067Y181617D02*
X200067Y187383D01*
X201333Y187383D01*
X201333Y181617D01*
X201333Y183754D02*
X200067Y183754D01*
X200067Y185891D02*
X201333Y185891D01*
D13*
X173200Y150000D03*
D14*
X229774Y173430D03*
X229774Y161430D03*
X229774Y149430D03*
D10*
X217860Y256680D03*
X234860Y256680D03*
D11*
X104112Y193851D03*
X104112Y174851D03*
X96492Y126480D03*
X96492Y107480D03*
D10*
X235684Y117524D03*
X235684Y134524D03*
X124432Y193806D03*
X124432Y176806D03*
X118336Y125226D03*
X118336Y108226D03*
D15*
X201258Y206642D03*
X184258Y206642D03*
X221850Y194958D03*
X238850Y194958D03*
X276578Y164088D03*
X276578Y147088D03*
X141822Y255410D03*
X124822Y255410D03*
D16*
X69121Y256063D02*
X69121Y245105D01*
X69121Y256063D02*
X74079Y256063D01*
X74079Y245105D01*
X69121Y245105D01*
X69121Y250861D02*
X74079Y250861D01*
X99479Y256063D02*
X99479Y245105D01*
X94521Y245105D01*
X94521Y256063D01*
X99479Y256063D01*
X99479Y250861D02*
X94521Y250861D01*
X244429Y252555D02*
X255387Y252555D01*
X255387Y247597D01*
X244429Y247597D01*
X244429Y252555D01*
X288371Y176609D02*
X299329Y176609D01*
X299329Y171651D01*
X288371Y171651D01*
X288371Y176609D01*
D17*
X336500Y149800D03*
X296500Y78800D03*
X255500Y7800D03*
X173500Y7800D03*
X91500Y7800D03*
X49500Y78800D03*
X9500Y149800D03*
X50500Y220800D03*
X91500Y291800D03*
X173500Y291800D03*
X255500Y292800D03*
X296500Y220800D03*
D18*
X141450Y277000D03*
X204950Y277000D03*
X141450Y226200D03*
X204950Y226200D03*
X147800Y48400D03*
X173200Y48400D03*
X198600Y48400D03*
D19*
X97000Y216675D03*
X97000Y83325D03*
X249400Y83325D03*
X249400Y216675D03*
D18*
X71600Y175400D03*
X71600Y150000D03*
X71600Y124600D03*
M02*
