G04 EAGLE Gerber RS-274X export*
G75*
%MOMM*%
%FSLAX34Y34*%
%LPD*%
%INSoldermask Top*%
%IPPOS*%
%AMOC8*
5,1,8,0,0,1.08239X$1,22.5*%
G01*
%ADD10R,0.901600X0.901600*%
%ADD11R,1.101600X1.201600*%
%ADD12R,1.201600X1.101600*%
%ADD13C,0.605878*%
%ADD14C,1.101597*%
%ADD15C,1.879600*%
%ADD16C,2.387600*%

G36*
X191639Y-500D02*
X191639Y-500D01*
X191719Y-494D01*
X191748Y-480D01*
X191780Y-475D01*
X191850Y-434D01*
X191923Y-400D01*
X191946Y-377D01*
X191974Y-361D01*
X192024Y-298D01*
X192081Y-242D01*
X192095Y-212D01*
X192115Y-187D01*
X192141Y-111D01*
X192174Y-37D01*
X192178Y-1D01*
X192187Y26D01*
X192186Y74D01*
X192194Y149D01*
X192124Y1679D01*
X192116Y1713D01*
X192115Y1759D01*
X191645Y4449D01*
X191632Y4483D01*
X191625Y4532D01*
X190705Y7432D01*
X190686Y7467D01*
X190668Y7522D01*
X189588Y9702D01*
X189562Y9737D01*
X189532Y9794D01*
X187712Y12284D01*
X187681Y12314D01*
X187644Y12363D01*
X185654Y14313D01*
X185625Y14333D01*
X185592Y14366D01*
X183712Y15786D01*
X183687Y15799D01*
X183659Y15822D01*
X181879Y16902D01*
X181845Y16915D01*
X181802Y16942D01*
X179702Y17852D01*
X179668Y17860D01*
X179625Y17880D01*
X176945Y18650D01*
X176904Y18654D01*
X176846Y18670D01*
X174366Y18970D01*
X174333Y18968D01*
X174290Y18974D01*
X171530Y18974D01*
X171484Y18966D01*
X171411Y18963D01*
X168741Y18453D01*
X168714Y18443D01*
X168676Y18437D01*
X166196Y17687D01*
X166156Y17667D01*
X166092Y17645D01*
X163282Y16215D01*
X163247Y16189D01*
X163190Y16158D01*
X160330Y14018D01*
X160297Y13982D01*
X160236Y13932D01*
X158126Y11562D01*
X158107Y11530D01*
X158073Y11492D01*
X156663Y9382D01*
X156647Y9347D01*
X156617Y9301D01*
X155287Y6491D01*
X155274Y6443D01*
X155242Y6364D01*
X154482Y3104D01*
X154481Y3080D01*
X154472Y3050D01*
X154338Y2117D01*
X154338Y2116D01*
X154102Y470D01*
X154103Y454D01*
X154098Y435D01*
X154078Y205D01*
X154087Y113D01*
X154089Y20D01*
X154097Y1D01*
X154099Y-19D01*
X154139Y-102D01*
X154173Y-188D01*
X154187Y-203D01*
X154195Y-221D01*
X154262Y-285D01*
X154325Y-354D01*
X154342Y-363D01*
X154357Y-377D01*
X154442Y-414D01*
X154524Y-456D01*
X154546Y-460D01*
X154562Y-467D01*
X154613Y-470D01*
X154709Y-484D01*
X191559Y-514D01*
X191639Y-500D01*
G37*
G36*
X52352Y58988D02*
X52352Y58988D01*
X52411Y58989D01*
X52471Y59012D01*
X52514Y59021D01*
X52543Y59039D01*
X52586Y59055D01*
X53166Y59375D01*
X53198Y59400D01*
X53249Y59429D01*
X55119Y60879D01*
X55145Y60908D01*
X55187Y60940D01*
X56737Y62550D01*
X56749Y62568D01*
X56769Y62586D01*
X58279Y64416D01*
X58301Y64454D01*
X58340Y64504D01*
X59780Y67014D01*
X59793Y67050D01*
X59820Y67096D01*
X60860Y69716D01*
X60868Y69757D01*
X60889Y69814D01*
X61499Y72584D01*
X61501Y72632D01*
X61514Y72708D01*
X61574Y75818D01*
X61569Y75848D01*
X61571Y75889D01*
X61321Y78549D01*
X61309Y78595D01*
X61298Y78670D01*
X60488Y81410D01*
X60469Y81447D01*
X60452Y81505D01*
X59102Y84315D01*
X59082Y84343D01*
X59062Y84385D01*
X57722Y86455D01*
X57693Y86487D01*
X57656Y86540D01*
X55886Y88460D01*
X55852Y88486D01*
X55808Y88531D01*
X53768Y90111D01*
X53742Y90125D01*
X53712Y90150D01*
X52182Y91090D01*
X52154Y91101D01*
X52120Y91124D01*
X49870Y92184D01*
X49833Y92194D01*
X49786Y92216D01*
X47896Y92796D01*
X47874Y92799D01*
X47849Y92809D01*
X45839Y93259D01*
X45811Y93260D01*
X45777Y93270D01*
X44057Y93480D01*
X44015Y93477D01*
X43956Y93484D01*
X41886Y93404D01*
X41859Y93398D01*
X41824Y93398D01*
X40134Y93168D01*
X40112Y93161D01*
X40081Y93159D01*
X38031Y92699D01*
X37995Y92684D01*
X37941Y92671D01*
X36031Y91931D01*
X36011Y91919D01*
X36006Y91917D01*
X36003Y91917D01*
X36002Y91916D01*
X35982Y91910D01*
X34285Y91080D01*
X34256Y91076D01*
X34192Y91053D01*
X34126Y91039D01*
X34087Y91015D01*
X34044Y91000D01*
X33993Y90957D01*
X33935Y90921D01*
X33907Y90885D01*
X33873Y90856D01*
X33839Y90797D01*
X33798Y90744D01*
X33784Y90700D01*
X33762Y90661D01*
X33751Y90594D01*
X33731Y90530D01*
X33733Y90484D01*
X33726Y90439D01*
X33739Y90373D01*
X33742Y90306D01*
X33762Y90257D01*
X33769Y90219D01*
X33790Y90185D01*
X33812Y90131D01*
X51732Y59291D01*
X51770Y59246D01*
X51800Y59196D01*
X51842Y59162D01*
X51877Y59120D01*
X51928Y59092D01*
X51974Y59055D01*
X52025Y59037D01*
X52073Y59011D01*
X52131Y59002D01*
X52186Y58983D01*
X52241Y58984D01*
X52294Y58976D01*
X52352Y58988D01*
G37*
G36*
X294197Y59041D02*
X294197Y59041D01*
X294221Y59040D01*
X294306Y59065D01*
X294393Y59084D01*
X294413Y59097D01*
X294436Y59104D01*
X294507Y59157D01*
X294582Y59205D01*
X294598Y59226D01*
X294615Y59239D01*
X294642Y59281D01*
X294699Y59352D01*
X312579Y90162D01*
X312609Y90246D01*
X312646Y90329D01*
X312647Y90351D01*
X312655Y90373D01*
X312654Y90463D01*
X312660Y90553D01*
X312654Y90574D01*
X312653Y90597D01*
X312621Y90681D01*
X312595Y90767D01*
X312582Y90786D01*
X312574Y90807D01*
X312514Y90874D01*
X312460Y90946D01*
X312439Y90960D01*
X312426Y90976D01*
X312382Y91000D01*
X312305Y91052D01*
X310995Y91682D01*
X310978Y91686D01*
X310960Y91697D01*
X309370Y92347D01*
X309345Y92352D01*
X309315Y92367D01*
X307745Y92847D01*
X307718Y92850D01*
X307685Y92862D01*
X305945Y93212D01*
X305920Y93212D01*
X305890Y93220D01*
X303990Y93430D01*
X303959Y93428D01*
X303920Y93434D01*
X302260Y93434D01*
X302229Y93429D01*
X302187Y93430D01*
X300127Y93190D01*
X300099Y93182D01*
X300061Y93179D01*
X298191Y92759D01*
X298159Y92745D01*
X298113Y92736D01*
X296163Y92026D01*
X296142Y92014D01*
X296112Y92005D01*
X294162Y91095D01*
X294129Y91072D01*
X294078Y91048D01*
X292158Y89768D01*
X292133Y89743D01*
X292092Y89717D01*
X290332Y88177D01*
X290319Y88160D01*
X290297Y88144D01*
X288827Y86644D01*
X288800Y86605D01*
X288751Y86550D01*
X287331Y84400D01*
X287316Y84364D01*
X287286Y84321D01*
X286286Y82201D01*
X286279Y82174D01*
X286262Y82143D01*
X285422Y79783D01*
X285417Y79748D01*
X285400Y79703D01*
X284840Y77083D01*
X284838Y77040D01*
X284826Y76978D01*
X284716Y74528D01*
X284722Y74490D01*
X284719Y74437D01*
X284999Y71647D01*
X285008Y71617D01*
X285008Y71590D01*
X285016Y71570D01*
X285023Y71528D01*
X285773Y69028D01*
X285785Y69002D01*
X285794Y68966D01*
X286664Y66876D01*
X286685Y66845D01*
X286704Y66797D01*
X288004Y64597D01*
X288030Y64567D01*
X288058Y64520D01*
X289898Y62260D01*
X289933Y62230D01*
X289978Y62178D01*
X290584Y61659D01*
X290600Y61621D01*
X290617Y61603D01*
X290626Y61586D01*
X290677Y61535D01*
X290725Y61482D01*
X292355Y60132D01*
X292378Y60119D01*
X292402Y60096D01*
X293792Y59146D01*
X293873Y59110D01*
X293951Y59068D01*
X293975Y59064D01*
X293997Y59055D01*
X294085Y59049D01*
X294174Y59036D01*
X294197Y59041D01*
G37*
G36*
X107581Y-484D02*
X107581Y-484D01*
X107662Y-470D01*
X107744Y-463D01*
X107772Y-450D01*
X107801Y-444D01*
X107872Y-402D01*
X107947Y-367D01*
X107968Y-346D01*
X107994Y-330D01*
X108046Y-266D01*
X108104Y-207D01*
X108117Y-179D01*
X108136Y-156D01*
X108162Y-78D01*
X108196Y-2D01*
X108199Y32D01*
X108207Y57D01*
X108206Y106D01*
X108213Y184D01*
X108093Y2394D01*
X108088Y2417D01*
X108088Y2447D01*
X107778Y4697D01*
X107769Y4725D01*
X107765Y4765D01*
X107265Y6755D01*
X107254Y6779D01*
X107248Y6812D01*
X106578Y8702D01*
X106565Y8725D01*
X106555Y8758D01*
X105645Y10708D01*
X105631Y10728D01*
X105620Y10756D01*
X104670Y12406D01*
X104649Y12431D01*
X104629Y12469D01*
X103229Y14349D01*
X103208Y14368D01*
X103187Y14399D01*
X101807Y15899D01*
X101785Y15916D01*
X101761Y15944D01*
X100411Y17144D01*
X100400Y17151D01*
X100388Y17164D01*
X99198Y18124D01*
X99166Y18141D01*
X99128Y18173D01*
X97608Y19093D01*
X97592Y19099D01*
X97574Y19112D01*
X96004Y19932D01*
X95982Y19939D01*
X95958Y19954D01*
X93938Y20814D01*
X93910Y20820D01*
X93874Y20837D01*
X91834Y21457D01*
X91806Y21460D01*
X91770Y21473D01*
X89340Y21943D01*
X89304Y21943D01*
X89256Y21953D01*
X86806Y22093D01*
X86781Y22090D01*
X86748Y22094D01*
X84738Y22024D01*
X84710Y22018D01*
X84672Y22018D01*
X82822Y21758D01*
X82797Y21750D01*
X82764Y21747D01*
X80994Y21327D01*
X80975Y21319D01*
X80949Y21315D01*
X79299Y20795D01*
X79279Y20784D01*
X79250Y20777D01*
X77540Y20077D01*
X77513Y20060D01*
X77475Y20046D01*
X75645Y19042D01*
X75596Y19017D01*
X75526Y18965D01*
X75452Y18918D01*
X75437Y18898D01*
X75417Y18883D01*
X75369Y18810D01*
X75316Y18740D01*
X75309Y18716D01*
X75295Y18695D01*
X75276Y18609D01*
X75250Y18525D01*
X75252Y18500D01*
X75246Y18476D01*
X75258Y18389D01*
X75263Y18301D01*
X75274Y18275D01*
X75277Y18253D01*
X75301Y18209D01*
X75334Y18128D01*
X86144Y-192D01*
X86150Y-200D01*
X86154Y-209D01*
X86223Y-285D01*
X86290Y-362D01*
X86299Y-367D01*
X86306Y-374D01*
X86397Y-421D01*
X86487Y-471D01*
X86496Y-472D01*
X86505Y-477D01*
X86691Y-504D01*
X107581Y-484D01*
G37*
G36*
X173634Y282009D02*
X173634Y282009D01*
X173661Y282007D01*
X174901Y282087D01*
X174920Y282092D01*
X174946Y282092D01*
X176556Y282312D01*
X176585Y282321D01*
X176625Y282325D01*
X178415Y282775D01*
X178441Y282787D01*
X178477Y282794D01*
X180237Y283434D01*
X180263Y283449D01*
X180301Y283462D01*
X182161Y284382D01*
X182189Y284402D01*
X182232Y284422D01*
X183912Y285542D01*
X183930Y285560D01*
X183959Y285577D01*
X185059Y286467D01*
X185076Y286487D01*
X185103Y286506D01*
X186363Y287736D01*
X186380Y287759D01*
X186407Y287784D01*
X187757Y289404D01*
X187776Y289437D01*
X187810Y289477D01*
X189080Y291537D01*
X189093Y291570D01*
X189119Y291611D01*
X190109Y293821D01*
X190119Y293860D01*
X190142Y293913D01*
X190832Y296433D01*
X190835Y296465D01*
X190842Y296491D01*
X190846Y296500D01*
X190845Y296501D01*
X190847Y296507D01*
X191157Y298597D01*
X191157Y298619D01*
X191163Y298647D01*
X191243Y299827D01*
X191233Y299914D01*
X191231Y300001D01*
X191221Y300024D01*
X191218Y300050D01*
X191179Y300128D01*
X191146Y300208D01*
X191129Y300228D01*
X191117Y300251D01*
X191054Y300310D01*
X190995Y300374D01*
X190972Y300386D01*
X190953Y300403D01*
X190873Y300437D01*
X190795Y300477D01*
X190767Y300481D01*
X190746Y300490D01*
X190696Y300491D01*
X190610Y300504D01*
X177561Y300504D01*
X164771Y300514D01*
X164770Y300514D01*
X155982Y300514D01*
X155936Y300518D01*
X155883Y300532D01*
X155825Y300527D01*
X155767Y300531D01*
X155714Y300516D01*
X155660Y300511D01*
X155607Y300486D01*
X155551Y300470D01*
X155507Y300437D01*
X155458Y300413D01*
X155417Y300371D01*
X155370Y300337D01*
X155333Y300284D01*
X155302Y300252D01*
X155289Y300221D01*
X155263Y300184D01*
X155253Y300164D01*
X155229Y300084D01*
X155213Y300046D01*
X155211Y300029D01*
X155193Y299974D01*
X155193Y299961D01*
X155189Y299948D01*
X155196Y299849D01*
X155199Y299749D01*
X155204Y299738D01*
X155205Y299725D01*
X155206Y299723D01*
X155337Y297689D01*
X155346Y297654D01*
X155348Y297606D01*
X155778Y295456D01*
X155789Y295428D01*
X155795Y295388D01*
X156305Y293778D01*
X156318Y293755D01*
X156326Y293722D01*
X157036Y292052D01*
X157055Y292024D01*
X157071Y291982D01*
X158281Y289892D01*
X158306Y289863D01*
X158333Y289816D01*
X159373Y288506D01*
X159387Y288493D01*
X159401Y288474D01*
X160791Y286944D01*
X160820Y286921D01*
X160854Y286883D01*
X162604Y285423D01*
X162635Y285405D01*
X162671Y285374D01*
X164141Y284444D01*
X164160Y284436D01*
X164181Y284421D01*
X165491Y283721D01*
X165517Y283712D01*
X165547Y283694D01*
X167117Y283044D01*
X167148Y283037D01*
X167187Y283020D01*
X169087Y282480D01*
X169114Y282477D01*
X169148Y282466D01*
X170878Y282156D01*
X170906Y282156D01*
X170942Y282148D01*
X172672Y282018D01*
X172691Y282019D01*
X172713Y282016D01*
X173613Y282006D01*
X173634Y282009D01*
G37*
G36*
X259732Y-502D02*
X259732Y-502D01*
X259744Y-504D01*
X259842Y-482D01*
X259941Y-465D01*
X259951Y-458D01*
X259963Y-456D01*
X260048Y-401D01*
X260134Y-351D01*
X260142Y-341D01*
X260152Y-334D01*
X260269Y-188D01*
X270779Y17972D01*
X270805Y18043D01*
X270838Y18111D01*
X270842Y18148D01*
X270855Y18183D01*
X270855Y18259D01*
X270863Y18334D01*
X270854Y18370D01*
X270853Y18408D01*
X270826Y18478D01*
X270808Y18551D01*
X270787Y18582D01*
X270773Y18617D01*
X270724Y18674D01*
X270681Y18736D01*
X270647Y18762D01*
X270625Y18786D01*
X270585Y18808D01*
X270531Y18848D01*
X269231Y19548D01*
X269212Y19555D01*
X269191Y19568D01*
X266971Y20568D01*
X266932Y20578D01*
X266882Y20601D01*
X264322Y21321D01*
X264297Y21323D01*
X264266Y21334D01*
X262276Y21704D01*
X262243Y21704D01*
X262200Y21713D01*
X259840Y21863D01*
X259815Y21860D01*
X259783Y21864D01*
X257523Y21804D01*
X257482Y21796D01*
X257423Y21793D01*
X254963Y21333D01*
X254942Y21325D01*
X254914Y21322D01*
X252154Y20572D01*
X252115Y20554D01*
X252056Y20537D01*
X249636Y19427D01*
X249607Y19407D01*
X249565Y19389D01*
X247555Y18139D01*
X247531Y18117D01*
X247495Y18096D01*
X245425Y16446D01*
X245406Y16425D01*
X245376Y16403D01*
X243446Y14513D01*
X243422Y14479D01*
X243378Y14435D01*
X241568Y11965D01*
X241552Y11930D01*
X241520Y11888D01*
X240190Y9388D01*
X240179Y9353D01*
X240155Y9310D01*
X239015Y6230D01*
X239008Y6191D01*
X238989Y6138D01*
X238319Y2888D01*
X238318Y2856D01*
X238308Y2813D01*
X238118Y563D01*
X238120Y540D01*
X238116Y510D01*
X238116Y140D01*
X238127Y75D01*
X238129Y10D01*
X238147Y-34D01*
X238155Y-81D01*
X238189Y-137D01*
X238213Y-198D01*
X238245Y-233D01*
X238270Y-274D01*
X238320Y-315D01*
X238365Y-364D01*
X238407Y-386D01*
X238444Y-415D01*
X238506Y-436D01*
X238564Y-466D01*
X238619Y-475D01*
X238656Y-487D01*
X238695Y-486D01*
X238750Y-494D01*
X259720Y-504D01*
X259732Y-502D01*
G37*
G36*
X45572Y207407D02*
X45572Y207407D01*
X45613Y207417D01*
X45672Y207422D01*
X48022Y207962D01*
X48051Y207974D01*
X48091Y207982D01*
X50271Y208752D01*
X50304Y208770D01*
X50352Y208787D01*
X52322Y209807D01*
X52350Y209828D01*
X52393Y209850D01*
X54243Y211140D01*
X54269Y211166D01*
X54310Y211194D01*
X55980Y212734D01*
X56002Y212763D01*
X56038Y212795D01*
X57918Y215065D01*
X57941Y215105D01*
X57983Y215160D01*
X59413Y217710D01*
X59414Y217711D01*
X59414Y217712D01*
X59428Y217753D01*
X59460Y217813D01*
X60330Y220333D01*
X60335Y220369D01*
X60352Y220416D01*
X60792Y222626D01*
X60793Y222660D01*
X60803Y222705D01*
X60953Y224835D01*
X60949Y224871D01*
X60953Y224920D01*
X60823Y226970D01*
X60817Y226995D01*
X60817Y227027D01*
X60587Y228507D01*
X60577Y228535D01*
X60573Y228573D01*
X60033Y230603D01*
X60018Y230635D01*
X60006Y230682D01*
X59206Y232622D01*
X59192Y232644D01*
X59181Y232676D01*
X58411Y234136D01*
X58389Y234164D01*
X58367Y234207D01*
X56927Y236237D01*
X56906Y236258D01*
X56884Y236291D01*
X55684Y237641D01*
X55655Y237664D01*
X55622Y237703D01*
X54192Y238923D01*
X54173Y238933D01*
X54154Y238952D01*
X52964Y239822D01*
X52952Y239828D01*
X52939Y239840D01*
X52089Y240400D01*
X52010Y240434D01*
X51934Y240474D01*
X51907Y240478D01*
X51883Y240488D01*
X51797Y240492D01*
X51711Y240504D01*
X51685Y240498D01*
X51659Y240499D01*
X51576Y240473D01*
X51492Y240454D01*
X51470Y240439D01*
X51445Y240431D01*
X51377Y240378D01*
X51305Y240331D01*
X51286Y240308D01*
X51268Y240293D01*
X51242Y240251D01*
X51189Y240184D01*
X49829Y237794D01*
X46229Y231464D01*
X46228Y231462D01*
X46227Y231461D01*
X40169Y220685D01*
X36790Y214817D01*
X36789Y214814D01*
X36787Y214811D01*
X34307Y210401D01*
X34292Y210357D01*
X34268Y210318D01*
X34255Y210252D01*
X34234Y210189D01*
X34235Y210143D01*
X34226Y210097D01*
X34237Y210031D01*
X34238Y209965D01*
X34255Y209922D01*
X34263Y209876D01*
X34296Y209818D01*
X34321Y209756D01*
X34352Y209722D01*
X34375Y209681D01*
X34426Y209639D01*
X34471Y209589D01*
X34512Y209568D01*
X34547Y209538D01*
X34626Y209508D01*
X34670Y209485D01*
X34693Y209482D01*
X34722Y209471D01*
X34726Y209470D01*
X35588Y209003D01*
X35617Y208993D01*
X35653Y208972D01*
X37913Y208062D01*
X37955Y208053D01*
X38011Y208031D01*
X40421Y207491D01*
X40454Y207490D01*
X40497Y207479D01*
X42917Y207239D01*
X42960Y207242D01*
X43022Y207237D01*
X45572Y207407D01*
G37*
G36*
X303378Y207272D02*
X303378Y207272D01*
X303436Y207268D01*
X305706Y207468D01*
X305735Y207476D01*
X305776Y207478D01*
X307806Y207888D01*
X307838Y207901D01*
X307884Y207909D01*
X309684Y208519D01*
X309707Y208532D01*
X309741Y208542D01*
X311821Y209482D01*
X311899Y209536D01*
X311980Y209585D01*
X311991Y209599D01*
X312006Y209609D01*
X312061Y209687D01*
X312119Y209761D01*
X312125Y209778D01*
X312135Y209793D01*
X312159Y209884D01*
X312188Y209974D01*
X312188Y209992D01*
X312192Y210010D01*
X312183Y210104D01*
X312179Y210198D01*
X312172Y210217D01*
X312170Y210233D01*
X312148Y210278D01*
X312112Y210373D01*
X295222Y240143D01*
X295184Y240189D01*
X295154Y240240D01*
X295112Y240274D01*
X295078Y240315D01*
X295026Y240345D01*
X294980Y240383D01*
X294930Y240401D01*
X294884Y240427D01*
X294825Y240437D01*
X294768Y240457D01*
X294715Y240455D01*
X294662Y240464D01*
X294604Y240453D01*
X294544Y240452D01*
X294494Y240432D01*
X294442Y240422D01*
X294391Y240391D01*
X294336Y240369D01*
X294287Y240328D01*
X294250Y240305D01*
X294229Y240278D01*
X294193Y240248D01*
X294190Y240245D01*
X293409Y239787D01*
X293387Y239768D01*
X293352Y239750D01*
X292232Y238920D01*
X292218Y238904D01*
X292195Y238889D01*
X290615Y237519D01*
X290593Y237493D01*
X290557Y237463D01*
X289447Y236223D01*
X289434Y236201D01*
X289409Y236176D01*
X288289Y234656D01*
X288274Y234625D01*
X288245Y234587D01*
X287165Y232637D01*
X287154Y232603D01*
X287129Y232561D01*
X286359Y230591D01*
X286354Y230562D01*
X286338Y230526D01*
X285818Y228606D01*
X285815Y228572D01*
X285802Y228528D01*
X285432Y225898D01*
X285434Y225854D01*
X285426Y225790D01*
X285486Y223910D01*
X285491Y223885D01*
X285490Y223853D01*
X285740Y221803D01*
X285751Y221769D01*
X285756Y221720D01*
X286296Y219650D01*
X286309Y219623D01*
X286317Y219584D01*
X286987Y217824D01*
X287006Y217794D01*
X287022Y217748D01*
X288202Y215568D01*
X288225Y215540D01*
X288248Y215496D01*
X289918Y213206D01*
X289954Y213171D01*
X290015Y213101D01*
X292865Y210631D01*
X292899Y210610D01*
X292941Y210574D01*
X295141Y209184D01*
X295184Y209167D01*
X295244Y209131D01*
X297634Y208171D01*
X297666Y208165D01*
X297707Y208147D01*
X300147Y207497D01*
X300194Y207493D01*
X300267Y207477D01*
X303337Y207267D01*
X303378Y207272D01*
G37*
G36*
X87674Y279320D02*
X87674Y279320D01*
X87706Y279318D01*
X89406Y279468D01*
X89433Y279476D01*
X89471Y279477D01*
X91021Y279777D01*
X91037Y279784D01*
X91060Y279786D01*
X93360Y280386D01*
X93393Y280402D01*
X93442Y280414D01*
X95142Y281114D01*
X95159Y281125D01*
X95184Y281133D01*
X96884Y281983D01*
X96913Y282005D01*
X96958Y282026D01*
X99008Y283426D01*
X99024Y283442D01*
X99048Y283456D01*
X100598Y284706D01*
X100618Y284729D01*
X100648Y284752D01*
X101948Y286052D01*
X101969Y286081D01*
X102004Y286115D01*
X103454Y288015D01*
X103465Y288037D01*
X103486Y288060D01*
X104786Y290110D01*
X104799Y290144D01*
X104826Y290185D01*
X105676Y292035D01*
X105682Y292058D01*
X105697Y292085D01*
X106347Y293885D01*
X106352Y293918D01*
X106369Y293961D01*
X106819Y295961D01*
X106820Y295983D01*
X106828Y296010D01*
X107078Y297760D01*
X107077Y297783D01*
X107083Y297812D01*
X107182Y299436D01*
X107227Y299757D01*
X107237Y299787D01*
X107236Y299844D01*
X107244Y299901D01*
X107232Y299956D01*
X107231Y300011D01*
X107209Y300064D01*
X107197Y300121D01*
X107167Y300168D01*
X107146Y300219D01*
X107107Y300261D01*
X107076Y300310D01*
X107032Y300343D01*
X106995Y300384D01*
X106943Y300411D01*
X106897Y300445D01*
X106844Y300461D01*
X106795Y300487D01*
X106726Y300497D01*
X106682Y300510D01*
X106651Y300508D01*
X106610Y300514D01*
X86760Y300504D01*
X86746Y300502D01*
X86732Y300504D01*
X86636Y300482D01*
X86539Y300464D01*
X86527Y300457D01*
X86513Y300454D01*
X86431Y300401D01*
X86346Y300350D01*
X86337Y300340D01*
X86325Y300332D01*
X86209Y300185D01*
X76299Y282845D01*
X76280Y282789D01*
X76251Y282737D01*
X76242Y282684D01*
X76224Y282633D01*
X76225Y282574D01*
X76216Y282516D01*
X76227Y282463D01*
X76227Y282409D01*
X76249Y282354D01*
X76261Y282296D01*
X76289Y282250D01*
X76309Y282200D01*
X76348Y282155D01*
X76379Y282105D01*
X76428Y282065D01*
X76457Y282032D01*
X76488Y282016D01*
X76524Y281986D01*
X76574Y281956D01*
X76599Y281946D01*
X76629Y281927D01*
X78529Y281027D01*
X78548Y281022D01*
X78570Y281009D01*
X80370Y280309D01*
X80397Y280304D01*
X80430Y280289D01*
X82230Y279789D01*
X82256Y279787D01*
X82287Y279776D01*
X83937Y279476D01*
X83961Y279476D01*
X83993Y279468D01*
X85643Y279318D01*
X85668Y279321D01*
X85700Y279316D01*
X87650Y279316D01*
X87674Y279320D01*
G37*
G36*
X260725Y279340D02*
X260725Y279340D01*
X260757Y279338D01*
X262407Y279488D01*
X262431Y279495D01*
X262463Y279496D01*
X264113Y279796D01*
X264137Y279805D01*
X264170Y279809D01*
X265970Y280309D01*
X265995Y280321D01*
X266030Y280329D01*
X267830Y281029D01*
X267847Y281039D01*
X267872Y281047D01*
X269772Y281947D01*
X269794Y281963D01*
X269826Y281976D01*
X269876Y282006D01*
X269921Y282045D01*
X269971Y282076D01*
X270005Y282118D01*
X270045Y282154D01*
X270073Y282206D01*
X270110Y282252D01*
X270127Y282304D01*
X270152Y282351D01*
X270161Y282409D01*
X270179Y282466D01*
X270176Y282520D01*
X270184Y282573D01*
X270171Y282631D01*
X270169Y282690D01*
X270145Y282750D01*
X270136Y282792D01*
X270117Y282822D01*
X270101Y282865D01*
X260191Y300205D01*
X260182Y300215D01*
X260177Y300228D01*
X260110Y300301D01*
X260047Y300377D01*
X260035Y300384D01*
X260025Y300394D01*
X259938Y300439D01*
X259852Y300488D01*
X259838Y300490D01*
X259826Y300496D01*
X259640Y300524D01*
X239790Y300534D01*
X239736Y300525D01*
X239681Y300525D01*
X239626Y300505D01*
X239569Y300495D01*
X239522Y300467D01*
X239470Y300448D01*
X239426Y300410D01*
X239376Y300381D01*
X239341Y300338D01*
X239299Y300302D01*
X239271Y300251D01*
X239235Y300207D01*
X239217Y300154D01*
X239190Y300106D01*
X239181Y300049D01*
X239163Y299994D01*
X239164Y299939D01*
X239156Y299884D01*
X239168Y299816D01*
X239169Y299770D01*
X239176Y299753D01*
X239218Y299456D01*
X239317Y297832D01*
X239322Y297809D01*
X239322Y297780D01*
X239572Y296030D01*
X239579Y296009D01*
X239581Y295981D01*
X240031Y293981D01*
X240044Y293949D01*
X240053Y293905D01*
X240703Y292105D01*
X240715Y292084D01*
X240724Y292055D01*
X241574Y290205D01*
X241594Y290175D01*
X241614Y290130D01*
X242914Y288080D01*
X242931Y288062D01*
X242946Y288035D01*
X244396Y286135D01*
X244422Y286111D01*
X244452Y286072D01*
X245752Y284772D01*
X245776Y284755D01*
X245802Y284726D01*
X247352Y283476D01*
X247372Y283466D01*
X247392Y283446D01*
X249442Y282046D01*
X249476Y282031D01*
X249516Y282003D01*
X251216Y281153D01*
X251236Y281147D01*
X251259Y281134D01*
X252959Y280434D01*
X252994Y280426D01*
X253040Y280406D01*
X255340Y279806D01*
X255358Y279805D01*
X255379Y279797D01*
X256929Y279497D01*
X256958Y279497D01*
X256994Y279488D01*
X258694Y279338D01*
X258719Y279340D01*
X258750Y279336D01*
X260700Y279336D01*
X260725Y279340D01*
G37*
G36*
X336705Y132562D02*
X336705Y132562D01*
X336732Y132561D01*
X336813Y132587D01*
X336897Y132606D01*
X336920Y132621D01*
X336946Y132629D01*
X337013Y132681D01*
X337085Y132728D01*
X337104Y132752D01*
X337123Y132767D01*
X337149Y132809D01*
X337201Y132875D01*
X346791Y149655D01*
X346793Y149662D01*
X346797Y149667D01*
X346831Y149768D01*
X346866Y149867D01*
X346866Y149874D01*
X346868Y149880D01*
X346864Y149986D01*
X346863Y150091D01*
X346860Y150098D01*
X346860Y150104D01*
X346793Y150280D01*
X337431Y167008D01*
X337431Y167021D01*
X337409Y167075D01*
X337396Y167132D01*
X337367Y167178D01*
X337346Y167228D01*
X337307Y167271D01*
X337276Y167321D01*
X337232Y167354D01*
X337195Y167394D01*
X337143Y167421D01*
X337096Y167456D01*
X337044Y167472D01*
X336995Y167497D01*
X336926Y167507D01*
X336881Y167520D01*
X336850Y167518D01*
X336810Y167524D01*
X336770Y167524D01*
X336768Y167524D01*
X336766Y167524D01*
X336671Y167507D01*
X336658Y167506D01*
X336651Y167503D01*
X336549Y167485D01*
X336547Y167484D01*
X336545Y167483D01*
X336451Y167426D01*
X336356Y167370D01*
X336355Y167369D01*
X336353Y167368D01*
X336334Y167344D01*
X335114Y166614D01*
X335095Y166598D01*
X335067Y166583D01*
X333447Y165403D01*
X333434Y165389D01*
X333423Y165383D01*
X333417Y165375D01*
X333395Y165361D01*
X332145Y164231D01*
X332125Y164205D01*
X332092Y164177D01*
X330652Y162527D01*
X330644Y162514D01*
X330631Y162501D01*
X329731Y161351D01*
X329714Y161320D01*
X329685Y161284D01*
X328585Y159434D01*
X328576Y159411D01*
X328559Y159386D01*
X327859Y157936D01*
X327853Y157914D01*
X327839Y157889D01*
X327079Y155929D01*
X327073Y155898D01*
X327056Y155860D01*
X326626Y154210D01*
X326624Y154177D01*
X326611Y154135D01*
X326241Y151385D01*
X326243Y151351D01*
X326236Y151306D01*
X326216Y149346D01*
X326221Y149316D01*
X326219Y149276D01*
X326449Y147026D01*
X326457Y146998D01*
X326459Y146959D01*
X326909Y144819D01*
X326921Y144791D01*
X326928Y144751D01*
X327608Y142691D01*
X327624Y142660D01*
X327638Y142615D01*
X328658Y140495D01*
X328673Y140475D01*
X328685Y140446D01*
X329855Y138476D01*
X329882Y138445D01*
X329913Y138394D01*
X331563Y136414D01*
X331588Y136392D01*
X331616Y136357D01*
X333216Y134857D01*
X333240Y134842D01*
X333265Y134816D01*
X334745Y133686D01*
X334763Y133677D01*
X334781Y133660D01*
X336301Y132660D01*
X336380Y132627D01*
X336455Y132586D01*
X336482Y132583D01*
X336508Y132572D01*
X336593Y132568D01*
X336678Y132556D01*
X336705Y132562D01*
G37*
G36*
X9842Y132552D02*
X9842Y132552D01*
X9925Y132560D01*
X9955Y132574D01*
X9980Y132579D01*
X10022Y132605D01*
X10096Y132638D01*
X11526Y133568D01*
X11549Y133590D01*
X11586Y133612D01*
X13726Y135392D01*
X13743Y135413D01*
X13771Y135434D01*
X15321Y137004D01*
X15338Y137029D01*
X15367Y137056D01*
X16697Y138736D01*
X16718Y138775D01*
X16756Y138824D01*
X16966Y139206D01*
X17314Y139840D01*
X17314Y139841D01*
X17663Y140475D01*
X17916Y140934D01*
X17923Y140955D01*
X17937Y140977D01*
X19047Y143417D01*
X19058Y143458D01*
X19082Y143513D01*
X19832Y146253D01*
X19836Y146299D01*
X19852Y146371D01*
X20122Y149821D01*
X20119Y149852D01*
X20124Y149894D01*
X20024Y152564D01*
X20014Y152611D01*
X20007Y152687D01*
X19247Y155887D01*
X19232Y155921D01*
X19221Y155970D01*
X18171Y158670D01*
X18150Y158705D01*
X18128Y158760D01*
X16698Y161210D01*
X16671Y161241D01*
X16641Y161291D01*
X14411Y164021D01*
X14379Y164049D01*
X14341Y164095D01*
X12501Y165725D01*
X12470Y165744D01*
X12433Y165777D01*
X10238Y167250D01*
X10152Y167321D01*
X10146Y167324D01*
X10142Y167328D01*
X10049Y167378D01*
X9956Y167430D01*
X9950Y167431D01*
X9944Y167434D01*
X9839Y167448D01*
X9734Y167464D01*
X9728Y167463D01*
X9722Y167464D01*
X9619Y167440D01*
X9514Y167419D01*
X9509Y167416D01*
X9503Y167414D01*
X9415Y167357D01*
X9324Y167300D01*
X9320Y167295D01*
X9315Y167292D01*
X9199Y167145D01*
X-411Y150315D01*
X-414Y150306D01*
X-420Y150298D01*
X-452Y150200D01*
X-486Y150103D01*
X-486Y150094D01*
X-489Y150084D01*
X-484Y149981D01*
X-483Y149879D01*
X-479Y149870D01*
X-479Y149860D01*
X-411Y149686D01*
X9199Y132856D01*
X9253Y132791D01*
X9301Y132722D01*
X9325Y132706D01*
X9343Y132683D01*
X9416Y132642D01*
X9485Y132594D01*
X9513Y132587D01*
X9538Y132572D01*
X9621Y132559D01*
X9702Y132538D01*
X9731Y132541D01*
X9759Y132536D01*
X9842Y132552D01*
G37*
D10*
X49890Y113170D03*
X34890Y113170D03*
D11*
X286321Y130950D03*
X303321Y130950D03*
D12*
X45312Y128800D03*
X45312Y145800D03*
D13*
X74079Y245105D02*
X74079Y256063D01*
X74079Y245105D02*
X69121Y245105D01*
X69121Y256063D01*
X74079Y256063D01*
X74079Y250861D02*
X69121Y250861D01*
X94521Y256063D02*
X94521Y245105D01*
X94521Y256063D02*
X99479Y256063D01*
X99479Y245105D01*
X94521Y245105D01*
X94521Y250861D02*
X99479Y250861D01*
X244429Y247597D02*
X255387Y247597D01*
X244429Y247597D02*
X244429Y252555D01*
X255387Y252555D01*
X255387Y247597D01*
X288371Y171651D02*
X299329Y171651D01*
X288371Y171651D02*
X288371Y176609D01*
X299329Y176609D01*
X299329Y171651D01*
D14*
X296500Y220800D03*
X296500Y78800D03*
X336500Y149800D03*
X255500Y7800D03*
X173500Y7800D03*
X91500Y7800D03*
X49500Y78800D03*
X9500Y149800D03*
X50500Y220800D03*
X91500Y291800D03*
X173500Y291800D03*
X255500Y292800D03*
D15*
X141450Y277000D03*
X204950Y277000D03*
X141450Y226200D03*
X204950Y226200D03*
X147800Y48400D03*
X173200Y48400D03*
X198600Y48400D03*
D16*
X97000Y216675D03*
X97000Y83325D03*
X249400Y83325D03*
X249400Y216675D03*
D15*
X71600Y175400D03*
X71600Y150000D03*
X71600Y124600D03*
M02*
